<svg width="45" height="45" viewBox="0 0 45 45" fill="none" xmlns="http://www.w3.org/2000/svg">
<g clip-path="url(#clip0_101_1578)">
<path d="M44.9998 28.796C44.76 29.8505 44.3718 30.8096 43.6029 31.5486C42.8149 32.3042 41.9014 32.7235 40.847 32.7235C31.1215 32.7318 21.396 32.7443 11.6704 32.7318C10.1593 32.7318 9.02496 31.9305 8.12663 30.6103C7.59753 29.8298 7.47192 28.9953 7.47192 28.0985C7.47192 20.2726 7.46431 12.4426 7.48715 4.61666C7.49476 2.06753 9.23812 0.14946 11.5639 0.012455C11.6819 0.00415167 11.7999 0 11.9141 0C21.4645 0 31.0149 0 40.5653 0C42.4838 0 43.8731 0.91752 44.6725 2.83559C44.8209 3.19264 44.8933 3.58705 45.0036 3.96485V28.796H44.9998ZM23.322 21.24C23.4553 21.0781 23.5428 20.9701 23.6265 20.8622C25.8191 17.9934 28.0116 15.1204 30.2079 12.2516C31.662 10.3543 33.9459 10.3335 35.4114 12.2018C37.5544 14.9336 39.6974 17.6571 41.8405 20.3889C41.928 20.501 42.0003 20.6297 42.0803 20.7542C42.1792 20.584 42.1831 20.5051 42.1831 20.4304C42.1831 15.191 42.1831 9.95156 42.1831 4.71215C42.1831 4.55439 42.1678 4.39247 42.1336 4.23886C41.9432 3.45835 41.4218 3.08885 40.5272 3.08885C31.6239 3.08885 22.7168 3.08885 13.8135 3.08885C13.1093 3.08885 12.4051 3.05148 11.7047 3.1096C11.3926 3.13451 11.05 3.28398 10.7912 3.48326C10.361 3.81539 10.3039 4.35511 10.3039 4.90313C10.3039 11.55 10.3039 18.1926 10.3039 24.8395C10.3039 24.9931 10.3192 25.1467 10.323 25.3003C10.3801 25.3501 10.441 25.4041 10.4981 25.4539C10.5742 25.3003 10.6161 25.1093 10.7264 24.9931C12.5726 22.9629 14.4263 20.941 16.2839 18.9233C17.7608 17.3166 19.7211 17.3125 21.1942 18.9067C21.9022 19.6706 22.595 20.447 23.3182 21.2441L23.322 21.24ZM10.913 29.2153C10.913 29.2818 10.913 29.344 10.913 29.4105C11.286 29.481 11.659 29.618 12.0359 29.618C17.6047 29.6305 23.1698 29.6264 28.7386 29.6264H29.1079C27.5777 27.9574 26.0475 26.2843 24.5096 24.607C23.6722 25.3543 23.0137 25.3169 22.1839 24.416C21.2209 23.3656 20.2578 22.3153 19.2948 21.2649C18.7695 20.6919 18.72 20.6919 18.21 21.2483C15.888 23.7766 13.5699 26.3092 11.2479 28.8417C11.1337 28.9662 11.0272 29.0949 10.9168 29.2195L10.913 29.2153Z" fill="#0D504D"/>
<path d="M32.5185 45C30.9007 44.5184 29.2868 44.0327 27.6691 43.5594C19.5347 41.1846 11.3964 38.8182 3.26203 36.4351C0.829698 35.721 -0.472112 33.2757 0.155955 30.6311C1.1837 26.2842 2.22286 21.9416 3.25822 17.5989C3.49803 16.5901 4.21364 16.0711 5.03965 16.2995C5.86184 16.532 6.25391 17.3623 6.01029 18.3795C4.98636 22.664 3.96622 26.9485 2.94228 31.233C2.6568 32.4204 3.04125 33.1594 4.10706 33.4708C13.0332 36.0739 21.9594 38.677 30.8855 41.2801C31.5326 41.4711 32.1835 41.6621 32.8344 41.8406C33.611 42.0565 34.3228 41.6122 34.5283 40.7653C34.8633 39.362 35.1716 37.9546 35.4952 36.5472C35.7121 35.6172 36.4392 35.0983 37.2347 35.3017C38.0112 35.501 38.4528 36.3562 38.2472 37.2779C37.9427 38.6562 37.6496 40.0346 37.3184 41.4046C36.8693 43.2604 35.7882 44.4437 34.0639 44.9004C34.0144 44.9128 33.9726 44.9626 33.9269 44.9917H32.5223L32.5185 45Z" fill="#0D504D"/>
<path d="M23.3219 21.2441C22.5987 20.447 21.9021 19.6706 21.1979 18.9067C19.721 17.3125 17.7645 17.3166 16.2876 18.9233C14.43 20.941 12.5763 22.9629 10.7301 24.9931C10.6236 25.1135 10.5779 25.3003 10.5017 25.4539C10.4446 25.4041 10.3837 25.3501 10.3266 25.3003C10.319 25.1467 10.3076 24.9931 10.3076 24.8395C10.3076 18.1926 10.3076 11.55 10.3076 4.90313C10.3076 4.35511 10.3647 3.81539 10.7948 3.48325C11.0537 3.28397 11.3963 3.13451 11.7084 3.1096C12.4088 3.05563 13.113 3.08885 13.8172 3.08885C22.7205 3.08885 31.6276 3.08885 40.5309 3.08885C41.4254 3.08885 41.9469 3.45834 42.1373 4.23886C42.1753 4.39247 42.1867 4.55439 42.1867 4.71215C42.1867 9.95156 42.1867 15.191 42.1867 20.4304C42.1867 20.5093 42.1791 20.584 42.084 20.7542C42.004 20.6338 41.9355 20.5051 41.8442 20.3889C39.7011 17.6571 37.5581 14.9294 35.415 12.2018C33.9496 10.3335 31.6657 10.3543 30.2116 12.2516C28.0153 15.1204 25.8228 17.9934 23.6302 20.8622C23.5465 20.9701 23.4551 21.0781 23.3257 21.24L23.3219 21.2441ZM16.8585 14.3233C18.9331 14.3233 20.646 12.4675 20.6346 10.2214C20.6231 7.97537 18.9483 6.15693 16.8852 6.14863C14.8069 6.14033 13.1016 7.98782 13.1092 10.2422C13.1168 12.4758 14.8107 14.3191 16.8623 14.3233H16.8585Z" fill="white"/>
<path d="M10.9169 29.2195C11.0273 29.0949 11.1339 28.9662 11.2481 28.8417C13.57 26.3092 15.8881 23.7808 18.2101 21.2483C18.7201 20.6919 18.7734 20.6919 19.2949 21.2649C20.2579 22.3153 21.221 23.3656 22.184 24.416C23.01 25.3169 23.6685 25.3543 24.5098 24.607C26.0476 26.2843 27.5816 27.9574 29.108 29.6263H28.7388C23.1699 29.6263 17.6048 29.6305 12.036 29.618C11.663 29.618 11.2899 29.481 10.9131 29.4105C10.9131 29.344 10.9131 29.2818 10.9131 29.2153L10.9169 29.2195Z" fill="white"/>
<path d="M16.8587 14.3233C14.8108 14.3233 13.1131 12.4758 13.1055 10.2422C13.0979 7.98782 14.8032 6.14033 16.8815 6.14863C18.9446 6.15694 20.6233 7.97537 20.6309 10.2214C20.6423 12.4675 18.9294 14.3274 16.8549 14.3233H16.8587ZM17.7342 10.209C17.7265 9.6568 17.3459 9.25409 16.8396 9.27484C16.36 9.29145 16.0098 9.69416 16.0098 10.2339C16.0098 10.7736 16.4095 11.222 16.8815 11.2137C17.3611 11.2054 17.7418 10.757 17.7342 10.209Z" fill="#FDB10B"/>
<path d="M17.7341 10.2048C17.7417 10.7487 17.3611 11.1971 16.8814 11.2095C16.4094 11.2178 16.0098 10.7694 16.0098 10.2297C16.0098 9.69416 16.36 9.28729 16.8396 9.27069C17.3458 9.25408 17.7265 9.65264 17.7341 10.2048Z" fill="white"/>
</g>
<defs>
<clipPath id="clip0_101_1578">
<rect width="45" height="45" fill="white"/>
</clipPath>
</defs>
</svg>
