<svg width="45" height="46" viewBox="0 0 45 46" fill="none" xmlns="http://www.w3.org/2000/svg">
<g clip-path="url(#clip0_95_1377)">
<path d="M31.6071 45.5002C28.1263 45.4916 25.5571 44.7684 23.1574 43.5317C13.4443 38.5294 6.16051 31.1649 1.89963 20.9376C0.534454 17.664 -0.126936 14.2321 0.0214526 10.6675C0.123205 8.15992 0.653165 5.76785 2.0989 3.65393C3.52343 1.57424 5.58816 0.709845 7.98358 0.517282C8.61529 0.465931 9.25548 0.551515 9.89144 0.598586C10.4129 0.637099 10.7648 0.940922 10.9598 1.41163C12.414 4.92913 13.8683 8.44663 15.3097 11.9684C15.5557 12.5718 15.3733 13.0896 14.9494 13.5517C13.6732 14.9467 12.4056 16.3546 11.1252 17.7453C10.9344 17.9507 10.875 18.1304 10.9641 18.4171C13.2196 25.5548 17.5695 30.7369 24.6286 33.4243C25.1543 33.6254 25.4256 33.5141 25.7563 33.1033C26.8332 31.7597 27.9482 30.4417 29.0506 29.1151C29.6314 28.4133 30.1486 28.2807 30.9627 28.6615C34.329 30.2363 37.6868 31.8196 41.0489 33.4029C41.6382 33.681 41.9986 34.1346 41.9477 34.7979C41.7145 37.6692 40.8326 40.2838 38.751 42.3421C36.5675 44.4988 33.8923 45.4745 31.6029 45.5002H31.6071ZM39.5989 38.0116C39.4675 37.9346 39.3996 37.8875 39.3233 37.8532C35.7365 36.163 32.1498 34.4812 28.5672 32.7824C28.2789 32.6455 28.1475 32.7439 27.9822 32.9536C27.5158 33.5313 27.0198 34.0876 26.5619 34.6695C26.0701 35.2943 25.4935 35.4441 24.7346 35.1873C20.8595 33.8907 17.5356 31.7554 14.8095 28.6701C12.2063 25.726 10.379 22.3583 9.3106 18.5669C9.11557 17.878 9.24276 17.3174 9.75153 16.8125C10.2094 16.3631 10.6079 15.8582 11.0616 15.4046C11.3541 15.1093 11.3753 14.8611 11.21 14.4675C9.75577 11.0484 8.33123 7.61218 6.89822 4.18455C6.66504 3.63253 6.42337 3.0848 6.19019 2.54562C6.06724 2.56702 6.01636 2.57129 5.97397 2.58841C4.32473 3.19606 3.32841 4.46698 2.65006 6.01605C1.41631 8.83175 1.45871 11.7801 1.89115 14.7542C2.37448 18.0449 3.56583 21.0916 5.12603 23.9972C8.61953 30.493 13.5884 35.5981 19.6597 39.6548C22.2204 41.3665 24.9211 42.7914 27.9482 43.4847C30.5302 44.0752 33.0486 43.9682 35.4482 42.7187C37.4112 41.696 38.7806 40.1341 39.5947 38.0159L39.5989 38.0116ZM7.80551 2.13054C9.43355 6.02032 11.0277 9.82025 12.6472 13.6801C12.9864 13.3121 13.3001 13.0254 13.546 12.6873C13.6478 12.5461 13.6987 12.2722 13.6351 12.1182C12.325 8.89594 10.998 5.67799 9.66673 2.46859C9.61162 2.33594 9.45899 2.15621 9.34028 2.14765C8.86543 2.10914 8.38211 2.13054 7.80975 2.13054H7.80551ZM40.0992 36.4026C40.167 36.0132 40.184 35.6923 40.2815 35.397C40.4256 34.9477 40.2052 34.7808 39.8406 34.6139C37.0424 33.3045 34.2527 31.9779 31.4587 30.6599C30.6532 30.2805 29.9819 30.4502 29.4449 31.1691C29.4152 31.2077 29.394 31.2547 29.3431 31.3489C32.9129 33.0263 36.4743 34.6995 40.0992 36.4069V36.4026Z" fill="#0D504D"/>
<path d="M34.5193 22.1356C34.2267 22.1356 34.0105 22.1356 33.7943 22.1356C29.8938 22.1356 25.9933 22.1442 22.0885 22.1228C21.5798 22.1228 21.0328 22.0586 20.5707 21.8617C19.6719 21.4809 19.1928 20.7149 19.1928 19.735C19.1759 14.8139 19.1801 9.89283 19.1928 4.97176C19.1928 3.73507 20.1171 2.74658 21.3381 2.60537C21.5035 2.58825 21.673 2.58397 21.8426 2.58397C28.6855 2.58397 35.5326 2.58397 42.3754 2.58397C43.7152 2.58397 44.6436 3.25152 44.9362 4.43258C44.9913 4.65938 45.004 4.90329 45.004 5.13865C45.004 9.9399 45.0083 14.7454 45.004 19.5467C45.004 21.053 44.0798 22.0372 42.5959 22.1228C42.4772 22.1313 42.3585 22.1527 42.244 22.1313C40.9763 21.9045 40.0648 22.3966 39.2592 23.3937C38.4198 24.4293 37.4235 25.3279 36.5035 26.295C36.1219 26.6972 35.7234 27.0224 35.1383 26.7785C34.5702 26.5432 34.5193 26.0468 34.5278 25.5076C34.5405 24.4079 34.5278 23.3081 34.5278 22.1356H34.5193ZM36.1176 23.9928C37.1352 23.0471 38.229 22.0671 39.2847 21.0487C39.662 20.6807 40.0605 20.4924 40.582 20.501C41.2519 20.5138 41.926 20.5181 42.5959 20.471C43.1555 20.4325 43.3845 20.1543 43.3845 19.6237C43.3845 14.7711 43.3845 9.91851 43.3887 5.07018C43.3887 4.59091 43.147 4.34272 42.7273 4.25285C42.5026 4.2015 42.2609 4.20578 42.0278 4.20578C35.4054 4.20578 28.7787 4.20578 22.1564 4.20578C21.9698 4.20578 21.7833 4.2015 21.601 4.2229C21.0117 4.29137 20.7785 4.56096 20.7785 5.16004C20.7785 9.9613 20.7785 14.7626 20.7785 19.5638C20.7785 20.1415 21.0032 20.4068 21.5628 20.4838C21.796 20.5181 22.0334 20.5138 22.2666 20.5138C26.4172 20.5223 30.5721 20.5223 34.7228 20.5309C35.6894 20.5309 36.1092 20.9631 36.1134 21.9259C36.1134 22.6833 36.1134 23.4408 36.1134 24.0013L36.1176 23.9928Z" fill="#0D504D"/>
<path d="M39.599 38.0114C38.7807 40.1296 37.4156 41.6915 35.4526 42.7142C33.0572 43.9638 30.5388 44.0707 27.9526 43.4802C24.9254 42.787 22.2248 41.362 19.664 39.6503C13.5928 35.5979 8.61962 30.4886 5.13036 23.9928C3.56592 21.0872 2.3788 18.0404 1.89548 14.7497C1.45879 11.78 1.42064 8.83159 2.65438 6.0116C3.33273 4.46681 4.32482 3.19161 5.9783 2.58397C6.02493 2.56685 6.07581 2.56257 6.19452 2.54118C6.4277 3.08035 6.6736 3.62809 6.90255 4.18011C8.3398 7.60774 9.76009 11.0397 11.2143 14.463C11.3797 14.8567 11.3585 15.1092 11.0659 15.4002C10.6123 15.8537 10.2137 16.3587 9.75585 16.808C9.24285 17.313 9.1199 17.8735 9.31493 18.5625C10.3833 22.3538 12.2106 25.7216 14.8138 28.6657C17.5399 31.7509 20.8638 33.8863 24.7389 35.1829C25.4978 35.4353 26.0702 35.2898 26.5662 34.6651C27.0283 34.0831 27.5201 33.5268 27.9865 32.9491C28.1518 32.7394 28.2833 32.641 28.5716 32.778C32.1541 34.4768 35.7409 36.1585 39.3276 37.8488C39.404 37.883 39.4718 37.9301 39.6032 38.0071L39.599 38.0114Z" fill="#FDB10B"/>
<path d="M7.80502 2.13037C8.38162 2.13037 8.8607 2.10897 9.33555 2.14749C9.45426 2.15605 9.60265 2.33577 9.662 2.46843C10.9975 5.6821 12.3245 8.89577 13.6303 12.118C13.6939 12.2763 13.6473 12.5502 13.5413 12.6871C13.2954 13.0209 12.9817 13.3119 12.6425 13.6799C11.0229 9.82008 9.43306 6.01588 7.80078 2.13037H7.80502Z" fill="#C4FBBC"/>
<path d="M40.0989 36.3982C36.4739 34.6908 32.9126 33.0176 29.3428 31.3401C29.3936 31.246 29.4148 31.1989 29.4445 31.1604C29.9816 30.4444 30.6528 30.2746 31.4584 30.6512C34.2523 31.9692 37.042 33.2957 39.8402 34.6052C40.2048 34.7763 40.4253 34.9389 40.2812 35.3883C40.1879 35.6835 40.1667 36.0087 40.0989 36.3939V36.3982Z" fill="#C4FBBC"/>
<path d="M36.1181 23.9928C36.1181 23.4322 36.1181 22.6748 36.1181 21.9174C36.1139 20.9545 35.6899 20.5266 34.7275 20.5224C30.5769 20.5138 26.422 20.5095 22.2713 20.5052C22.0381 20.5052 21.8007 20.5052 21.5675 20.4753C21.0079 20.3983 20.7832 20.1329 20.7832 19.5553C20.7832 14.754 20.7832 9.95274 20.7832 5.15149C20.7832 4.5524 21.0206 4.28281 21.6057 4.21434C21.788 4.19295 21.9746 4.19723 22.1611 4.19723C28.7835 4.19723 35.4101 4.19723 42.0325 4.19723C42.2657 4.19723 42.5073 4.19723 42.732 4.2443C43.1518 4.33844 43.3934 4.58235 43.3934 5.06162C43.385 9.91423 43.3934 14.7668 43.3892 19.6152C43.3892 20.1501 43.1603 20.4239 42.6006 20.4624C41.9307 20.5095 41.2566 20.5052 40.5868 20.4924C40.0653 20.4796 39.6668 20.6721 39.2894 21.0401C38.2337 22.0586 37.1441 23.0428 36.1224 23.9842L36.1181 23.9928ZM30.2504 12.0966C29.7289 11.5489 29.2753 11.0482 28.792 10.5732C27.6981 9.49487 26.0913 9.47775 25.0356 10.5219C23.9842 11.5617 23.9587 13.1964 25.0229 14.309C26.1803 15.5157 27.359 16.701 28.5503 17.8692C29.5381 18.8406 30.9712 18.8577 31.9463 17.8864C34.3841 15.4558 36.8007 13.0038 39.2173 10.5518C39.688 10.0768 39.9296 9.47775 39.9339 8.8102C39.9423 7.67193 39.4293 6.82037 38.416 6.31971C37.4409 5.83616 36.2835 6.033 35.4737 6.81609C34.5537 7.71044 33.6634 8.63047 32.7603 9.54194C31.942 10.3678 31.128 11.198 30.2419 12.0966H30.2504Z" fill="#00847E"/>
<path d="M30.2502 12.0966C31.1363 11.198 31.9504 10.3678 32.7686 9.54194C33.6717 8.63047 34.562 7.71044 35.482 6.81609C36.2918 6.02872 37.4492 5.83615 38.4244 6.3197C39.4376 6.82465 39.9506 7.67193 39.9422 8.81019C39.9379 9.47775 39.692 10.0768 39.2257 10.5518C36.809 13.0038 34.3924 15.4558 31.9546 17.8864C30.9752 18.862 29.5465 18.8406 28.5586 17.8692C27.3673 16.701 26.1886 15.5157 25.0312 14.309C23.967 13.1964 23.9925 11.5617 25.0439 10.5219C26.0996 9.48203 27.7022 9.49486 28.8003 10.5732C29.2794 11.0439 29.733 11.5489 30.2587 12.0966H30.2502ZM26.7991 11.2622C26.4939 11.5403 26.1632 11.7414 25.9724 12.0367C25.6968 12.4689 25.9046 12.8925 26.231 13.2263C27.2909 14.3132 28.3636 15.3873 29.4362 16.4657C30.0891 17.1204 30.4326 17.1247 31.0855 16.4657C32.5142 15.0279 33.9345 13.5901 35.3633 12.1522C36.1943 11.3135 37.0253 10.4748 37.8562 9.63608C38.1785 9.31086 38.4201 8.94713 38.2802 8.4593C38.0555 7.66765 37.144 7.47509 36.5165 8.10413C34.6934 9.93134 32.8831 11.7714 31.0643 13.6029C30.4707 14.202 30.0807 14.1977 29.4829 13.5986C28.8724 12.991 28.283 12.3662 27.6556 11.7757C27.4478 11.5831 27.1638 11.4761 26.7991 11.2665V11.2622Z" fill="#0D504D"/>
<path d="M26.7995 11.2622C27.1599 11.4719 27.4482 11.5788 27.6559 11.7714C28.2834 12.3619 28.8727 12.9867 29.4832 13.5943C30.0853 14.1934 30.4711 14.1977 31.0646 13.5986C32.8835 11.7671 34.698 9.92706 36.5169 8.09985C37.1401 7.47509 38.0559 7.66337 38.2806 8.45502C38.4163 8.94285 38.1788 9.30658 37.8566 9.6318C37.0256 10.4705 36.1947 11.3092 35.3637 12.148C33.9391 13.5858 32.5146 15.0236 31.0858 16.4614C30.4329 17.1204 30.0895 17.1161 29.4366 16.4614C28.3682 15.383 27.2956 14.309 26.2314 13.222C25.9049 12.8883 25.6972 12.4689 25.9728 12.0324C26.1593 11.7372 26.4943 11.536 26.7995 11.2579V11.2622Z" fill="#C4FBBC"/>
</g>
<defs>
<clipPath id="clip0_95_1377">
<rect width="45" height="45" fill="white" transform="translate(0 0.5)"/>
</clipPath>
</defs>
</svg>
