<svg width="58" height="58" viewBox="0 0 58 58" fill="none" xmlns="http://www.w3.org/2000/svg">
<g clip-path="url(#clip0_136_1203)">
<path d="M0 28.5223C0 21.6144 0 14.7066 0 7.79875C0 3.39581 3.92414 0 9.00769 0C22.3409 0 35.674 0 49.022 0C54.061 0 58 3.40873 58 7.76002C58 19.2645 58 30.756 58 42.2605C58 43.6033 57.3757 44.1972 55.8596 44.4942C55.4285 44.5846 54.9826 44.9461 54.7299 45.2948C53.6894 46.728 53.4516 48.3419 53.5853 49.9947C53.6745 51.118 53.9421 52.2284 54.6407 53.2097C54.9974 53.7262 55.4136 54.1006 56.2014 54.1652C57.3311 54.2685 58.0892 55.2498 58 56.2827C57.9108 57.2124 56.9595 57.9742 55.8447 58C55.7109 58 55.5623 58 55.4285 58C40.3265 58 25.2245 58 10.1225 58C4.42952 58 0 54.1652 0 49.2458C0 42.3379 0 35.4301 0 28.5223ZM53.511 40.6077C53.511 40.427 53.5259 40.3495 53.5259 40.272C53.5259 29.4777 53.5259 18.6834 53.5259 7.90205C53.5259 7.46305 53.4367 7.01113 53.2881 6.59795C52.6935 4.88068 50.999 3.88647 48.7099 3.87355C35.6294 3.87355 22.5638 3.87355 9.48334 3.87355C6.28754 3.87355 4.45925 5.4488 4.45925 8.19902C4.45925 19.2257 4.45925 30.2654 4.45925 41.2921C4.45925 41.5116 4.45925 41.7182 4.45925 41.9635C4.59303 41.9377 4.66735 41.9377 4.72681 41.8989C6.51051 40.9435 8.45771 40.5819 10.5684 40.5819C24.6002 40.6077 38.632 40.5819 52.6489 40.5819H53.511V40.6077ZM50.1071 54.1394C48.7099 50.8727 48.7248 47.6964 50.1071 44.4684H49.2004C36.6996 44.4684 24.1989 44.4684 11.6981 44.4684C11.1184 44.4684 10.5387 44.4555 9.95899 44.4684C6.1835 44.5975 3.62686 47.6834 4.75654 50.7694C5.49974 52.8224 7.66991 54.1264 10.3455 54.1264C23.3813 54.1264 36.4172 54.1264 49.4382 54.1264C49.6166 54.1264 49.8098 54.1264 50.1071 54.1264V54.1394Z" fill="#0D504D"/>
<path d="M53.5112 40.5946H52.6491C38.6173 40.5946 24.5856 40.5946 10.5686 40.5946C8.4728 40.5946 6.52559 40.9561 4.72703 41.9116C4.66757 41.9374 4.60811 41.9374 4.45947 41.9762C4.45947 41.7308 4.45947 41.5243 4.45947 41.3048C4.45947 30.278 4.45947 19.2384 4.45947 8.2117C4.45947 5.44856 6.28777 3.88623 9.48356 3.88623C22.564 3.88623 35.6296 3.88623 48.7101 3.88623C50.9843 3.88623 52.6788 4.88044 53.2883 6.61063C53.4369 7.02381 53.5261 7.47572 53.5261 7.91473C53.5261 18.709 53.5261 29.5033 53.5261 40.2847C53.5261 40.3622 53.5261 40.4397 53.5112 40.6204V40.5946ZM26.7855 23.0087C25.8639 22.0145 25.0315 21.0848 24.1694 20.1681C23.2627 19.2126 21.9249 19.0447 20.9141 19.742C19.9033 20.4521 19.7696 21.6142 20.6466 22.5826C22.0289 24.1191 23.4262 25.6427 24.8531 27.1663C25.9977 28.3929 27.603 28.38 28.7475 27.1405C30.1448 25.6298 31.5271 24.1191 32.9095 22.6084C34.4256 20.9557 35.9418 19.303 37.4431 17.6373C38.0376 16.9788 38.112 16.23 37.6512 15.494C37.1755 14.758 36.4174 14.4352 35.4513 14.4998C34.6337 14.5514 34.1284 15.0033 33.6527 15.5198C31.3934 17.9989 29.134 20.465 26.8003 23.0087H26.7855Z" fill="#FDB10B"/>
<path d="M50.1072 54.1393C49.8099 54.1393 49.6315 54.1393 49.4383 54.1393C36.4024 54.1393 23.3665 54.1393 10.3455 54.1393C7.65511 54.1393 5.4998 52.8352 4.75659 50.7822C3.62692 47.6963 6.16869 44.6103 9.95905 44.4812C10.5388 44.4554 11.1185 44.4812 11.6982 44.4812C24.1989 44.4812 36.6997 44.4812 49.2005 44.4812H50.1072C48.7397 47.7092 48.7099 50.8855 50.1072 54.1522V54.1393Z" fill="#FDB10B"/>
<path d="M26.7852 23.0218C29.104 20.4782 31.3782 18.012 33.6376 15.533C34.1132 15.0165 34.6186 14.5646 35.4361 14.5129C36.4172 14.4484 37.1752 14.7712 37.636 15.5072C38.1117 16.2431 38.0374 16.992 37.4279 17.6505C35.9267 19.3161 34.4105 20.9689 32.8944 22.6216C31.512 24.1323 30.1296 25.6429 28.7324 27.1536C27.6027 28.3803 25.9825 28.4061 24.838 27.1795C23.4259 25.6559 22.0287 24.1323 20.6314 22.5958C19.7544 21.6274 19.8882 20.4653 20.899 19.7551C21.9097 19.0579 23.2475 19.2258 24.1542 20.1812C25.0164 21.098 25.8636 22.0276 26.7703 23.0218H26.7852Z" fill="#0D504D"/>
</g>
<defs>
<clipPath id="clip0_136_1203">
<rect width="58" height="58" fill="white"/>
</clipPath>
</defs>
</svg>
