<svg width="59" height="59" viewBox="0 0 59 59" fill="none" xmlns="http://www.w3.org/2000/svg">
<g clip-path="url(#clip0_178_20)">
<path d="M39.54 0C39.89 0.09 40.24 0.17 40.58 0.28C42.6 0.94 44.03 2.25 44.81 4.23C45.44 5.82 46.04 7.42 46.61 9.03C47.12 10.45 48.06 11.4 49.48 11.9C51.02 12.44 52.54 13.03 54.07 13.61C57.89 15.07 59.53 19.04 57.86 22.76C57.18 24.27 56.51 25.78 55.81 27.27C55.19 28.6 55.19 29.9 55.81 31.23C56.52 32.74 57.21 34.27 57.89 35.79C59.51 39.42 57.89 43.4 54.18 44.85C52.63 45.46 51.06 46.05 49.49 46.61C48.06 47.11 47.12 48.05 46.62 49.48C46.08 51 45.49 52.5 44.92 54.01C43.45 57.91 39.45 59.55 35.65 57.81C34.16 57.13 32.67 56.47 31.19 55.78C29.9 55.18 28.63 55.18 27.34 55.78C25.82 56.48 24.3 57.18 22.78 57.85C19.02 59.52 15.06 57.86 13.61 54.01C13.04 52.5 12.45 51 11.91 49.48C11.41 48.05 10.46 47.11 9.04 46.61C7.52 46.07 6.02 45.48 4.51 44.91C2.12 44 0.63 42.33 0.12 39.8C0.1 39.71 0.05 39.63 0.02 39.54C0.02 38.93 0.02 38.32 0.02 37.71C0.3 36.91 0.54 36.09 0.87 35.31C1.45 33.95 2.06 32.61 2.7 31.27C3.35 29.91 3.32 28.6 2.7 27.22C1.75 25.1 0.89 22.94 0 20.8C0 20.15 0 19.51 0 18.86C0.03 18.82 0.09 18.78 0.1 18.73C0.62 16.13 2.17 14.45 4.63 13.54C6.11 13 7.57 12.42 9.06 11.89C10.46 11.39 11.39 10.46 11.89 9.06C12.47 7.44 13.09 5.82 13.71 4.21C14.32 2.64 15.39 1.46 16.9 0.71C17.52 0.41 18.2 0.23 18.85 0C19.5 0 20.15 0 20.8 0C21.62 0.29 22.45 0.53 23.25 0.87C24.59 1.44 25.92 2.05 27.23 2.68C28.59 3.33 29.9 3.3 31.28 2.68C33.4 1.75 35.56 0.89 37.71 0C38.32 0 38.93 0 39.54 0ZM56.14 19.91C56.03 18.13 55.03 16.64 53.37 16C51.69 15.35 49.99 14.73 48.31 14.09C46.45 13.38 45.15 12.09 44.43 10.22C43.82 8.63 43.22 7.02 42.62 5.43C41.63 2.81 39.22 1.8 36.67 2.95C35.11 3.65 33.56 4.37 32 5.06C30.12 5.89 28.24 5.85 26.37 5.01C24.85 4.32 23.33 3.62 21.81 2.94C19.29 1.81 16.86 2.82 15.89 5.4C15.28 7.02 14.69 8.64 14.06 10.25C13.35 12.09 12.07 13.37 10.23 14.08C8.62 14.7 7 15.29 5.38 15.91C2.81 16.88 1.8 19.32 2.93 21.83C3.61 23.34 4.29 24.84 4.98 26.34C5.87 28.29 5.87 30.23 4.98 32.18C4.29 33.68 3.61 35.19 2.93 36.69C1.79 39.23 2.81 41.65 5.43 42.64C7.03 43.24 8.63 43.83 10.22 44.45C12.08 45.17 13.37 46.47 14.08 48.33C14.69 49.92 15.28 51.53 15.89 53.13C16.86 55.7 19.3 56.72 21.81 55.6C23.33 54.92 24.85 54.22 26.38 53.53C28.25 52.69 30.13 52.64 32.01 53.48C33.57 54.17 35.12 54.89 36.68 55.59C39.23 56.74 41.65 55.73 42.64 53.12C43.21 51.59 43.79 50.07 44.36 48.54C45.11 46.5 46.5 45.12 48.53 44.37C50.08 43.8 51.63 43.22 53.17 42.64C55.7 41.68 56.72 39.23 55.6 36.75C54.92 35.24 54.24 33.74 53.55 32.24C52.64 30.27 52.64 28.32 53.55 26.35C54.25 24.83 54.96 23.32 55.62 21.78C55.87 21.2 55.98 20.56 56.16 19.94L56.14 19.91Z" fill="#FDB10B"/>
<path d="M39 16.0599C38.91 16.2399 38.77 16.5899 38.57 16.8999C33.18 25.3799 27.79 33.8499 22.4 42.3199C22.23 42.5899 22.06 42.8699 21.88 43.1399C21.38 43.8999 20.69 44.1099 20.05 43.6799C19.44 43.2699 19.33 42.5599 19.8 41.8199C22.07 38.2399 24.35 34.6599 26.63 31.0899C29.95 25.8799 33.27 20.6599 36.58 15.4499C36.86 15.0199 37.16 14.6499 37.73 14.6299C38.45 14.6099 39.01 15.1499 39 16.0599Z" fill="#0D504D"/>
<path d="M20.7501 24.3899C17.4601 24.4199 14.6601 21.6999 14.6301 18.4399C14.6001 14.9599 17.2301 12.2499 20.6701 12.1899C23.9901 12.1299 26.8001 14.8799 26.8401 18.2199C26.8801 21.5699 24.1301 24.3599 20.7501 24.3899ZM24.3501 18.2999C24.3501 16.2899 22.7501 14.6599 20.7501 14.6399C18.7501 14.6199 17.0801 16.2899 17.1001 18.3099C17.1101 20.3099 18.7501 21.9499 20.7401 21.9499C22.7301 21.9499 24.3601 20.3099 24.3601 18.2999H24.3501Z" fill="#0D504D"/>
<path d="M37.7898 46.32C34.4498 46.33 31.6798 43.58 31.6598 40.24C31.6398 36.88 34.4298 34.09 37.7898 34.11C41.1398 34.13 43.8598 36.83 43.8698 40.16C43.8798 43.57 41.1798 46.31 37.7898 46.32ZM41.4098 40.22C41.4098 38.22 39.7898 36.57 37.7998 36.56C35.8098 36.55 34.1598 38.18 34.1498 40.18C34.1498 42.22 35.7698 43.88 37.7798 43.87C39.7698 43.87 41.3998 42.22 41.3998 40.22H41.4098Z" fill="#0D504D"/>
</g>
<defs>
<clipPath id="clip0_178_20">
<rect width="58.62" height="58.62" fill="white"/>
</clipPath>
</defs>
</svg>
