<svg width="44" height="77" viewBox="0 0 44 77" fill="none" xmlns="http://www.w3.org/2000/svg">
<g clip-path="url(#clip0_478_585)">
<path d="M43.9932 44.9503C43.9932 52.7473 43.9932 60.5375 43.9932 68.3344C43.9932 73.5122 40.5012 77 35.3105 77C26.4323 77 17.5541 77 8.67587 77C3.51209 77 0.0201297 73.492 0.0201297 68.3075C0.0201297 60.3153 0.0201297 52.3163 0.0201297 44.3241C0.0201297 39.2743 3.55927 35.7529 8.62194 35.7529C12.9161 35.7529 17.2103 35.7529 21.5112 35.7529C25.2054 35.7529 27.5109 33.4434 27.5176 29.7469C27.5176 27.1412 27.5513 24.5287 27.5041 21.923C27.4502 19.149 25.5424 17.028 22.7583 16.55C20.3854 16.1393 17.7967 17.6071 16.9339 19.9704C16.644 20.7582 16.5968 21.6402 16.5159 22.4886C16.3743 23.9901 16.5092 25.5589 16.1451 26.9998C15.1474 30.9387 11.1836 33.504 7.25347 32.9519C3.10087 32.3594 0.0740595 28.9524 0.0133884 24.8385C-0.0405414 21.4517 -0.0203177 18.0717 1.19984 14.8398C4.40867 6.38297 10.4556 1.3062 19.4416 0.175032C31.3062 -1.31972 42.0045 6.94855 43.7707 18.745C43.9392 19.8694 43.9797 21.0275 43.9864 22.1721C44.0066 29.7671 43.9932 37.3621 43.9932 44.9503ZM38.4586 45.058C38.4586 37.5506 38.4586 30.0432 38.4519 22.5357C38.4519 21.5662 38.3979 20.5831 38.2699 19.627C37.2115 11.5069 29.7355 5.17101 21.5179 5.5548C15.4104 5.84432 10.7454 8.69243 7.64446 13.9981C5.6558 17.4051 5.36592 21.1487 5.58838 24.9664C5.66928 26.3938 6.97708 27.4778 8.31184 27.4375C9.71402 27.3971 10.8668 26.2592 10.9544 24.7711C11.0016 23.916 10.9948 23.0542 10.9611 22.1923C10.7387 15.9979 16.0508 10.7662 22.2594 10.9076C28.0839 11.0423 33.0184 15.9103 33.0387 21.7547C33.0521 24.623 33.0454 27.4846 33.0387 30.3529C33.0184 36.3521 28.0973 41.2606 22.0842 41.274C17.6754 41.2875 13.2666 41.274 8.85114 41.274C6.56586 41.274 5.5412 42.2907 5.5412 44.5732C5.5412 52.4241 5.5412 60.2749 5.5412 68.1257C5.5412 70.415 6.56586 71.4519 8.83092 71.4519C17.5945 71.4519 26.3581 71.4519 35.1217 71.4519C37.4474 71.4519 38.4519 70.4352 38.4519 68.0853C38.4519 60.4028 38.4519 52.7271 38.4519 45.0446L38.4586 45.058Z" fill="#0D504D"/>
<path d="M38.4587 45.0513C38.4587 52.7338 38.4587 60.4096 38.4587 68.0921C38.4587 70.4419 37.4543 71.4586 35.1285 71.4586C26.365 71.4586 17.6014 71.4586 8.83776 71.4586C6.5727 71.4586 5.55478 70.4217 5.54804 68.1325C5.54804 60.2816 5.54804 52.4308 5.54804 44.58C5.54804 42.3042 6.57271 41.2808 8.85798 41.2808C13.2667 41.2808 17.6755 41.2875 22.091 41.2808C28.1042 41.2673 33.0253 36.3588 33.0455 30.3596C33.0523 27.4913 33.059 24.6297 33.0455 21.7614C33.0185 15.9104 28.084 11.049 22.2663 10.9144C16.0576 10.7662 10.7455 16.0046 10.968 22.1991C11.0017 23.0609 11.0084 23.9228 10.9612 24.7779C10.8804 26.2659 9.72086 27.3971 8.31868 27.4442C6.98392 27.4846 5.67612 26.4006 5.59523 24.9731C5.37277 21.1555 5.66938 17.4051 7.6513 14.0049C10.7523 8.69918 15.4172 5.84434 21.5248 5.56154C29.7423 5.17102 37.2183 11.5136 38.2767 19.6338C38.4048 20.5966 38.4587 21.5729 38.4587 22.5425C38.4722 30.0499 38.4655 37.5573 38.4655 45.0648L38.4587 45.0513ZM22.091 49.448C18.4575 49.448 14.824 49.448 11.1904 49.448C9.41076 49.448 8.20408 50.6061 8.21756 52.276C8.23105 53.8784 9.45795 55.0298 11.1837 55.0298C18.3968 55.0298 25.6099 55.0298 32.8163 55.0298C34.5893 55.0298 35.8027 53.8582 35.7892 52.1952C35.7757 50.5859 34.5488 49.448 32.823 49.4413C29.2435 49.4413 25.6706 49.4413 22.091 49.4413V49.448ZM22.064 63.2846C25.6099 63.2846 29.1626 63.2846 32.7084 63.2846C34.569 63.2846 35.7959 62.1534 35.7892 60.4702C35.7824 58.8273 34.5555 57.7029 32.7556 57.6961C25.5695 57.6961 18.3901 57.6961 11.2039 57.6961C9.4175 57.6961 8.20408 58.8475 8.21082 60.5038C8.21082 62.14 9.45121 63.2779 11.2444 63.2779C14.8509 63.2779 18.4575 63.2779 22.064 63.2779V63.2846Z" fill="#00847E"/>
<path d="M22.0978 49.448C25.6774 49.448 29.2502 49.448 32.8298 49.448C34.5623 49.448 35.7825 50.5926 35.796 52.2018C35.8095 53.8649 34.596 55.0298 32.8231 55.0365C25.61 55.0365 18.3969 55.0365 11.1905 55.0365C9.46474 55.0365 8.23784 53.8851 8.22435 52.2826C8.21087 50.6128 9.42429 49.4547 11.1972 49.4547C14.8308 49.4547 18.4643 49.4547 22.0978 49.4547V49.448Z" fill="#0D504D"/>
<path d="M22.0708 63.2915C18.4642 63.2915 14.8576 63.2915 11.2511 63.2915C9.45792 63.2915 8.22427 62.1536 8.21753 60.5174C8.21753 58.8543 9.42421 57.7097 11.2106 57.7097C18.3968 57.7097 25.5762 57.7097 32.7623 57.7097C34.5623 57.7097 35.7892 58.8409 35.7959 60.4838C35.8026 62.167 34.5757 63.2982 32.7152 63.2982C29.1693 63.2982 25.6166 63.2982 22.0708 63.2982V63.2915Z" fill="#0D504D"/>
</g>
<defs>
<clipPath id="clip0_478_585">
<rect width="44" height="77" fill="white"/>
</clipPath>
</defs>
</svg>
