<svg width="60" height="60" viewBox="0 0 60 60" fill="none" xmlns="http://www.w3.org/2000/svg">
<g clip-path="url(#clip0_86_175)">
<path d="M25.5619 0C28.5304 0 31.4974 0 34.4644 0C34.6178 0.0281992 34.768 0.0736312 34.9229 0.0814643C36.5973 0.175461 38.2748 0.24126 39.9492 0.360323C42.1056 0.513852 44.2589 0.66738 46.3542 1.28776C53.1723 3.30557 58.4913 9.55482 59.2941 16.5874C59.5116 18.4861 59.6211 20.399 59.7729 22.3055C59.859 23.3912 59.9263 24.4784 60.003 25.5641V34.4766C59.9717 34.6458 59.9216 34.815 59.9106 34.9858C59.7808 37.0913 59.6618 39.1968 59.5288 41.3008C59.3848 43.5709 59.0265 45.8001 58.1236 47.9041C55.4101 54.2301 50.7046 58.1984 43.8974 59.2527C40.2309 59.8198 36.4753 59.9452 32.7556 59.9922C28.4475 60.0454 24.1332 59.8449 19.8267 59.6475C18.0443 59.566 16.2369 59.3655 14.5077 58.9472C7.30776 57.202 1.65078 50.9731 0.77915 43.7212C0.358201 40.2183 0.184502 36.6762 0.0624422 33.1466C-0.106563 28.2227 0.08748 23.3019 0.516253 18.3906C0.675869 16.5607 0.919987 14.7403 1.57254 13.0123C4.08101 6.35578 8.75839 2.1776 15.7831 0.838142C17.7845 0.455887 19.8501 0.415154 21.8892 0.242826C23.1113 0.137863 24.3382 0.078331 25.5619 0ZM26.0094 31.558C26.2817 31.558 26.5133 31.5627 26.7449 31.558C28.4991 31.5173 30.2565 31.5298 32.006 31.4186C33.4128 31.3293 34.7664 30.9282 36.0074 30.2326C38.7725 28.6817 39.7411 26.1814 39.6723 23.1578C39.605 20.258 38.2482 18.1446 35.7006 16.8083C34.3533 16.1017 32.887 15.7508 31.3738 15.7163C29.1501 15.6662 26.9249 15.6866 24.6997 15.685C23.3773 15.685 22.7373 16.3352 22.7357 17.6668C22.7342 21.1447 22.7357 24.6226 22.7357 28.1005C22.7357 28.3261 22.7357 28.5501 22.7357 28.829C22.3336 28.829 22.0253 28.818 21.7155 28.8305C20.9064 28.8634 20.3431 29.4352 20.3509 30.2044C20.3603 30.9705 20.933 31.5298 21.7452 31.5533C22.066 31.5627 22.3868 31.5533 22.6982 31.5533V35.7534C22.3571 35.7534 22.0503 35.7456 21.7436 35.755C20.933 35.78 20.3572 36.3425 20.3509 37.107C20.3431 37.8762 20.9096 38.448 21.717 38.4793C22.0394 38.4919 22.3633 38.4809 22.7342 38.4809C22.7342 38.788 22.7342 38.9995 22.7342 39.2109C22.7342 40.3828 22.7248 41.5562 22.7389 42.728C22.7514 43.6711 23.4039 44.3322 24.3037 44.3479C25.2208 44.3636 25.8983 43.7604 25.9437 42.8095C25.9875 41.893 25.9625 40.9734 25.9656 40.0554C25.9672 39.5525 25.9656 39.0511 25.9656 38.484C26.2536 38.484 26.4617 38.484 26.6714 38.484C28.5054 38.484 30.341 38.4887 32.175 38.4809C33.103 38.4762 33.671 37.9561 33.6788 37.1367C33.6867 36.2955 33.0998 35.755 32.15 35.7534C30.3159 35.7471 28.4804 35.7518 26.6463 35.7518C26.4398 35.7518 26.2332 35.7518 26.0079 35.7518V31.5549L26.0094 31.558Z" fill="#00847E"/>
<path d="M26.0033 28.9323V18.4077C28.3678 18.4892 30.7104 18.2009 33.0139 18.7743C35.2 19.3179 36.3877 20.7937 36.4519 23.0527C36.4675 23.6167 36.491 24.1948 36.3971 24.7463C36.0231 26.9552 34.6413 28.2743 32.1423 28.5704C30.1361 28.8085 28.1033 28.8179 26.0033 28.9323Z" fill="#00847E"/>
</g>
<defs>
<clipPath id="clip0_86_175">
<rect width="60" height="60" fill="white"/>
</clipPath>
</defs>
</svg>
