<svg width="58" height="62" viewBox="0 0 58 62" fill="none" xmlns="http://www.w3.org/2000/svg">
<path d="M0 54.5964C0 38.5938 0 22.5787 0 6.57607C0.0387787 6.45105 0.10341 6.32603 0.129262 6.18851C0.801426 2.70044 4.07176 0 7.71696 0C21.897 0 36.0771 0 50.2701 0C50.813 0 51.3818 0.0750122 51.9117 0.200033C55.6733 1.08768 58 4.08817 58 8.01381C58 17.9279 58 27.842 58 37.7562C58 38.7938 57.6639 39.619 56.9013 40.3566C50.1279 46.8702 43.3934 53.4212 36.62 59.9348C36.1159 60.4224 35.4308 60.7599 34.8362 61.16H6.7992C6.70871 61.1225 6.61823 61.0725 6.52775 61.0475C3.55471 60.4599 1.53822 58.7846 0.452418 56.0592C0.258525 55.5841 0.155115 55.084 0.0129262 54.5839L0 54.5964ZM52.6485 35.6558C52.6744 35.4808 52.6873 35.4058 52.6873 35.3308C52.6873 26.1293 52.6873 16.9403 52.6873 7.73876C52.6873 6.07599 51.6015 5.11334 49.8565 5.11334C35.9608 5.11334 22.0651 5.11334 8.16938 5.11334C6.33385 5.11334 5.29975 6.1135 5.29975 7.87629C5.29975 23.0038 5.29975 38.1312 5.29975 53.2587C5.29975 55.0215 6.33385 56.0217 8.16938 56.0217C15.77 56.0217 23.3577 56.0217 30.9583 56.0217C31.1781 56.0217 31.3849 56.0217 31.6305 56.0217C31.6305 55.7091 31.6305 55.4841 31.6305 55.2715C31.6305 51.2459 31.6305 47.2327 31.6305 43.2071C31.6305 42.657 31.6951 42.0944 31.8244 41.5568C32.7163 37.9687 35.8186 35.6558 39.7611 35.6433C43.7941 35.6308 47.8271 35.6433 51.86 35.6433C52.1056 35.6433 52.3512 35.6433 52.6356 35.6433L52.6485 35.6558ZM48.7319 40.8442C48.7319 40.8442 48.6285 40.7942 48.5509 40.7942C45.5262 40.7942 42.5014 40.7692 39.4767 40.8067C37.9385 40.8317 36.9302 41.9068 36.9302 43.3946C36.9302 46.22 36.9302 49.0455 36.9302 51.871C36.9302 51.996 36.9432 52.121 36.9561 52.221C40.8986 48.4204 44.8152 44.6323 48.7448 40.8317L48.7319 40.8442Z" fill="#FDB10B"/>
<path d="M29.0064 22.9414C34.2157 22.9414 39.4249 22.9414 44.6342 22.9414C46.2758 22.9414 47.4392 23.9916 47.4392 25.4793C47.4392 26.9671 46.2758 28.0672 44.6601 28.0672C34.2027 28.0672 23.7454 28.0672 13.2881 28.0672C11.8274 28.0672 10.7158 27.1046 10.5348 25.7419C10.3797 24.5417 11.2587 23.329 12.5384 23.0164C12.8098 22.9539 13.1071 22.9414 13.3915 22.9414C18.6008 22.9414 23.8101 22.9414 29.0193 22.9414H29.0064Z" fill="#0D504D"/>
<path d="M28.9551 17.8656C23.8104 17.8656 18.6658 17.8656 13.5212 17.8656C11.9054 17.8656 10.8971 17.128 10.5869 15.7652C10.2896 14.44 11.2849 13.0148 12.681 12.8023C12.9783 12.7522 13.3014 12.7397 13.5987 12.7397C23.8751 12.7397 34.1385 12.7397 44.4149 12.7397C45.9919 12.7397 46.9743 13.3648 47.3491 14.6151C47.8015 16.0903 46.7674 17.628 45.1904 17.8281C44.8673 17.8656 44.5312 17.8781 44.208 17.8781C39.128 17.8781 34.0351 17.8781 28.9551 17.8781V17.8656Z" fill="#0D504D"/>
<path d="M18.4715 38.2312C16.7264 38.2312 14.9814 38.2312 13.2234 38.2312C11.6981 38.2312 10.5218 37.131 10.5089 35.7058C10.496 34.3181 11.6723 33.1179 13.1717 33.1179C16.6876 33.0929 20.2036 33.0929 23.7195 33.1179C25.2319 33.1179 26.3823 34.3056 26.3565 35.7183C26.3306 37.156 25.1802 38.2312 23.6549 38.2312C21.9228 38.2312 20.2036 38.2312 18.4715 38.2312Z" fill="#0D504D"/>
<path d="M18.4717 48.4454C16.7396 48.4454 15.0204 48.4704 13.2883 48.4454C11.3493 48.4079 10.0955 46.8451 10.6384 45.1574C10.9615 44.1447 11.6854 43.5071 12.7971 43.3821C13.3917 43.3196 13.9863 43.3321 14.5809 43.3321C17.541 43.3321 20.5011 43.3321 23.4612 43.3321C25.3484 43.3321 26.5377 44.5823 26.305 46.2826C26.1499 47.3952 25.245 48.3579 24.0687 48.3954C22.2074 48.4704 20.3331 48.4204 18.4588 48.4204C18.4588 48.4329 18.4588 48.4454 18.4588 48.4704L18.4717 48.4454Z" fill="#0D504D"/>
</svg>
