<svg width="45" height="45" viewBox="0 0 45 45" fill="none" xmlns="http://www.w3.org/2000/svg">
<path d="M0.0205672 22.4747C0.0891244 21.5683 0.14397 20.6551 0.233095 19.7487C0.281085 19.2229 0.356497 18.704 0.466189 18.192C0.658149 17.3272 0.870677 16.4623 1.12434 15.6113C1.30944 14.9817 1.55625 14.3659 1.80305 13.764C2.00187 13.2728 2.23497 12.7954 2.46806 12.3249C2.68059 11.9029 2.91368 11.4877 3.14678 11.0795C3.3593 10.7128 3.58554 10.36 3.81864 10.0071C4.03116 9.68196 4.2574 9.37061 4.48364 9.05927C4.70303 8.76176 4.92241 8.47118 5.16236 8.19443C5.52571 7.77239 5.89592 7.36418 6.27298 6.95598C6.55407 6.65847 6.83515 6.36097 7.13681 6.08422C7.60299 5.66217 8.06918 5.24705 8.55594 4.85268C8.96043 4.5275 9.37863 4.20924 9.81054 3.93249C10.4961 3.48969 11.1885 3.06765 11.8947 2.65944C12.306 2.41729 12.7448 2.22356 13.1767 2.02292C14.0748 1.6078 15.0003 1.24802 15.9464 0.971274C16.6183 0.77063 17.297 0.604581 17.9757 0.459288C18.5859 0.327832 19.2029 0.224051 19.8267 0.161782C20.6906 0.0787573 21.5544 0.0164887 22.4182 0.00265128C23.1449 -0.0111862 23.8716 0.0303262 24.5915 0.0995135C25.4416 0.189457 26.2917 0.307075 27.1281 0.466206C28.3827 0.708362 29.6167 1.07505 30.8028 1.5732C31.4815 1.85687 32.167 2.15438 32.8183 2.50031C33.5108 2.86009 34.1826 3.26829 34.8476 3.69033C35.3138 3.98092 35.7526 4.3061 36.1914 4.64512C36.6507 4.99797 37.0963 5.37159 37.5282 5.76595C38.0013 6.19492 38.4469 6.65155 38.8994 7.10127C39.4067 7.60634 39.866 8.15292 40.2911 8.73409C40.4967 9.01084 40.7093 9.28759 40.9012 9.57126C41.1549 9.94487 41.4086 10.3185 41.6485 10.699C41.8816 11.0726 42.101 11.4462 42.3067 11.8337C42.5535 12.3042 42.7934 12.7746 43.0059 13.2589C43.2459 13.7986 43.4379 14.359 43.6709 14.8987C43.9863 15.639 44.144 16.4277 44.3634 17.1957C44.617 18.0951 44.7404 19.0153 44.8501 19.9424C44.9667 20.9456 45.0284 21.9558 44.9872 22.9659C44.953 23.8238 44.8844 24.6818 44.7816 25.5397C44.6993 26.2246 44.5828 26.9027 44.4251 27.5738C44.2468 28.3418 44.0206 29.1028 43.7738 29.8501C43.5818 30.4451 43.335 31.0262 43.0882 31.6005C42.8894 32.064 42.6632 32.5138 42.4301 32.9566C42.2175 33.3648 41.9844 33.773 41.7445 34.1673C41.532 34.5133 41.3126 34.8523 41.0795 35.1913C40.8601 35.5165 40.627 35.8278 40.3871 36.1461C40.1745 36.4298 39.9551 36.7134 39.722 36.9763C39.2764 37.4814 38.8239 37.9865 38.3509 38.4639C37.9327 38.8859 37.5008 39.2941 37.0415 39.6677C36.3765 40.2074 35.684 40.7194 34.9916 41.2175C34.5803 41.515 34.1415 41.7779 33.6959 42.0201C33.024 42.3868 32.3384 42.7397 31.646 43.0579C30.7822 43.4592 29.8909 43.7844 28.9791 44.0542C28.0056 44.3448 27.0115 44.5731 26.0106 44.7253C24.7012 44.9329 23.3917 45.0367 22.0754 44.9882C21.2116 44.9536 20.3478 44.8775 19.484 44.7807C18.0991 44.6215 16.7417 44.3033 15.4185 43.8397C14.7467 43.6045 14.0748 43.3485 13.4235 43.0579C12.7242 42.7397 12.0386 42.3799 11.3599 42.0132C10.9006 41.7641 10.4618 41.4735 10.0231 41.1899C9.33749 40.7401 8.67249 40.2558 8.05547 39.7023C7.80867 39.4809 7.54815 39.2664 7.3082 39.0381C6.86943 38.6092 6.43752 38.1733 6.00561 37.7374C5.49143 37.2185 5.02524 36.6512 4.60019 36.0562C4.38766 35.7656 4.17513 35.475 3.96946 35.1775C3.7158 34.8039 3.469 34.4233 3.2359 34.0359C3.00281 33.6554 2.78342 33.2679 2.57775 32.8666C2.3378 32.4031 2.11156 31.9257 1.90589 31.4414C1.65908 30.8533 1.4397 30.2444 1.20661 29.6494C0.870677 28.8053 0.706139 27.9059 0.500468 27.0272C0.253662 25.9894 0.14397 24.9308 0.0891244 23.8654C0.0617015 23.4087 0.0479901 22.9521 0.0274229 22.4954C0.0205672 22.4954 0.00685572 22.4954 0 22.4954L0.0205672 22.4747ZM37.2266 36.8518C37.3842 36.6788 37.5625 36.5059 37.727 36.3122C38.1864 35.7656 38.6388 35.219 39.0845 34.6586C39.3313 34.3472 39.5507 34.0082 39.77 33.6692C40.0031 33.3094 40.2294 32.9496 40.435 32.576C40.675 32.1471 40.9081 31.7043 41.1138 31.2546C41.3469 30.7495 41.5799 30.2375 41.7651 29.7048C42.0187 28.9991 42.2587 28.2795 42.4438 27.553C42.8071 26.1278 42.9922 24.6748 43.0402 23.2012C43.0814 21.9281 43.0196 20.6551 42.8277 19.3959C42.7111 18.6279 42.5809 17.8668 42.3478 17.1196C42.1284 16.4277 41.9707 15.7082 41.6691 15.044C41.4291 14.5251 41.2235 13.9854 40.9766 13.4665C40.7641 13.0237 40.531 12.5947 40.2911 12.1727C40.0785 11.7991 39.8523 11.4393 39.6192 11.0865C39.3998 10.7544 39.1667 10.4361 38.9336 10.1178C38.7211 9.83417 38.5017 9.5505 38.2686 9.28759C37.823 8.78944 37.3774 8.28437 36.9043 7.8139C36.4656 7.37802 35.9994 6.96981 35.5263 6.57545C35.0876 6.21567 34.6351 5.87665 34.1758 5.55839C33.7576 5.26781 33.3325 4.98414 32.8869 4.74198C32.2013 4.36145 31.5089 4.00168 30.8028 3.6765C30.2543 3.4205 29.6784 3.20602 29.1094 3.0123C28.1427 2.6802 27.1555 2.41037 26.1409 2.26508C25.3045 2.14054 24.4612 2.02292 23.618 1.97449C22.5759 1.91222 21.527 1.91914 20.4918 2.05751C19.6759 2.16821 18.8532 2.27891 18.0443 2.44496C16.8719 2.68712 15.7339 3.06073 14.6233 3.5312C13.7869 3.88406 12.9642 4.27843 12.1826 4.76274C11.5862 5.13635 10.9966 5.50996 10.4207 5.91125C10.0094 6.20183 9.60487 6.51318 9.2278 6.84528C8.7479 7.26732 8.28857 7.71012 7.82923 8.15292C7.61671 8.36048 7.41103 8.58188 7.21907 8.81711C6.74603 9.39829 6.27298 9.97946 5.81365 10.5814C5.58741 10.872 5.3886 11.1902 5.18978 11.5085C4.94983 11.8959 4.70988 12.2903 4.49735 12.6916C4.27111 13.1136 4.04488 13.5495 3.85292 13.9923C3.5924 14.5873 3.33874 15.1893 3.13306 15.812C2.89311 16.5384 2.70115 17.2856 2.50919 18.0329C2.40636 18.448 2.32409 18.8839 2.2761 19.3128C2.18698 20.1362 2.11842 20.9664 2.05672 21.7897C1.98816 22.6961 2.043 23.6094 2.13213 24.5088C2.22125 25.4221 2.3378 26.3284 2.58461 27.214C2.79713 27.9889 2.96167 28.7846 3.27703 29.5249C3.50327 30.0576 3.70895 30.6042 3.9489 31.13C4.16142 31.6005 4.40137 32.064 4.65504 32.5138C4.86071 32.8874 5.08695 33.2472 5.31318 33.6138C5.71767 34.278 6.17015 34.9007 6.67062 35.4888C7.04768 35.9316 7.43846 36.3606 7.81552 36.8034C7.88408 36.8864 7.93893 36.8864 8.02805 36.8241C8.21315 36.6858 8.39826 36.5543 8.59022 36.4367C9.27579 36.0285 9.98879 35.6687 10.7292 35.3781C11.3531 35.136 11.9769 34.8869 12.6077 34.6517C13.3687 34.368 14.1365 34.1051 14.8975 33.8145C15.2814 33.6692 15.6516 33.4755 16.0218 33.2956C16.5017 33.0603 16.9473 32.7698 17.3038 32.3477C17.4478 32.1678 17.6055 32.0018 17.6192 31.7458C17.6192 31.5797 17.6466 31.4206 17.6466 31.2546C17.6535 30.4866 17.6603 29.7117 17.6603 28.9437C17.6603 28.8814 17.6261 28.8053 17.5849 28.7569C17.4889 28.6462 17.3724 28.5563 17.2833 28.4456C17.0776 28.1896 16.8651 27.9336 16.6868 27.6568C16.44 27.2694 16.1864 26.875 15.9944 26.4599C15.7682 25.9686 15.6036 25.4497 15.4117 24.9447C15.35 24.7786 15.2814 24.6333 15.1169 24.5226C14.9112 24.3843 14.7124 24.2113 14.5616 24.0106C14.1845 23.5263 13.9377 22.9728 13.8006 22.364C13.6566 21.7067 13.5606 21.0425 13.6977 20.3714C13.7663 20.0462 13.8554 19.728 14.0679 19.472C14.1982 19.3128 14.2325 19.1468 14.1708 18.9392C14.0954 18.6971 14.0405 18.4411 13.9925 18.192C13.8074 17.258 13.6772 16.317 13.636 15.3622C13.5675 13.937 13.6086 12.5325 14.0748 11.1695C14.2599 10.6229 14.4587 10.0902 14.7604 9.59201C15.1443 8.94857 15.5968 8.38123 16.1589 7.89692C16.584 7.53715 17.0296 7.23273 17.5164 6.96981C18.0922 6.66539 18.6956 6.43707 19.3263 6.27102C20.1353 6.05654 20.9579 5.94584 21.7875 5.89049C22.9324 5.8213 24.0636 5.89049 25.1674 6.24335C25.9078 6.47858 26.5659 6.85219 27.1075 7.45412C27.1555 7.50947 27.2378 7.54407 27.3132 7.55791C27.9028 7.68244 28.465 7.90384 28.986 8.21519C29.5002 8.51961 29.9526 8.91398 30.316 9.39829C30.5902 9.76498 30.8233 10.1732 31.0221 10.5814C31.3786 11.3079 31.4883 12.1173 31.6323 12.913C31.6803 13.1621 31.6871 13.425 31.694 13.681C31.7077 14.449 31.7077 15.2169 31.5775 15.9711C31.4266 16.7944 31.2895 17.6177 31.1387 18.4411C31.0907 18.7109 31.0016 18.9738 30.9262 19.2782C30.9262 19.2782 30.9673 19.299 30.9879 19.3267C31.2689 19.7418 31.4198 20.2053 31.4746 20.7035C31.5226 21.1601 31.4678 21.6168 31.3786 22.0596C31.2827 22.5508 31.1593 23.0351 30.9056 23.4779C30.6382 23.9484 30.3091 24.3497 29.8567 24.6264C29.8292 24.6403 29.8087 24.6887 29.795 24.7233C29.7058 24.9724 29.6304 25.2283 29.5413 25.4774C29.3562 25.9894 29.1642 26.4945 28.8626 26.9442C28.6226 27.304 28.4033 27.6776 28.1496 28.0235C27.9576 28.2933 27.7245 28.5286 27.512 28.7846C27.4846 28.8192 27.464 28.8676 27.464 28.9022C27.4709 29.8085 27.4846 30.708 27.4983 31.6143C27.4983 31.7665 27.512 31.9257 27.6217 32.0502C27.8068 32.2647 27.9645 32.5207 28.177 32.7006C28.7049 33.1434 29.3151 33.4409 29.9458 33.69C30.5971 33.9459 31.2552 34.1881 31.9134 34.4303C32.503 34.6447 33.0994 34.8385 33.6822 35.0737C34.3746 35.3504 35.0602 35.641 35.732 35.9731C36.2462 36.2291 36.7261 36.5543 37.254 36.8587L37.2266 36.8518Z" fill="#0D504D"/>
</svg>
