<svg width="65" height="58" viewBox="0 0 65 58" fill="none" xmlns="http://www.w3.org/2000/svg">
<g clip-path="url(#clip0_188_3759)">
<path d="M-0.000217013 5.68904C0.347005 4.33283 0.850478 3.04707 1.85742 2.04312C3.10742 0.774977 4.60048 0.0528394 6.37131 0.0176131C7.43034 0 8.48937 0.0176131 9.5484 0.0176131C21.9095 0 34.2533 0 46.6144 0C49.5484 0 51.6838 1.23292 53.0206 3.8925C53.5415 4.93167 53.6456 6.05891 53.6456 7.20377C53.6456 14.9359 53.6456 22.6505 53.6456 30.3826V31.1752C54.7046 31.5099 55.7637 31.7388 56.7533 32.1439C62.1352 34.3456 65.4338 39.8233 64.9651 45.706C64.4616 52.0644 59.3574 57.3131 53.0553 57.9472C46.4928 58.5988 40.4338 54.2132 38.8887 47.6611C38.7671 47.1151 38.5588 47.0094 38.0553 47.0094C27.6908 47.0094 17.3262 46.9742 6.96159 47.0446C3.15951 47.0622 0.503255 44.3498 0.0865885 41.5141C0.0865885 41.4613 0.0171441 41.4084 -0.0175781 41.3556C-0.000217013 29.4667 -0.000217013 17.5779 -0.000217013 5.68904ZM2.65603 14.3371C2.65603 14.5132 2.63867 14.6189 2.63867 14.7246C2.63867 23.2141 2.63867 31.7212 2.63867 40.2107C2.63867 42.6414 4.3227 44.3146 6.71853 44.3146C17.1178 44.3146 27.5345 44.3146 37.9338 44.3146C38.1074 44.3146 38.2984 44.2794 38.4373 44.2794C38.6283 43.0112 38.8192 41.7959 39.0276 40.5278C38.5415 40.5278 38.0553 40.5278 37.5866 40.5278C36.5102 40.5102 36.0415 40.0346 36.0415 38.9602C36.0415 36.9347 36.0415 34.9268 36.0415 32.9013C36.0415 31.5275 36.4234 31.14 37.7776 31.14C40.2255 31.14 42.6908 31.14 45.1387 31.14C45.9373 31.14 46.788 31.0343 47.1178 31.8974C48.4894 31.6155 49.7394 31.3337 50.972 31.0695V14.3371H2.65603ZM51.7359 55.3052C57.604 55.3052 62.3262 50.5496 62.3435 44.5964C62.3435 38.6256 57.604 33.7643 51.7359 33.782C45.9026 33.782 41.1283 38.6432 41.1283 44.5436C41.1283 50.4616 45.8678 55.2876 51.7359 55.3052ZM2.67339 11.5718H51.0067C51.0067 9.86335 51.0588 8.22533 51.0067 6.56969C50.9373 4.66748 49.7046 3.13513 47.9512 2.80049C46.9442 2.60674 45.9026 2.67719 44.8262 2.62435C44.8262 4.0334 44.8262 5.31916 44.8262 6.60492C44.8262 7.87306 44.4095 8.31339 43.1595 8.31339C32.2741 8.31339 21.3713 8.31339 10.4859 8.31339C9.25326 8.31339 8.80187 7.83784 8.80187 6.60492C8.80187 5.31916 8.80187 4.0334 8.80187 2.71242C7.89909 2.71242 7.03103 2.65958 6.16298 2.71242C4.46159 2.8181 2.82964 4.2976 2.70812 6.02369C2.58659 7.85545 2.67339 9.70483 2.67339 11.5718ZM42.1352 2.69481H11.4755V5.60097H42.1526V2.69481H42.1352ZM38.6803 37.8682C38.9408 37.8682 39.1491 37.8506 39.3401 37.8682C39.9824 37.9563 40.3644 37.7097 40.7637 37.1461C41.5276 36.1069 42.4477 35.191 43.3158 34.2399C43.4373 34.1166 43.6283 34.0814 43.8019 33.9933C43.7498 33.9405 43.6803 33.87 43.6283 33.8172H38.6803V37.8682Z" fill="#0D504D"/>
<path d="M2.65582 14.3371H50.9544V31.0695C49.7044 31.3337 48.4544 31.5979 47.1003 31.8973C46.7704 31.0343 45.9197 31.14 45.1211 31.14C42.6732 31.14 40.2079 31.14 37.76 31.14C36.4232 31.14 36.0412 31.5451 36.0239 32.9013C36.0239 34.9268 36.0239 36.9347 36.0239 38.9602C36.0239 40.0522 36.4926 40.5102 37.569 40.5278C38.0551 40.5278 38.5412 40.5278 39.01 40.5278C38.819 41.7959 38.628 43.0112 38.4197 44.2794C38.2808 44.2794 38.0898 44.3146 37.9162 44.3146C27.5169 44.3146 17.1003 44.3146 6.70095 44.3146C4.30512 44.3146 2.62109 42.6413 2.62109 40.2107C2.62109 31.7212 2.62109 23.2141 2.62109 14.7246C2.62109 14.6189 2.62109 14.5132 2.63845 14.3371H2.65582ZM11.9266 28.6389C13.3155 28.6389 14.7218 28.6389 16.1107 28.6389C17.0829 28.6389 17.5864 28.1281 17.6037 27.1242C17.6037 25.0282 17.6037 22.9147 17.6037 20.8187C17.6037 19.7971 17.0655 19.2687 16.076 19.2511C13.3503 19.2511 10.6246 19.2511 7.89887 19.2511C6.90929 19.2511 6.38846 19.7971 6.37109 20.8187C6.37109 22.897 6.37109 24.9754 6.37109 27.0537C6.37109 28.1281 6.87457 28.6213 7.93359 28.6389C9.2704 28.6389 10.5898 28.6389 11.9266 28.6389ZM11.9787 31.14C10.6246 31.14 9.2704 31.14 7.91623 31.14C6.8572 31.14 6.37109 31.6508 6.35373 32.7252C6.35373 34.7859 6.35373 36.8466 6.35373 38.9074C6.35373 39.9994 6.8572 40.5278 7.95095 40.5278C10.6419 40.5278 13.3155 40.5278 16.0065 40.5278C17.0829 40.5278 17.5864 39.9994 17.6037 38.9074C17.6037 36.8642 17.6037 34.8387 17.6037 32.7956C17.6037 31.6508 17.1176 31.1576 15.9718 31.1576C14.635 31.1576 13.3155 31.1576 11.9787 31.1576V31.14ZM41.5621 28.6389C42.9336 28.6389 44.3051 28.6389 45.6767 28.6389C46.7183 28.6389 47.1871 28.1458 47.1871 27.1066C47.1871 25.0106 47.1871 22.897 47.1871 20.8011C47.1871 19.8147 46.701 19.2687 45.7287 19.2687C42.9857 19.2687 40.2253 19.2687 37.4822 19.2687C36.51 19.2687 36.0239 19.7971 36.0065 20.8011C36.0065 22.897 36.0065 25.0106 36.0065 27.1066C36.0065 28.2162 36.4579 28.6565 37.5516 28.6565C38.8885 28.6565 40.2079 28.6565 41.5447 28.6565L41.5621 28.6389ZM26.753 28.6389C28.1246 28.6389 29.4961 28.6389 30.8676 28.6389C31.8919 28.6389 32.3607 28.181 32.3607 27.1594C32.3607 25.0282 32.3607 22.9147 32.3607 20.7835C32.3607 19.7795 31.8572 19.2687 30.885 19.2511C28.1419 19.2511 25.3815 19.2511 22.6385 19.2511C21.6662 19.2511 21.1801 19.7971 21.1628 20.7835C21.1628 22.8794 21.1628 24.993 21.1628 27.089C21.1628 28.1281 21.6489 28.6213 22.6732 28.6213C24.0273 28.6213 25.3815 28.6213 26.7357 28.6213L26.753 28.6389ZM26.8398 31.14C25.4683 31.14 24.0968 31.14 22.7253 31.14C21.6489 31.14 21.1975 31.6331 21.1975 32.7252C21.1975 34.7683 21.1975 36.7938 21.1975 38.8369C21.1975 40.0346 21.6662 40.5278 22.8468 40.5278C25.4857 40.5278 28.1246 40.5278 30.7808 40.5278C31.944 40.5278 32.3954 40.0698 32.4128 38.8898C32.4128 36.8466 32.4128 34.8211 32.4128 32.778C32.4128 31.5803 31.9787 31.14 30.8155 31.14C29.5135 31.14 28.194 31.14 26.8746 31.14H26.8398Z" fill="#00847E"/>
<path d="M51.7365 55.3052C45.8858 55.3052 41.1289 50.4616 41.1289 44.5436C41.1289 38.6432 45.9206 33.7996 51.7365 33.782C57.5872 33.782 62.3442 38.6256 62.3442 44.5964C62.3442 50.5496 57.6046 55.3228 51.7365 55.3052ZM50.5039 46.9918C49.5143 46.1992 48.5595 45.4242 47.5872 44.6669C46.8928 44.1209 46.0942 44.1737 45.6254 44.7902C45.1393 45.4242 45.2608 46.1816 45.9553 46.7452C47.2053 47.7668 48.4553 48.7707 49.7227 49.7747C50.5039 50.3911 51.181 50.3207 51.8234 49.5457C53.8025 47.1503 55.7817 44.7549 57.7435 42.3419C58.3338 41.6198 58.299 40.8096 57.6567 40.2988C57.0664 39.8232 56.2852 39.9642 55.7122 40.6511C54.9831 41.5317 54.2539 42.43 53.5247 43.3106C52.5178 44.526 51.5282 45.7413 50.4865 46.9918H50.5039Z" fill="#FDB10B"/>
<path d="M2.67359 11.5718C2.67359 9.70483 2.58679 7.85546 2.70831 6.02369C2.82984 4.29761 4.44442 2.8181 6.16317 2.71242C7.01387 2.65959 7.88193 2.71242 8.80206 2.71242C8.80206 4.03341 8.80206 5.31917 8.80206 6.60492C8.80206 7.83784 9.27081 8.3134 10.4861 8.3134C21.3715 8.3134 32.2743 8.3134 43.1597 8.3134C44.4097 8.3134 44.8264 7.87307 44.8264 6.60492C44.8264 5.31917 44.8264 4.03341 44.8264 2.62436C45.9028 2.6772 46.9444 2.60675 47.9514 2.80049C49.7222 3.15275 50.9375 4.68509 51.0069 6.5697C51.0764 8.22533 51.0069 9.86335 51.0069 11.5718H2.67359Z" fill="#00847E"/>
<path d="M42.1353 2.69479V5.60096H11.4756V2.69479H42.1527H42.1353Z" fill="#FDB10B"/>
<path d="M38.6982 37.8682V33.8172H43.6462C43.6462 33.8172 43.7677 33.9405 43.8198 33.9933C43.6635 34.0814 43.4552 34.1166 43.3337 34.2399C42.4656 35.191 41.5455 36.1069 40.7816 37.1461C40.3823 37.6921 40.0003 37.9563 39.358 37.8682C39.1496 37.833 38.9413 37.8682 38.6982 37.8682Z" fill="#00847E"/>
<path d="M11.9266 28.6389C10.5898 28.6389 9.2704 28.6389 7.93359 28.6389C6.87457 28.6389 6.37109 28.1281 6.37109 27.0537C6.37109 24.9754 6.37109 22.897 6.37109 20.8187C6.37109 19.7971 6.89193 19.2511 7.89887 19.2511C10.6246 19.2511 13.3503 19.2511 16.076 19.2511C17.0655 19.2511 17.6037 19.7971 17.6037 20.8187C17.6037 22.9147 17.6037 25.0282 17.6037 27.1242C17.6037 28.1281 17.0829 28.6213 16.1107 28.6389C14.7218 28.6389 13.3155 28.6389 11.9266 28.6389ZM9.04471 25.9441H14.9301V21.9635H9.04471V25.9441Z" fill="#FDB10B"/>
<path d="M11.9961 31.14C13.3329 31.14 14.6523 31.14 15.9892 31.14C17.135 31.14 17.6037 31.6332 17.6211 32.778C17.6211 34.8211 17.6211 36.8466 17.6211 38.8898C17.6211 39.9994 17.1176 40.5102 16.0239 40.5102C13.3329 40.5102 10.6593 40.5102 7.96832 40.5102C6.89193 40.5102 6.38845 39.9818 6.37109 38.8898C6.37109 36.829 6.37109 34.7683 6.37109 32.7076C6.37109 31.6332 6.85721 31.14 7.93359 31.1224C9.28776 31.1224 10.6419 31.1224 11.9961 31.1224V31.14ZM9.04471 37.833H14.9301V33.8348H9.04471V37.833Z" fill="#FDB10B"/>
<path d="M41.5802 28.6389C40.2434 28.6389 38.9239 28.6389 37.5871 28.6389C36.476 28.6389 36.042 28.181 36.042 27.089C36.042 24.993 36.042 22.8794 36.042 20.7835C36.042 19.7795 36.5281 19.2687 37.5177 19.2511C40.2607 19.2511 43.0212 19.2511 45.7642 19.2511C46.7364 19.2511 47.2225 19.7971 47.2225 20.7835C47.2225 22.8794 47.2225 24.993 47.2225 27.089C47.2225 28.1458 46.7538 28.6213 45.7121 28.6213C44.3406 28.6213 42.9691 28.6213 41.5975 28.6213L41.5802 28.6389ZM44.5489 21.9459H38.6982V25.9441H44.5489V21.9459Z" fill="#FDB10B"/>
<path d="M26.7712 28.6389C25.417 28.6389 24.0628 28.6389 22.7087 28.6389C21.667 28.6389 21.1982 28.1458 21.1982 27.1066C21.1982 25.0106 21.1982 22.897 21.1982 20.8011C21.1982 19.8147 21.7017 19.2687 22.6739 19.2687C25.417 19.2687 28.1774 19.2687 30.9205 19.2687C31.8927 19.2687 32.3962 19.7971 32.3962 20.8011C32.3962 22.9323 32.3962 25.0458 32.3962 27.177C32.3962 28.1986 31.9274 28.6565 30.9031 28.6565C29.5316 28.6565 28.16 28.6565 26.7885 28.6565L26.7712 28.6389ZM23.8719 25.9969C25.4864 25.9969 27.0316 25.9969 28.5594 25.9969C29.3811 25.9969 29.792 25.5801 29.792 24.7464C29.792 23.8129 29.792 22.8794 29.792 21.9635H23.8719V25.9969Z" fill="#FDB10B"/>
<path d="M26.8577 31.14C28.1772 31.14 29.4793 31.14 30.7987 31.14C31.9619 31.14 32.3959 31.5803 32.3959 32.778C32.3959 34.8211 32.3959 36.8466 32.3959 38.8898C32.3959 40.0522 31.9272 40.5278 30.764 40.5278C28.1251 40.5278 25.4862 40.5278 22.83 40.5278C21.6668 40.5278 21.1807 40.0346 21.1807 38.8369C21.1807 36.7938 21.1807 34.7683 21.1807 32.7252C21.1807 31.6332 21.6321 31.1576 22.7084 31.14C24.08 31.14 25.4515 31.14 26.823 31.14H26.8577ZM23.889 33.8172V37.833H29.7397V33.8172H23.889Z" fill="#FDB10B"/>
<path d="M50.5035 46.9918C51.5452 45.7413 52.5348 44.526 53.5417 43.3107C54.2709 42.43 55.0001 41.5317 55.7292 40.6511C56.3021 39.9642 57.0834 39.8233 57.6737 40.2988C58.2987 40.8096 58.3508 41.6022 57.7605 42.3419C55.7987 44.7549 53.8195 47.1503 51.8403 49.5457C51.198 50.3207 50.5209 50.3911 49.7396 49.7747C48.4723 48.7707 47.2223 47.7668 45.9723 46.7452C45.2605 46.164 45.139 45.4242 45.6424 44.7902C46.1112 44.1913 46.9271 44.1209 47.6042 44.6669C48.5591 45.4242 49.514 46.1992 50.5209 46.9918H50.5035Z" fill="#0D504D"/>
<path d="M9.04492 25.9441V21.9636H14.9303V25.9441H9.04492Z" fill="#00847E"/>
<path d="M9.04492 37.833V33.8348H14.9303V37.833H9.04492Z" fill="#00847E"/>
<path d="M44.5489 21.946V25.9441H38.6982V21.946H44.5489Z" fill="#00847E"/>
<path d="M23.8711 25.997V21.9636H29.7912C29.7912 22.8794 29.7912 23.8129 29.7912 24.7464C29.7912 25.5801 29.3804 25.997 28.5586 25.997C27.0135 25.997 25.4857 25.997 23.8711 25.997Z" fill="#00847E"/>
<path d="M23.8887 33.8172H29.7394V37.833H23.8887V33.8172Z" fill="#00847E"/>
</g>
<defs>
<clipPath id="clip0_188_3759">
<rect width="65" height="58" fill="white"/>
</clipPath>
</defs>
</svg>
