<svg width="390" height="315" viewBox="0 0 390 315" fill="none" xmlns="http://www.w3.org/2000/svg">
<g filter="url(#filter0_d_289_3)">
<path d="M2.38419e-07 0H390V290.17L332.607 260.721C329.718 259.238 326.289 259.251 323.41 260.755L237.241 305.784C234.559 307.185 231.387 307.297 228.614 306.088L153.215 273.22C152.409 272.868 151.559 272.625 150.689 272.495L58.9321 258.866C56.709 258.536 54.4396 258.964 52.4897 260.082L2.38419e-07 290.17V0Z" fill="#D9D9D9"/>
</g>
<g filter="url(#filter1_d_289_3)">
<path d="M387.46 293.977C383.213 289.2 380.877 284.307 377.893 278.67C374.37 272.016 361.867 276.757 355.479 276.757C348.412 276.757 344.637 270.063 339.489 265.687C334.095 261.102 319.732 260.359 313.658 263.227C304.451 267.575 297.601 274.863 289.331 279.764C282.503 283.81 271.658 281.315 263.637 283.181C259.774 284.079 256.332 288.723 254.89 292.474C253.082 297.175 250.465 297.239 247.236 300.128C239.46 307.086 228.611 303.33 219.629 301.084C208.924 298.408 199.224 299.695 189.425 294.251C183.57 290.998 182.307 279.433 174.118 279.217C164.883 278.974 155.613 279.217 146.374 279.217C141.945 279.217 136.922 279.86 132.843 277.714C122.818 272.437 114.081 262.67 102.639 259.81C89.0145 256.404 75.7237 262.769 62.7316 264.73C57.1725 265.569 53.4033 264.655 48.2446 264.457C45.7489 264.361 42.5194 263.866 40.591 265.687C33.0955 272.766 28.4028 283.136 18.9972 288.511C11.6833 292.69 3.00561 292.311 -3.69009 297.668" stroke="white" stroke-width="3" stroke-linecap="round"/>
</g>
<defs>
<filter id="filter0_d_289_3" x="-4" y="0" width="398" height="314.921" filterUnits="userSpaceOnUse" color-interpolation-filters="sRGB">
<feFlood flood-opacity="0" result="BackgroundImageFix"/>
<feColorMatrix in="SourceAlpha" type="matrix" values="0 0 0 0 0 0 0 0 0 0 0 0 0 0 0 0 0 0 127 0" result="hardAlpha"/>
<feOffset dy="4"/>
<feGaussianBlur stdDeviation="2"/>
<feComposite in2="hardAlpha" operator="out"/>
<feColorMatrix type="matrix" values="0 0 0 0 0 0 0 0 0 0 0 0 0 0 0 0 0 0 0.25 0"/>
<feBlend mode="normal" in2="BackgroundImageFix" result="effect1_dropShadow_289_3"/>
<feBlend mode="normal" in="SourceGraphic" in2="effect1_dropShadow_289_3" result="shape"/>
</filter>
<filter id="filter1_d_289_3" x="-9.19015" y="257.325" width="402.15" height="56.3073" filterUnits="userSpaceOnUse" color-interpolation-filters="sRGB">
<feFlood flood-opacity="0" result="BackgroundImageFix"/>
<feColorMatrix in="SourceAlpha" type="matrix" values="0 0 0 0 0 0 0 0 0 0 0 0 0 0 0 0 0 0 127 0" result="hardAlpha"/>
<feOffset dy="4"/>
<feGaussianBlur stdDeviation="2"/>
<feComposite in2="hardAlpha" operator="out"/>
<feColorMatrix type="matrix" values="0 0 0 0 0 0 0 0 0 0 0 0 0 0 0 0 0 0 0.25 0"/>
<feBlend mode="normal" in2="BackgroundImageFix" result="effect1_dropShadow_289_3"/>
<feBlend mode="normal" in="SourceGraphic" in2="effect1_dropShadow_289_3" result="shape"/>
</filter>
</defs>
</svg>
