<svg width="60" height="59" viewBox="0 0 60 59" fill="none" xmlns="http://www.w3.org/2000/svg">
<ellipse cx="30" cy="29.5" rx="30" ry="29.5" fill="#FDB10B"/>
<path d="M22.2905 23.9657C22.2905 24.6386 22.0007 25.2273 21.6239 25.788C21.1023 26.601 20.5806 27.414 20.0299 28.199C19.943 28.3112 19.972 28.3672 20.0299 28.4794C20.9863 29.6008 22.0297 30.6381 23.131 31.6754C24.8989 33.3014 26.7247 34.8713 28.7245 36.2731C29.1592 36.5815 29.6519 36.8899 30.0866 37.1982C30.2026 37.2823 30.2895 37.2823 30.4344 37.1982C31.3328 36.7497 32.2313 36.3011 33.1297 35.8806C33.6804 35.6283 34.231 35.376 34.8397 35.2919C35.4773 35.2078 36.0569 35.2919 36.6075 35.6003C37.9407 36.3572 39.3029 37.1422 40.665 37.8991C41.6794 38.4879 42.6937 39.0766 43.7081 39.6653C44.6355 40.17 44.8964 40.9269 44.7225 41.824C44.6355 42.2165 44.4616 42.5529 44.2008 42.8893C43.1285 44.1509 41.9692 45.3564 40.607 46.3937C40.2593 46.6741 39.8535 46.8983 39.4768 47.1507C38.8102 47.5712 38.0566 47.6273 37.2451 47.5431C35.2164 47.3189 33.3036 46.7301 31.5067 45.9171C28.9274 44.7677 26.5798 43.3379 24.3772 41.7119C22.8991 40.6185 21.45 39.4691 20.0299 38.3196C17.7983 36.4974 15.7406 34.5349 13.8568 32.4603C12.2918 30.7222 10.8427 28.9279 9.74137 26.9374C9.0458 25.7039 8.46617 24.4423 8.20533 23.0966C8.11838 22.6201 8.06042 22.1435 8.00246 21.6669C7.97347 21.1903 8.20533 20.7978 8.46617 20.4053C9.07478 19.5642 9.8573 18.8634 10.6978 18.2186C11.5672 17.5457 12.4657 16.929 13.3641 16.3122C14.2625 15.6954 15.5088 15.6393 16.4072 16.1159C16.639 16.2561 16.8709 16.4524 17.0448 16.6766C18.6388 18.7512 20.2328 20.8258 21.8268 22.9004C22.0876 23.2368 22.2325 23.6013 22.2036 23.9938L22.2905 23.9657Z" fill="#D9D9D9"/>
<path d="M49.2726 27.7504H49.3016C49.2436 27.1056 49.1857 26.4608 49.0697 25.8159C48.9538 25.1711 48.8669 24.5263 48.664 23.9096C46.6932 17.2372 42.1431 12.7516 35.0425 10.4808C33.0428 9.83601 30.9561 9.55566 28.8404 9.61173C27.913 9.61173 27.2754 10.4247 27.5652 11.2378C27.7391 11.7985 28.2898 12.1068 29.0143 12.1349C30.0576 12.219 31.13 12.247 32.1733 12.4152C39.1 13.5927 44.7225 18.667 46.1136 25.0029C46.3744 26.1804 46.4034 27.3859 46.5483 28.5914C46.6353 29.2082 47.2149 29.7128 47.8815 29.7128C48.5481 29.7128 49.1567 29.2082 49.2147 28.5914C49.2147 28.3111 49.2147 28.0307 49.2147 27.7504H49.2726ZM29.536 15.6112C29.3041 15.6112 29.0723 15.6112 28.8404 15.6112C28.0869 15.6673 27.5072 16.228 27.5072 16.8728C27.5072 17.5456 28.1159 18.0783 28.8984 18.1344C29.449 18.1624 30.0287 18.1904 30.5793 18.2745C36.0279 19.0315 39.9984 23.2928 40.0854 28.3671C40.0854 29.1801 40.694 29.7408 41.4765 29.7408C42.259 29.7408 42.8386 29.1241 42.8386 28.3391C42.8097 27.0775 42.6068 25.8159 42.1721 24.6104C40.4911 19.7324 35.5642 15.9196 29.565 15.6673L29.536 15.6112ZM36.4337 28.255C36.2887 27.6102 36.2018 26.9654 35.9989 26.3486C35.0715 23.5451 32.1443 21.5546 29.0143 21.5266C27.9999 21.5266 27.2754 22.3396 27.5942 23.2087C27.7971 23.7414 28.2898 24.0497 28.9563 24.0497C31.5647 24.1058 33.5355 25.9281 33.6224 28.3111C33.6224 29.1241 34.231 29.6848 35.0135 29.6848C35.825 29.6848 36.3757 29.096 36.4337 28.227V28.255Z" fill="#D9D9D9"/>
<path d="M49.2726 27.7502C49.2726 28.0305 49.2726 28.3109 49.2726 28.5912C49.2147 29.208 48.6061 29.7126 47.9395 29.7126C47.2729 29.7126 46.6643 29.236 46.6063 28.5912C46.4614 27.3857 46.4324 26.1802 46.1716 25.0027C44.7515 18.6388 39.129 13.5645 32.2313 12.415C31.188 12.2468 30.1156 12.2188 29.0723 12.1347C28.3188 12.0786 27.7971 11.7702 27.6232 11.2376C27.3624 10.4245 27.971 9.63956 28.8984 9.61153C31.0141 9.58349 33.1008 9.86384 35.1005 10.4806C42.2011 12.7514 46.7512 17.237 48.722 23.9094C48.8959 24.5261 49.0118 25.1709 49.1277 25.8157C49.2437 26.4606 49.2726 27.1054 49.3596 27.7502H49.3306H49.2726Z" fill="#D9D9D9"/>
<path d="M29.536 15.611C35.5352 15.8633 40.4621 19.6761 42.1431 24.5542C42.5488 25.7597 42.7807 27.0212 42.8097 28.2828C42.8097 29.0958 42.259 29.6846 41.4475 29.6846C40.665 29.6846 40.0564 29.1239 40.0564 28.3108C39.9984 23.2365 35.9989 19.0032 30.5503 18.2183C29.9997 18.1342 29.449 18.1061 28.8694 18.0781C28.0869 18.05 27.4783 17.5174 27.4783 16.8165C27.4783 16.1717 28.0579 15.611 28.8114 15.5549C29.0433 15.5549 29.2751 15.5549 29.507 15.5549L29.536 15.611Z" fill="#D9D9D9"/>
</svg>
