<svg width="60" height="59" viewBox="0 0 60 59" fill="none" xmlns="http://www.w3.org/2000/svg">
<ellipse cx="30" cy="29.5" rx="30" ry="29.5" fill="#FDB10B"/>
<path d="M48 24.5866V41.1756C47.9822 41.2047 47.954 41.2319 47.9465 41.2639C47.5117 43.0228 46.2918 43.9806 44.4841 43.9825C43.5234 43.9825 42.5627 43.9825 41.603 43.9825C32.8882 43.9825 24.1735 43.9835 15.4579 43.9816C13.4379 43.9816 12.0105 42.5495 12.0095 40.5342C12.0095 35.3448 12.0095 30.1564 12.0095 24.967C12.0095 24.8449 12.0199 24.7228 12.0264 24.5613C12.125 24.6251 12.1814 24.6608 12.2377 24.6974C17.0947 27.9364 21.9516 31.1753 26.8095 34.4123C28.8952 35.8021 31.0983 35.8106 33.1793 34.4254C37.9922 31.2222 42.7993 28.0124 47.6103 24.8064C47.7333 24.7237 47.8685 24.6589 47.9991 24.5866H48Z" fill="#D9D9D9"/>
<path d="M48 20.8606C47.9784 20.9 47.9455 20.9376 47.9361 20.9798C47.753 21.8344 47.2919 22.5002 46.5679 22.9829C41.664 26.2547 36.7648 29.5349 31.8496 32.7907C30.6419 33.5908 29.3629 33.588 28.1543 32.787C23.2288 29.5227 18.3155 26.2406 13.4031 22.9557C12.2687 22.1978 11.7795 20.8747 12.0931 19.5421C12.3908 18.2753 13.4764 17.262 14.7629 17.0648C15.0381 17.0225 15.3207 17.0028 15.5997 17.0028C25.1811 17 34.7626 17 44.3441 17C46.3087 17 47.4431 17.864 47.9587 19.7515C47.9643 19.7722 47.9859 19.7881 48 19.806V20.8606Z" fill="#D9D9D9"/>
</svg>
