<svg width="61" height="59" viewBox="0 0 61 59" fill="none" xmlns="http://www.w3.org/2000/svg">
<g clip-path="url(#clip0_73_419)">
<path d="M60.887 29.4581C60.8272 37.1354 58.1956 43.8454 52.7231 49.6185C47.9683 54.6359 42.0772 57.3864 35.1693 58.4745C33.7039 58.7163 32.2386 59.0186 30.7733 58.9883C22.8188 58.7465 15.6417 56.4192 9.90012 51.1297C3.68002 45.4171 0.33074 38.4048 0.211123 30.0929C0.091506 21.5995 3.05203 14.3152 9.42165 8.20966C15.0437 2.82954 21.8618 0.290601 29.7865 0.0185718C37.3822 -0.223231 44.2004 1.89255 49.9121 6.57749C55.8929 11.474 59.631 17.7004 60.6178 25.2266C60.7075 25.9217 60.8272 26.6169 60.8571 27.3423C60.887 28.0375 60.8571 28.7629 60.8571 29.4581H60.887ZM36.2159 23.9269C36.2159 23.9269 36.4851 24.1082 36.6047 24.1989C36.4851 24.5616 36.4552 24.9848 36.2458 25.287C35.8571 25.7706 35.3786 26.1938 34.9001 26.6472C32.2386 29.1256 29.5473 31.5739 26.9157 34.0826C25.8092 35.1405 25.8092 36.1077 26.9755 36.8936C30.235 39.1303 33.4946 41.3669 36.8439 43.4223C39.1465 44.8429 40.6717 44.1174 41.1501 41.5785C42.1071 36.4402 43.0341 31.3019 43.9312 26.1636C44.2901 23.9873 44.5891 21.7809 44.7685 19.5744C44.9181 17.9422 43.991 17.3075 42.3164 17.64C41.6286 17.7911 40.9408 17.9725 40.3128 18.2445C32.4779 21.3879 24.6728 24.5616 16.8678 27.7353C15.6118 28.2491 14.3559 28.7025 13.1597 29.307C12.6513 29.579 11.9635 30.1533 11.9635 30.5765C11.9635 30.9694 12.7111 31.5134 13.2494 31.725C14.5951 32.2389 16.0903 32.4202 17.3762 32.9945C19.2303 33.871 20.7853 33.7804 22.5197 32.662C26.497 30.0626 30.564 27.5841 34.5712 25.0754C35.1394 24.7127 35.6776 24.2896 36.2159 23.8966V23.9269Z" fill="#FDB10B"/>
</g>
<defs>
<clipPath id="clip0_73_419">
<rect width="61" height="59" fill="white"/>
</clipPath>
</defs>
</svg>
