<svg width="61" height="60" viewBox="0 0 61 60" fill="none" xmlns="http://www.w3.org/2000/svg">
<path d="M28.7644 0C38.0646 0 44.8529 2.26691 50.445 7.1332C56.067 12.0297 59.5658 18.105 60.4928 25.4196C61.4797 33.3386 59.7452 40.5927 54.7512 47.1214C49.8469 53.5292 43.2082 57.3074 34.9247 58.5164C33.6986 58.6977 32.4725 59.0302 31.2464 59.0302C23.6507 59 16.7129 56.9144 10.9414 52.1691C4.09332 46.5169 0.385189 39.3233 0.0263377 30.709C-0.272705 23.1829 1.97012 16.4426 6.99404 10.5184C13.0347 3.47592 20.8995 0.151127 28.7644 0ZM45.8995 19.4349C44.1352 19.4349 42.5204 19.4047 40.9354 19.4349C40.6364 19.4349 40.2775 19.7976 40.0981 20.0697C39.5 21.0671 39.0515 22.1552 38.4235 23.1224C36.9582 25.2684 35.2536 27.1726 32.2034 27.626V19.5256H26.5515V34.0036C20.0921 30.8299 19.0156 25.3591 18.6268 19.5256H12.7357C12.8852 24.3012 13.9019 28.6839 16.3541 32.8852C19.3445 38.0236 26.9701 40.8648 32.2632 40.0184V32.6434C36.2105 33.7618 39.0814 35.7567 40.6962 39.2326C40.8756 39.5953 41.2943 40.1393 41.6232 40.1393C43.4474 40.23 45.2716 40.1696 47.2751 40.1696C45.6603 35.666 43.0586 32.0994 38.5431 29.7418C42.5802 27.2331 44.8828 23.8176 45.8995 19.4047V19.4349Z" fill="#FDB10B"/>
</svg>
