<svg width="50" height="50" viewBox="0 0 50 50" fill="none" xmlns="http://www.w3.org/2000/svg">
<g clip-path="url(#clip0_110_217)">
<path d="M50 31.9956C49.7336 33.1673 49.3022 34.2329 48.4478 35.054C47.5723 35.8935 46.5573 36.3594 45.3857 36.3594C34.5796 36.3687 23.7735 36.3825 12.9673 36.3687C11.2883 36.3687 10.0279 35.4784 9.02978 34.0114C8.44189 33.1442 8.30232 32.217 8.30232 31.2206C8.30232 22.5251 8.29386 13.8251 8.31924 5.12962C8.32769 2.29726 10.2648 0.166067 12.8489 0.0138389C12.98 0.00461297 13.1111 0 13.238 0C23.8496 0 34.4612 0 45.0728 0C47.2044 0 48.7481 1.01947 49.6363 3.15066C49.8012 3.54738 49.8816 3.98561 50.0042 4.40539V31.9956H50ZM25.9136 23.6C26.0616 23.4201 26.1589 23.3001 26.2519 23.1802C28.688 19.9926 31.1242 16.8004 33.5645 13.6129C35.1802 11.5048 37.7178 11.4817 39.3461 13.5575C41.7273 16.5929 44.1084 19.619 46.4896 22.6543C46.5869 22.7789 46.6672 22.9219 46.7561 23.0602C46.866 22.8711 46.8702 22.7835 46.8702 22.7004C46.8702 16.8789 46.8702 11.0573 46.8702 5.23572C46.8702 5.06043 46.8533 4.88052 46.8153 4.70984C46.6038 3.84261 46.0244 3.43205 45.0305 3.43205C35.1379 3.43205 25.2411 3.43205 15.3485 3.43205C14.5661 3.43205 13.7836 3.39053 13.0054 3.45512C12.6586 3.48279 12.278 3.64886 11.9904 3.87028C11.5124 4.23932 11.449 4.83901 11.449 5.44792C11.449 12.8333 11.449 20.214 11.449 27.5994C11.449 27.7701 11.4659 27.9408 11.4701 28.1115C11.5336 28.1668 11.6013 28.2268 11.6647 28.2821C11.7493 28.1115 11.7958 27.8993 11.9185 27.7701C13.9697 25.5143 16.0294 23.2678 18.0934 21.0259C19.7344 19.2407 21.9125 19.2361 23.5493 21.0075C24.336 21.8563 25.1057 22.7189 25.9093 23.6046L25.9136 23.6ZM12.1257 32.4615C12.1257 32.5353 12.1257 32.6045 12.1257 32.6783C12.5402 32.7567 12.9547 32.9089 13.3734 32.9089C19.561 32.9228 25.7444 32.9182 31.932 32.9182H32.3422C30.642 31.0638 28.9418 29.2047 27.2331 27.3411C26.3027 28.1714 25.571 28.1299 24.649 27.1289C23.5789 25.9618 22.5089 24.7947 21.4388 23.6276C20.8552 22.9911 20.8002 22.9911 20.2335 23.6092C17.6535 26.4185 15.0778 29.2324 12.4979 32.0463C12.371 32.1847 12.2526 32.3277 12.1299 32.4661L12.1257 32.4615Z" fill="#0D504D"/>
<path d="M36.1317 49.9999C34.3342 49.4648 32.541 48.9251 30.7435 48.3992C21.7052 45.7606 12.6628 43.1312 3.62455 40.4834C0.921965 39.69 -0.524491 36.9729 0.173361 34.0345C1.3153 29.2047 2.46993 24.3795 3.62032 19.5543C3.88678 18.4334 4.6819 17.8568 5.59968 18.1105C6.51324 18.3688 6.94886 19.2914 6.67818 20.4216C5.54047 25.1822 4.40699 29.9427 3.26928 34.7033C2.95208 36.0226 3.37925 36.8438 4.56348 37.1897C14.4814 40.0821 24.3994 42.9744 34.3173 45.8667C35.0363 46.0789 35.7596 46.2911 36.4828 46.4895C37.3456 46.7294 38.1365 46.2358 38.3649 45.2947C38.7371 43.7355 39.0796 42.1717 39.4391 40.6079C39.6802 39.5746 40.488 38.998 41.372 39.224C42.2348 39.4455 42.7254 40.3957 42.497 41.4198C42.1586 42.9513 41.833 44.4828 41.465 46.0051C40.966 48.0671 39.7648 49.3818 37.8489 49.8892C37.7939 49.9031 37.7474 49.9584 37.6966 49.9907H36.136L36.1317 49.9999Z" fill="#0D504D"/>
<path d="M12.1299 32.4662C12.2526 32.3278 12.371 32.1848 12.4979 32.0464C15.0778 29.2325 17.6535 26.4232 20.2335 23.6093C20.8002 22.9911 20.8594 22.9911 21.4388 23.6277C22.5089 24.7948 23.5789 25.9619 24.649 27.129C25.5667 28.13 26.2984 28.1715 27.2331 27.3412C28.9418 29.2048 30.6463 31.0638 32.3422 32.9182H31.932C25.7444 32.9182 19.561 32.9229 13.3734 32.909C12.9589 32.909 12.5444 32.7568 12.1257 32.6784C12.1257 32.6046 12.1257 32.5354 12.1257 32.4616L12.1299 32.4662Z" fill="white"/>
<path d="M18.732 15.9148C16.4566 15.9148 14.5703 13.862 14.5618 11.3802C14.5534 8.87536 16.4481 6.82259 18.7574 6.83182C21.0497 6.84104 22.9149 8.86153 22.9234 11.3571C22.936 13.8528 21.0328 15.9194 18.7278 15.9148H18.732ZM19.7048 11.3433C19.6963 10.7298 19.2734 10.2823 18.7109 10.3054C18.178 10.3238 17.7889 10.7713 17.7889 11.371C17.7889 11.9707 18.2329 12.4689 18.7574 12.4596C19.2903 12.4504 19.7132 11.9522 19.7048 11.3433Z" fill="#FDB10B"/>
</g>
<defs>
<clipPath id="clip0_110_217">
<rect width="50" height="50" fill="white"/>
</clipPath>
</defs>
</svg>
