<svg width="67" height="53" viewBox="0 0 67 53" fill="none" xmlns="http://www.w3.org/2000/svg">
<g clip-path="url(#clip0_110_169)">
<path d="M54.0232 4.12469C54.0232 3.21241 54.0232 2.47118 54.0232 1.7381C54.0313 0.915413 54.405 0.524436 55.2093 0.516291C57.3054 0.508145 59.3933 0.508145 61.4893 0.516291C62.2855 0.516291 62.6673 0.915414 62.6673 1.74624C62.6673 4.9718 62.6836 8.19737 62.6511 11.4311C62.6511 12.0338 62.8379 12.4248 63.2685 12.8158C64.3328 13.7607 65.3483 14.7544 66.3963 15.7074C66.8431 16.1147 67.16 16.5545 66.9081 17.1817C66.6644 17.7845 66.1526 17.8741 65.5676 17.8496C64.9908 17.8252 64.4059 17.8496 63.7803 17.8496V46.0163C64.4709 46.0163 65.1371 46.0081 65.8114 46.0163C66.5832 46.0326 66.9731 46.4154 66.9813 47.1811C66.9894 48.5821 66.9975 49.9831 66.9813 51.3759C66.9813 52.1009 66.5669 52.4756 65.8439 52.5081C65.7058 52.5081 65.5758 52.5081 65.4377 52.5081C44.1442 52.5081 22.8508 52.5081 1.55735 52.5081C0.281852 52.5081 0.00563052 52.2312 0.00563052 50.9768C0.00563052 49.7387 0.00563052 48.4925 0.00563052 47.2544C0.00563052 46.391 0.379342 46.0244 1.23238 46.0081C1.88231 46.0081 2.52412 46.0081 3.20655 46.0081V17.8415C2.59724 17.8415 1.97168 17.8252 1.35424 17.8415C0.793675 17.8659 0.314349 17.7437 0.078748 17.1736C-0.164977 16.5789 0.103121 16.1472 0.533701 15.7481C4.83139 11.7325 9.12907 7.71679 13.4186 3.69298C14.3692 2.79699 15.3441 1.92544 16.2783 1.01316C16.6764 0.646617 17.0826 0.5 17.6188 0.5C28.2209 0.508145 38.8229 0.5 49.4249 0.532581C49.8474 0.532581 50.3511 0.744361 50.6679 1.0213C51.7809 1.97431 52.8208 3.00063 54.0313 4.12469H54.0232ZM62.9192 15.6096C62.8461 15.5038 62.8217 15.4386 62.7811 15.3979C58.3615 11.26 53.9338 7.11403 49.4981 2.98434C49.3274 2.82143 49.0268 2.72368 48.7831 2.72368C38.6117 2.72368 28.4402 2.72368 18.2769 2.73997C18.0169 2.73997 17.6919 2.85401 17.5051 3.02506C13.1343 7.0896 8.77973 11.1704 4.42518 15.2513C4.33581 15.3327 4.28707 15.4386 4.1652 15.6015H62.9192V15.6096ZM61.5624 17.8985H5.44882V39.4511H22.6883C22.6883 39.1335 22.6883 38.8647 22.6883 38.5959C22.7289 36.5921 22.6071 34.5639 22.8345 32.5846C23.4195 27.5019 27.8309 23.4699 32.8598 23.2663C38.2542 23.0464 43.015 26.5733 43.998 31.7375C44.3392 33.5294 44.2255 35.411 44.2986 37.26C44.3311 37.9931 44.2986 38.7343 44.2986 39.4593H61.5624V17.9066V17.8985ZM28.4971 45.9919C28.3427 45.7719 28.2615 45.6497 28.1721 45.5194C26.9779 43.7926 26.6854 41.9273 27.3678 39.9317C27.6522 39.1009 27.9365 38.2701 28.229 37.4474C28.887 35.5576 29.5613 33.6761 30.2113 31.7782C30.39 31.265 30.6662 30.8904 31.2349 30.8496C31.8117 30.8008 32.1367 31.1591 32.3804 31.6316C32.7623 32.3728 33.1441 33.114 33.5341 33.8471C34.0134 34.7594 34.5008 35.6717 34.9802 36.584C35.0614 36.641 35.1427 36.698 35.2239 36.755C35.5082 36.3803 35.752 35.9649 36.0851 35.631C36.8325 34.8816 37.6368 35.0445 38.0592 36.0056C38.571 37.1786 39.091 38.3515 39.5378 39.557C40.3259 41.6667 40.0659 43.6704 38.7823 45.5276C38.6929 45.6579 38.6117 45.8045 38.5223 45.9674H42.0888C42.1132 45.8697 42.1376 45.8127 42.1376 45.7475C42.1376 41.7074 42.2107 37.6673 42.1132 33.6272C42.0076 29.188 38.1648 25.4981 33.7372 25.4167C28.7896 25.3352 24.8656 29.1798 24.8493 34.1485C24.8412 37.8709 24.8493 41.5934 24.8493 45.3158C24.8493 45.5276 24.8493 45.7475 24.8493 45.9756H28.4971V45.9919ZM64.7715 48.2155C64.3653 48.2155 64.0484 48.2155 63.7316 48.2155C43.5918 48.2155 23.4601 48.2237 3.32029 48.2318C2.06917 48.2318 2.22353 48.0934 2.2154 49.364C2.2154 50.2845 2.2154 50.2845 3.11719 50.2845C23.3626 50.2845 43.6162 50.2845 63.8616 50.2845C64.0159 50.2845 64.2028 50.3333 64.3247 50.2682C64.4871 50.1867 64.7227 50.032 64.739 49.8935C64.7877 49.364 64.7552 48.8264 64.7552 48.2155H64.7715ZM22.6396 41.7155C20.8685 41.7155 19.1868 41.7155 17.497 41.7155C13.7192 41.7155 9.94149 41.74 6.16375 41.7155C5.59506 41.7155 5.42445 41.8947 5.44882 42.4486C5.48944 43.3446 5.50569 44.2569 5.44882 45.1529C5.40008 45.8371 5.66817 45.9674 6.29374 45.9674C11.4607 45.943 16.6358 45.9511 21.8028 45.9511C21.9571 45.9511 22.144 46 22.2658 45.9348C22.4121 45.8615 22.6152 45.6986 22.6152 45.5683C22.6396 44.3139 22.6314 43.0514 22.6314 41.7155H22.6396ZM61.5299 41.7318C55.908 41.7318 50.3755 41.7318 44.851 41.7318C44.4611 41.7318 44.3473 41.8947 44.3555 42.2613C44.3717 43.2306 44.3961 44.1999 44.3555 45.1692C44.323 45.7801 44.4936 45.9756 45.1354 45.9756C50.3511 45.9511 55.5668 45.9593 60.7825 45.9593C60.8963 45.9593 61.0344 46 61.1156 45.9511C61.2781 45.8534 61.5218 45.7068 61.5218 45.5683C61.5543 44.3139 61.5381 43.0514 61.5381 41.74L61.5299 41.7318ZM31.503 34.7838C30.7475 36.9912 30.0326 39.0439 29.3501 41.1046C29.2364 41.4549 29.1958 41.8622 29.2283 42.2368C29.3907 44.0044 30.6256 45.3728 32.4129 45.8127C34.2327 46.2607 35.9957 45.6335 37.0031 44.1917C38.0998 42.6034 37.8805 39.9969 36.4831 38.3596C36.3207 38.5063 36.15 38.6529 35.9876 38.8076C34.7608 39.9561 34.1677 39.8584 33.3878 38.3678C32.7866 37.2193 32.1855 36.0789 31.5111 34.792L31.503 34.7838ZM60.4494 10.0382C60.4494 7.67606 60.4494 5.46867 60.4494 3.26942C60.4494 2.90288 60.3438 2.73183 59.9539 2.73997C58.8733 2.75627 57.7928 2.72368 56.7204 2.76441C56.5498 2.76441 56.2655 3.0495 56.2574 3.21241C56.2086 4.06767 56.2249 4.92293 56.2411 5.7782C56.2411 5.95739 56.3223 6.18546 56.4523 6.30764C57.736 7.52945 59.0358 8.73496 60.4413 10.0382H60.4494Z" fill="#0D504D"/>
<path d="M62.9273 15.6015H4.16519C4.27893 15.4386 4.3358 15.3327 4.42516 15.2512C8.77972 11.1704 13.1343 7.08957 17.5051 3.02503C17.6919 2.85398 18.0169 2.73995 18.2769 2.73995C28.4483 2.72365 38.6198 2.71551 48.7831 2.72365C49.0268 2.72365 49.3193 2.8214 49.498 2.98431C53.9338 7.11401 58.3534 11.2519 62.7811 15.3978C62.8217 15.4386 62.8542 15.5037 62.9192 15.6096L62.9273 15.6015Z" fill="#FF6A6A"/>
<path d="M61.5706 17.8903V39.443H44.3067C44.3067 38.718 44.3311 37.985 44.3067 37.2437C44.2336 35.4029 44.3473 33.5213 44.0061 31.7212C43.0231 26.557 38.2623 23.0301 32.8679 23.25C27.839 23.4536 23.4276 27.4856 22.8427 32.5683C22.6152 34.5558 22.7289 36.5758 22.6964 38.5796C22.6964 38.8484 22.6964 39.1172 22.6964 39.4348H5.44882V17.8822H61.5706V17.8903ZM7.56923 28.6015C7.56923 31.0858 7.56923 33.562 7.56923 36.0464C7.56923 36.9342 7.96731 37.3333 8.8366 37.3333C12.2975 37.3333 15.7665 37.3333 19.2274 37.3333C20.1454 37.3333 20.5273 36.9342 20.5354 36.0056C20.5354 31.1103 20.5354 26.2149 20.5354 21.3195C20.5354 20.391 20.1454 20 19.2355 19.9919C15.7909 19.9919 12.3544 19.9919 8.90972 19.9919C7.95107 19.9919 7.57735 20.3747 7.56923 21.3521C7.56923 23.7632 7.56923 26.1823 7.56923 28.5934V28.6015ZM59.4339 28.6667C59.4339 26.2068 59.4339 23.7469 59.4339 21.2951C59.4339 20.4154 59.0358 20.0081 58.1665 20.0081C54.7056 20.0081 51.2366 20.0081 47.7757 20.0081C46.8577 20.0081 46.4759 20.3991 46.4759 21.3358C46.4759 26.2312 46.4759 31.1266 46.4759 36.0219C46.4759 36.9505 46.8658 37.3415 47.7757 37.3415C51.2204 37.3415 54.6569 37.3415 58.1015 37.3415C59.0602 37.3415 59.4339 36.9586 59.4339 35.9812C59.4339 33.5457 59.4339 31.1103 59.4339 28.6748V28.6667Z" fill="#FDB10B"/>
<path d="M64.7715 48.2074C64.7715 48.8183 64.804 49.3559 64.7552 49.8853C64.739 50.0238 64.5115 50.1867 64.3409 50.26C64.2109 50.3252 64.0322 50.2763 63.8778 50.2763C43.6324 50.2763 23.3788 50.2763 3.13341 50.2763C2.23163 50.2763 2.22351 50.2763 2.23163 49.3559C2.23163 48.0852 2.08539 48.2237 3.33652 48.2237C23.4763 48.2237 43.608 48.2155 63.7478 48.2074C64.0647 48.2074 64.3734 48.2074 64.7877 48.2074H64.7715Z" fill="#FDB10B"/>
<path d="M22.6396 41.7074C22.6396 43.0514 22.6477 44.3058 22.6233 45.5602C22.6233 45.6905 22.4202 45.8534 22.274 45.9267C22.144 45.9919 21.9653 45.943 21.8109 45.943C16.6439 45.943 11.4688 45.9348 6.30186 45.9593C5.6763 45.9593 5.41633 45.829 5.45695 45.1447C5.51382 44.2488 5.49757 43.3446 5.45695 42.4405C5.43257 41.8866 5.60318 41.7074 6.17187 41.7074C9.94961 41.7237 13.7273 41.7074 17.5051 41.7074C19.1868 41.7074 20.8766 41.7074 22.6477 41.7074H22.6396Z" fill="#B47D03"/>
<path d="M61.5299 41.7237C61.5299 43.0433 61.5462 44.2977 61.5137 45.552C61.5137 45.6824 61.2618 45.829 61.1075 45.9349C61.0262 45.9837 60.8881 45.943 60.7744 45.943C55.5587 45.943 50.3429 45.9349 45.1272 45.9593C44.4854 45.9593 44.3148 45.7638 44.3473 45.1529C44.3961 44.1836 44.3717 43.2143 44.3473 42.245C44.3473 41.8785 44.4529 41.7156 44.8429 41.7156C50.3754 41.7156 55.8999 41.7156 61.5218 41.7156L61.5299 41.7237Z" fill="#B47D03"/>
<path d="M31.5112 34.7757C32.1855 36.0627 32.7866 37.2112 33.3878 38.3515C34.1678 39.8421 34.7608 39.9399 35.9876 38.7914C36.1501 38.6366 36.3207 38.49 36.4831 38.3434C37.8805 39.9806 38.0998 42.5871 37.0031 44.1755C36.0038 45.6253 34.2327 46.2444 32.4129 45.7964C30.6175 45.3566 29.3907 43.9881 29.2283 42.2206C29.1958 41.8459 29.2283 41.4386 29.3501 41.0884C30.0326 39.0276 30.7475 36.975 31.503 34.7676L31.5112 34.7757Z" fill="#FF6A6A"/>
<path d="M60.4494 10.0301C59.044 8.71865 57.7441 7.52129 56.4605 6.29948C56.3305 6.1773 56.2574 5.94923 56.2492 5.77003C56.2249 4.91477 56.2167 4.05951 56.2655 3.20424C56.2736 3.04134 56.558 2.76439 56.7286 2.75625C57.8091 2.71552 58.8815 2.7481 59.962 2.73181C60.3519 2.73181 60.4576 2.89472 60.4576 3.26126C60.4494 5.46865 60.4576 7.67605 60.4576 10.0301H60.4494Z" fill="#FBFCC8"/>
<path d="M7.56921 28.6015C7.56921 26.1905 7.56921 23.7713 7.56921 21.3603C7.56921 20.3828 7.94293 20.0081 8.9097 20C12.3543 20 15.7909 20 19.2355 20C20.1535 20 20.5354 20.391 20.5354 21.3277C20.5354 26.2231 20.5354 31.1184 20.5354 36.0138C20.5354 36.9424 20.1454 37.3333 19.2274 37.3415C15.7665 37.3415 12.2975 37.3415 8.83658 37.3415C7.9673 37.3415 7.56921 36.9342 7.56921 36.0545C7.56921 33.5702 7.56921 31.094 7.56921 28.6096V28.6015ZM9.81148 22.24V27.4937H12.8905V22.24H9.81148ZM18.2931 27.5182V22.2644H15.2141V27.5182H18.2931ZM12.8905 35.1015V29.8477H9.81148V35.1015H12.8905ZM18.2931 35.1015V29.8477H15.2059V35.1015H18.2931Z" fill="#0D504D"/>
<path d="M59.4258 28.6667C59.4258 31.1021 59.4258 33.5376 59.4258 35.9731C59.4258 36.9424 59.0439 37.3333 58.0934 37.3333C54.6487 37.3333 51.2122 37.3333 47.7676 37.3333C46.8495 37.3333 46.4677 36.9342 46.4677 36.0138C46.4677 31.1184 46.4677 26.2231 46.4677 21.3277C46.4677 20.3991 46.8495 20.0081 47.7676 20C51.2285 20 54.6975 20 58.1584 20C59.0277 20 59.4258 20.4073 59.4258 21.287C59.4258 23.7469 59.4258 26.2068 59.4258 28.6585V28.6667ZM48.6937 27.5019H51.7728V22.2563H48.6937V27.5019ZM57.1916 27.51V22.2563H54.1044V27.51H57.1916ZM51.7809 35.1015V29.8233H48.71V35.1015H51.7809ZM54.1044 29.8152V35.0689H57.1835V29.8152H54.1044Z" fill="#0D504D"/>
</g>
<defs>
<clipPath id="clip0_110_169">
<rect width="67" height="52" fill="white" transform="translate(-0.00250244 0.5)"/>
</clipPath>
</defs>
</svg>
