<svg width="42" height="44" viewBox="0 0 42 44" fill="none" xmlns="http://www.w3.org/2000/svg">
<g clip-path="url(#clip0_223_237)">
<path d="M3.19031 17.4124C2.57064 17.4124 1.99687 17.4124 1.43457 17.4124C0.596865 17.4124 0.264078 17.2298 0.068996 16.6478C-0.103135 16.1343 0.103422 15.6207 0.688668 15.1871C6.12801 11.1815 11.5788 7.16451 17.0182 3.15894C18.028 2.41717 19.0379 1.66398 20.0592 0.922209C20.8395 0.351614 21.1608 0.351614 21.9297 0.922209C28.3903 5.68097 34.8395 10.4283 41.2887 15.1871C42.1149 15.7919 42.2411 16.7391 41.5526 17.2754C41.3231 17.458 40.9903 17.5493 40.6919 17.5722C40.0838 17.6178 39.4641 17.5836 38.7985 17.5836C38.7985 17.7776 38.7985 17.9373 38.7985 18.1085C38.7985 24.4193 38.7985 30.7301 38.7985 37.0522C38.7985 38.7526 38.2821 40.3046 37.169 41.6284C36.1362 42.8495 34.8051 43.5 33.187 43.5C25.0624 43.5 16.9379 43.5 8.81326 43.5C6.94277 43.5 5.54277 42.587 4.48703 41.1035C3.6149 39.8824 3.20178 38.513 3.20178 37.018C3.20178 30.673 3.20178 24.3394 3.20178 17.9944C3.20178 17.8232 3.20178 17.652 3.20178 17.4124H3.19031ZM26.8641 41.2975C28.9641 41.2975 30.9838 41.2975 33.0034 41.2975C34.0477 41.2975 34.8395 40.8638 35.4706 40.0536C36.2624 39.0379 36.5264 37.794 36.5379 36.6072C36.6182 30.4334 36.5723 24.2709 36.5723 18.0971C36.5723 17.9487 36.5723 17.789 36.5723 17.6178H5.58867C5.58867 17.7662 5.58867 17.8917 5.58867 18.0058C5.58867 24.3851 5.58867 30.7757 5.58867 37.155C5.58867 37.6457 5.65752 38.1592 5.78375 38.6271C6.16244 40.0193 7.05752 41.3774 9.24933 41.2975C11.0395 41.229 12.8297 41.2861 14.6198 41.2861C14.769 41.2861 14.9182 41.2861 15.1018 41.2861C15.1018 41.0464 15.1018 40.8752 15.1018 40.7155C15.1018 36.3561 15.1018 31.9968 15.1018 27.6374C15.1018 26.4848 15.4116 25.4578 16.1919 24.6133C17.9592 22.6961 20.1624 22.1027 22.6641 22.7189C25.4067 23.4036 26.8526 25.298 26.8526 28.0825C26.8526 32.3049 26.8526 36.5159 26.8526 40.7383V41.2861L26.8641 41.2975ZM4.91162 15.1642H37.0542C36.8936 15.0387 36.8018 14.9588 36.6985 14.879C31.5805 11.1244 26.4739 7.36993 21.3674 3.604C21.0805 3.39859 20.9198 3.39859 20.6329 3.604C17.0526 6.25156 13.4493 8.88771 9.85752 11.5239C8.23949 12.7107 6.60998 13.9089 4.91162 15.1528V15.1642ZM24.2477 41.2747C24.2477 41.1605 24.2706 41.0921 24.2706 41.0236C24.2706 36.4817 24.2706 31.9397 24.2706 27.3864C24.2706 26.5761 23.8575 25.9827 23.2034 25.5377C21.8379 24.6019 19.7952 24.6475 18.4297 25.629C17.6952 26.1539 17.3165 26.8272 17.3165 27.763C17.3395 32.1109 17.3165 36.4474 17.3165 40.7954C17.3165 40.9437 17.3165 41.1035 17.3165 41.2632H24.2362L24.2477 41.2747Z" fill="#0D504D"/>
</g>
<defs>
<clipPath id="clip0_223_237">
<rect width="42" height="43" fill="white" transform="translate(0 0.5)"/>
</clipPath>
</defs>
</svg>
