<svg width="125" height="125" viewBox="0 0 125 125" fill="none" xmlns="http://www.w3.org/2000/svg">
<g clip-path="url(#clip0_73_355)">
<path d="M0.000109462 28.48C-0.0432181 13.0065 12.7817 0.0433928 28.163 0.000110274C44.1509 -0.0431723 56.9325 12.6603 56.9542 28.6099C56.9542 43.9968 44.0426 56.8734 28.618 56.895C12.8684 56.9167 0.043437 44.1483 0.000109462 28.48ZM28.423 3.91718C14.9265 3.91718 3.94292 14.846 3.92125 28.3069C3.92125 41.9625 14.7748 52.978 28.2713 52.978C42.1578 52.978 53.0114 42.179 53.033 28.3285C53.033 14.8244 42.0712 3.93882 28.423 3.91718Z" fill="black"/>
<path d="M115.425 90.9583C115.121 90.8284 114.58 90.6337 114.081 90.3523C110.507 88.318 106.911 86.2838 103.358 84.2062C102.665 83.795 102.145 83.7734 101.43 84.2062C97.8336 86.3054 94.2158 88.3397 90.5979 90.4172C89.753 90.8933 88.9081 91.2612 87.9983 90.5904C87.0667 89.8979 87.1101 88.9673 87.37 87.9501C88.4099 83.8816 89.4064 79.813 90.4679 75.7445C90.6846 74.9004 90.5329 74.4027 89.8397 73.8184C86.7634 71.3296 83.7738 68.776 80.7192 66.2656C79.9393 65.6163 79.3977 64.8805 79.701 63.8634C79.9827 62.9112 80.7626 62.5866 81.7374 62.4567C85.8319 61.9806 89.9047 61.4179 93.9991 60.9418C94.9523 60.8336 95.4939 60.509 95.8622 59.5784C97.3137 56.0725 98.8518 52.5883 100.325 49.0824C100.715 48.1735 101.17 47.3944 102.275 47.3511C103.445 47.3078 103.964 48.1085 104.376 49.0608C105.871 52.5667 107.409 56.0293 108.839 59.5568C109.25 60.5523 109.835 60.8336 110.81 60.9418C114.948 61.4179 119.086 61.9157 123.18 62.5433C123.852 62.6515 124.74 63.3656 124.935 63.9716C125.108 64.5126 124.675 65.5514 124.177 66.0059C121.144 68.6678 118.024 71.2431 114.883 73.7751C114.168 74.3594 113.995 74.8788 114.233 75.7661C115.316 79.8347 116.313 83.9032 117.331 87.9718C117.743 89.6382 117.006 90.8933 115.381 90.9366L115.425 90.9583ZM118.588 65.7678C115.186 65.3566 112.132 64.9238 109.055 64.6425C107.431 64.491 106.412 63.8418 105.806 62.2403C104.809 59.6001 103.596 57.0248 102.383 54.1681C101.192 56.9382 100.022 59.4053 99.0901 61.9806C98.4185 63.8418 97.227 64.5126 95.3423 64.6858C92.3743 64.9238 89.4281 65.3999 86.2218 65.8111C88.6048 67.8021 90.6846 69.7065 92.9593 71.3946C94.649 72.6498 95.039 73.9482 94.4107 75.9392C93.5009 78.8608 92.8943 81.8906 92.0927 85.1151C94.4974 83.7517 96.6421 82.5182 98.7868 81.3063C102.925 78.9906 101.776 78.9474 106.001 81.3063C108.146 82.4965 110.269 83.7301 112.63 85.0718C111.763 81.566 111.027 78.363 110.16 75.1601C109.77 73.7318 110.095 72.7363 111.265 71.8057C113.67 69.923 115.966 67.9103 118.588 65.7462V65.7678Z" fill="black"/>
<path d="M107.214 90.9799C107.322 90.9799 107.626 90.915 107.951 90.915C109.099 90.915 109.792 91.521 109.965 92.6463C110.117 93.6634 109.294 94.5507 108.167 94.7239C104.723 95.2433 101.235 95.6328 97.812 96.347C84.1205 99.2036 71.3821 104.246 60.3986 113.162C59.7054 113.725 59.0555 114.331 58.3839 114.894C57.3224 115.759 56.1742 115.738 55.4376 114.894C54.6794 114.006 54.8094 112.946 55.8925 111.994C61.0702 107.341 66.8544 103.597 73.0936 100.545C83.4055 95.5029 94.3458 92.5381 105.698 91.0881C106.131 91.0232 106.586 91.0448 107.214 91.0016V90.9799Z" fill="#08ACE8"/>
<path d="M37.9333 123.442C37.2834 122.922 36.4818 122.576 36.3302 122.035C36.1352 121.386 36.2435 120.412 36.6334 119.871C37.6733 118.443 38.9298 117.166 40.143 115.867C50.3899 104.917 62.2184 96.1955 76.2565 90.6553C77.773 90.0493 79.3328 89.5516 80.9142 89.1188C82.084 88.7942 83.0806 89.3352 83.3622 90.3307C83.6655 91.4344 83.1456 92.4083 81.9324 92.7978C67.8293 97.3641 56.0009 105.501 45.5589 115.824C43.5442 117.815 41.7028 120.001 39.753 122.057C39.2981 122.555 38.6698 122.879 37.9549 123.42L37.9333 123.442Z" fill="#08ACE8"/>
<path d="M79.6144 70.5722C79.3544 70.8535 78.9428 71.5677 78.3362 71.9356C71.6638 75.9825 65.5979 80.7869 60.0953 86.2838C55.2426 91.1314 51.0182 96.4768 47.6386 102.45C47.5953 102.536 47.552 102.601 47.5087 102.688C46.6854 104.095 45.6672 104.527 44.6057 103.965C43.5225 103.38 43.2842 102.212 44.1508 100.848C46.1222 97.7536 48.0069 94.5724 50.2383 91.6724C57.2574 82.5398 65.8146 75.0952 75.6499 69.1006C76.1048 68.8193 76.5598 68.5379 77.0581 68.3431C78.3362 67.8454 79.636 68.7543 79.636 70.5722H79.6144Z" fill="#08ACE8"/>
<path d="M87.435 43.7803C87.0017 44.2997 86.6768 45.0355 86.1135 45.2736C85.5719 45.49 84.7704 45.2736 84.1421 45.0788C83.8388 44.9706 83.6005 44.5161 83.4055 44.1698C77.9896 34.7126 70.7972 26.727 62.8466 19.3906C61.2435 17.919 59.5754 16.5339 57.9289 15.1273C56.8024 14.175 56.5641 13.0497 57.3007 12.1408C58.0373 11.2318 59.2071 11.1885 60.3553 12.1408C70.6889 20.6891 79.766 30.3194 86.5685 41.9624C86.8717 42.4818 87.0884 43.0661 87.435 43.8236V43.7803Z" fill="#08ACE8"/>
<path d="M57.3874 53.6704C63.7565 53.5838 69.909 54.7091 75.9315 56.7001C77.318 57.1546 77.9463 58.0419 77.7513 59.0807C77.513 60.3142 76.3865 60.7687 74.935 60.4224C71.1872 59.5352 67.461 58.5613 63.6698 57.9337C57.8856 56.9815 52.0797 57.4576 46.3388 58.6046C44.974 58.8643 43.9558 58.3665 43.6958 57.2845C43.4142 56.0725 44.0858 55.0554 45.5156 54.839C49.4584 54.2763 53.4012 53.8219 57.3657 53.3025C57.3657 53.4107 57.3874 53.5189 57.409 53.6271L57.3874 53.6704Z" fill="#08ACE8"/>
<path d="M81.7591 53.2808C81.2825 53.8002 80.8709 54.4278 80.3076 54.7957C79.4627 55.3151 78.6828 54.8823 78.0763 54.1898C76.6464 52.5667 75.3033 50.8354 73.7652 49.2988C70.5806 46.1608 67.2877 43.1311 64.0165 40.058C63.7998 39.8416 63.5399 39.6685 63.3232 39.452C62.4567 38.608 62.3267 37.526 62.9766 36.7252C63.6915 35.838 64.7747 35.7081 65.7929 36.5305C71.4038 41.0535 76.4948 46.1176 81.0009 51.7443C81.2825 52.1122 81.4125 52.5883 81.7591 53.2808Z" fill="#08ACE8"/>
<path d="M36.0702 61.1366C35.7669 61.4396 35.3336 62.197 34.7054 62.4567C31.4991 63.6903 28.5962 65.3999 26.0182 67.6939C25.1516 68.473 23.9601 68.3648 23.2669 67.5857C22.5303 66.785 22.6386 65.5947 23.5485 64.7507C26.3865 62.1537 29.6144 60.1844 33.2539 58.9075C34.792 58.3665 36.1352 59.2538 36.0702 61.115V61.1366Z" fill="#08ACE8"/>
<path d="M41.7678 69.2521C41.7678 69.5983 41.8111 69.9662 41.7678 70.3125C41.6161 71.308 40.9662 71.9356 39.9913 72.0005C39.0165 72.0654 38.2149 71.5677 38.0633 70.5505C37.9333 69.6416 37.9116 68.6894 38.0416 67.8021C38.1716 66.8066 38.9298 66.2656 39.9263 66.3089C40.9879 66.3521 41.6161 67.023 41.7678 68.0618C41.8328 68.4514 41.7678 68.8625 41.7678 69.2521Z" fill="#7AB93B"/>
<path d="M35.1386 75.8094C34.8354 75.8094 34.5104 75.8094 34.2071 75.8094C33.0373 75.7228 32.1924 74.9221 32.2357 73.8833C32.279 72.7363 32.9723 72.0871 34.0771 71.9572C34.7704 71.8707 35.5069 71.8707 36.2002 71.9572C37.305 72.1087 37.9549 72.8013 37.9766 73.9266C37.9983 74.9654 37.1317 75.7228 35.9402 75.7877C35.6802 75.7877 35.3986 75.7877 35.1386 75.7877V75.8094Z" fill="#7AB93B"/>
<path d="M92.9376 6.79536C92.9376 7.1849 92.9593 7.61773 92.8726 7.98563C92.6126 8.93784 92.0061 9.5438 90.9879 9.5438C90.0347 9.5438 89.3414 9.04605 89.1898 8.09383C89.0598 7.22818 89.0381 6.31925 89.1248 5.4536C89.2548 4.39318 90.013 3.78722 91.0745 3.8305C92.1794 3.87378 92.8293 4.58795 92.9376 5.71329C92.9593 6.05955 92.9376 6.42746 92.9376 6.77372V6.79536Z" fill="#C878B0"/>
<path d="M92.9159 16.1444C92.9159 16.5339 92.9809 16.9451 92.9159 17.3347C92.7426 18.3302 92.1144 18.9361 91.1178 19.001C90.143 19.0443 89.3631 18.5466 89.1898 17.5294C89.0598 16.7503 89.0165 15.9496 89.1031 15.1489C89.2114 13.937 90.0563 13.2445 91.1178 13.2877C92.1577 13.331 92.8943 14.1534 92.9593 15.3437C92.9593 15.6034 92.9593 15.8847 92.9593 16.1444H92.9376H92.9159Z" fill="#C878B0"/>
<path d="M44.4974 75.8094C42.5693 75.8094 41.6811 75.1385 41.7461 73.7535C41.8111 72.4334 42.6993 71.8923 44.714 71.8923C46.4905 71.8923 47.3354 72.4983 47.4003 73.7751C47.4437 75.1818 46.5555 75.8094 44.4974 75.8094Z" fill="#7AB93B"/>
<path d="M41.7678 78.9041C41.7678 79.0556 41.8977 79.51 41.7461 79.7481C41.3128 80.3541 40.8362 81.1548 40.2296 81.3063C39.688 81.4578 38.7782 81.0249 38.3232 80.5705C37.6083 79.8563 37.6516 77.2161 38.3665 76.5668C38.8432 76.134 39.7097 75.7661 40.3163 75.8743C41.8328 76.1557 41.8544 77.4541 41.7894 78.8824L41.7678 78.9041Z" fill="#7AB93B"/>
<path d="M118.458 28.4583C118.847 28.4583 119.259 28.415 119.649 28.4583C120.754 28.6098 121.317 29.3239 121.296 30.3627C121.296 31.3149 120.754 32.0507 119.714 32.1806C119.021 32.2671 118.306 32.2455 117.591 32.2239C116.356 32.1589 115.62 31.4448 115.598 30.3627C115.598 29.2374 116.399 28.4799 117.656 28.4366C117.916 28.4366 118.198 28.4366 118.458 28.4366V28.4583Z" fill="#C878B0"/>
<path d="M86.2218 13.2661C85.8319 13.2661 85.4203 13.3094 85.0303 13.2661C83.9471 13.093 83.3839 12.3788 83.4055 11.34C83.4272 10.3662 84.0121 9.67365 85.0303 9.56544C85.7236 9.47888 86.4385 9.50052 87.1534 9.5438C88.3232 9.60872 89.1464 10.3878 89.1464 11.4266C89.1464 12.4654 88.3232 13.2228 87.1534 13.3094C86.8501 13.3094 86.5251 13.3094 86.2218 13.3094C86.2218 13.3094 86.2218 13.3094 86.2218 13.2877V13.2661Z" fill="#C878B0"/>
<path d="M115.598 35.1021C115.598 35.4917 115.641 35.9029 115.598 36.2924C115.446 37.3961 114.71 37.9588 113.691 37.9372C112.738 37.9372 112.002 37.3745 111.893 36.3141C111.828 35.6215 111.828 34.9074 111.872 34.1932C111.915 33.0246 112.695 32.2022 113.735 32.2022C114.796 32.2022 115.555 32.9813 115.62 34.1716C115.62 34.4746 115.62 34.7992 115.62 35.1021H115.598Z" fill="#C878B0"/>
<path d="M108.99 28.4583C109.38 28.4583 109.792 28.415 110.182 28.4583C111.243 28.6314 111.85 29.2806 111.85 30.3627C111.85 31.3582 111.287 32.0291 110.269 32.1806C109.575 32.2671 108.86 32.2455 108.146 32.2239C106.954 32.1806 106.153 31.4231 106.131 30.3843C106.109 29.2806 106.932 28.5016 108.189 28.4583C108.449 28.4583 108.73 28.4583 108.99 28.4583Z" fill="#C878B0"/>
<path d="M115.641 25.7098C115.598 26.1859 115.663 26.7053 115.511 27.1598C115.208 28.0471 114.558 28.5232 113.583 28.4583C112.63 28.3934 112.002 27.874 111.872 26.9217C111.763 26.2292 111.807 25.5151 111.828 24.8009C111.872 23.5024 112.608 22.745 113.756 22.7666C114.84 22.7883 115.533 23.5457 115.598 24.7576C115.598 25.0606 115.598 25.3852 115.598 25.6882C115.598 25.6882 115.62 25.6882 115.641 25.6882V25.7098Z" fill="#C878B0"/>
<path d="M17.1577 78.6228C17.1577 80.6354 16.5728 81.4578 15.1646 81.4361C13.7782 81.4145 13.2799 80.5921 13.3016 78.2765C13.3016 76.6101 13.9298 75.8094 15.1863 75.8094C16.5511 75.8094 17.1361 76.6534 17.1361 78.6444L17.1577 78.6228Z" fill="#7AB93B"/>
<path d="M10.0737 85.2666C10.0737 85.2666 9.57539 85.2666 9.14211 85.1801C8.05892 84.9636 7.58232 84.2278 7.66898 83.1674C7.75563 82.1503 8.36222 81.566 9.35875 81.4578C9.92201 81.3928 10.5069 81.4361 11.0702 81.4578C12.4783 81.4794 13.2799 82.1503 13.2799 83.3405C13.2799 84.5525 12.565 85.2017 11.1135 85.2883C10.8969 85.2883 10.6802 85.2883 10.052 85.2883L10.0737 85.2666Z" fill="#7AB93B"/>
<path d="M111.85 112.708C111.85 114.72 111.179 115.629 109.749 115.499C108.492 115.413 107.972 114.569 107.994 112.6C107.994 110.76 108.536 109.938 109.77 109.873C111.2 109.786 111.828 110.673 111.828 112.708H111.85Z" fill="#70CAF3"/>
<path d="M114.666 119.352C112.673 119.352 111.828 118.767 111.85 117.361C111.872 115.954 112.695 115.478 115.013 115.499C116.681 115.499 117.483 116.127 117.504 117.382C117.504 118.746 116.638 119.352 114.666 119.352Z" fill="#70CAF3"/>
<path d="M95.6889 13.3094C93.7175 13.3094 92.8726 12.7034 92.9159 11.34C92.9593 10.0848 93.7175 9.54381 95.4506 9.52216C97.682 9.50052 98.4835 9.95499 98.5485 11.2967C98.6135 12.7251 97.7686 13.331 95.6889 13.3094Z" fill="#C878B0"/>
<path d="M19.9307 81.4361C20.2773 81.4361 20.6456 81.4145 20.9922 81.4361C22.0754 81.5443 22.7253 82.1936 22.7903 83.2323C22.8553 84.2711 22.292 85.0286 21.2088 85.1801C20.4723 85.2883 19.714 85.2883 18.9558 85.2233C17.786 85.1368 17.0061 84.2495 17.0494 83.2323C17.1144 82.1936 17.9376 81.4794 19.1291 81.4145C19.3891 81.4145 19.6707 81.4145 19.9307 81.4145V81.4361Z" fill="#7AB93B"/>
<path d="M17.1794 88.1449C17.136 88.5344 17.136 88.9456 17.0711 89.3352C16.8761 90.4172 16.1395 90.9799 15.0997 90.915C14.0598 90.8501 13.3882 90.2008 13.3016 89.1188C13.2582 88.5128 13.2799 87.8852 13.3016 87.2576C13.3449 86.0673 14.0815 85.245 15.1213 85.1801C16.1395 85.1151 16.9844 85.9159 17.1144 87.0845C17.1577 87.4307 17.1144 87.7986 17.1144 88.1449H17.1577H17.1794Z" fill="#7AB93B"/>
<path d="M105.243 115.521C105.633 115.521 106.044 115.456 106.434 115.521C107.431 115.694 108.037 116.365 108.059 117.339C108.081 118.313 107.561 119.049 106.542 119.222C105.806 119.33 105.048 119.352 104.289 119.308C103.098 119.222 102.296 118.399 102.318 117.382C102.318 116.3 103.185 115.543 104.441 115.478C104.701 115.478 104.983 115.478 105.243 115.478V115.521Z" fill="#70CAF3"/>
<path d="M111.828 122.165C111.828 122.555 111.893 122.966 111.828 123.355C111.655 124.351 111.005 124.957 110.009 125C109.034 125.043 108.276 124.524 108.124 123.507C107.994 122.771 107.994 122.013 108.037 121.256C108.102 120.066 108.925 119.265 109.944 119.265C111.027 119.265 111.807 120.131 111.85 121.386C111.85 121.646 111.85 121.927 111.85 122.187L111.828 122.165Z" fill="#70CAF3"/>
<path d="M28.4229 3.91707C42.0711 3.91707 53.0329 14.8026 53.0329 28.3284C53.0329 42.1788 42.1577 52.9995 28.2712 52.9778C14.7747 52.9778 3.89948 41.9624 3.92114 28.3068C3.92114 14.8459 14.9263 3.89543 28.4229 3.91707ZM28.3796 47.3944C33.4705 47.3511 37.7816 45.6631 41.4211 42.3087C42.591 41.2266 42.7643 40.0796 41.9194 39.1923C41.0962 38.3267 40.0563 38.4133 38.8865 39.4304C38.4532 39.7983 38.0199 40.1878 37.565 40.5341C31.7158 44.9273 23.9385 44.5377 18.2409 39.5602C16.8977 38.3916 15.8362 38.2834 15.013 39.2356C14.1898 40.1662 14.3847 41.2699 15.6846 42.4385C19.3241 45.728 23.5919 47.3727 28.3796 47.416V47.3944ZM11.4385 26.1643C11.3951 27.5061 12.0234 28.3717 13.1283 28.4366C14.3414 28.5016 15.0347 27.9172 15.2296 26.7053C15.2513 26.4889 15.3163 26.2725 15.3813 26.0561C15.6629 25.1255 16.3562 24.5196 17.2444 24.7793C17.8943 24.9524 18.3925 25.6665 18.8908 26.2076C19.0425 26.3591 18.9775 26.727 19.0425 26.965C19.3674 28.0687 20.1257 28.5881 21.2522 28.415C22.3137 28.2419 22.812 27.4628 22.8553 26.424C22.9419 23.5673 20.2123 20.8838 17.201 20.8405C14.2331 20.7756 11.5468 23.286 11.4601 26.1643H11.4385ZM45.5373 25.8613C45.5589 23.4375 42.8943 20.8405 39.8614 20.8405C36.8501 20.8405 34.1205 23.4591 34.1205 26.3591C34.1205 27.4628 34.6404 28.2419 35.7669 28.4366C36.8501 28.6314 37.76 28.0038 37.9549 26.7919C38.1499 25.6016 38.5615 24.7143 39.9047 24.736C41.1828 24.736 41.5728 25.6665 41.7678 26.7703C42.0061 28.0038 42.8076 28.6314 43.8908 28.4366C45.0173 28.2419 45.5373 27.5061 45.5156 25.8613H45.5373Z" fill="#FFF57F"/>
<path d="M118.566 65.7678C115.966 67.932 113.648 69.923 111.243 71.8274C110.074 72.758 109.749 73.7535 110.139 75.1818C111.005 78.3631 111.742 81.5876 112.608 85.0935C110.247 83.7517 108.124 82.5182 105.979 81.3279C101.733 78.9474 102.903 78.9907 98.7652 81.3279C96.5988 82.5398 94.4757 83.7734 92.0711 85.1368C92.8726 81.8906 93.4792 78.8824 94.3891 75.9609C95.0173 73.9699 94.6274 72.6714 92.9376 71.4162C90.6629 69.7498 88.5832 67.8238 86.2002 65.8328C89.4064 65.4216 92.3527 64.9671 95.3206 64.7074C97.2054 64.5559 98.3969 63.885 99.0685 62.0022C100 59.4269 101.192 56.9598 102.361 54.1898C103.575 57.0248 104.766 59.6001 105.784 62.2619C106.391 63.8634 107.409 64.5126 109.034 64.6641C112.11 64.9671 115.186 65.3783 118.566 65.7895V65.7678Z" fill="#FFF57F"/>
<path d="M28.3579 47.3944C23.5919 47.3728 19.3024 45.7064 15.6629 42.4169C14.3631 41.2483 14.1681 40.1446 14.9913 39.214C15.8362 38.2618 16.8977 38.37 18.2192 39.5386C23.9168 44.4945 31.6941 44.9056 37.5433 40.5125C37.9983 40.1662 38.4315 39.7767 38.8648 39.4088C40.0563 38.3916 41.0962 38.3267 41.8977 39.1707C42.7426 40.058 42.5693 41.205 41.3995 42.2871C37.76 45.6415 33.4489 47.3295 28.3579 47.3728V47.3944Z" fill="black"/>
<path d="M11.4385 26.1643C11.5251 23.286 14.2114 20.7756 17.1794 20.8405C20.2123 20.9055 22.9203 23.5673 22.8336 26.424C22.812 27.4628 22.3137 28.2419 21.2305 28.415C20.104 28.6098 19.3458 28.0687 19.0208 26.965C18.9558 26.7053 19.0208 26.3591 18.8691 26.2076C18.3709 25.6665 17.851 24.9524 17.2227 24.7793C16.3345 24.5196 15.6412 25.1255 15.3596 26.0561C15.2946 26.2725 15.2296 26.4889 15.208 26.7053C15.0347 27.9172 14.3198 28.5016 13.1066 28.4366C12.0017 28.3717 11.3951 27.5061 11.4168 26.1643H11.4385Z" fill="black"/>
<path d="M45.5373 25.8397C45.5373 27.4844 45.039 28.2202 43.9125 28.415C42.8293 28.6098 42.0061 27.9822 41.7894 26.7486C41.5728 25.6449 41.1828 24.736 39.9263 24.7143C38.6049 24.7143 38.1716 25.58 37.9766 26.7703C37.7816 27.9605 36.8718 28.6098 35.7886 28.415C34.6404 28.2202 34.1421 27.4411 34.1421 26.3374C34.1421 23.4375 36.8718 20.8189 39.883 20.8189C42.9376 20.8189 45.5806 23.4159 45.5589 25.8397H45.5373Z" fill="black"/>
</g>
<defs>
<clipPath id="clip0_73_355">
<rect width="125" height="125" fill="white"/>
</clipPath>
</defs>
</svg>
