<svg width="125" height="125" viewBox="0 0 125 125" fill="none" xmlns="http://www.w3.org/2000/svg">
<path d="M83.4395 22.5257C82.8796 22.0207 82.4076 21.5816 81.9246 21.1535C80.8927 20.2314 79.751 19.8801 78.3459 20.0997C74.3831 20.7144 70.4093 21.2743 66.4244 21.7902C65.0523 21.9658 64.0204 22.5915 63.0654 23.5466C49.6948 36.939 36.3134 50.3205 22.9428 63.713C21.7024 64.9534 20.3522 65.667 18.5848 65.1181C15.9063 64.2728 14.9623 61.0674 16.7735 58.9159C17.0589 58.5756 17.3883 58.2682 17.7066 57.9498C30.8027 44.8538 43.9207 31.7797 56.9619 18.6287C59.5635 15.9941 62.4835 14.3585 66.172 13.9523C69.9153 13.5352 73.6476 12.9643 77.3799 12.4045C81.5184 11.7788 84.9653 13.0851 87.8853 15.9831C88.1488 16.2356 88.4013 16.4991 88.6647 16.7516C88.7196 16.8064 88.7964 16.8394 88.9611 16.9491C89.2575 16.6637 89.5868 16.3783 89.8942 16.071C92.5068 13.4583 95.0865 10.8018 97.743 8.23306C105.252 0.976983 117.327 3.75427 120.477 13.4913C122.069 18.4311 121.125 23.0197 117.623 26.8727C114.945 29.8147 112.047 32.5481 109.225 35.3583C108.918 35.6657 108.457 35.8193 108.062 36.0499C108.106 36.2365 108.139 36.4231 108.183 36.6097C108.545 36.8622 108.962 37.0818 109.269 37.3891C112.2 40.2872 113.474 43.756 112.881 47.8835C112.266 52.0989 111.728 56.3252 111.092 60.5295C110.707 63.1312 109.533 65.3706 107.656 67.2368C94.0985 80.7939 80.5524 94.351 66.9953 107.908C65.0962 109.807 62.7031 109.917 61.0675 108.226C59.4648 106.58 59.6184 104.253 61.4627 102.408C74.4929 89.3672 87.5121 76.3041 100.597 63.3068C102.387 61.5285 103.506 59.6953 103.715 57.1156C104.011 53.6028 104.659 50.1229 105.153 46.6321C105.339 45.3478 104.988 44.1951 104.077 43.284C99.1152 38.3112 94.1425 33.3494 89.1697 28.3876C87.4682 30.0782 87.545 33.1957 89.2246 35.3693C89.8283 36.1487 90.4211 37.0598 90.6077 37.9929C90.959 39.7273 90.0149 41.2312 88.4671 41.9667C86.8644 42.7242 85.2068 42.4058 83.9005 41.0995C79.268 36.4121 78.7741 28.8157 82.7698 23.4697C82.9565 23.2173 83.1541 22.9648 83.4834 22.5367L83.4395 22.5257ZM102.705 30.5941C105.768 27.5863 108.94 24.5565 111.992 21.417C113.166 20.2094 113.551 18.5738 113.232 16.8723C112.804 14.567 111.476 12.9534 109.236 12.2398C106.997 11.5263 104.977 12.0642 103.298 13.7108C100.751 16.2246 98.248 18.7714 95.7012 21.2852C95.2841 21.7024 94.7682 22.0207 94.4279 22.2842C97.3808 25.2481 100.059 27.9485 102.705 30.5941Z" fill="black"/>
<path d="M9.9785 65.4474C26.6752 82.21 43.0315 98.6212 59.4208 115.065C54.6896 121.806 46.5114 123.167 40.869 117.623C29.694 106.635 18.6507 95.5036 7.61835 84.3835C3.04076 79.773 3.18347 72.7035 7.76106 68.093C8.58436 67.2697 9.26496 66.3037 9.9785 65.4365V65.4474Z" fill="#FF6A6A"/>
<path d="M49.6838 70.6837C48.0811 69.1468 46.7638 67.9393 45.5014 66.6769C43.756 64.9425 43.6572 62.5933 45.205 61.0565C46.7309 59.5526 49.0032 59.6514 50.7267 61.3638C53.6357 64.2509 56.5118 67.1819 59.4428 70.047C61.2321 71.7924 63.8557 71.1667 64.207 68.8395C64.3277 68.0271 63.8776 66.9184 63.3178 66.2488C61.9566 64.6461 60.3319 63.2629 58.8939 61.7151C53.5589 55.9959 55.8092 46.9834 63.1202 44.8428C66.2488 43.9317 69.2127 44.3818 71.957 46.1601C72.2973 46.3797 72.6267 46.5992 73.3402 47.1371C73.8561 46.4565 74.2952 45.6991 74.888 45.1063C76.4907 43.5365 78.7521 43.5036 80.223 44.9636C81.716 46.4236 81.694 48.8057 80.0913 50.3974C79.5205 50.9682 78.774 51.3414 77.9727 51.9013C79.74 53.6467 81.0464 54.975 82.3746 56.2703C84.0322 57.884 84.1639 60.1234 82.66 61.6822C81.222 63.1751 78.8948 63.23 77.314 61.6822C74.3721 58.8171 71.5179 55.8751 68.587 53.01C68.0601 52.4941 67.3575 52.0221 66.6659 51.8574C65.4584 51.572 64.4155 52.0769 63.7898 53.1857C63.1641 54.3163 63.3507 55.4141 64.218 56.3252C65.667 57.862 67.1819 59.333 68.6748 60.8259C70.1458 62.2969 71.1228 64.0204 71.6058 66.0622C73.0328 72.0888 68.4113 78.1703 62.242 78.4228C59.7501 78.5325 57.4888 77.9288 55.5128 76.4249C54.8762 75.9419 54.4919 75.9858 53.998 76.5456C53.5369 77.0616 53.0429 77.5556 52.516 77.9837C50.8804 79.301 48.7178 79.1473 47.3566 77.6653C46.0064 76.1944 45.9844 74.1416 47.4005 72.6047C48.0043 71.9571 48.7398 71.4411 49.6619 70.6507L49.6838 70.6837Z" fill="#00847E"/>
<path d="M116.668 91.6725C114.956 91.2334 112.771 90.6626 110.587 90.0918C109.961 89.9271 109.335 89.7734 108.72 89.5649C106.701 88.8733 105.614 86.8205 106.196 84.8226C106.799 82.7698 108.72 81.5952 110.806 82.1002C113.353 82.7259 115.9 83.3846 118.414 84.131C120.324 84.6909 121.377 86.557 121.059 88.511C120.752 90.3662 119.138 91.6725 116.668 91.6615V91.6725Z" fill="#7AB93B"/>
<path d="M8.23308 33.5909C8.44165 33.6239 8.84781 33.6458 9.243 33.7446C11.5922 34.3594 13.9304 34.9741 16.2686 35.6327C18.4092 36.2365 19.6386 38.2673 19.1446 40.2982C18.6177 42.4388 16.6308 43.6902 14.4024 43.1523C11.8886 42.5485 9.38571 41.8899 6.90481 41.1544C4.98376 40.5945 3.87504 38.7064 4.20436 36.8183C4.53368 34.9412 6.13639 33.5909 8.24405 33.5909H8.23308Z" fill="#7AB93B"/>
<path d="M39.3651 19.2324C37.6416 19.2105 36.1706 18.1567 35.6657 16.4222C34.9521 13.9743 34.2715 11.5153 33.6897 9.03441C33.1628 6.81697 34.4582 4.79712 36.5878 4.25923C38.5418 3.77622 40.5836 4.96178 41.1873 7.05847C41.9118 9.55035 42.5815 12.0532 43.1852 14.567C43.756 16.9821 41.846 19.2544 39.3651 19.2324Z" fill="#7AB93B"/>
<path d="M91.6506 116.46C91.6506 119.094 90.3443 120.686 88.522 121.059C86.7546 121.421 84.7677 120.444 84.2079 118.677C83.3516 115.933 82.6161 113.144 81.9795 110.345C81.6062 108.699 82.8796 106.865 84.5701 106.262C86.3046 105.647 88.511 106.283 89.1367 107.996C90.2235 110.982 90.97 114.099 91.6506 116.449V116.46Z" fill="#7AB93B"/>
<path d="M96.4806 100.696C96.6782 99.0384 97.3698 97.8418 98.742 97.1503C100.147 96.4367 101.673 96.4367 102.859 97.5125C104.988 99.4555 107.041 101.475 108.984 103.605C110.301 105.043 110.038 107.348 108.633 108.688C107.184 110.071 104.867 110.257 103.429 108.918C101.409 107.041 99.4555 105.087 97.5893 103.056C97.0295 102.452 96.8429 101.497 96.4806 100.707V100.696Z" fill="#7AB93B"/>
<path d="M24.2162 28.6182C23.7442 28.3657 22.7013 28.0583 21.9768 27.3997C20.1985 25.797 18.5628 24.0515 16.8833 22.35C15.1598 20.6046 15.083 18.1896 16.6747 16.6088C18.2445 15.0501 20.6046 15.1159 22.3171 16.7955C24.0845 18.5299 25.8409 20.2643 27.5534 22.0537C28.7389 23.2941 28.9475 24.7761 28.2559 26.3239C27.5973 27.7948 26.3678 28.4754 24.2162 28.6182Z" fill="#7AB93B"/>
</svg>
