<svg width="125" height="125" viewBox="0 0 125 125" fill="none" xmlns="http://www.w3.org/2000/svg">
<path d="M18.457 88.6328C19.2676 88.1771 19.9707 87.7865 20.6673 87.3861C24.6354 85.0944 28.5905 82.78 32.5749 80.5176C34.8828 79.2057 37.3275 78.0469 40.0065 78.0794C41.9499 78.1022 43.9648 78.4863 45.8105 79.1081C51.4128 80.9928 56.9499 83.0436 62.7539 84.3034C66.7318 85.166 68.9811 89.1927 67.9655 93.1185C67.8874 93.4147 67.819 93.7142 67.6758 94.3099C68.6133 93.8346 69.3359 93.5091 70.0163 93.112C75.8366 89.7331 81.6471 86.3281 87.4707 82.9557C90.2214 81.3607 93.0632 80.013 96.3281 79.8405C102.425 79.515 106.318 85.3223 103.548 90.7747C102.988 91.875 102.035 92.9492 100.993 93.6003C90.1237 100.384 79.196 107.08 68.2845 113.802C64.5833 116.081 60.638 116.514 56.4746 115.387C49.6322 113.538 42.7669 111.784 35.957 109.821C34.056 109.274 32.5846 109.515 31.097 110.905C31.4616 111.576 31.8652 112.308 32.2624 113.044C33.6361 115.583 32.946 118.177 30.4688 119.642C28.8639 120.589 27.2428 121.514 25.599 122.393C23.0957 123.727 20.5241 123.014 19.1211 120.55C14.1471 111.813 9.18945 103.063 4.25781 94.3001C2.88412 91.8587 3.62956 89.2057 6.0319 87.7865C7.63672 86.8392 9.26758 85.9277 10.9049 85.0358C13.4212 83.6686 15.931 84.3587 17.4056 86.7969C17.7409 87.3503 18.0534 87.9134 18.4668 88.6231L18.457 88.6328ZM29.0527 107.38C29.8275 106.94 30.5436 106.631 31.1491 106.175C32.4772 105.173 33.8184 105.195 35.3841 105.628C42.7995 107.682 50.2507 109.616 57.679 111.634C60.8008 112.484 63.6849 112.051 66.4258 110.358C77.194 103.714 87.9688 97.0833 98.7402 90.4427C100.257 89.5085 100.833 87.8939 100.339 86.11C99.9251 84.6224 98.7012 83.7598 96.9043 83.7695C96.2207 83.7728 95.485 83.7858 94.8665 84.03C92.9883 84.7689 91.071 85.472 89.3229 86.4583C83.571 89.7136 77.8744 93.0664 72.1842 96.4258C69.0658 98.265 65.7617 99.2057 62.1745 98.4505C58.2161 97.6172 54.2936 96.6081 50.3613 95.6543C49.3392 95.4069 48.3073 95.1497 47.334 94.7624C46.3607 94.375 45.8919 93.5645 46.1719 92.5065C46.4453 91.4648 47.1908 90.9733 48.2715 91.071C48.6296 91.1035 48.9844 91.2175 49.3359 91.3086C52.9785 92.2689 56.6081 93.2813 60.2669 94.1732C62.2754 94.6647 63.8867 93.6263 64.2708 91.8001C64.6191 90.14 63.4147 88.5091 61.6276 87.9915C56.7285 86.5755 51.849 85.1009 46.9629 83.6426C46.4974 83.5026 46.0286 83.3561 45.5924 83.1445C41.5788 81.2077 37.8223 81.9238 34.1471 84.1244C30.5273 86.2891 26.8555 88.3626 23.2064 90.4753C22.3047 90.9994 21.4063 91.53 20.4492 92.0931C23.3431 97.2266 26.1849 102.266 29.0625 107.37L29.0527 107.38ZM13.405 88.1966C12.9622 88.4147 12.7051 88.5319 12.4577 88.6686C11.0807 89.4434 9.72331 90.2539 8.32031 90.9863C7.45768 91.4388 7.39258 91.9629 7.85807 92.7474C8.74675 94.2448 9.58985 95.7715 10.446 97.2884C14.3783 104.235 18.3236 111.178 22.2266 118.141C22.7637 119.098 23.265 119.316 24.2253 118.695C25.446 117.904 26.7285 117.191 28.0339 116.543C29.0527 116.035 29.1309 115.488 28.571 114.535C26.7871 111.491 25.0814 108.405 23.3431 105.335C20.3288 100.007 17.3145 94.6777 14.2871 89.3587C14.0462 88.9356 13.6914 88.5775 13.4017 88.1999L13.405 88.1966Z" fill="black"/>
<path d="M50.459 51.9759C49.5247 51.5625 48.6328 51.1882 47.7572 50.7747C44.4271 49.2025 42.7148 45.9277 43.2552 42.2819C43.457 40.918 43.6654 39.5443 43.7012 38.1706C43.7207 37.3958 43.5059 36.5625 43.1999 35.8431C42.6302 34.502 41.8815 33.2389 41.2663 31.9173C39.8177 28.8184 40.3971 25.5013 42.7897 23.0436C43.2715 22.5488 43.7435 22.0313 44.2969 21.6244C46.5234 19.9902 47.6823 17.78 48.0241 15.0716C48.1152 14.3522 48.2975 13.6328 48.5352 12.9492C49.5931 9.87956 51.7057 8.00131 54.9512 7.55534C56.3151 7.3698 57.7018 7.3405 59.0788 7.28842C60.5046 7.23633 61.7676 6.83594 62.8809 5.9017C63.7793 5.14649 64.7428 4.45964 65.6966 3.77605C68.6719 1.64389 72.1159 1.64063 75.1009 3.76303C75.8301 4.2806 76.6016 4.75586 77.2396 5.3711C78.8835 6.95313 80.8659 7.36654 83.0534 7.35027C84.2643 7.3405 85.5143 7.39258 86.6797 7.68555C89.8405 8.47982 91.9727 10.5697 92.4544 13.75C93.0241 17.5033 94.7396 20.3092 97.627 22.7246C100.596 25.2083 101.296 28.8639 99.3392 32.1908C97.3275 35.612 96.8066 39.0137 97.5749 42.8678C98.1966 45.9961 96.2435 49.1927 93.2943 50.6543C92.3568 51.1198 91.3802 51.5137 90.332 51.9824C91.7708 55.0814 93.1803 58.1217 94.5931 61.1589C95.2767 62.627 95.9733 64.0918 96.6602 65.5599C97.1191 66.5462 97.1908 67.5326 96.4713 68.4245C95.7682 69.2969 94.8503 69.5215 93.7435 69.2969C91.9173 68.929 90.0781 68.61 88.2324 68.3626C87.8841 68.3171 87.321 68.5905 87.1289 68.8932C86.1328 70.4688 85.2083 72.0931 84.2904 73.7142C83.7435 74.6777 82.9785 75.2897 81.8522 75.2279C80.7292 75.1693 80.0293 74.4857 79.5671 73.4798C77.806 69.6517 75.9245 65.8724 74.2871 61.9922C73.5938 60.3451 72.4609 59.7917 70.8984 59.6094C68.8607 59.3717 67.4186 60.166 66.5723 61.9954C64.834 65.7454 63.0794 69.4889 61.3607 73.2487C60.8724 74.3132 60.2214 75.1563 58.9746 75.2279C57.7246 75.3027 56.9727 74.5475 56.3997 73.5189C55.612 72.1029 54.72 70.7389 53.9746 69.3001C53.5417 68.4635 53.1152 68.138 52.1061 68.3887C50.459 68.7988 48.75 68.9518 47.0833 69.2936C45.9798 69.5182 45.0586 69.3099 44.3522 68.4375C43.6328 67.5521 43.6849 66.569 44.1471 65.5762C46.0482 61.5007 47.9492 57.4219 49.8503 53.3464C50.0521 52.9134 50.2376 52.4707 50.459 51.9694V51.9759ZM93.623 42.9915C93.5319 42.2689 93.4798 41.5365 93.3398 40.8203C92.7734 37.9134 93.1185 35.1823 94.7396 32.6432C95.153 31.9987 95.4492 31.276 95.7845 30.5827C96.7285 28.6133 96.4583 27.0247 94.8991 25.5013C93.9388 24.5671 92.9525 23.6589 91.9792 22.7376C90.7682 21.5951 89.9316 20.2409 89.5736 18.5938C89.2839 17.2461 88.9681 15.905 88.6263 14.5703C88.125 12.6009 86.9531 11.5983 84.9544 11.4258C83.8216 11.3281 82.6855 11.2467 81.5527 11.224C79.4141 11.1816 77.4902 10.5925 75.8105 9.21876C74.8372 8.42448 73.8151 7.6823 72.7865 6.95964C71.1686 5.82683 69.6549 5.82357 68.0436 6.95313C66.9824 7.69857 65.9342 8.47331 64.9219 9.28712C63.3008 10.5859 61.4486 11.1556 59.3978 11.2142C58.2227 11.2468 57.0443 11.3249 55.8724 11.4225C53.8607 11.5885 52.679 12.5944 52.1842 14.5443C51.8555 15.8398 51.5332 17.1387 51.2598 18.4473C50.8984 20.179 50.0586 21.6178 48.7695 22.8092C48.0534 23.4701 47.3568 24.1536 46.6439 24.8177C44.0202 27.2591 43.8932 28.252 45.4622 31.5267C46.3151 33.304 47.2721 35.1237 47.6074 37.028C47.9069 38.7272 47.4349 40.5664 47.2624 42.3372C46.9694 45.3841 47.5065 46.582 50.3743 47.5619C54.2253 48.8802 57.1387 51.1393 58.9486 54.7949C59.0365 54.9772 59.1634 55.14 59.2773 55.3092C60.5534 57.207 62.0117 57.7734 64.1992 57.1257C71.0026 55.1009 69.694 55.026 76.6667 57.1387C78.7923 57.7832 80.2702 57.2331 81.4876 55.3646C85.5697 49.1016 84.7754 50.1172 91.0579 47.3372C93.0827 46.4421 93.776 45.2116 93.623 42.9883V42.9915ZM53.8411 54.5215C52.2038 58.0306 50.6934 61.2695 49.0592 64.7721C50.5632 64.5117 51.7806 64.3197 52.9915 64.0885C54.9772 63.7109 55.6022 63.9779 56.5983 65.6836C57.2428 66.7904 57.8939 67.8939 58.6816 69.2448C59.9316 66.5625 61.0645 64.1341 62.2819 61.5202C57.819 61.1979 55.9342 57.9199 53.8379 54.5215H53.8411ZM82.0312 69.0365C82.2591 68.8932 82.3535 68.8672 82.3893 68.8086C82.9948 67.7995 83.597 66.7904 84.1895 65.778C85.2637 63.9486 85.804 63.7109 87.8581 64.1016C89.0625 64.3294 90.2734 64.515 91.7513 64.7656C90.1139 61.2533 88.6003 58.0143 86.9629 54.502C84.8926 57.9915 82.9362 61.224 78.5514 61.5592C79.7754 64.1895 80.8854 66.5723 82.0312 69.0397V69.0365Z" fill="black"/>
<path d="M111.738 48.2292C111.738 49.1211 111.79 50.0163 111.725 50.905C111.634 52.1615 110.827 52.9036 109.697 52.8678C108.633 52.8353 107.852 52.0996 107.809 50.8887C107.747 49.1048 107.747 47.3177 107.813 45.5371C107.858 44.3197 108.636 43.6003 109.714 43.5742C110.85 43.5482 111.637 44.2806 111.725 45.5534C111.787 46.4421 111.738 47.3372 111.738 48.2292Z" fill="#70CAF3"/>
<path d="M116.514 56.9369C115.661 56.9369 114.808 56.9662 113.958 56.9303C112.676 56.875 111.885 56.1426 111.849 55.0391C111.81 53.9095 112.539 53.0697 113.809 53.0143C115.589 52.9395 117.38 52.9395 119.16 53.0111C120.443 53.0599 121.172 53.877 121.149 55.0098C121.126 56.1296 120.355 56.8685 119.069 56.9336C118.219 56.9759 117.367 56.9401 116.514 56.9401V56.9369Z" fill="#70CAF3"/>
<path d="M103.044 56.9369C102.191 56.9369 101.338 56.9661 100.488 56.9303C99.196 56.8717 98.4147 56.1491 98.3724 55.0391C98.3301 53.9095 99.056 53.0729 100.335 53.0176C102.116 52.9395 103.906 52.9395 105.69 53.0111C106.963 53.0599 107.712 53.8932 107.689 55.0098C107.666 56.11 106.868 56.8717 105.602 56.9336C104.753 56.9727 103.9 56.9401 103.047 56.9434L103.044 56.9369Z" fill="#70CAF3"/>
<path d="M111.748 61.7253C111.748 62.5781 111.787 63.431 111.738 64.2806C111.663 65.5664 110.911 66.3444 109.805 66.3672C108.691 66.39 107.855 65.6185 107.812 64.3522C107.751 62.5684 107.747 60.7813 107.816 58.9974C107.861 57.8092 108.682 57.054 109.733 57.0345C110.837 57.015 111.647 57.7897 111.732 59.0462C111.79 59.9349 111.745 60.8301 111.745 61.7253C111.745 61.7253 111.748 61.7253 111.751 61.7253H111.748Z" fill="#70CAF3"/>
<path d="M23.6263 58.3626C23.6263 59.2904 23.6621 60.2214 23.6165 61.1491C23.5645 62.2493 22.6823 63.0729 21.6569 63.0501C20.6706 63.0273 19.7982 62.2396 19.7721 61.1947C19.7233 59.2969 19.7201 57.3958 19.7721 55.498C19.8014 54.4531 20.6868 53.6719 21.6732 53.6621C22.7083 53.6491 23.5677 54.4629 23.6165 55.5762C23.6589 56.5039 23.6263 57.4349 23.6263 58.3626Z" fill="#70CAF3"/>
<path d="M29.987 21.0352C29.987 20.1042 29.9544 19.1764 29.9967 18.2487C30.0456 17.1842 30.8431 16.4095 31.849 16.3704C32.8841 16.3281 33.8086 17.1322 33.8379 18.2324C33.8867 20.0911 33.8802 21.9499 33.8444 23.8086C33.8216 24.9251 32.9557 25.7487 31.9238 25.7552C30.8887 25.7585 30.0391 24.9382 29.9935 23.8249C29.9544 22.8971 29.987 21.9661 29.987 21.0384V21.0352Z" fill="#70CAF3"/>
<path d="M14.974 49.694C15.9017 49.694 16.8359 49.655 17.7604 49.7038C18.8444 49.7624 19.6094 50.5501 19.6484 51.5495C19.6875 52.5553 18.8672 53.5189 17.7767 53.5547C15.9212 53.6165 14.0592 53.61 12.2005 53.5612C11.071 53.5319 10.2702 52.6628 10.2669 51.6244C10.2637 50.5664 11.0319 49.7591 12.1875 49.7005C13.1152 49.6517 14.0462 49.6908 14.974 49.694Z" fill="#70CAF3"/>
<path d="M25.0977 16.2923C24.2448 16.2923 23.3919 16.3281 22.5391 16.2826C21.3151 16.2207 20.485 15.3906 20.4948 14.3034C20.5013 13.2064 21.3053 12.4186 22.5716 12.3893C24.3164 12.347 26.0645 12.347 27.8092 12.3893C29.0625 12.4219 29.873 13.2389 29.86 14.3327C29.8503 15.4069 28.9974 16.2077 27.7767 16.2891C27.6953 16.2956 27.6139 16.2891 27.5326 16.2891C26.722 16.2891 25.9082 16.2891 25.0977 16.2891C25.0977 16.2891 25.0977 16.2891 25.0977 16.2858V16.2923Z" fill="#70CAF3"/>
<path d="M38.6035 12.4023C39.5736 12.4023 40.5436 12.3535 41.5104 12.4154C42.6009 12.487 43.3301 13.2812 43.3431 14.2936C43.3561 15.2767 42.6139 16.2109 41.5658 16.2532C39.6289 16.3314 37.6856 16.3314 35.752 16.2532C34.7135 16.2109 33.9551 15.2572 33.9714 14.2904C33.9876 13.2845 34.7298 12.487 35.8203 12.4154C36.7448 12.3568 37.6758 12.4023 38.6068 12.4056L38.6035 12.4023Z" fill="#70CAF3"/>
<path d="M28.4766 53.5775C27.6237 53.5775 26.7708 53.597 25.918 53.5742C24.6224 53.5384 23.7467 52.7181 23.7598 51.5918C23.776 50.4883 24.5833 49.7135 25.8463 49.6908C27.5911 49.6582 29.3392 49.6549 31.084 49.694C32.3372 49.7233 33.1315 50.5306 33.1152 51.6406C33.099 52.7409 32.2721 53.5254 31.0351 53.571C30.1823 53.6003 29.3294 53.5775 28.4766 53.5775Z" fill="#70CAF3"/>
<path d="M33.8574 7.66927C33.8574 8.52214 33.8802 9.375 33.8509 10.2246C33.8086 11.4714 33.0339 12.2428 31.8815 12.2233C30.791 12.207 30.0098 11.4486 29.9902 10.28C29.9577 8.45378 29.9512 6.62761 29.9935 4.80469C30.0195 3.65235 30.8431 2.91342 31.9466 2.92969C32.9981 2.94597 33.7793 3.6556 33.8379 4.74935C33.89 5.71941 33.8477 6.69597 33.8477 7.66927C33.8477 7.66927 33.8509 7.66927 33.8542 7.66927H33.8574Z" fill="#70CAF3"/>
<path d="M23.6263 44.9316C23.6263 45.8236 23.6556 46.7187 23.6198 47.6074C23.571 48.7663 22.7832 49.5247 21.6927 49.5247C20.6087 49.5247 19.7917 48.763 19.7656 47.6042C19.7266 45.778 19.7233 43.9518 19.7656 42.1289C19.7917 40.97 20.6055 40.2181 21.696 40.2181C22.7897 40.2181 23.571 40.9668 23.6198 42.1322C23.6588 43.0631 23.6263 43.9974 23.6296 44.9316H23.6263Z" fill="#70CAF3"/>
<path d="M29.0527 107.376C26.1751 102.272 23.3333 97.2331 20.4395 92.0996C21.3965 91.5365 22.2949 91.0026 23.1966 90.4818C26.8457 88.3659 30.5208 86.2956 34.1374 84.1309C37.8158 81.9304 41.569 81.2175 45.5827 83.1511C46.0189 83.3626 46.4876 83.5091 46.9531 83.6491C51.8392 85.1074 56.7188 86.5853 61.6178 87.9981C63.4049 88.5156 64.6094 90.1465 64.2611 91.8067C63.877 93.6328 62.2689 94.6712 60.2572 94.1797C56.5983 93.2878 52.9688 92.2721 49.3262 91.3151C48.9746 91.224 48.6198 91.11 48.2617 91.0775C47.181 90.9798 46.4355 91.4714 46.1621 92.513C45.8822 93.571 46.3509 94.3848 47.3242 94.7689C48.2975 95.1563 49.3294 95.4102 50.3516 95.6608C54.2839 96.6146 58.2064 97.6237 62.1647 98.457C65.752 99.2122 69.056 98.2715 72.1745 96.4323C77.8678 93.0729 83.5612 89.7201 89.3131 86.4649C91.0612 85.4753 92.9785 84.7754 94.8568 84.0365C95.4753 83.7923 96.2109 83.7793 96.8945 83.776C98.6914 83.7663 99.9154 84.6289 100.329 86.1165C100.827 87.9004 100.247 89.515 98.7305 90.4492C87.9622 97.0898 77.1842 103.721 66.416 110.365C63.6751 112.054 60.7943 112.487 57.6693 111.641C50.2441 109.619 42.793 107.689 35.3743 105.635C33.8118 105.202 32.4707 105.179 31.1393 106.182C30.5339 106.637 29.8177 106.947 29.043 107.386L29.0527 107.376Z" fill="#FBFCC8"/>
<path d="M13.4017 88.1934C13.6947 88.571 14.0462 88.929 14.2871 89.3522C17.3145 94.6712 20.3288 100.003 23.3431 105.329C25.0814 108.398 26.7871 111.488 28.571 114.528C29.1309 115.482 29.0527 116.029 28.0339 116.536C26.7285 117.184 25.446 117.897 24.2253 118.688C23.2617 119.313 22.7604 119.092 22.2266 118.135C18.3236 111.172 14.3783 104.229 10.446 97.2819C9.58659 95.765 8.74674 94.2383 7.85807 92.7409C7.39257 91.9564 7.45768 91.429 8.32031 90.9798C9.72005 90.2474 11.0775 89.4369 12.4577 88.6621C12.7051 88.5254 12.9622 88.4082 13.4049 88.1901L13.4017 88.1934ZM14.3001 93.4733C14.3131 92.4772 13.4538 91.6146 12.4577 91.6179C11.4909 91.6179 10.6966 92.3958 10.6641 93.3692C10.6283 94.4108 11.3965 95.2539 12.4154 95.28C13.418 95.306 14.2871 94.4727 14.3001 93.4733Z" fill="#64BC95"/>
<path d="M93.623 42.9883C93.776 45.2116 93.0827 46.4421 91.0579 47.3372C84.7754 50.1172 85.5697 49.1016 81.4876 55.3646C80.2702 57.2331 78.7923 57.7832 76.6667 57.1387C69.6908 55.026 71.0026 55.1009 64.1992 57.1257C62.0117 57.7767 60.5534 57.2103 59.2773 55.3092C59.1634 55.14 59.0397 54.9772 58.9486 54.7949C57.1387 51.1393 54.222 48.877 50.3743 47.5618C47.5065 46.582 46.9694 45.3841 47.2624 42.3372C47.4316 40.5631 47.9036 38.724 47.6074 37.028C47.2721 35.127 46.3151 33.304 45.4622 31.5267C43.8932 28.252 44.0202 27.2624 46.6439 24.8177C47.3568 24.1536 48.0534 23.4733 48.7695 22.8092C50.0586 21.6146 50.8984 20.1758 51.2598 18.4473C51.5332 17.1387 51.8555 15.8398 52.1842 14.5443C52.679 12.5944 53.8639 11.5918 55.8724 11.4225C57.0443 11.3249 58.2227 11.25 59.3978 11.2142C61.4486 11.1556 63.3008 10.5859 64.9219 9.28711C65.9342 8.47331 66.9792 7.69857 68.0436 6.95312C69.6549 5.82031 71.1654 5.82357 72.7865 6.95963C73.8151 7.68229 74.8372 8.42122 75.8105 9.21875C77.4902 10.5892 79.4141 11.1784 81.5527 11.224C82.6888 11.2467 83.8249 11.3281 84.9544 11.4258C86.9531 11.5951 88.125 12.5977 88.6263 14.5703C88.9648 15.9049 89.2806 17.2461 89.5736 18.5937C89.9284 20.2409 90.765 21.5951 91.9792 22.7376C92.9557 23.6556 93.9388 24.5638 94.8991 25.5013C96.4583 27.0247 96.7285 28.6133 95.7845 30.5827C95.4525 31.276 95.153 31.9987 94.7396 32.6432C93.1185 35.179 92.7734 37.9134 93.3398 40.8203C93.4798 41.5365 93.5319 42.2656 93.623 42.9915V42.9883ZM70.3906 51.5853C81.2728 51.5853 90.1693 42.7279 90.1953 31.8717C90.2213 20.8496 81.3379 11.9206 70.3613 11.9401C59.4889 11.9596 50.6445 20.8236 50.625 31.7188C50.6055 42.679 59.4694 51.5853 70.3906 51.5853Z" fill="#FF6A6A"/>
<path d="M53.8379 54.5182C55.9342 57.9167 57.819 61.1947 62.2819 61.5169C61.0645 64.1309 59.9316 66.5593 58.6816 69.2415C57.8906 67.8906 57.2428 66.7871 56.5983 65.6803C55.6022 63.9746 54.9772 63.7077 52.9915 64.0853C51.7806 64.3164 50.5599 64.5085 49.0592 64.7689C50.6934 61.2663 52.2038 58.0273 53.8411 54.5182H53.8379Z" fill="#FFF57F"/>
<path d="M82.028 69.0332C80.8822 66.569 79.7721 64.1862 78.5482 61.5527C82.9362 61.2174 84.8893 57.985 86.9596 54.4954C88.597 58.0078 90.1107 61.2467 91.7481 64.7591C90.2702 64.5085 89.0593 64.3229 87.8548 64.095C85.8008 63.7044 85.2604 63.9421 84.1862 65.7715C83.5905 66.7838 82.9915 67.7962 82.3861 68.8021C82.3503 68.8639 82.2559 68.8867 82.028 69.0299V69.0332Z" fill="#FFF57F"/>
<path d="M14.3034 93.4766C14.2904 94.4759 13.4212 95.3092 12.4186 95.2832C11.403 95.2572 10.6315 94.4141 10.6673 93.3724C10.7031 92.3991 11.4974 91.6243 12.4609 91.6211C13.457 91.6211 14.3132 92.4805 14.3034 93.4766Z" fill="black"/>
<path d="M70.3906 51.5853C59.4694 51.5853 50.6055 42.6758 50.625 31.7188C50.6445 20.8236 59.4889 11.9596 70.3613 11.9401C81.3379 11.9206 90.2214 20.8496 90.1953 31.8718C90.1693 42.7279 81.2728 51.5853 70.3906 51.5853ZM70.4655 47.627C79.2839 47.5814 86.3151 40.4492 86.2695 31.5918C86.224 22.959 79.03 15.8496 70.3646 15.8757C61.5788 15.9017 54.5378 23.0664 54.5768 31.9401C54.6159 40.625 61.7578 47.6725 70.4655 47.6302V47.627Z" fill="black"/>
<path d="M70.4655 47.627C61.7546 47.6725 54.6159 40.6218 54.5768 31.9369C54.5345 23.0664 61.5788 15.8984 70.3646 15.8724C79.0299 15.8464 86.2239 22.9557 86.2695 31.5885C86.3151 40.446 79.2871 47.5814 70.4655 47.6237V47.627ZM68.4928 33.4342C67.6269 32.513 66.8815 31.6569 66.0644 30.8757C65.1562 30.0065 64.043 30.0163 63.2487 30.8138C62.4837 31.5853 62.4447 32.6628 63.2682 33.5384C64.5182 34.8665 65.8138 36.1491 67.1322 37.4089C67.946 38.1836 68.9225 38.2617 69.7656 37.5098C72.9687 34.6484 76.1458 31.7643 79.2936 28.8412C80.1204 28.0729 80.0879 27.002 79.401 26.2142C78.7174 25.4297 77.5781 25.3516 76.6732 26.0417C76.4486 26.2142 76.2467 26.4128 76.0352 26.6048C73.5742 28.8346 71.1133 31.0612 68.4928 33.4375V33.4342Z" fill="#FFF57F"/>
<path d="M68.4929 33.431C71.1133 31.0547 73.5742 28.8281 76.0352 26.5983C76.2468 26.4095 76.4486 26.2077 76.6732 26.0352C77.5781 25.3451 78.7175 25.4199 79.4011 26.2077C80.0879 26.9954 80.1205 28.0664 79.2936 28.8346C76.1458 31.7546 72.9688 34.6419 69.7656 37.5033C68.9225 38.2585 67.946 38.1803 67.1322 37.4023C65.8138 36.1458 64.5182 34.86 63.2682 33.5319C62.4447 32.6562 62.4837 31.5788 63.2487 30.8073C64.0397 30.0098 65.153 30 66.0645 30.8691C66.8815 31.6504 67.627 32.5098 68.4929 33.4277V33.431Z" fill="black"/>
</svg>
