<svg width="125" height="125" viewBox="0 0 125 125" fill="none" xmlns="http://www.w3.org/2000/svg">
<path d="M64.5606 29.0332C64.3197 43.8542 54.2025 55.8138 39.681 58.1022C36.9694 58.5287 34.1764 58.418 31.4355 58.7012C27.9622 59.0592 24.681 60.0488 21.8685 62.2428C21.3574 62.64 20.8952 63.099 20.4199 63.5417C17.6986 66.0579 17.5651 69.1895 18.3366 72.5098C19.7038 78.3854 21.0938 84.2546 22.474 90.1269C22.5293 90.3646 22.5879 90.599 22.6628 90.8301C22.9883 91.8034 22.5911 92.4544 21.6699 92.6986C20.7617 92.9394 20.2116 92.4414 19.9674 91.569C19.1699 88.7207 18.2161 85.9082 17.6107 83.0176C16.6536 78.4635 15.9375 73.8607 15.0944 69.2806C15 68.776 14.7852 68.278 14.541 67.819C12.7441 64.4564 10.7813 61.1784 9.14388 57.7409C3.92253 46.7806 3.93555 35.957 10.9766 25.7813C16.11 18.3594 23.5091 14.502 32.5033 13.6165C35.7585 13.2943 39.0723 12.9948 42.2038 12.1257C46.8197 10.8431 50.5469 8.2129 52.3307 3.44402C52.7799 2.23959 54.2155 2.06706 54.7949 3.18685C58.0078 9.39454 62.2298 15.1465 63.6361 22.1777C64.0885 24.4336 64.2578 26.7448 64.554 29.0332H64.5606ZM53.7663 7.32748C50.625 11.9694 46.2663 14.4108 41.1328 15.4622C38.2878 16.0449 35.3581 16.2402 32.4642 16.5658C25.293 17.3665 19.1504 20.2832 14.6061 25.918C7.36654 34.8991 6.81641 44.8275 11.1751 55.2116C12.1322 57.4935 13.4505 59.6257 14.7005 62.0085C15.0684 59.5931 15.2116 57.4251 15.7487 55.3581C20.2116 38.1543 31.1947 27.3112 48.1641 22.3861C49.2741 22.0638 50.0977 22.4479 50.2702 23.3529C50.4688 24.3978 49.8698 24.8861 48.9356 25.179C47.1224 25.752 45.2767 26.2663 43.5352 27.0182C30.5371 32.64 21.9824 42.1191 18.6491 56.0286C18.2357 57.7572 18.1641 59.5638 17.9329 61.3379C18.7044 61.0352 19.1602 60.6478 19.6322 60.2832C24.1536 56.8197 29.4596 55.9473 34.9479 55.5208C37.5944 55.3158 40.2897 55.0098 42.8255 54.2774C56.6276 50.2865 63.1966 37.3177 61.2435 24.5801C60.2669 18.2031 56.8522 12.985 53.7663 7.33074V7.32748Z" fill="#0D504D"/>
<path d="M87.7051 57.4382C87.9427 60.9408 87.3014 64.222 85.3613 67.2005C81.8001 72.666 74.8503 74.7266 68.8542 72.1484C67.5228 71.5755 66.1361 71.0742 64.7233 70.7812C62.5651 70.332 61.3249 71.0612 60.3548 73.0013C59.9316 73.8477 59.3262 74.6322 58.2747 74.1895C57.2917 73.776 57.5456 72.8711 57.6562 71.9759C57.845 70.4688 57.9362 68.9258 57.8613 67.4089C57.7083 64.3848 58.112 61.5007 59.5443 58.8053C62.7702 52.7441 69.7819 50.1204 76.1914 52.5911C78.0859 53.3203 79.9577 54.248 82.0443 53.9193C83.0794 53.7565 84.0397 53.151 85.0521 52.7962C85.5827 52.6107 86.2305 52.3112 86.6797 52.474C87.0671 52.6107 87.4186 53.304 87.487 53.7923C87.6497 54.9935 87.64 56.2207 87.7018 57.4349L87.7051 57.4382ZM63.2031 67.3796C65.4395 68.0534 67.4935 68.5124 69.4238 69.2871C71.9824 70.3158 74.541 70.5078 77.1549 69.7819C82.6172 68.265 85.7422 62.6855 84.6875 56.6895C82.9688 56.6895 81.25 56.8978 79.6126 56.6309C77.959 56.3607 76.3835 55.6185 74.7754 55.0749C68.6491 53.0046 62.1582 56.8457 60.9375 63.2845C60.7943 64.0365 60.7585 64.8047 60.6706 65.5664C61.3053 65.2572 61.6471 64.8665 62.015 64.502C67.0866 59.4824 73.1608 57.6628 80.1628 58.8216C81.1621 58.9876 81.9922 59.3848 81.862 60.612C81.7643 61.5365 80.9896 61.9076 79.694 61.6829C75.0553 60.8789 70.7194 61.6699 66.8066 64.3066C65.498 65.1888 64.3815 66.3574 63.2031 67.373V67.3796Z" fill="#0D504D"/>
<path d="M83.8542 17.1582C84.9382 17.054 86.0384 17.028 87.1061 16.8197C88.4147 16.5625 89.4987 15.9147 90.2148 14.6973C90.8724 13.5775 92.2363 13.5482 92.7083 14.694C93.89 17.5618 95.3158 20.3581 95.2637 23.61C95.1628 29.9447 90.3451 34.8535 84.0234 34.9772C82.526 35.0065 81.0124 34.9902 79.541 35.2181C77.6009 35.5176 77.0801 36.2044 76.9824 38.1348C76.9369 39.0006 76.5397 39.5443 75.7064 39.6354C74.8372 39.7331 74.4043 39.1797 74.1797 38.3822C73.7109 36.722 73.291 35.0456 72.7018 33.4277C71.3542 29.7233 71.3151 26.0807 73.3626 22.653C75.7031 18.7305 79.3001 16.9466 83.8607 17.1549L83.8542 17.1582ZM75.1432 31.1068C75.2799 30.8691 75.4102 30.6706 75.5111 30.459C78.0599 25.1465 82.2754 22.0019 88.0111 20.8301C89.3392 20.5566 90.179 20.9245 90.3776 21.849C90.5827 22.806 90.0065 23.4082 88.6361 23.6784C86.4616 24.1081 84.4369 24.9023 82.653 26.237C80.5501 27.8157 78.89 29.7363 78.0306 32.0898C79.6094 32.0898 81.1328 31.9922 82.6432 32.1094C86.2402 32.3926 89.1536 31.1979 91.0645 28.1282C93.0664 24.9088 92.679 21.5885 91.0384 18.3105C87.4284 19.9479 87.3958 19.974 83.3626 19.9512C81.0547 19.9381 79.0951 20.7617 77.3698 22.2331C74.6712 24.5345 73.9909 28.9909 75.1465 31.11L75.1432 31.1068Z" fill="#0D504D"/>
<path d="M104.206 88.8405H104.206C80.0878 88.8438 55.9701 88.8438 31.8522 88.8438C31.7185 88.8438 31.589 88.8555 31.4993 88.8641C31.4768 88.8663 31.4564 88.8683 31.4377 88.8701C31.3985 88.8739 31.3667 88.877 31.338 88.8795C31.1314 88.7229 30.9556 88.5891 30.8026 88.4446C30.6545 88.3047 30.6138 88.2312 30.6067 88.2209C30.6042 88.2025 30.6048 88.1916 30.6054 88.1868C30.607 88.1844 30.6103 88.1802 30.6164 88.1741C30.6536 88.1372 30.7807 88.0528 31.0356 88.0312C31.2546 88.0137 31.4574 88.016 31.7074 88.019C31.8121 88.0202 31.925 88.0215 32.0508 88.0215H32.1212H32.1916H32.262H32.3325H32.4029H32.4733H32.5437H32.6141H32.6846H32.755H32.8254H32.8958H32.9662H33.0367H33.1071H33.1775H33.2479H33.3183H33.3888H33.4592H33.5296H33.6H33.6704H33.7408H33.8113H33.8817H33.9521H34.0225H34.0929H34.1634H34.2338H34.3042H34.3746H34.445H34.5155H34.5859H34.6563H34.7267H34.7971H34.8676H34.938H35.0084H35.0788H35.1492H35.2197H35.2901H35.3605H35.4309H35.5013H35.5717H35.6422H35.7126H35.783H35.8534H35.9238H35.9943H36.0647H36.1351H36.2055H36.2759H36.3464H36.4168H36.4872H36.5576H36.628H36.6985H36.7689H36.8393H36.9097H36.9801H37.0506H37.121H37.1914H37.2618H37.3322H37.4027H37.4731H37.5435H37.6139H37.6843H37.7547H37.8252H37.8956H37.966H38.0364H38.1068H38.1773H38.2477H38.3181H38.3885H38.4589H38.5294H38.5998H38.6702H38.7406H38.811H38.8815H38.9519H39.0223H39.0927H39.1631H39.2336H39.304H39.3744H39.4448H39.5152H39.5857H39.6561H39.7265H39.7969H39.8673H39.9377H40.0082H40.0786H40.149H40.2194H40.2898H40.3603H40.4307H40.5011H40.5715H40.6419H40.7124H40.7828H40.8532H40.9236H40.994H41.0645H41.1349H41.2053H41.2757H41.3461H41.4166H41.487H41.5574H41.6278H41.6982H41.7686H41.8391H41.9095H41.9799H42.0503H42.1207H42.1912H42.2616H42.332H42.4024H42.4728H42.5433H42.6137H42.6841H42.7545H42.8249H42.8954H42.9658H43.0362H43.1066H43.177H43.2475H43.3179H43.3883H43.4587H43.5291H43.5996H43.67H43.7404H43.8108H43.8812H43.9516H44.0221H44.0925H44.1629H44.2333H44.3037H44.3742H44.4446H44.515H44.5854H44.6558H44.7263H44.7967H44.8671H44.9375H45.0079H45.0784H45.1488H45.2192H45.2896H45.36H45.4305H45.5009H45.5713H45.6417H45.7121H45.7826H45.853H45.9234H45.9938H46.0642H46.1346H46.2051H46.2755H46.3459H46.4163H46.4867H46.5572H46.6276H46.698H46.7684H46.8388H46.9093H46.9797H47.0501H47.1205H47.1909H47.2614H47.3318H47.4022H47.4726H47.543H47.6135H47.6839H47.7543H47.8247H47.8951H47.9655H48.036H48.1064H48.1768H48.2472H48.3176H48.3881H48.4585H48.5289H48.5993H48.6697H48.7402H48.8106H48.881H48.9514H49.0218H49.0923H49.1627H49.2331H49.3035H49.3739H49.4444H49.5148H49.5852H49.6556H49.726H49.7965H49.8669H49.9373H50.0077H50.0781H50.1485H50.219H50.2894H50.3598H50.4302H50.5006H50.5711H50.6415H50.7119H50.7823H50.8527H50.9232H50.9936H51.064H51.1344H51.2048H51.2753H51.3457H51.4161H51.4865H51.5569H51.6274H51.6978H51.7682H51.8386H51.909H51.9795H52.0499H52.1203H52.1907H52.2611H52.3315H52.402H52.4724H52.5428H52.6132H52.6836H52.7541H52.8245H52.8949H52.9653H53.0357H53.1062H53.1766H53.247H53.3174H53.3878H53.4583H53.5287H53.5991H53.6695H53.7399H53.8104H53.8808H53.9512H54.0216H54.092H54.1624H54.2329H54.3033H54.3737H54.4441H54.5145H54.585H54.6554H54.7258H54.7962H54.8666H54.9371H55.0075H55.0779H55.1483H55.2187H55.2892H55.3596H55.43H55.5004H55.5708H55.6413H55.7117H55.7821H55.8525H55.9229H55.9934H56.0638H56.1342H56.2046H56.275H56.3454H56.4159H56.4863H56.5567H56.6271H56.6975H56.768H56.8384H56.9088H56.9792H57.0496H57.1201H57.1905H57.2609H57.3313H57.4017H57.4722H57.5426H57.613H57.6834H57.7538H57.8243H57.8947H57.9651H58.0355H58.1059H58.1763H58.2468H58.3172H58.3876H58.458H58.5284H58.5989H58.6693H58.7397H58.8101H58.8805H58.951H59.0214H59.0918H59.1622H59.2326H59.3031H59.3735H59.4439H59.5143H59.5847H59.6552H59.7256H59.796H59.8664H59.9368H60.0073H60.0777H60.1481H60.2185H60.2889H60.3593H60.4298H60.5002H60.5706H60.641H60.7114H60.7819H60.8523H60.9227H60.9931H61.0635H61.134H61.2044H61.2748H61.3452H61.4156H61.4861H61.5565H61.6269H61.6973H61.7677H61.8382H61.9086H61.979H62.0494H62.1198H62.1903H62.2607H62.3311H62.4015H62.4719H62.5423H62.6128H62.6832H62.7536H62.824H62.8944H62.9649H63.0353H63.1057H63.1761H63.2465H63.317H63.3874H63.4578H63.5282H63.5986H63.6691H63.7395H63.8099H63.8803H63.9507H64.0212H64.0916H64.162H64.2324H64.3028H64.3732H64.4437H64.5141H64.5845H64.6549H64.7253H64.7958H64.8662H64.9366H65.007H65.0774H65.1479H65.2183H65.2887H65.3591H65.4295H65.5H65.5704H65.6408H65.7112H65.7816H65.8521H65.9225H65.9929H66.0633H66.1337H66.2042H66.2746H66.345H66.4154H66.4858H66.5562H66.6267H66.6971H66.7675H66.8379H66.9083H66.9788H67.0492H67.1196H67.19H67.2604H67.3309H67.4013H67.4717H67.5421H67.6125H67.683H67.7534H67.8238H67.8942H67.9646H68.0351H68.1055H68.1759H68.2463H68.3167H68.3871H68.4576H68.528H68.5984H68.6688H68.7392H68.8097H68.8801H68.9505H69.0209H69.0913H69.1618H69.2322H69.3026H69.373H69.4434H69.5139H69.5843H69.6547H69.7251H69.7955H69.866H69.9364H70.0068H70.0772H70.1476H70.2181H70.2885H70.3589H70.4293H70.4997H70.5701H70.6406H70.711H70.7814H70.8518H70.9222H70.9927H71.0631H71.1335H71.2039H71.2743H71.3448H71.4152H71.4856H71.556H71.6264H71.6969H71.7673H71.8377H71.9081H71.9785H72.049H72.1194H72.1898H72.2602H72.3306H72.4011H72.4715H72.5419H72.6123H72.6827H72.7531H72.8236H72.894H72.9644H73.0348H73.1052H73.1757H73.2461H73.3165H73.3869H73.4573H73.5278H73.5982H73.6686H73.739H73.8094H73.8799H73.9503H74.0207H74.0911H74.1615H74.232H74.3024H74.3728H74.4432H74.5136H74.584H74.6545H74.7249H74.7953H74.8657H74.9361H75.0066H75.077H75.1474H75.2178H75.2882H75.3587H75.4291H75.4995H75.5699H75.6403H75.7108H75.7812H75.8516H75.922H75.9924H76.0629H76.1333H76.2037H76.2741H76.3445H76.415H76.4854H76.5558H76.6262H76.6966H76.767H76.8375H76.9079H76.9783H77.0487H77.1191H77.1896H77.26H77.3304H77.4008H77.4712H77.5417H77.6121H77.6825H77.7529H77.8233H77.8938H77.9642H78.0346H78.105H78.1754H78.2459H78.3163H78.3867H78.4571H78.5275H78.5979H78.6684H78.7388H78.8092H78.8796H78.95H79.0205H79.0909H79.1613H79.2317H79.3021H79.3726H79.443H79.5134H79.5838H79.6542H79.7247H79.7951H79.8655H79.9359H80.0063H80.0768H80.1472H80.2176H80.288H80.3584H80.4289H80.4993H80.5697H80.6401H80.7105H80.7809H80.8514H80.9218H80.9922H81.0626H81.133H81.2035H81.2739H81.3443H81.4147H81.4851H81.5556H81.626H81.6964H81.7668H81.8372H81.9077H81.9781H82.0485H82.1189H82.1893H82.2598H82.3302H82.4006H82.471H82.5414H82.6119H82.6823H82.7527H82.8231H82.8935H82.9639H83.0344H83.1048H83.1752H83.2456H83.316H83.3865H83.4569H83.5273H83.5977H83.6681H83.7386H83.809H83.8794H83.9498H84.0202H84.0907H84.1611H84.2315H84.3019H84.3723H84.4428H84.5132H84.5836H84.654H84.7244H84.7948H84.8653H84.9357H85.0061H85.0765H85.1469H85.2174H85.2878H85.3582H85.4286H85.499H85.5695H85.6399H85.7103H85.7807H85.8511H85.9216H85.992H86.0624H86.1328H86.2032H86.2737H86.3441H86.4145H86.4849H86.5553H86.6258H86.6962H86.7666H86.837H86.9074H86.9779H87.0483H87.1187H87.1891H87.2595H87.3299H87.4004H87.4708H87.5412H87.6116H87.682H87.7525H87.8229H87.8933H87.9637H88.0341H88.1046H88.175H88.2454H88.3158H88.3862H88.4567H88.5271H88.5975H88.6679H88.7383H88.8088H88.8792H88.9496H89.02H89.0904H89.1609H89.2313H89.3017H89.3721H89.4425H89.5129H89.5834H89.6538H89.7242H89.7946H89.865H89.9355H90.0059H90.0763H90.1467H90.2171H90.2876H90.358H90.4284H90.4988H90.5692H90.6397H90.7101H90.7805H90.8509H90.9213H90.9918H91.0622H91.1326H91.203H91.2734H91.3438H91.4143H91.4847H91.5551H91.6255H91.6959H91.7664H91.8368H91.9072H91.9776H92.048H92.1185H92.1889H92.2593H92.3297H92.4001H92.4706H92.541H92.6114H92.6818H92.7522H92.8227H92.8931H92.9635H93.0339H93.1043H93.1748H93.2452H93.3156H93.386H93.4564H93.5268H93.5973H93.6677H93.7381H93.8085H93.8789H93.9494H94.0198H94.0902H94.1606H94.231H94.3015H94.3719H94.4423H94.5127H94.5831H94.6536H94.724H94.7944H94.8648H94.9352H95.0057H95.0761H95.1465H95.2169H95.2873H95.3577H95.4282H95.4986H95.569H95.6394H95.7098H95.7803H95.8507H95.9211H95.9915H96.0619H96.1324H96.2028H96.2732H96.3436H96.414H96.4845H96.5549H96.6253H96.6957H96.7661H96.8366H96.907H96.9774H97.0478H97.1182H97.1887H97.2591H97.3295H97.3999H97.4703H97.5407H97.6112H97.6816H97.752H97.8224H97.8928H97.9633H98.0337H98.1041H98.1745H98.2449H98.3154H98.3858H98.4562H98.5266H98.597H98.6675H98.7379H98.8083H98.8787H98.9491H99.0196H99.09H99.1604H99.2308H99.3012H99.3717H99.4421H99.5125H99.5829H99.6533H99.7237H99.7942H99.8646H99.935H100.005H100.076H100.146H100.217H100.287H100.358H100.428H100.498H100.569H100.639H100.71H100.78H100.85H100.921H100.991H101.062H101.132H101.203H101.273H101.343H101.414H101.484H101.555H101.625H101.695H101.766H101.836H101.907H101.977H102.048H102.118H102.188H102.259H102.329H102.4H102.47H102.541H102.611H102.681H102.752H102.822H102.893H102.963H103.033H103.104H103.174H103.245H103.315H103.386H103.456H103.526H103.597H103.667H103.738H103.808H103.878H103.949H104.019H104.09H104.16C104.307 88.0215 104.452 88.0102 104.56 88.0013L104.606 87.9975C104.703 87.9896 104.773 87.9838 104.84 87.9814C104.859 87.9807 104.874 87.9804 104.888 87.9804C105.038 88.0889 105.186 88.2144 105.296 88.3352C105.322 88.3636 105.343 88.3889 105.36 88.411C105.346 88.4347 105.328 88.462 105.307 88.4924C105.214 88.622 105.089 88.7529 104.97 88.854C104.95 88.8558 104.923 88.8575 104.887 88.8583C104.807 88.8601 104.716 88.8572 104.596 88.8521L104.556 88.8504C104.453 88.846 104.327 88.8405 104.206 88.8405ZM30.606 88.1837C30.606 88.1837 30.6059 88.1843 30.6056 88.1853L30.606 88.1837ZM30.6047 88.1878C30.6044 88.1885 30.6042 88.1889 30.6041 88.1889L30.6047 88.1878ZM105.407 88.3167C105.408 88.3147 105.408 88.3137 105.408 88.3137C105.408 88.3137 105.408 88.3147 105.407 88.3167ZM105.42 88.5014C105.42 88.5014 105.419 88.5005 105.419 88.4988C105.419 88.5005 105.42 88.5014 105.42 88.5014Z" fill="#17CEEE" stroke="#08ACE8" stroke-width="2"/>
<path d="M50.1211 80.7578V80.7611H50.1419H50.1759H50.2099H50.2439H50.278H50.312H50.346H50.38H50.4141H50.4481H50.4821H50.5161H50.5502H50.5842H50.6182H50.6522H50.6863H50.7203H50.7543H50.7883H50.8224H50.8564H50.8904H50.9244H50.9585H50.9925H51.0265H51.0605H51.0945H51.1286H51.1626H51.1966H51.2306H51.2647H51.2987H51.3327H51.3667H51.4008H51.4348H51.4688H51.5028H51.5368H51.5709H51.6049H51.6389H51.6729H51.707H51.741H51.775H51.809H51.843H51.8771H51.9111H51.9451H51.9791H52.0132H52.0472H52.0812H52.1152H52.1492H52.1833H52.2173H52.2513H52.2853H52.3194H52.3534H52.3874H52.4214H52.4554H52.4895H52.5235H52.5575H52.5915H52.6255H52.6596H52.6936H52.7276H52.7616H52.7956H52.8297H52.8637H52.8977H52.9317H52.9657H52.9998H53.0338H53.0678H53.1018H53.1359H53.1699H53.2039H53.2379H53.2719H53.306H53.34H53.374H53.408H53.442H53.4761H53.5101H53.5441H53.5781H53.6121H53.6462H53.6802H53.7142H53.7482H53.7822H53.8162H53.8503H53.8843H53.9183H53.9523H53.9863H54.0204H54.0544H54.0884H54.1224H54.1564H54.1905H54.2245H54.2585H54.2925H54.3265H54.3606H54.3946H54.4286H54.4626H54.4966H54.5307H54.5647H54.5987H54.6327H54.6667H54.7007H54.7348H54.7688H54.8028H54.8368H54.8708H54.9049H54.9389H54.9729H55.0069H55.0409H55.075H55.109H55.143H55.177H55.211H55.245H55.2791H55.3131H55.3471H55.3811H55.4151H55.4492H55.4832H55.5172H55.5512H55.5852H55.6192H55.6533H55.6873H55.7213H55.7553H55.7893H55.8234H55.8574H55.8914H55.9254H55.9594H55.9934H56.0275H56.0615H56.0955H56.1295H56.1635H56.1976H56.2316H56.2656H56.2996H56.3336H56.3676H56.4017H56.4357H56.4697H56.5037H56.5377H56.5718H56.6058H56.6398H56.6738H56.7078H56.7418H56.7759H56.8099H56.8439H56.8779H56.9119H56.9459H56.98H57.014H57.048H57.082H57.116H57.1501H57.1841H57.2181H57.2521H57.2861H57.3201H57.3542H57.3882H57.4222H57.4562H57.4902H57.5242H57.5583H57.5923H57.6263H57.6603H57.6943H57.7284H57.7624H57.7964H57.8304H57.8644H57.8984H57.9325H57.9665H58.0005H58.0345H58.0685H58.1025H58.1366H58.1706H58.2046H58.2386H58.2726H58.3067H58.3407H58.3747H58.4087H58.4427H58.4767H58.5108H58.5448H58.5788H58.6128H58.6468H58.6808H58.7149H58.7489H58.7829H58.8169H58.8509H58.8849H58.919H58.953H58.987H59.021H59.055H59.0891H59.1231H59.1571H59.1911H59.2251H59.2591H59.2932H59.3272H59.3612H59.3952H59.4292H59.4633H59.4973H59.5313H59.5653H59.5993H59.6333H59.6674H59.7014H59.7354H59.7694H59.8034H59.8375H59.8715H59.9055H59.9395H59.9735H60.0075H60.0416H60.0756H60.1096H60.1436H60.1776H60.2117H60.2457H60.2797H60.3137H60.3477H60.3817H60.4158H60.4498H60.4838H60.5178H60.5518H60.5859H60.6199H60.6539H60.6879H60.7219H60.7559H60.79H60.824H60.858H60.892H60.926H60.9601H60.9941H61.0281H61.0621H61.0961H61.1302H61.1642H61.1982H61.2322H61.2662H61.3002H61.3343H61.3683H61.4023H61.4363H61.4703H61.5044H61.5384H61.5724H61.6064H61.6404H61.6745H61.7085H61.7425H61.7765H61.8105H61.8446H61.8786H61.9126H61.9466H61.9806H62.0147H62.0487H62.0827H62.1167H62.1507H62.1848H62.2188H62.2528H62.2868H62.3208H62.3549H62.3889H62.4229H62.4569H62.4909H62.525H62.559H62.593H62.627H62.661H62.6951H62.7291H62.7631H62.7971H62.8311H62.8652H62.8992H62.9332H62.9672H63.0012H63.0353H63.0693H63.1033H63.1373H63.1714H63.2054H63.2394H63.2734H63.3074H63.3415H63.3755H63.4095H63.4435H63.4775H63.5116H63.5456H63.5796H63.6136H63.6477H63.6817H63.7157H63.7497H63.7837H63.8178H63.8518H63.8858H63.9198H63.9538H63.9879H64.0219H64.0559H64.0899H64.124H64.158H64.192H64.226H64.2601H64.2941H64.3281H64.3621H64.3961H64.4302H64.4642H64.4982H64.5322H64.5663H64.6003H64.6343H64.6683H64.7024H64.7364H64.7704H64.8044H64.8384H64.8725H64.9065H64.9405H64.9745H65.0086H65.0426H65.0766H65.1106H65.1447H65.1787H65.2127H65.2467H65.2808H65.3148H65.3488H65.3828H65.4169H65.4509H65.4849H65.5189H65.553H65.587H65.621H65.655H65.6891H65.7231H65.7571H65.7911H65.8252H65.8592H65.8932H65.9272H65.9613H65.9953H66.0293H66.0633H66.0974H66.1314H66.1654H66.1994H66.2335H66.2675H66.3015H66.3356H66.3696H66.4036H66.4376H66.4717H66.5057H66.5387C67.3248 80.7594 67.6875 80.6483 67.8307 80.5617C67.8589 80.5446 67.8716 80.5325 67.876 80.5279C67.8799 80.5238 67.8816 80.5212 67.8835 80.5174C67.8868 80.511 67.9099 80.4628 67.9095 80.3321C67.9093 80.2649 67.9034 80.2199 67.8975 80.192C67.8946 80.1783 67.8918 80.1691 67.8899 80.1636C67.8891 80.1612 67.8884 80.1593 67.8878 80.158C67.8841 80.1547 67.8745 80.1471 67.8559 80.1363C67.7166 80.0558 67.3512 79.9518 66.5234 79.9518H66.5232C64.6135 79.9513 62.7041 79.9506 60.7947 79.95C51.2533 79.9468 41.7145 79.9437 32.1756 79.9518C32.1755 79.9518 32.1754 79.9518 32.1753 79.9518L32.1745 78.9518C29.3066 78.9551 27.0475 77.8809 25.5892 75.3516L50.1211 80.7578ZM50.1211 80.7578H49.1211M50.1211 80.7578H49.1211M49.1211 80.7578C47.4484 80.7578 45.777 80.7598 44.1064 80.7617M49.1211 80.7578L44.1064 80.7617M44.1064 80.7617C40.0532 80.7664 36.0046 80.7711 31.9526 80.7481L44.1064 80.7617ZM24.4223 75.4009C24.5142 75.5127 24.6125 75.6606 24.7235 75.8521L31.9523 80.7481C28.4618 80.7272 25.8108 79.2981 24.0238 76.2895L24.0237 76.2892C23.7378 75.8081 23.7125 75.5382 23.7241 75.4418C23.7282 75.4067 23.7361 75.3961 23.7418 75.3887C23.7506 75.3771 23.7858 75.3368 23.8868 75.2878L23.8878 75.2873C24.0526 75.2072 24.1402 75.1995 24.1688 75.1994C24.1886 75.1993 24.2014 75.2015 24.228 75.217C24.2647 75.2384 24.3301 75.2889 24.4223 75.4009Z" fill="#17CEEE" stroke="#08ACE8" stroke-width="2"/>
<path d="M92.8843 108.421L92.8844 108.421C93.1941 108.933 93.2238 109.196 93.2157 109.288C93.2129 109.32 93.2059 109.337 93.1925 109.356C93.1748 109.382 93.1279 109.437 93.0139 109.509C92.8998 109.582 92.839 109.594 92.8241 109.596C92.8235 109.596 92.8229 109.596 92.8223 109.596C92.8183 109.597 92.815 109.597 92.7982 109.59C92.723 109.557 92.5067 109.406 92.1869 108.872C90.7532 106.47 88.6119 105.057 85.7447 104.894C85.1118 104.856 84.483 104.843 83.8607 104.843H83.8424C72.7645 104.843 61.6869 104.843 50.6093 104.837H50.6087C50.4543 104.837 50.2986 104.846 50.1752 104.853L50.1705 104.854C50.0351 104.862 49.9322 104.868 49.8369 104.869C49.7525 104.869 49.7001 104.865 49.6696 104.861C49.5205 104.762 49.3501 104.618 49.2248 104.471C49.215 104.46 49.2059 104.449 49.1974 104.438C49.2058 104.429 49.2147 104.42 49.2243 104.41C49.3557 104.278 49.5336 104.14 49.7142 104.016C49.7296 104.016 49.7477 104.017 49.7691 104.018C49.8352 104.02 49.9026 104.026 49.9951 104.034C50.0127 104.036 50.0312 104.037 50.0508 104.039C50.1593 104.048 50.3046 104.06 50.4525 104.06H50.4867H50.521H50.5552H50.5895H50.6238H50.658H50.6923H50.7265H50.7608H50.795H50.8293H50.8636H50.8978H50.9321H50.9663H51.0006H51.0348H51.0691H51.1033H51.1376H51.1719H51.2061H51.2404H51.2746H51.3089H51.3431H51.3774H51.4116H51.4459H51.4802H51.5144H51.5487H51.5829H51.6172H51.6514H51.6857H51.7199H51.7542H51.7885H51.8227H51.857H51.8912H51.9255H51.9597H51.994H52.0283H52.0625H52.0968H52.131H52.1653H52.1995H52.2338H52.268H52.3023H52.3366H52.3708H52.4051H52.4393H52.4736H52.5078H52.5421H52.5763H52.6106H52.6449H52.6791H52.7134H52.7476H52.7819H52.8161H52.8504H52.8847H52.9189H52.9532H52.9874H53.0217H53.0559H53.0902H53.1244H53.1587H53.193H53.2272H53.2615H53.2957H53.33H53.3642H53.3985H53.4327H53.467H53.5013H53.5355H53.5698H53.604H53.6383H53.6725H53.7068H53.7411H53.7753H53.8096H53.8438H53.8781H53.9123H53.9466H53.9808H54.0151H54.0494H54.0836H54.1179H54.1521H54.1864H54.2206H54.2549H54.2891H54.3234H54.3577H54.3919H54.4262H54.4604H54.4947H54.5289H54.5632H54.5975H54.6317H54.666H54.7002H54.7345H54.7687H54.803H54.8372H54.8715H54.9058H54.94H54.9743H55.0085H55.0428H55.077H55.1113H55.1455H55.1798H55.2141H55.2483H55.2826H55.3168H55.3511H55.3853H55.4196H55.4539H55.4881H55.5224H55.5566H55.5909H55.6251H55.6594H55.6936H55.7279H55.7622H55.7964H55.8307H55.8649H55.8992H55.9334H55.9677H56.0019H56.0362H56.0705H56.1047H56.139H56.1732H56.2075H56.2417H56.276H56.3103H56.3445H56.3788H56.413H56.4473H56.4815H56.5158H56.55H56.5843H56.6186H56.6528H56.6871H56.7213H56.7556H56.7898H56.8241H56.8583H56.8926H56.9269H56.9611H56.9954H57.0296H57.0639H57.0981H57.1324H57.1666H57.2009H57.2352H57.2694H57.3037H57.3379H57.3722H57.4064H57.4407H57.475H57.5092H57.5435H57.5777H57.612H57.6462H57.6805H57.7147H57.749H57.7833H57.8175H57.8518H57.886H57.9203H57.9545H57.9888H58.023H58.0573H58.0916H58.1258H58.1601H58.1943H58.2286H58.2628H58.2971H58.3314H58.3656H58.3999H58.4341H58.4684H58.5026H58.5369H58.5711H58.6054H58.6397H58.6739H58.7082H58.7424H58.7767H58.8109H58.8452H58.8794H58.9137H58.948H58.9822H59.0165H59.0507H59.085H59.1192H59.1535H59.1878H59.222H59.2563H59.2905H59.3248H59.359H59.3933H59.4275H59.4618H59.4961H59.5303H59.5646H59.5988H59.6331H59.6673H59.7016H59.7358H59.7701H59.8044H59.8386H59.8729H59.9071H59.9414H59.9756H60.0099H60.0442H60.0784H60.1127H60.1469H60.1812H60.2154H60.2497H60.2839H60.3182H60.3525H60.3867H60.421H60.4552H60.4895H60.5237H60.558H60.5922H60.6265H60.6608H60.695H60.7293H60.7635H60.7978H60.832H60.8663H60.9006H60.9348H60.9691H61.0033H61.0376H61.0718H61.1061H61.1403H61.1746H61.2089H61.2431H61.2774H61.3116H61.3459H61.3801H61.4144H61.4486H61.4829H61.5172H61.5514H61.5857H61.6199H61.6542H61.6884H61.7227H61.7569H61.7912H61.8255H61.8597H61.894H61.9282H61.9625H61.9967H62.031H62.0653H62.0995H62.1338H62.168H62.2023H62.2365H62.2708H62.305H62.3393H62.3736H62.4078H62.4421H62.4763H62.5106H62.5448H62.5791H62.6133H62.6476H62.6819H62.7161H62.7504H62.7846H62.8189H62.8531H62.8874H62.9217H62.9559H62.9902H63.0244H63.0587H63.0929H63.1272H63.1614H63.1957H63.23H63.2642H63.2985H63.3327H63.367H63.4012H63.4355H63.4697H63.504H63.5383H63.5725H63.6068H63.641H63.6753H63.7095H63.7438H63.7781H63.8123H63.8466H63.8808H63.9151H63.9493H63.9836H64.0178H64.0521H64.0864H64.1206H64.1549H64.1891H64.2234H64.2576H64.2919H64.3261H64.3604H64.3947H64.4289H64.4632H64.4974H64.5317H64.5659H64.6002H64.6345H64.6687H64.703H64.7372H64.7715H64.8057H64.84H64.8742H64.9085H64.9428H64.977H65.0113H65.0455H65.0798H65.114H65.1483H65.1825H65.2168H65.2511H65.2853H65.3196H65.3538H65.3881H65.4223H65.4566H65.4909H65.5251H65.5594H65.5936H65.6279H65.6621H65.6964H65.7306H65.7649H65.7992H65.8334H65.8677H65.9019H65.9362H65.9704H66.0047H66.0389H66.0732H66.1075H66.1417H66.176H66.2102H66.2445H66.2787H66.313H66.3472H66.3815H66.4158H66.45H66.4843H66.5185H66.5528H66.587H66.6213H66.6556H66.6898H66.7241H66.7583H66.7926H66.8268H66.8611H66.8953H66.9296H66.9639H66.9981H67.0324H67.0666H67.1009H67.1351H67.1694H67.2036H67.2379H67.2722H67.3064H67.3407H67.3749H67.4092H67.4434H67.4777H67.512H67.5462H67.5805H67.6147H67.649H67.6832H67.7175H67.7517H67.786H67.8203H67.8545H67.8888H67.923H67.9573H67.9915H67.9948C69.7185 104.06 71.4407 104.058 73.162 104.055C77.2458 104.05 81.3247 104.044 85.4072 104.07C88.7122 104.09 91.1645 105.574 92.8843 108.421ZM49.7078 104.885L49.7061 104.884L49.7078 104.885ZM49.1043 104.297C49.1044 104.297 49.105 104.299 49.106 104.301C49.1047 104.298 49.1042 104.297 49.1043 104.297ZM49.0926 104.568C49.0915 104.57 49.0908 104.572 49.0908 104.572C49.0907 104.572 49.0913 104.571 49.0926 104.568Z" fill="#17CEEE" stroke="#08ACE8" stroke-width="2"/>
<path d="M71.4974 96.8646L71.4968 96.8646C60.2696 96.8711 49.0423 96.8711 37.8147 96.8711H37.7962H37.7955H37.7948H37.7941H37.7934H37.7927H37.792H37.7913H37.7906H37.7899H37.7892H37.7885H37.7877H37.787H37.7863H37.7856H37.7849H37.7842H37.7835H37.7828H37.7821H37.7814H37.7807H37.78H37.7793H37.7786H37.7778H37.7771H37.7764H37.7757H37.775H37.7743H37.7736H37.7729H37.7722H37.7715H37.7708H37.7701H37.7694H37.7686H37.7679H37.7672H37.7665H37.7658H37.7651H37.7644H37.7637H37.763H37.7623H37.7616H37.7608H37.7601H37.7594H37.7587H37.758H37.7573H37.7566H37.7559H37.7552H37.7545H37.7538H37.753H37.7523H37.7516H37.7509H37.7502H37.7495H37.7488H37.7481H37.7474H37.7467H37.7459H37.7452H37.7445H37.7438H37.7431H37.7424H37.7417H37.741H37.7403H37.7395H37.7388H37.7381H37.7374H37.7367H37.736H37.7353H37.7346H37.7339H37.7331H37.7324H37.7317H37.731H37.7303H37.7296H37.7289H37.7282H37.7275H37.7267H37.726H37.7253H37.7246H37.7239H37.7232H37.7225H37.7218H37.7211H37.7203H37.7196H37.7189H37.7182H37.7175H37.7168H37.7161H37.7154H37.7146H37.7139H37.7132H37.7125H37.7118H37.7111H37.7104H37.7097H37.7089H37.7082H37.7075H37.7068H37.7061H37.7054H37.7047H37.704H37.7032H37.7025H37.7018H37.7011H37.7004H37.6997H37.699H37.6982H37.6975H37.6968H37.6961H37.6954H37.6947H37.694H37.6933H37.6925H37.6918H37.6911H37.6904H37.6897H37.689H37.6883H37.6875H37.6868H37.6861H37.6854H37.6847H37.684H37.6833H37.6825H37.6818H37.6811H37.6804H37.6797H37.679H37.6783H37.6776H37.6768H37.6761H37.6754H37.6747H37.674H37.6733H37.6726H37.6718H37.6711H37.6704H37.6697H37.669H37.6683H37.6676H37.6668H37.6661H37.6654H37.6647H37.664H37.6633H37.6625H37.6618H37.6611H37.6604H37.6597H37.659H37.6583H37.6575H37.6568H37.6561H37.6554H37.6547H37.654H37.6533H37.6525H37.6518H37.6511H37.6504H37.6497H37.649H37.6483H37.6475H37.6468H37.6461H37.6454H37.6447H37.644H37.6432H37.6425H37.6418H37.6411H37.6404H37.6397H37.639H37.6382H37.6375H37.6368H37.6361H37.6354H37.6347H37.634H37.6332H37.6325H37.6318H37.6311H37.6304H37.6297H37.6289H37.6282H37.6275H37.6268H37.6261H37.6254H37.6247H37.6239H37.6232H37.6225H37.6218H37.6211H37.6204H37.6196H37.6189H37.6182H37.6175H37.6168H37.6161H37.6154H37.6146H37.6139H37.6132H37.6125H37.6118H37.6111H37.6104H37.6096H37.6089H37.6082H37.6075H37.6068H37.6061H37.6053H37.6046H37.6039H37.6032H37.6025H37.6018H37.6011H37.6003H37.5996H37.5989H37.5982H37.5975H37.5968H37.596H37.5953H37.5946H37.5939H37.5932H37.5925H37.5918H37.591H37.5903H37.5896H37.5889H37.5882H37.5875H37.5867H37.586H37.5853H37.5846H37.5839H37.5832H37.5825H37.5817H37.581H37.5803H37.5796H37.5789H37.5782H37.5775H37.5767H37.576H37.5753H37.5746H37.5739H37.5732H37.5725H37.5717H37.571H37.5703H37.5696H37.5689H37.5682H37.5674H37.5667H37.566H37.5653H37.5646H37.5639H37.5632H37.5624H37.5617H37.561H37.5603H37.5596H37.5589H37.5582H37.5574H37.5567H37.556H37.5553H37.5546H37.5539H37.5532H37.5524H37.5517H37.551H37.5503H37.5496H37.5489H37.5482H37.5474H37.5467H37.546H37.5453H37.5446H37.5439H37.5432H37.5424H37.5417H37.541H37.5403H37.5396H37.5389H37.5382H37.5375H37.5367H37.536H37.5353H37.5346H37.5339H37.5332H37.5325H37.5317H37.531H37.5303H37.5296H37.5289H37.5282H37.5275H37.5268H37.526H37.5253H37.5246H37.5239H37.5232H37.5225H37.5218H37.521H37.5203H37.5196H37.5189H37.5182H37.5175H37.5168H37.5161H37.5153H37.5146H37.5139H37.5132H37.5125H37.5118H37.5111H37.5104H37.5097H37.5089H37.5082H37.5075H37.5068H37.5061H37.5054H37.5047H37.504H37.5032H37.5025H37.5018H37.5011H37.5004H37.4997H37.499H37.4983H37.4976H37.4968H37.4961H37.4954H37.4947H37.494H37.4933H37.4926H37.4919H37.4911H37.4904H37.4897H37.489H37.4883H37.4876H37.4869H37.4862H37.4855H37.4848H37.484H37.4833H37.4826H37.4819H37.4812H37.4805H37.4798H37.4791H37.4784H37.4777H37.4769H37.4762H37.4755H37.4748H37.4741H37.4734H37.4727H37.472H37.4713H37.4706H37.4698H37.4691H37.4684H37.4677H37.467H37.4663H37.4656H37.4649H37.4642H37.4635H37.4628H37.462H37.4613H37.4606H37.4599H37.4592H37.4585H37.4578H37.4571H37.4564H37.4557H37.455H37.4543H37.4535H37.4528H37.4521H37.4514H37.4507H37.45H37.4493H37.4486H37.4479H37.4472H37.4465H37.4458H37.4451H37.4443H37.4436H37.4429H37.4422H37.4415H37.4408H37.4401H37.4395C36.8978 96.862 36.6231 96.7505 36.5099 96.6707C36.4612 96.6364 36.4436 96.6096 36.4347 96.592C36.4251 96.573 36.4078 96.529 36.4069 96.4399C36.4068 96.3394 36.4251 96.2946 36.4316 96.2812C36.4364 96.2714 36.4457 96.2542 36.4833 96.2281C36.5802 96.1608 36.8467 96.0521 37.4219 96.0521L37.4224 96.0521C41.2349 96.0499 45.0456 96.0506 48.8572 96.0514C50.7634 96.0517 52.6698 96.0521 54.5768 96.0521H54.5801H54.6133H54.6466H54.6799H54.7131H54.7464H54.7797H54.8129H54.8462H54.8794H54.9127H54.946H54.9792H55.0125H55.0458H55.079H55.1123H55.1456H55.1788H55.2121H55.2454H55.2786H55.3119H55.3451H55.3784H55.4117H55.4449H55.4782H55.5115H55.5447H55.578H55.6113H55.6445H55.6778H55.7111H55.7443H55.7776H55.8108H55.8441H55.8774H55.9106H55.9439H55.9772H56.0104H56.0437H56.077H56.1102H56.1435H56.1768H56.21H56.2433H56.2765H56.3098H56.3431H56.3763H56.4096H56.4429H56.4761H56.5094H56.5427H56.5759H56.6092H56.6425H56.6757H56.709H56.7422H56.7755H56.8088H56.842H56.8753H56.9086H56.9418H56.9751H57.0084H57.0416H57.0749H57.1081H57.1414H57.1747H57.2079H57.2412H57.2745H57.3077H57.341H57.3743H57.4075H57.4408H57.4741H57.5073H57.5406H57.5738H57.6071H57.6404H57.6736H57.7069H57.7402H57.7734H57.8067H57.84H57.8732H57.9065H57.9398H57.973H58.0063H58.0395H58.0728H58.1061H58.1393H58.1726H58.2059H58.2391H58.2724H58.3057H58.3389H58.3722H58.4055H58.4387H58.472H58.5052H58.5385H58.5718H58.605H58.6383H58.6716H58.7048H58.7381H58.7714H58.8046H58.8379H58.8711H58.9044H58.9377H58.9709H59.0042H59.0375H59.0707H59.104H59.1373H59.1705H59.2038H59.2371H59.2703H59.3036H59.3368H59.3701H59.4034H59.4366H59.4699H59.5032H59.5364H59.5697H59.603H59.6362H59.6695H59.7028H59.736H59.7693H59.8025H59.8358H59.8691H59.9023H59.9356H59.9689H60.0021H60.0354H60.0687H60.1019H60.1352H60.1685H60.2017H60.235H60.2682H60.3015H60.3348H60.368H60.4013H60.4346H60.4678H60.5011H60.5344H60.5676H60.6009H60.6342H60.6674H60.7007H60.7339H60.7672H60.8005H60.8337H60.867H60.9003H60.9335H60.9668H61.0001H61.0333H61.0666H61.0998H61.1331H61.1664H61.1996H61.2329H61.2662H61.2994H61.3327H61.366H61.3992H61.4325H61.4658H61.499H61.5323H61.5655H61.5988H61.6321H61.6653H61.6986H61.7319H61.7651H61.7984H61.8317H61.8649H61.8982H61.9315H61.9647H61.998H62.0312H62.0645H62.0978H62.131H62.1643H62.1976H62.2308H62.2641H62.2974H62.3306H62.3639H62.3972H62.4304H62.4637H62.4969H62.5302H62.5635H62.5967H62.63H62.6633H62.6965H62.7298H62.7631H62.7963H62.8296H62.8629H62.8961H62.9294H62.9626H62.9959H63.0292H63.0624H63.0957H63.129H63.1622H63.1955H63.2288H63.262H63.2953H63.3285H63.3618H63.3951H63.4283H63.4616H63.4949H63.5281H63.5614H63.5947H63.6279H63.6612H63.6945H63.7277H63.761H63.7942H63.8275H63.8608H63.894H63.9273H63.9606H63.9938H64.0271H64.0604H64.0936H64.1269H64.1602H64.1934H64.2267H64.2599H64.2932H64.3265H64.3597H64.393H64.4263H64.4595H64.4928H64.5261H64.5593H64.5926H64.6259H64.6591H64.6924H64.7256H64.7589H64.7922H64.8254H64.8587H64.892H64.9252H64.9585H64.9918H65.025H65.0583H65.0916H65.1248H65.1581H65.1913H65.2246H65.2579H65.2911H65.3244H65.3577H65.3909H65.4242H65.4575H65.4907H65.524H65.5572H65.5905H65.6238H65.657H65.6903H65.7236H65.7568H65.7901H65.8234H65.8566H65.8899H65.9232H65.9564H65.9897H66.0229H66.0562H66.0895H66.1227H66.156H66.1893H66.2225H66.2558H66.2891H66.3223H66.3556H66.3889H66.4221H66.4554H66.4886H66.5219H66.5552H66.5884H66.6217H66.655H66.6882H66.7215H66.7548H66.788H66.8213H66.8546H66.8878H66.9211H66.9543H66.9876H67.0209H67.0541H67.0874H67.1207H67.1539H67.1872H67.2205H67.2537H67.287H67.3202H67.3535H67.3868H67.42H67.4533H67.4866H67.5198H67.5531H67.5864H67.6196H67.6529H67.6862H67.7194H67.7527H67.7859H67.8192H67.8525H67.8857H67.919H67.9523H67.9855H68.0188H68.0521H68.0853H68.1186H68.1519H68.1851H68.2184H68.2516H68.2849H68.3182H68.3514H68.3847H68.418H68.4512H68.4845H68.5178H68.551H68.5843H68.6176H68.6508H68.6841H68.7173H68.7506H68.7839H68.8171H68.8504H68.8837H68.9169H68.9502H68.9835H69.0167H69.05H69.0833H69.1165H69.1498H69.183H69.2163H69.2496H69.2828H69.3161H69.3494H69.3826H69.4159H69.4492H69.4824H69.5157H69.549H69.5822H69.6155H69.6487H69.682H69.7153H69.7485H69.7818H69.8151H69.8483H69.8816H69.9149H69.9481H69.9814H70.0146H70.0479H70.0812H70.1144H70.1477H70.181H70.2142H70.2475H70.2808H70.314H70.3473H70.3806H70.4138H70.4471H70.4803H70.5136H70.5469H70.5801H70.6134H70.6467H70.6799H70.7132H70.7465H70.7797H70.813H70.8463H70.8795H70.9128H70.946H70.9793H71.0126H71.0458H71.0791H71.1124H71.1456H71.1789H71.2122H71.2454H71.2787H71.312H71.3452H71.3785H71.4117H71.445H71.4783H71.5115H71.5448H71.5781H71.6113C71.7507 96.0521 71.8864 96.0408 71.9847 96.0321C72.004 96.0304 72.0221 96.0288 72.0391 96.0273C72.1211 96.02 72.1782 96.015 72.2346 96.0124C72.2359 96.0124 72.2372 96.0123 72.2385 96.0123C72.4019 96.13 72.5531 96.251 72.6676 96.3665C72.6899 96.3891 72.7089 96.4095 72.7247 96.4275C72.7116 96.4514 72.6955 96.4784 72.6758 96.5082C72.5837 96.6474 72.4619 96.776 72.3604 96.8573C72.3322 96.8629 72.2849 96.8692 72.2117 96.8726C72.1239 96.8767 72.0236 96.8759 71.8991 96.8728C71.8733 96.8721 71.8453 96.8714 71.8159 96.8705C71.7175 96.8678 71.6029 96.8646 71.4974 96.8646ZM72.7931 96.5185C72.7931 96.5185 72.7926 96.5176 72.7918 96.5159C72.7928 96.5177 72.7932 96.5185 72.7931 96.5185ZM72.769 96.3284C72.7694 96.3263 72.7697 96.3253 72.7698 96.3253C72.7698 96.3253 72.7696 96.3263 72.769 96.3284ZM72.3215 96.8869C72.3224 96.8863 72.3233 96.8856 72.3242 96.885L72.3215 96.8869Z" fill="#17CEEE" stroke="#08ACE8" stroke-width="2"/>
<path d="M96.3437 95.9935V95.9967H97.3437C98.6249 95.9967 99.9047 95.995 101.184 95.9932C104.165 95.9891 107.142 95.985 110.121 96.0032L110.121 96.0032C113.332 96.0208 115.737 97.4437 117.493 100.161C117.633 100.379 117.736 100.562 117.8 100.727C117.916 101.03 117.905 101.187 117.891 101.244C117.885 101.265 117.877 101.282 117.857 101.305C117.835 101.331 117.782 101.381 117.665 101.44L117.663 101.44C117.558 101.493 117.488 101.507 117.45 101.511C117.415 101.514 117.396 101.509 117.383 101.504C117.357 101.494 117.258 101.443 117.148 101.234C116.269 99.5636 115.085 98.4175 113.639 97.7072C112.211 97.0057 110.594 96.7614 108.886 96.7735L108.885 96.7735C102.88 96.8212 96.8759 96.8112 90.8653 96.8011C88.6781 96.7975 86.49 96.7938 84.3005 96.793H84.3001C83.8816 96.793 83.5675 96.7725 83.332 96.7357C83.0935 96.6984 82.9799 96.6508 82.9341 96.6249C82.9287 96.6219 82.9246 96.6193 82.9216 96.6173C82.914 96.5972 82.8955 96.5353 82.8907 96.401C82.8863 96.2701 82.9007 96.2071 82.9073 96.1857C82.9105 96.1834 82.9149 96.1806 82.9205 96.1772C82.9685 96.1487 83.0863 96.0971 83.3305 96.0564C83.5714 96.0163 83.8923 95.9935 84.3164 95.9935H84.3418H84.3673H84.3927H84.4182H84.4436H84.4691H84.4945H84.5199H84.5454H84.5708H84.5963H84.6217H84.6472H84.6726H84.6981H84.7235H84.7489H84.7744H84.7998H84.8253H84.8507H84.8762H84.9016H84.927H84.9525H84.9779H85.0034H85.0288H85.0543H85.0797H85.1052H85.1306H85.156H85.1815H85.2069H85.2324H85.2578H85.2833H85.3087H85.3342H85.3596H85.385H85.4105H85.4359H85.4614H85.4868H85.5123H85.5377H85.5631H85.5886H85.614H85.6395H85.6649H85.6904H85.7158H85.7413H85.7667H85.7921H85.8176H85.843H85.8685H85.8939H85.9194H85.9448H85.9703H85.9957H86.0211H86.0466H86.072H86.0975H86.1229H86.1484H86.1738H86.1992H86.2247H86.2501H86.2756H86.301H86.3265H86.3519H86.3774H86.4028H86.4282H86.4537H86.4791H86.5046H86.53H86.5555H86.5809H86.6064H86.6318H86.6572H86.6827H86.7081H86.7336H86.759H86.7845H86.8099H86.8354H86.8608H86.8862H86.9117H86.9371H86.9626H86.988H87.0135H87.0389H87.0643H87.0898H87.1152H87.1407H87.1661H87.1916H87.217H87.2425H87.2679H87.2933H87.3188H87.3442H87.3697H87.3951H87.4206H87.446H87.4715H87.4969H87.5223H87.5478H87.5732H87.5987H87.6241H87.6496H87.675H87.7004H87.7259H87.7513H87.7768H87.8022H87.8277H87.8531H87.8786H87.904H87.9294H87.9549H87.9803H88.0058H88.0312H88.0567H88.0821H88.1076H88.133H88.1584H88.1839H88.2093H88.2348H88.2602H88.2857H88.3111H88.3365H88.362H88.3874H88.4129H88.4383H88.4638H88.4892H88.5147H88.5401H88.5655H88.591H88.6164H88.6419H88.6673H88.6928H88.7182H88.7437H88.7691H88.7945H88.82H88.8454H88.8709H88.8963H88.9218H88.9472H88.9727H88.9981H89.0235H89.049H89.0744H89.0999H89.1253H89.1508H89.1762H89.2016H89.2271H89.2525H89.278H89.3034H89.3289H89.3543H89.3798H89.4052H89.4306H89.4561H89.4815H89.507H89.5324H89.5579H89.5833H89.6088H89.6342H89.6596H89.6851H89.7105H89.736H89.7614H89.7869H89.8123H89.8377H89.8632H89.8886H89.9141H89.9395H89.965H89.9904H90.0159H90.0413H90.0667H90.0922H90.1176H90.1431H90.1685H90.194H90.2194H90.2449H90.2703H90.2957H90.3212H90.3466H90.3721H90.3975H90.423H90.4484H90.4738H90.4993H90.5247H90.5502H90.5756H90.6011H90.6265H90.652H90.6774H90.7028H90.7283H90.7537H90.7792H90.8046H90.8301H90.8555H90.881H90.9064H90.9318H90.9573H90.9827H91.0082H91.0336H91.0591H91.0845H91.11H91.1354H91.1608H91.1863H91.2117H91.2372H91.2626H91.2881H91.3135H91.3389H91.3644H91.3898H91.4153H91.4407H91.4662H91.4916H91.5171H91.5425H91.5679H91.5934H91.6188H91.6443H91.6697H91.6952H91.7206H91.7461H91.7715H91.7969H91.8224H91.8478H91.8733H91.8987H91.9242H91.9496H91.975H92.0005H92.0259H92.0514H92.0768H92.1023H92.1277H92.1532H92.1786H92.204H92.2295H92.2549H92.2804H92.3058H92.3313H92.3567H92.3822H92.4076H92.433H92.4585H92.4839H92.5094H92.5348H92.5603H92.5857H92.6111H92.6366H92.662H92.6875H92.7129H92.7384H92.7638H92.7893H92.8147H92.8401H92.8656H92.891H92.9165H92.9419H92.9674H92.9928H93.0183H93.0437H93.0691H93.0946H93.12H93.1455H93.1709H93.1964H93.2218H93.2473H93.2727H93.2981H93.3236H93.349H93.3745H93.3999H93.4254H93.4508H93.4762H93.5017H93.5271H93.5526H93.578H93.6035H93.6289H93.6544H93.6798H93.7052H93.7307H93.7561H93.7816H93.807H93.8325H93.8579H93.8834H93.9088H93.9342H93.9597H93.9851H94.0106H94.036H94.0615H94.0869H94.1123H94.1378H94.1632H94.1887H94.2141H94.2396H94.265H94.2905H94.3159H94.3413H94.3668H94.3922H94.4177H94.4431H94.4686H94.494H94.5195H94.5449H94.5703H94.5958H94.6212H94.6467H94.6721H94.6976H94.723H94.7484H94.7739H94.7993H94.8248H94.8502H94.8757H94.9011H94.9266H94.952H94.9774H95.0029H95.0283H95.0538H95.0792H95.1047H95.1301H95.1556H95.181H95.2064H95.2319H95.2573H95.2828H95.3082H95.3337H95.3591H95.3846H95.41H95.4354H95.4609H95.4863H95.5118H95.5372H95.5627H95.5881H95.6135H95.639H95.6644H95.6899H95.7153H95.7408H95.7662H95.7917H95.8171H95.8425H95.868H95.8934H95.9189H95.9443H95.9698H95.9952H96.0207H96.0461H96.0715H96.097H96.1224H96.1479H96.1733H96.1988H96.2242H96.2496H96.2751H96.3005H96.326H96.3437Z" fill="#17CEEE" stroke="#08ACE8" stroke-width="2"/>
<path d="M102.265 104.858L102.265 104.858C102.219 104.577 102.136 104.465 102.1 104.431C102.085 104.416 102.068 104.405 102.04 104.395C102.008 104.384 101.945 104.37 101.836 104.375L102.265 104.858ZM102.265 104.858L102.266 104.86M102.265 104.858L102.266 104.86M102.266 104.86C102.303 105.084 102.326 105.289 102.352 105.523C102.366 105.659 102.382 105.804 102.403 105.968C102.454 106.372 102.529 106.838 102.696 107.298L102.697 107.299M102.266 104.86L102.697 107.299M102.697 107.299C103.261 108.847 104.135 110.09 105.316 110.988M102.697 107.299L105.316 110.988M109.738 113.42L109.986 113.427C113.328 113.523 116.799 111.212 117.998 108.096C118.017 108.047 118.038 107.999 118.056 107.959C118.041 107.918 118.026 107.879 118.013 107.841C118.007 107.826 118.002 107.812 117.996 107.798C117.941 107.647 117.894 107.523 117.846 107.413C117.773 107.249 117.726 107.189 117.716 107.175C117.691 107.162 117.678 107.16 117.675 107.16C117.671 107.16 117.663 107.159 117.647 107.165C117.614 107.177 117.509 107.233 117.406 107.423C117.34 107.545 117.279 107.678 117.203 107.849L117.195 107.866C117.124 108.023 117.038 108.215 116.936 108.405C115.514 111.071 112.479 112.868 109.538 112.56L109.738 113.42ZM109.738 113.42C105.399 113.181 101.93 109.903 101.47 105.56C101.444 105.306 101.432 105.08 101.444 104.876C101.463 104.604 101.534 104.492 101.565 104.459L101.565 104.458C101.579 104.442 101.631 104.384 101.835 104.375L109.738 113.42ZM105.316 110.988C106.496 111.883 107.925 112.392 109.538 112.56L105.316 110.988Z" fill="#17CEEE" stroke="#08ACE8" stroke-width="2"/>
<path d="M76.8038 113.143C76.899 117.509 80.8085 121.267 85.3997 121.279V121.279C88.7447 121.286 91.8905 119.232 93.2481 116.15C93.459 115.671 93.4668 115.373 93.4387 115.242C93.4271 115.188 93.412 115.171 93.4088 115.168L93.4087 115.168C93.4054 115.164 93.3832 115.139 93.308 115.114L93.3073 115.113C93.1388 115.056 93.0453 115.055 93.0061 115.059C92.9747 115.061 92.9556 115.069 92.93 115.086C92.8473 115.144 92.7017 115.312 92.517 115.74L76.8038 113.143ZM76.8038 113.143C76.7929 112.621 76.8916 112.362 76.9538 112.269C76.9668 112.249 76.976 112.24 76.9792 112.237C76.981 112.236 76.9819 112.235 76.982 112.235L76.9823 112.235C76.9824 112.235 76.9835 112.234 76.9859 112.234C76.9883 112.233 76.9927 112.232 76.9995 112.23C77.013 112.228 77.0383 112.224 77.0783 112.226L77.0796 112.226C77.2483 112.234 77.3302 112.266 77.3634 112.284C77.3918 112.298 77.414 112.317 77.44 112.355C77.5138 112.465 77.5905 112.697 77.6299 113.158L77.6299 113.158L77.6301 113.16C78.1028 118.548 83.3826 121.909 88.3391 119.846L76.8038 113.143ZM88.3396 119.846C90.2608 119.048 91.6925 117.657 92.5168 115.74L88.3396 119.846Z" fill="#17CEEE" stroke="#08ACE8" stroke-width="2"/>
<path d="M31.4412 63.4674L31.4409 63.4674C28.0697 63.4965 24.8357 65.7096 23.611 68.7759L23.6108 68.7763C23.455 69.1658 23.4473 69.3792 23.4654 69.4663C23.471 69.4934 23.4775 69.5035 23.4879 69.5153C23.5022 69.5314 23.5527 69.581 23.6883 69.638L31.4412 63.4674ZM31.4412 63.4674C36.0121 63.4265 40.045 67.2655 40.1428 71.637C40.1535 72.1512 40.0546 72.3932 39.9976 72.4761C39.9773 72.5057 39.966 72.5108 39.9632 72.5121L39.9628 72.5122C39.958 72.5146 39.922 72.5313 39.83 72.529L39.8286 72.5289C39.6685 72.5251 39.5893 72.4964 39.5573 72.4811C39.5306 72.4684 39.5132 72.4543 39.493 72.4268C39.4331 72.345 39.354 72.1483 39.3164 71.7276C39.1452 69.8089 38.4649 68.144 37.3113 66.8693C36.1569 65.5937 34.5799 64.7655 32.7138 64.4353L31.4412 63.4674ZM32.7132 64.4352C29.236 63.8185 25.9946 65.7054 24.3943 69.1127L24.3937 69.114C24.2149 69.4961 24.0644 69.6382 23.9931 69.6802C23.9695 69.694 23.9535 69.6984 23.9296 69.6991C23.8999 69.6999 23.8239 69.695 23.6884 69.6381L32.7132 64.4352Z" fill="#17CEEE" stroke="#08ACE8" stroke-width="2"/>
<path d="M83.9107 80.7575L83.9076 80.7513H85.5241C86.4601 80.7513 87.395 80.752 88.3292 80.7528C90.1957 80.7542 92.0598 80.7556 93.9267 80.7513L93.9268 80.7513C94.5885 80.7498 94.8636 80.6376 94.9535 80.5752C94.9816 80.5556 94.9861 80.5455 94.9905 80.5358L94.9906 80.5356C94.9987 80.5176 95.0207 80.4564 95.019 80.3197C95.0171 80.1817 94.9946 80.126 94.9897 80.1154C94.9897 80.1153 94.9897 80.1153 94.9898 80.1152C94.9901 80.1148 94.991 80.1136 94.9761 80.1036C94.9023 80.0539 94.6507 79.9518 93.9959 79.9453H93.9949H93.9921H93.9892H93.9863H93.9835H93.9806H93.9778H93.9749H93.972H93.9692H93.9663H93.9635H93.9606H93.9577H93.9549H93.952H93.9492H93.9463H93.9434H93.9406H93.9377H93.9349H93.932H93.9291H93.9263H93.9234H93.9206H93.9177H93.9148H93.912H93.9091H93.9063H93.9034H93.9005H93.8977H93.8948H93.892H93.8891H93.8863H93.8834H93.8805H93.8777H93.8748H93.872H93.8691H93.8662H93.8634H93.8605H93.8577H93.8548H93.852H93.8491H93.8462H93.8434H93.8405H93.8377H93.8348H93.832H93.8291H93.8262H93.8234H93.8205H93.8177H93.8148H93.812H93.8091H93.8062H93.8034H93.8005H93.7977H93.7948H93.792H93.7891H93.7863H93.7834H93.7805H93.7777H93.7748H93.772H93.7691H93.7663H93.7634H93.7605H93.7577H93.7548H93.752H93.7491H93.7463H93.7434H93.7406H93.7377H93.7348H93.732H93.7291H93.7263H93.7234H93.7206H93.7177H93.7149H93.712H93.7092H93.7063H93.7034H93.7006H93.6977H93.6949H93.692H93.6892H93.6863H93.6835H93.6806H93.6777H93.6749H93.672H93.6692H93.6663H93.6635H93.6606H93.6578H93.6549H93.6521H93.6492H93.6464H93.6435H93.6406H93.6378H93.6349H93.6321H93.6292H93.6264H93.6235H93.6207H93.6178H93.615H93.6121H93.6093H93.6064H93.6035H93.6007H93.5978H93.595H93.5921H93.5893H93.5864H93.5836H93.5807H93.5779H93.575H93.5722H93.5693H93.5665H93.5636H93.5607H93.5579H93.555H93.5522H93.5493H93.5465H93.5436H93.5408H93.5379H93.5351H93.5322H93.5294H93.5265H93.5237H93.5208H93.518H93.5151H93.5123H93.5094H93.5065H93.5037H93.5008H93.498H93.4951H93.4923H93.4894H93.4866H93.4837H93.4809H93.478H93.4752H93.4723H93.4695H93.4666H93.4638H93.4609H93.4581H93.4552H93.4524H93.4495H93.4466H93.4438H93.4409H93.4381H93.4352H93.4324H93.4295H93.4267H93.4238H93.421H93.4181H93.4153H93.4124H93.4096H93.4067H93.4039H93.401H93.3982H93.3953H93.3925H93.3896H93.3868H93.3839H93.3811H93.3782H93.3754H93.3725H93.3696H93.3668H93.3639H93.3611H93.3582H93.3554H93.3525H93.3497H93.3468H93.344H93.3411H93.3383H93.3354H93.3326H93.3297H93.3269H93.324H93.3212H93.3183H93.3155H93.3126H93.3098H93.3069H93.3041H93.3012H93.2984H93.2955H93.2927H93.2898H93.287H93.2841H93.2813H93.2784H93.2755H93.2727H93.2698H93.267H93.2641H93.2613H93.2584H93.2556H93.2527H93.2499H93.247H93.2442H93.2413H93.2385H93.2356H93.2328H93.2299H93.2271H93.2242H93.2214H93.2185H93.2157H93.2128H93.21H93.2071H93.2043H93.2014H93.1986H93.1957H93.1929H93.19H93.1872H93.1843H93.1814H93.1786H93.1757H93.1729H93.17H93.1672H93.1643H93.1615H93.1586H93.1558H93.1529H93.1501H93.1472H93.1444H93.1415H93.1387H93.1358H93.133H93.1301H93.1273H93.1244H93.1216H93.1187H93.1159H93.113H93.1102H93.1073H93.1045H93.1016H93.0987H93.0959H93.093H93.0902H93.0873H93.0845H93.0816H93.0788H93.0759H93.0731H93.0702H93.0674H93.0645H93.0617H93.0588H93.056H93.0531H93.0503H93.0474H93.0446H93.0417H93.0389H93.036H93.0331H93.0303H93.0274H93.0246H93.0217H93.0189H93.016H93.0132H93.0103H93.0075H93.0046H93.0018H92.9989H92.9961H92.9932H92.9904H92.9875H92.9847H92.9818H92.9789H92.9761H92.9732H92.9704H92.9675H92.9647H92.9618H92.959H92.9561H92.9533H92.9504H92.9476H92.9447H92.9419H92.939H92.9361H92.9333H92.9304H92.9276H92.9247H92.9219H92.919H92.9162H92.9133H92.9105H92.9076H92.9048H92.9019H92.899H92.8962H92.8933H92.8905H92.8876H92.8848H92.8819H92.8791H92.8762H92.8734H92.8705H92.8677H92.8648H92.8619H92.8591H92.8562H92.8534H92.8505H92.8477H92.8448H92.842H92.8391H92.8363H92.8334H92.8305H92.8277H92.8248H92.822H92.8191H92.8163H92.8134H92.8106H92.8077H92.8048H92.802H92.7991H92.7963H92.7934H92.7906H92.7877H92.7849H92.782H92.7791H92.7763H92.7734H92.7706H92.7677H92.7649H92.762H92.7592H92.7563H92.7534H92.7506H92.7477H92.7449H92.742H92.7392H92.7363H92.7334H92.7306H92.7277H92.7249H92.722H92.7192H92.7163H92.7134H92.7106H92.7077H92.7049H92.702H92.6992H92.6963H92.6934H92.6906H92.6877H92.6849H92.682H92.6792H92.6763H92.6734H92.6706H92.6677H92.6649H92.662H92.6592H92.6563H92.6534H92.6506H92.6477H92.6449H92.642H92.6391H92.6363H92.6334H92.6306H92.6277H92.6249H92.622H92.6191H92.6163H92.6134H92.6106H92.6077H92.6048H92.602H92.5991H92.5963H92.5934H92.5905H92.5877H92.5848H92.582H92.5791H92.5762H92.5734H92.5705H92.5677H92.5648H92.5619H92.5591H92.5562H92.5534H92.5505H92.5476H92.5448H92.5419H92.5391C91.4983 79.9453 90.4577 79.9452 89.4173 79.9451C85.2604 79.9445 81.1059 79.944 76.9491 79.9518C76.949 79.9518 76.949 79.9518 76.9489 79.9518M83.9107 80.7575L75.179 80.6576C74.8958 79.707 75.6608 78.9551 76.9466 78.9518L76.9485 79.9518C76.9486 79.9518 76.9487 79.9518 76.9489 79.9518M83.9107 80.7575C83.5029 80.7574 83.0951 80.7572 82.6872 80.7571C80.792 80.7564 78.8955 80.7556 76.9981 80.7578C76.6386 80.7578 76.4403 80.7097 76.3339 80.6547C76.2895 80.6318 76.2604 80.6074 76.236 80.5774C76.2106 80.546 76.1719 80.4856 76.1369 80.3705M83.9107 80.7575L76.1369 80.3705M76.9489 79.9518C76.4833 79.9531 76.2499 80.0904 76.1709 80.1671C76.1354 80.2015 76.1271 80.225 76.124 80.2372C76.1209 80.2495 76.1131 80.2897 76.1369 80.3705M76.9489 79.9518L76.1369 80.3705" fill="#17CEEE" stroke="#08ACE8" stroke-width="2"/>
<path d="M30.4458 104.115L30.4425 104.112C29.6458 104.112 28.8496 104.111 28.0537 104.111C26.1884 104.109 24.3249 104.108 22.46 104.112L30.4458 104.115ZM30.4458 104.115H30.8594M30.4458 104.115H30.8594M30.8594 104.115C31.7934 104.115 32.727 104.115 33.6603 104.115C35.5261 104.114 37.3911 104.113 39.2566 104.115H39.2578M30.8594 104.115H39.2578M39.2578 104.115C39.8443 104.115 40.0837 104.226 40.1563 104.279C40.1805 104.297 40.187 104.308 40.1932 104.322C40.2024 104.343 40.223 104.405 40.2208 104.533C40.2187 104.659 40.1968 104.716 40.188 104.735C40.1824 104.747 40.1759 104.758 40.1483 104.777C40.066 104.835 39.8133 104.941 39.209 104.941L39.2084 104.941M39.2578 104.115L39.2084 104.941M39.2084 104.941C33.6098 104.944 28.0113 104.944 22.4094 104.941H22.4088M39.2084 104.941L22.4088 104.941M22.4088 104.941C21.8138 104.941 21.581 104.831 21.5145 104.782M22.4088 104.941L21.5145 104.782M21.5145 104.782C21.4942 104.767 21.4885 104.758 21.4819 104.742M21.5145 104.782L21.4819 104.742M21.4819 104.742C21.472 104.719 21.4507 104.653 21.4524 104.517M21.4819 104.742L21.4524 104.517M21.4524 104.517C21.4549 104.381 21.4775 104.319 21.4862 104.3C21.4909 104.29 21.4937 104.284 21.5142 104.27C21.5872 104.219 21.8325 104.113 22.46 104.112L21.4524 104.517Z" fill="#17CEEE" stroke="#08ACE8" stroke-width="2"/>
<path d="M99.5349 80.2878C99.6439 80.1814 99.7838 80.0727 99.9259 79.9779H100.905C101.074 79.9779 101.237 79.9647 101.368 79.953C101.405 79.9497 101.439 79.9465 101.471 79.9436C101.564 79.935 101.638 79.9281 101.715 79.9237C101.843 79.9164 101.901 79.9229 101.917 79.9246C102.06 79.9977 102.24 80.1214 102.375 80.2511C102.388 80.2636 102.4 80.2753 102.41 80.2862C102.384 80.3515 102.347 80.4243 102.303 80.4944C102.266 80.5535 102.231 80.5987 102.204 80.6299C101.398 80.7856 100.52 80.7907 99.7159 80.6433C99.6759 80.6091 99.6215 80.5525 99.5658 80.4772C99.5315 80.4308 99.5027 80.3854 99.4799 80.3444C99.4956 80.3272 99.5139 80.3083 99.5349 80.2878ZM102.49 80.3839C102.49 80.3839 102.489 80.3823 102.488 80.3792C102.49 80.3824 102.49 80.3839 102.49 80.3839ZM99.4002 80.4455C99.399 80.448 99.3983 80.4493 99.3982 80.4494C99.3981 80.4494 99.3988 80.4481 99.4002 80.4455ZM103.447 80.1725C103.454 80.6608 102.949 81.4941 102.539 81.582L101.905 78.9779V78.9778V78.9778V78.9778V78.9778V78.9778V78.9778V78.9777V78.9777V78.9777V78.9777V78.9777V78.9776V78.9776V78.9776V78.9776V78.9776V78.9775V78.9775V78.9775V78.9775V78.9775V78.9774V78.9774V78.9774V78.9774V78.9774V78.9774V78.9773V78.9773V78.9773V78.9773V78.9773V78.9772V78.9772V78.9772V78.9772V78.9772V78.9771V78.9771V78.9771V78.9771V78.9771V78.977V78.977V78.977V78.977V78.977V78.977V78.9769V78.9769V78.9769V78.9769V78.9769V78.9768V78.9768V78.9768V78.9768V78.9768V78.9767V78.9767V78.9767V78.9767V78.9767V78.9767V78.9766V78.9766V78.9766V78.9766V78.9766V78.9765V78.9765V78.9765V78.9765V78.9765V78.9764V78.9764V78.9764V78.9764V78.9764V78.9764V78.9763V78.9763V78.9763V78.9763V78.9763V78.9762V78.9762V78.9762V78.9762V78.9762V78.9761V78.9761V78.9761V78.9761V78.9761V78.9761V78.976V78.976V78.976V78.976V78.976V78.9759V78.9759V78.9759V78.9759V78.9759V78.9759V78.9758V78.9758V78.9758V78.9758V78.9758V78.9757V78.9757V78.9757V78.9757V78.9757V78.9757V78.9756V78.9756V78.9756V78.9756V78.9756V78.9755V78.9755V78.9755V78.9755V78.9755V78.9755V78.9754V78.9754V78.9754V78.9754V78.9754V78.9754V78.9753V78.9753V78.9753V78.9753V78.9753V78.9752V78.9752V78.9752V78.9752V78.9752V78.9752V78.9751V78.9751V78.9751V78.9751V78.9751V78.9751V78.975V78.975V78.975V78.975V78.975V78.9749V78.9749V78.9749V78.9749V78.9749V78.9749V78.9748V78.9748V78.9748V78.9748V78.9748V78.9748V78.9747V78.9747V78.9747V78.9747V78.9747V78.9747V78.9746V78.9746V78.9746V78.9746V78.9746V78.9746V78.9745V78.9745V78.9745V78.9745V78.9745V78.9745V78.9744V78.9744V78.9744V78.9744V78.9744V78.9744V78.9743V78.9743V78.9743V78.9743V78.9743V78.9743V78.9742V78.9742V78.9742V78.9742V78.9742V78.9742V78.9742V78.9741V78.9741V78.9741V78.9741V78.9741V78.9741V78.974V78.974V78.974V78.974V78.974V78.974V78.9739V78.9739V78.9739V78.9739V78.9739V78.9739V78.9739V78.9738V78.9738V78.9738V78.9738V78.9738V78.9738V78.9737V78.9737V78.9737V78.9737V78.9737V78.9737V78.9737V78.9736V78.9736V78.9736V78.9736V78.9736V78.9736V78.9736V78.9735V78.9735V78.9735V78.9735V78.9735V78.9735V78.9735V78.9734V78.9734V78.9734V78.9734V78.9734V78.9734V78.9734V78.9733V78.9733V78.9733V78.9733V78.9733V78.9733V78.9733V78.9732V78.9732V78.9732V78.9732V78.9732V78.9732V78.9732V78.9731V78.9731V78.9731V78.9731V78.9731V78.9731V78.9731V78.973V78.973V78.973V78.973V78.973V78.973V78.973V78.973V78.9729V78.9729V78.9729V78.9729V78.9729V78.9729V78.9729V78.9729V78.9728V78.9728V78.9728V78.9728V78.9728V78.9728V78.9728V78.9728V78.9727V78.9727V78.9727V78.9727V78.9727V78.9727V78.9727V78.9727V78.9726V78.9726V78.9726V78.9726V78.9726V78.9726V78.9726V78.9726V78.9725V78.9725V78.9725V78.9725V78.9725V78.9725V78.9725V78.9725V78.9725V78.9724V78.9724V78.9724V78.9724V78.9724V78.9724V78.9724V78.9724V78.9724V78.9723V78.9723V78.9723V78.9723V78.9723V78.9723V78.9723V78.9723V78.9723V78.9723V78.9722V78.9722V78.9722V78.9722V78.9722V78.9722V78.9722V78.9722V78.9722V78.9722V78.9721V78.9721V78.9721V78.9721V78.9721V78.9721V78.9721V78.9721V78.9721V78.9721V78.9721V78.972V78.972V78.972V78.972V78.972V78.972V78.972V78.972V78.972V78.972V78.972V78.9719V78.9719V78.9719V78.9719V78.9719V78.9719V78.9719V78.9719V78.9719V78.9719V78.9719V78.9719V78.9718V78.9718V78.9718V78.9718V78.9718V78.9718V78.9718V78.9718V78.9718V78.9718V78.9718V78.9718V78.9718V78.9717V78.9717V78.9717V78.9717V78.9717V78.9717V78.9717V78.9717V78.9717V78.9717V78.9717V78.9717V78.9717V78.9717V78.9717V78.9717V78.9716V78.9716V78.9716V78.9716V78.9716V78.9716V78.9716V78.9716V78.9716V78.9716V78.9716V78.9716V78.9716V78.9716V78.9716V78.9716V78.9716V78.9715V78.9715V78.9715V78.9715V78.9715V78.9715V78.9715V78.9715V78.9715V78.9715V78.9715V78.9715V78.9715V78.9715V78.9715V78.9715V78.9715V78.9715V78.9715V78.9715V78.9715V78.9715V78.9715V78.9715V78.9714V78.9714V78.9714V78.9714V78.9714V78.9714V78.9714V78.9714V78.9714V78.9714V78.9714V78.9714V78.9714V78.9714V78.9714V78.9714V78.9714V78.9714V78.9714V78.9714V78.9714V78.9714V78.9714V78.9714V78.9714V78.9714V78.9714V78.9714V78.9714V78.9714V78.9714V78.9714V78.9714V78.9714V78.9714V78.9714V78.9714V78.9714V78.9714V78.9714V78.9714V78.9216C102.062 78.9276 102.209 78.9534 102.337 79.0169C102.809 79.2481 103.444 79.7689 103.447 80.1725Z" fill="#17CEEE" stroke="#08ACE8" stroke-width="2"/>
<path d="M53.7663 7.32747C56.8522 12.9818 60.2637 18.1999 61.2435 24.5768C63.1966 37.3112 56.6243 50.2832 42.8255 54.2741C40.2897 55.0065 37.5944 55.3125 34.9479 55.5176C29.4596 55.944 24.1536 56.8164 19.6322 60.2799C19.1602 60.6413 18.7044 61.0319 17.9329 61.3346C18.1641 59.5638 18.2357 57.7539 18.6491 56.0254C21.9824 42.1159 30.5371 32.6367 43.5352 27.015C45.2767 26.263 47.1224 25.7487 48.9355 25.1758C49.8698 24.8796 50.4688 24.3945 50.2702 23.3496C50.0977 22.4447 49.2708 22.0605 48.1641 22.3828C31.1947 27.3112 20.2083 38.151 15.7487 55.3548C15.2116 57.4219 15.0716 59.5898 14.7005 62.0052C13.4538 59.6224 12.1354 57.4902 11.1751 55.2083C6.81641 44.8242 7.36654 34.8958 14.6061 25.9147C19.1504 20.2799 25.293 17.3633 32.4642 16.5625C35.3613 16.2402 38.2878 16.0417 41.1328 15.459C46.2663 14.4076 50.625 11.9694 53.7663 7.32422V7.32747Z" fill="#64BC95"/>
<path d="M63.2031 67.3828C64.3815 66.3672 65.498 65.1986 66.8066 64.3164C70.7194 61.6764 75.0553 60.8887 79.694 61.6927C80.9896 61.9173 81.7643 61.5462 81.862 60.6217C81.9922 59.3945 81.1654 58.9941 80.1628 58.8314C73.1608 57.6725 67.0833 59.4922 62.015 64.5117C61.6471 64.8763 61.3021 65.2669 60.6706 65.5762C60.7552 64.8145 60.7943 64.043 60.9375 63.2943C62.1615 56.8555 68.6491 53.0143 74.7754 55.0846C76.3835 55.6283 77.959 56.3704 79.6126 56.6406C81.25 56.9108 82.9688 56.6992 84.6875 56.6992C85.7422 62.6953 82.6172 68.2747 77.155 69.7917C74.541 70.5176 71.9857 70.3223 69.4238 69.2969C67.4935 68.5221 65.4395 68.0599 63.2031 67.3893V67.3828Z" fill="#64BC95"/>
<path d="M75.1465 31.1068C73.9941 28.9876 74.6712 24.5313 77.3698 22.2298C79.095 20.7585 81.0579 19.9349 83.3626 19.9479C87.3991 19.974 87.4316 19.9479 91.0384 18.3073C92.679 21.5885 93.0664 24.9056 91.0644 28.125C89.1569 31.1947 86.2402 32.3893 82.6432 32.1061C81.1328 31.9857 79.6094 32.0866 78.0306 32.0866C78.89 29.7331 80.5501 27.8092 82.653 26.2337C84.4368 24.8958 86.4616 24.1048 88.6361 23.6751C90.0065 23.405 90.5827 22.8027 90.3776 21.8457C90.179 20.9212 89.3424 20.5566 88.0111 20.8268C82.2754 22.002 78.0599 25.1465 75.5111 30.4557C75.4101 30.6673 75.2767 30.8659 75.1432 31.1035L75.1465 31.1068Z" fill="#64BC95"/>
</svg>
