<svg width="125" height="125" viewBox="0 0 125 125" fill="none" xmlns="http://www.w3.org/2000/svg">
<g clip-path="url(#clip0_73_394)">
<path d="M125 108.436C124.765 109.074 124.553 109.719 124.304 110.349C122.801 114.175 119.159 116.696 115.062 116.718C111.741 116.74 108.414 116.718 104.94 116.718V124.707H70.7051V112.855H16.3295V116.476C12.8921 116.476 9.53533 116.828 6.28849 116.381C2.63853 115.882 0.212555 112.401 0.212555 108.627C0.212555 91.2489 0.212555 73.864 0.212555 56.4864C0.212555 52.2501 3.03431 48.6954 7.24129 48.3802C11.5509 48.0578 15.9044 48.3069 20.324 48.3069V52.3087C19.8256 52.3307 19.3931 52.3673 18.9607 52.3673C15.4647 52.3673 11.976 52.3673 8.47992 52.3673C6.0173 52.3747 4.30959 53.9871 4.28761 56.2885C4.26562 58.5899 5.93668 60.2976 8.38464 60.3489C10.9719 60.4002 13.5664 60.3635 16.2929 60.3635V108.583H70.5512V104.705C70.1627 104.683 69.7376 104.639 69.3125 104.639C66.7546 104.639 64.1967 104.639 61.6388 104.639C58.3553 104.639 57.3439 103.877 56.3838 100.572C55.4969 100.572 54.5515 100.696 53.6426 100.55C50.4837 100.044 48.2337 97.2076 48.4829 94.1659C48.7467 90.9484 51.2973 88.5444 54.6907 88.5004C59.6013 88.4418 64.5192 88.4491 69.4371 88.5004C70.5512 88.5151 71.0349 88.3172 71.2108 87.0566C71.7458 83.1501 72.1783 82.3585 74.4723 79.5441C71.9437 78.0636 69.2099 76.7957 66.8572 75.022C60.9645 70.5878 57.6371 64.5705 56.7649 57.2413C56.6916 56.6036 56.5377 56.2665 55.8341 56.3251C52.7998 56.567 50.4324 55.5775 48.9959 52.7265C48.8713 52.4773 48.241 52.3893 47.8452 52.382C43.1765 52.36 38.5004 52.3673 33.8317 52.3673C33.3993 52.3673 32.9595 52.3673 32.4612 52.3673V48.2556C32.9376 48.2556 33.3773 48.2556 33.8097 48.2556C38.5224 48.2556 43.2351 48.2483 47.9478 48.2703C48.5781 48.2703 48.9006 48.0871 49.2598 47.5227C49.8827 46.5553 50.7256 45.7344 51.6857 44.6057C51.3779 43.8288 50.9528 42.7587 50.5131 41.6887C47.4861 34.2861 47.662 26.9862 51.737 20.0674C56.3251 12.2691 63.3026 8.23072 72.3981 8.06215C77.1108 7.9742 81.8235 7.95221 86.5289 8.06215C93.8361 8.24538 100.828 7.10935 107.395 3.4594C107.747 3.87716 108.099 4.25828 108.407 4.66872C117.473 16.6154 119.349 29.6321 114.138 43.6602C113.801 44.569 113.83 45.0088 114.658 45.6245C116.733 47.1563 117.466 49.7581 116.696 52.1548C115.926 54.5734 113.735 56.2152 111.133 56.3325C108.993 56.4277 108.964 56.4204 108.575 58.6045C107.666 63.7716 105.438 68.2791 101.774 72.2955C102.272 72.3322 102.602 72.3835 102.939 72.3835C106.025 72.3835 109.11 72.3835 112.203 72.3835C118.756 72.3908 123.263 75.9455 124.817 82.3072C124.846 82.4172 124.949 82.5051 125.015 82.6004V108.429L125 108.436ZM60.6714 49.0399C60.6127 49.0399 60.5541 49.0399 60.5028 49.0472C60.686 52.1988 60.5028 55.4236 61.1184 58.4946C63.5664 70.749 74.6995 78.1662 87.0199 75.9968C96.7092 74.2891 104.544 65.2081 104.757 55.3797C104.83 51.8909 104.786 48.3949 104.786 44.9062C104.786 41.7693 103.291 40.2888 100.161 40.2814C94.2759 40.2814 88.3832 40.2155 82.4978 40.3034C77.8511 40.3694 73.7027 39.1454 70.0381 36.2577C69.7669 36.0452 69.2026 35.9719 68.8801 36.1038C66.9598 36.866 65.0689 37.6942 63.178 38.5298C61.4776 39.2773 60.6494 40.5893 60.6714 42.4656C60.6933 44.657 60.6714 46.8484 60.6714 49.0399ZM4.30226 63.9035C4.30226 64.0208 4.30226 64.4239 4.30226 64.8197C4.30226 79.1557 4.30226 93.4916 4.30226 107.828C4.30226 108.275 4.30226 108.722 4.34624 109.169C4.50015 110.767 5.70948 112.313 7.27793 112.489C8.86837 112.672 10.4881 112.533 12.1372 112.533V64.6218C9.49136 64.3799 6.94079 64.1527 4.30226 63.9109V63.9035ZM60.752 100.41C66.1976 100.41 71.5699 100.726 76.8909 100.33C83.7291 99.8241 88.6983 93.9534 88.6617 87.1372C88.647 83.7511 86.1111 80.9513 82.7983 80.6508C79.1777 80.3284 76.18 82.5491 75.557 86.0378C75.2199 87.9068 74.8607 89.7831 74.6189 91.6667C74.5163 92.4729 74.1865 92.6634 73.4462 92.6561C70.8077 92.6268 68.1692 92.6415 65.5306 92.6415C63.9622 92.6415 62.3864 92.6415 60.752 92.6415V100.41ZM88.669 98.6074C84.8065 102.807 80.2257 104.705 74.9047 104.779V120.507H100.74V116.769C99.9927 116.769 99.2891 116.894 98.6441 116.747C96.973 116.352 95.1774 116.11 93.7042 115.303C90.3401 113.464 88.779 110.364 88.6837 106.567C88.6177 104.031 88.669 101.495 88.669 98.6148V98.6074ZM117.114 96.6872C116.271 99.7655 115.091 100.66 111.954 100.66C111.023 100.66 110.085 100.667 109.154 100.66C106.977 100.638 105.6 99.5676 104.947 97.4934C104.845 97.1709 104.515 96.7165 104.266 96.6945C103.188 96.6066 102.103 96.6579 100.989 96.6579V112.636C105.592 112.636 110.1 112.658 114.6 112.636C118.499 112.606 120.874 110.217 120.91 106.318C120.94 103.474 120.918 100.63 120.91 97.7866C120.91 97.4348 120.852 97.0903 120.815 96.7019H117.114V96.6872ZM120.844 92.4729C120.844 89.5852 120.896 86.8294 120.83 84.0809C120.734 80.2111 117.568 76.7663 113.698 76.6198C109.125 76.4439 104.537 76.5758 99.9414 76.5758C101.884 81.8015 100.374 87.2105 101.063 92.4875H104.647C104.749 92.1944 104.852 91.9305 104.925 91.6667C105.519 89.6218 106.955 88.5004 109.103 88.4491C109.953 88.4271 110.803 88.4491 111.661 88.4491C115.106 88.4491 116.132 89.1967 117.194 92.4875H120.844V92.4729ZM96.5773 100.484C96.6212 100.257 96.6652 100.139 96.6652 100.022C96.6652 93.5283 96.7092 87.0346 96.6286 80.5409C96.6139 79.5881 96.0276 78.6426 95.6464 77.5286C93.7262 78.9578 92.92 80.5849 92.9053 82.5491C92.876 88.2293 92.8906 93.9167 92.898 99.5969C92.898 99.8681 92.9346 100.147 92.9566 100.484H96.5773ZM93.0006 104.815C92.4802 108.377 93.9167 111.214 96.6286 111.991V104.815H93.0006ZM112.716 96.4307V92.7221H109.044V96.4307H112.716ZM109.008 52.2281C110.305 52.2794 111.69 52.6605 112.467 51.3559C112.782 50.8209 112.782 49.7728 112.467 49.2451C111.69 47.9551 110.305 48.3509 109.015 48.3802V52.2281H109.008ZM56.4497 48.3729C55.0718 48.3656 53.6353 47.9478 52.9097 49.399C52.6459 49.934 52.6898 50.9015 53.0123 51.3999C53.8259 52.6532 55.1744 52.2647 56.4424 52.2501V48.3729H56.4497ZM56.4131 96.4746V92.6561C55.1158 92.6854 53.7013 92.1944 52.9537 93.5796C52.6678 94.1146 52.6752 95.0674 52.9683 95.6025C53.7379 96.9877 55.1451 96.416 56.4131 96.4746Z" fill="black"/>
<path d="M28.9724 0C30.2477 0.359132 31.5523 0.637643 32.791 1.09206C43.0079 4.88127 47.5887 16.7473 42.3556 26.3559C37.9361 34.4694 33.2234 42.4289 28.6426 50.4544C27.917 51.7224 27.1841 52.9757 26.3852 54.3756C25.4544 52.7631 24.5749 51.268 23.7174 49.7655C19.4298 42.275 15.2155 34.7332 10.8546 27.2867C4.05307 15.6699 11.353 2.00088 23.4242 0.197889C23.5781 0.175902 23.7101 0.0659631 23.8566 0C25.5644 0 27.2721 0 28.9724 0ZM26.3339 45.8004C26.5098 45.5805 26.6271 45.4779 26.7004 45.3386C30.6802 38.3685 34.7039 31.4131 38.6177 24.4063C40.0689 21.8045 40.5746 18.99 40.1349 15.9631C39.1674 9.21284 32.9962 3.13691 24.5016 4.33157C14.3506 5.75344 9.42539 16.2709 14.5192 25.1686C16.718 29.0091 18.9021 32.8496 21.1009 36.6828C22.8306 39.7024 24.5602 42.7147 26.3339 45.8077V45.8004Z" fill="black"/>
<path d="M24.4796 68.4843H28.4447C28.4447 69.012 28.4447 69.4811 28.4447 69.9575C28.4447 77.426 28.4301 84.9018 28.4521 92.3703C28.4594 94.9941 30.2477 96.6725 32.769 96.5186C34.4694 96.416 35.9352 95.1774 36.287 93.4916C36.4116 92.898 36.4409 92.2823 36.4409 91.6813C36.4556 86.5655 36.3603 81.4497 36.4849 76.3339C36.6315 70.2287 42.9053 66.5347 48.241 69.3418C50.8502 70.7124 52.338 72.9551 52.5213 75.8575C52.6898 78.6866 52.5579 81.5303 52.5579 84.462H48.5342C48.5195 84.1102 48.4902 83.7218 48.4902 83.3333C48.4902 81.1419 48.4902 78.9505 48.4902 76.759C48.4755 74.2524 46.7971 72.4568 44.5031 72.4568C42.2457 72.4568 40.494 74.2964 40.4867 76.7663C40.4647 82.0874 40.4867 87.4011 40.472 92.7221C40.472 94.9502 39.6291 96.8484 38.0167 98.3583C35.5688 100.638 32.6884 101.283 29.5734 100.088C26.4072 98.8713 24.487 96.4233 24.421 93.0519C24.2744 84.9751 24.377 76.8909 24.3843 68.8141C24.3843 68.7408 24.4357 68.6675 24.5016 68.4916L24.4796 68.4843Z" fill="#08ACE8"/>
<path d="M26.3852 64.0281C24.7874 65.3474 23.263 66.608 21.6285 67.9566C20.749 66.9085 19.9282 65.9337 19.0267 64.871C20.4192 63.6983 21.7458 62.5843 23.175 61.375C21.7898 60.2096 20.4779 59.0956 19.0487 57.8863C19.8842 56.8748 20.6904 55.8854 21.5992 54.7787C23.2117 56.0979 24.7874 57.3952 26.3852 58.7071C27.961 57.4025 29.4928 56.1346 31.1126 54.7933C31.9554 55.7901 32.791 56.7722 33.7144 57.8643C32.3512 59.0223 31.0319 60.1363 29.5881 61.3676C30.9733 62.5403 32.3072 63.669 33.7218 64.8637C32.8349 65.9264 32.0067 66.9159 31.1346 67.9566C29.5368 66.63 28.0123 65.3694 26.3852 64.0281Z" fill="#FF6A6A"/>
<path d="M60.6714 49.0399C60.6714 46.8484 60.686 44.657 60.6714 42.4656C60.6494 40.5966 61.4776 39.2847 63.1779 38.5298C65.0689 37.6942 66.9598 36.866 68.8801 36.1038C69.2026 35.9719 69.7669 36.0451 70.0381 36.2577C73.6954 39.1527 77.8511 40.3767 82.4978 40.3034C88.3832 40.2155 94.2759 40.2814 100.161 40.2814C103.291 40.2814 104.779 41.7693 104.786 44.9062C104.786 48.3949 104.83 51.8909 104.757 55.3797C104.551 65.2081 96.7165 74.2817 87.0199 75.9968C74.6995 78.1736 63.5664 70.749 61.1184 58.4946C60.5028 55.4236 60.686 52.1988 60.5028 49.0472C60.5614 49.0472 60.62 49.0472 60.6714 49.0399ZM71.995 60.4148C72.618 62.5843 73.0211 64.7098 73.8273 66.6667C75.6303 71.0422 80.4749 73.3802 85.0484 72.1856C90.9484 70.6391 92.4142 66.1683 93.2058 60.4148H71.995ZM76.6051 52.3527C77.1621 49.2304 76.1873 46.6579 73.9739 45.214C71.9291 43.8874 69.2099 43.8948 67.2237 45.2946C64.7757 47.017 64.2847 49.4796 64.6291 52.3087H68.7188C68.7188 51.5758 68.6895 50.9308 68.7188 50.2858C68.7775 49.1645 69.613 48.3436 70.6538 48.3509C71.7018 48.3509 72.5154 49.1645 72.5667 50.3005C72.596 50.9675 72.5667 51.6344 72.5667 52.3527H76.5904H76.6051ZM100.777 52.3967C101.224 48.7467 100.183 46.2328 97.662 44.9502C95.4192 43.8068 93.1911 43.9461 91.139 45.4632C88.9842 47.0536 88.5151 49.3404 88.7057 51.8396C88.7203 52.0302 89.0208 52.3527 89.1967 52.36C90.3914 52.404 91.586 52.382 92.8393 52.382C92.8393 51.5685 92.8173 50.9601 92.8393 50.3591C92.898 49.1718 93.7628 48.3143 94.8329 48.3436C95.8883 48.3729 96.6432 49.1718 96.7018 50.3298C96.7238 50.7769 96.6212 51.246 96.7458 51.6564C96.8338 51.9422 97.1782 52.338 97.4348 52.36C98.5122 52.4406 99.6042 52.3967 100.755 52.3967H100.777Z" fill="#FBFCC8"/>
<path d="M60.752 100.41V92.6414C62.3864 92.6414 63.9549 92.6414 65.5306 92.6414C68.1692 92.6414 70.8077 92.6195 73.4462 92.6561C74.1865 92.6634 74.5089 92.4729 74.6189 91.6667C74.8607 89.783 75.2199 87.9141 75.557 86.0378C76.18 82.5491 79.1777 80.3283 82.7983 80.6508C86.1111 80.9513 88.6397 83.7511 88.6617 87.1372C88.6983 93.9534 83.7291 99.8241 76.8909 100.33C71.5699 100.726 66.2049 100.41 60.752 100.41Z" fill="#17CEEE"/>
<path d="M88.669 98.6074C88.669 101.488 88.6104 104.024 88.6837 106.56C88.7863 110.356 90.3401 113.449 93.7042 115.296C95.1774 116.102 96.973 116.344 98.6441 116.74C99.2891 116.894 100 116.762 100.74 116.762V120.5H74.9047V104.771C80.2184 104.698 84.8065 102.8 88.669 98.6001V98.6074Z" fill="#17CEEE"/>
<path d="M117.114 96.6872H120.815C120.852 97.0756 120.91 97.4201 120.91 97.7719C120.918 100.616 120.932 103.459 120.91 106.303C120.874 110.202 118.499 112.599 114.6 112.621C110.092 112.65 105.585 112.621 100.989 112.621V96.6432C102.103 96.6432 103.188 96.5919 104.266 96.6799C104.522 96.7018 104.845 97.1636 104.947 97.4787C105.607 99.5529 106.985 100.623 109.154 100.645C110.085 100.652 111.023 100.645 111.954 100.645C115.091 100.645 116.271 99.7508 117.114 96.6725V96.6872Z" fill="#DE8226"/>
<path d="M120.844 92.4656H117.194C116.132 89.1747 115.106 88.4271 111.661 88.4271C110.811 88.4271 109.953 88.4125 109.103 88.4271C106.963 88.4785 105.519 89.5998 104.925 91.6447C104.845 91.9159 104.749 92.1724 104.647 92.4656H101.063C100.374 87.1885 101.884 81.7795 99.9414 76.5538C104.544 76.5538 109.125 76.4219 113.698 76.5978C117.575 76.7444 120.742 80.1891 120.83 84.0589C120.896 86.8147 120.844 89.5632 120.844 92.4509V92.4656Z" fill="#DE8226"/>
<path d="M96.5773 100.484H92.9566C92.9346 100.139 92.898 99.8681 92.898 99.5969C92.898 93.9167 92.876 88.2293 92.9053 82.5491C92.92 80.5775 93.7189 78.9578 95.6464 77.5286C96.0276 78.6426 96.6139 79.5881 96.6286 80.5409C96.7092 87.0346 96.6725 93.5283 96.6652 100.022C96.6652 100.139 96.6212 100.257 96.5773 100.484Z" fill="#A2580E"/>
<path d="M93.0079 104.815H96.6359V111.991C93.9241 111.221 92.4802 108.377 93.0079 104.815Z" fill="#A2580E"/>
<path d="M112.716 96.4307H109.044V92.7221H112.716V96.4307Z" fill="#FFF57F"/>
<path d="M109.008 52.2281V48.3802C110.298 48.3436 111.683 47.9478 112.46 49.2451C112.782 49.7801 112.782 50.8209 112.46 51.3559C111.69 52.6605 110.305 52.2794 109 52.2281H109.008Z" fill="#FBFCC8"/>
<path d="M56.4497 48.3656V52.2427C55.1818 52.2574 53.8332 52.6459 53.0196 51.3926C52.6971 50.8942 52.6458 49.9267 52.917 49.3917C53.6426 47.9332 55.0718 48.3583 56.457 48.3656H56.4497Z" fill="#FBFCC8"/>
<path d="M56.4131 96.4746C55.1451 96.4087 53.7379 96.9804 52.9683 95.6025C52.6752 95.0748 52.6678 94.1146 52.9537 93.5796C53.7013 92.1944 55.1158 92.6854 56.4131 92.6561V96.4746Z" fill="#FBFCC8"/>
<path d="M26.3339 45.8004C24.5603 42.7147 22.8306 39.6951 21.1009 36.6755C18.9021 32.8349 16.718 28.9944 14.5192 25.1612C9.42539 16.2636 14.3506 5.74611 24.5016 4.32424C32.9962 3.12958 39.1747 9.21284 40.1349 15.9557C40.5673 18.99 40.0689 21.8045 38.6177 24.399C34.7039 31.4057 30.6802 38.3612 26.7004 45.3313C26.6271 45.4632 26.5098 45.5731 26.3339 45.793V45.8004ZM16.1976 18.0446C16.1976 23.7687 20.7417 28.3641 26.4072 28.3568C31.9848 28.3495 36.6168 23.7027 36.6242 18.1179C36.6242 12.4963 32.0581 7.93755 26.4219 7.93755C20.6831 7.93755 16.2049 12.3644 16.2049 18.0446H16.1976Z" fill="#FF6A6A"/>
<path d="M71.995 60.4148H93.2058C92.4142 66.1683 90.9484 70.6391 85.0484 72.1856C80.4749 73.3876 75.6303 71.0496 73.8273 66.6667C73.0211 64.7098 72.618 62.5843 71.995 60.4148ZM77.6459 64.7024C78.7013 67.253 80.7901 68.4184 83.5899 68.1472C85.4735 67.9639 87.3204 66.4321 87.6722 64.7024H77.6385H77.6459Z" fill="black"/>
<path d="M76.6051 52.3527H72.5814C72.5814 51.6344 72.6033 50.9675 72.5814 50.3005C72.53 49.1645 71.7165 48.3583 70.6684 48.3509C69.6277 48.3509 68.7921 49.1645 68.7335 50.2858C68.6969 50.9235 68.7335 51.5685 68.7335 52.3087H64.6438C64.2993 49.4796 64.7904 47.017 67.2383 45.2946C69.2246 43.8948 71.9437 43.8874 73.9886 45.214C76.202 46.6505 77.1768 49.2231 76.6198 52.3527H76.6051Z" fill="black"/>
<path d="M100.784 52.3967C99.6335 52.3967 98.5415 52.4406 97.4641 52.36C97.2076 52.338 96.8558 51.9496 96.7751 51.6564C96.6579 51.246 96.7531 50.7769 96.7312 50.3298C96.6725 49.1645 95.9176 48.3729 94.8622 48.3436C93.7921 48.3143 92.9273 49.1718 92.8687 50.3591C92.8393 50.9601 92.8687 51.5685 92.8687 52.382C91.6154 52.382 90.4207 52.404 89.226 52.36C89.0501 52.36 88.7496 52.0302 88.735 51.8396C88.5444 49.3404 89.0135 47.0536 91.1683 45.4632C93.2131 43.9534 95.4412 43.8141 97.6913 44.9502C100.205 46.2328 101.253 48.7467 100.806 52.3967H100.784Z" fill="black"/>
<path d="M16.1976 18.0446C16.1976 12.3644 20.6758 7.93755 26.4145 7.93755C32.0507 7.93755 36.6242 12.4963 36.6168 18.1179C36.6168 23.6954 31.9774 28.3421 26.3999 28.3568C20.7417 28.3641 16.1903 23.7687 16.1903 18.0446H16.1976ZM26.3486 12.1519C23.0138 12.1665 20.4266 14.7464 20.4192 18.0812C20.4192 21.4453 23.0724 24.1132 26.4072 24.1058C29.72 24.0912 32.3952 21.3647 32.3585 18.0226C32.3292 14.7537 29.6467 12.1372 26.3412 12.1519H26.3486Z" fill="black"/>
<path d="M77.6459 64.6951H87.6796C87.3278 66.4248 85.4735 67.9566 83.5972 68.1398C80.7974 68.411 78.7086 67.2457 77.6532 64.6951H77.6459Z" fill="#FF6A6A"/>
</g>
<defs>
<clipPath id="clip0_73_394">
<rect width="125" height="125" fill="white"/>
</clipPath>
</defs>
</svg>
