<svg width="76" height="53" viewBox="0 0 76 53" fill="none" xmlns="http://www.w3.org/2000/svg">
<g clip-path="url(#clip0_109_138)">
<path d="M75.9692 18.2136V19.0752C75.9692 29.3382 75.9692 39.5948 75.9692 49.8578C75.9692 51.904 74.9339 52.9937 72.9558 52.9937C57.4637 52.9937 41.9778 52.9937 26.4857 52.9937C26.2762 52.9937 26.0667 52.9747 25.8079 52.962V32.0053C26.1591 32.265 26.4611 32.4867 26.7692 32.7085C27.9585 33.5764 29.1232 33.6651 30.066 32.9555C31.0705 32.2017 31.3108 31.1057 30.7993 29.5979C30.7747 29.5219 30.7747 29.4459 30.75 29.2938C32.1366 29.3952 33.3998 29.1798 33.9976 27.6974C34.7556 25.8158 33.3814 24.8085 32.1366 23.5161C34.0346 23.8963 35.5998 23.6238 36.9678 22.5595C38.3544 21.4889 39.1 20.0381 39.2972 18.2073H75.9569L75.9692 18.2136ZM52.2442 45.987C56.7736 45.987 61.2967 45.987 65.826 45.987C66.1157 45.987 66.4114 46.006 66.6949 45.9616C67.3974 45.8413 67.761 45.3661 67.7733 44.6629C67.7856 43.9597 67.4406 43.4656 66.738 43.3325C66.4299 43.2755 66.1033 43.2882 65.7891 43.2882C56.7366 43.2882 47.6841 43.2882 38.6317 43.2882C38.3667 43.2882 38.1017 43.2882 37.8367 43.3135C37.0972 43.4022 36.6597 43.9407 36.6844 44.7009C36.709 45.5435 37.239 45.987 38.2681 45.9933C42.9268 45.9933 47.5855 45.9933 52.2442 45.9933V45.987ZM48.7872 37.6372C52.2011 37.6372 55.615 37.6372 59.0228 37.6372C60.3785 37.6372 61.0502 37.1684 61.0256 36.2435C61.0009 35.3439 60.3354 34.8878 59.0413 34.8878C52.2134 34.8878 45.3917 34.8878 38.5639 34.8878C38.2496 34.8878 37.923 34.9004 37.621 34.9828C36.937 35.1729 36.6289 35.667 36.6782 36.3829C36.7275 37.1114 37.1465 37.5042 37.8244 37.6182C38.0586 37.6562 38.2989 37.6309 38.5392 37.6309C41.9532 37.6309 45.3671 37.6309 48.7749 37.6309L48.7872 37.6372Z" fill="#0D504D"/>
<path d="M11.1723 23.8075C10.8087 24.118 10.4328 24.4094 10.0939 24.7515C9.20652 25.6447 8.96002 26.671 9.41604 27.71C9.88437 28.7806 10.7163 29.3128 11.8686 29.3001C12.1275 29.3001 12.3863 29.3001 12.7129 29.3001C12.1336 30.7255 12.1213 32.0242 13.3907 32.9428C14.9991 34.1085 16.2747 33.0886 17.575 31.9799V52.962C17.3038 52.9746 17.0512 52.9936 16.7923 52.9936C12.2384 52.9936 7.68442 52.9936 3.13663 52.9936C0.992135 52.9936 0 51.9547 0 49.7374C0 39.5378 0 29.3318 0 19.1322C0 18.8408 0 18.543 0 18.1946H4.08562C4.29514 19.9177 4.99149 21.4382 6.39033 22.5152C7.7707 23.5858 9.33593 23.9342 11.0491 23.5415C11.0922 23.6238 11.1353 23.7125 11.1723 23.7949V23.8075Z" fill="#0D504D"/>
<path d="M25.7832 7.80488V0.025299C26.0913 0.025299 26.3686 0.025299 26.6459 0.025299C42.0025 0.025299 57.3651 0.0506396 72.7217 -4.17095e-05C74.9894 -0.00637688 76.0863 1.54574 75.9939 3.33859C75.8829 5.45454 75.9692 7.57682 75.9692 9.76245H39.3896C39.2109 9.10359 39.0938 8.4574 38.8597 7.8619C37.7443 5.03641 34.7987 3.611 31.9455 4.50426C29.9859 5.11877 28.1742 6.05638 26.5104 7.29173C26.307 7.44378 26.0913 7.58315 25.7832 7.79855V7.80488Z" fill="#0D504D"/>
<path d="M26.3193 11.0612C28.2235 9.15431 30.3741 7.8556 32.8206 7.11439C34.7494 6.53156 36.5735 7.91262 36.6412 10.0792C36.7275 12.664 36.7275 15.2551 36.6412 17.8335C36.5611 20.1838 34.6446 21.4319 32.457 20.697C30.368 19.9938 28.5131 18.8788 26.8493 17.4027C26.4549 17.0543 26.344 16.7882 26.5966 16.2497C27.4039 14.5075 27.2437 12.7717 26.3193 11.0549V11.0612Z" fill="#FDB10B"/>
<path d="M17.1005 11.0422C16.1453 12.8857 16.0344 14.7039 16.9341 16.5538C17.008 16.6995 16.9217 17.0416 16.7985 17.162C14.9313 18.9611 12.7683 20.2472 10.2911 20.8934C8.73201 21.3052 6.92645 19.9938 6.87099 18.3213C6.76623 15.4134 6.76623 12.4993 6.87099 9.59143C6.93261 7.91261 8.70736 6.65825 10.2972 7.05736C12.9224 7.70988 15.1532 9.12263 17.1066 11.0422H17.1005Z" fill="#FDB10B"/>
<path d="M17.5934 7.54518C15.8741 6.63925 14.2042 5.58128 12.4048 4.85907C8.22669 3.17391 4.9052 5.16949 4.07328 9.76249H-1.55382e-05C-1.55382e-05 9.04661 -1.55382e-05 8.34341 -1.55382e-05 7.64654C-1.55382e-05 6.04374 -0.0123402 4.43461 -1.55382e-05 2.83181C0.0184714 1.25436 1.1092 0.0506765 2.62514 0.0443413C7.52419 0.0190007 12.4232 0.031671 17.3223 0.031671C17.3962 0.031671 17.4702 0.0633468 17.5934 0.0886875V7.54518Z" fill="#0D504D"/>
<path d="M39.3033 15.3311C39.3033 14.5202 39.2787 13.76 39.3218 13.0061C39.328 12.8477 39.5622 12.6513 39.7347 12.569C39.8888 12.4929 40.0983 12.5499 40.2831 12.5499C51.856 12.5499 63.4227 12.5499 74.9955 12.5499H75.9137V15.3311H39.3033Z" fill="#FDB10B"/>
<path d="M23.0656 52.9683H20.3419V51.9864C20.3419 44.777 20.3542 37.5676 20.3295 30.3581C20.3295 29.4079 20.4281 28.5463 21.0074 27.7671C21.2724 27.406 21.4449 26.9625 21.6976 26.481C22.3569 27.8051 23.1334 28.9074 23.1087 30.5229C23.004 37.6499 23.0656 44.777 23.0656 51.904V52.962V52.9683Z" fill="#FDB10B"/>
<path d="M30.9534 26.5507C30.3186 26.5507 29.5915 26.5444 28.8582 26.5507C27.3484 26.5697 26.7938 27.4756 27.447 28.8567C27.6257 29.2368 27.8044 29.6233 27.9831 30.0034L27.8106 30.1491C27.1759 29.4966 26.4857 28.8947 25.9126 28.1852C24.0023 25.8222 23.0224 23.0917 23.0594 20.0065C23.0594 19.7277 23.2505 19.3096 23.46 19.2082C23.879 19.0055 24.3042 18.6064 24.8588 19.2019C25.4874 19.8861 26.3008 20.3929 27.0218 20.9884C27.2252 21.1531 27.41 21.3495 27.5579 21.5649C28.6856 23.1994 29.7948 24.8465 30.9534 26.5444V26.5507Z" fill="#FDB10B"/>
<path d="M15.4305 30.0097C15.6461 29.5536 15.8803 29.0974 16.0775 28.635C16.5335 27.5516 16.0159 26.633 14.8697 26.5634C14.0378 26.5127 13.1997 26.5507 12.3431 26.5507C13.3045 25.2646 14.3952 24.1433 15.0792 22.8066C15.9666 21.0581 17.6243 20.2599 18.8752 18.9802C19.1772 18.6697 20.3418 19.2272 20.3542 19.6707C20.4589 23.9849 18.7828 27.4313 15.4428 30.0097H15.4305Z" fill="#FDB10B"/>
<path d="M21.6729 16.7565C20.1816 16.7375 18.9491 15.4642 18.9615 13.9437C18.9738 12.3853 20.2494 11.1246 21.7776 11.1626C23.2504 11.1943 24.4829 12.5183 24.4459 14.0197C24.409 15.5528 23.1642 16.7755 21.6667 16.7565H21.6729Z" fill="#FDB10B"/>
<path d="M20.3912 0.0633545H23.0225V8.46378H20.3912V0.0633545Z" fill="#FDB10B"/>
<path d="M0.0739746 12.588H4.061V15.3311H0.0739746V12.588Z" fill="#FDB10B"/>
</g>
<defs>
<clipPath id="clip0_109_138">
<rect width="76" height="53" fill="white"/>
</clipPath>
</defs>
</svg>
