<svg width="45" height="43" viewBox="0 0 45 43" fill="none" xmlns="http://www.w3.org/2000/svg">
<ellipse cx="22.5" cy="21.5" rx="22.5" ry="21.5" fill="#0D504D"/>
<path d="M10.0167 21.4691C10.0167 23.7775 10.0167 26.0859 10.0167 28.3871C10.0167 28.7873 10.044 29.1946 10.1259 29.5877C10.6653 32.2463 12.7068 33.9758 15.3014 33.99C17.459 33.9972 19.6097 34.0115 21.7673 33.9829C22.3135 33.9829 22.8803 33.8971 23.3992 33.7399C25.5363 33.0681 27.0247 30.9313 27.0315 28.6086C27.0315 27.8868 26.6765 27.3222 26.062 27.0721C25.468 26.8291 24.8193 27.0006 24.3824 27.4937C24.0751 27.8439 24.0273 28.2727 23.9795 28.7158C23.843 29.9951 23.01 30.8026 21.7878 30.8169C19.6097 30.8312 17.4317 30.8384 15.2468 30.8169C13.9427 30.8026 13.0482 29.8235 13.0482 28.4514C13.0482 27.3151 13.0482 26.1859 13.0482 25.0496C13.0482 21.5477 13.0482 18.0387 13.0482 14.5369C13.0482 13.2147 13.929 12.2071 15.158 12.1928C17.3975 12.1642 19.6371 12.1785 21.8766 12.1928C22.6276 12.1928 23.208 12.5644 23.6313 13.2076C23.9249 13.6507 23.9659 14.1652 24.0137 14.6798C24.0819 15.4373 24.7647 16.052 25.5021 16.052C26.2327 16.052 26.9086 15.4588 26.9838 14.7155C27.0179 14.3582 27.0179 13.9794 26.9564 13.6221C26.4922 10.8492 24.4165 9.01965 21.7332 9.00536C19.5756 8.99821 17.4248 8.99821 15.2673 9.00536C14.8644 9.00536 14.4479 9.04109 14.0519 9.14115C11.628 9.74147 10.0099 11.8998 10.003 14.5083C9.99621 16.8309 10.003 19.1465 10.003 21.4691H10.0167ZM21.6922 23.1986C21.7127 23.1629 21.74 23.12 21.7605 23.0843C21.8902 23.0843 22.0199 23.0843 22.1497 23.0843C25.5841 23.0843 29.0116 23.0843 32.446 23.0843C33.5043 23.0843 34.2144 22.098 33.9413 21.0546C33.7569 20.3471 33.1561 19.904 32.3845 19.904C28.9638 19.904 25.5431 19.904 22.1224 19.904C21.9995 19.904 21.8766 19.904 21.7468 19.904C22.0268 19.4895 22.3545 19.175 22.6618 18.8391C23.2967 18.1531 23.3036 17.174 22.6822 16.5451C22.0814 15.9305 21.146 15.9448 20.511 16.6022C19.323 17.8386 18.1418 19.075 16.9606 20.3185C16.2914 21.0189 16.2914 21.9694 16.9606 22.6698C18.1349 23.9061 19.3093 25.1353 20.4837 26.3574C21.1323 27.0364 22.0677 27.0649 22.6754 26.4432C23.3036 25.8071 23.2899 24.8209 22.6276 24.1205C22.3272 23.7989 21.9995 23.5059 21.6854 23.1915L21.6922 23.1986Z" fill="#D9D9D9"/>
</svg>
