<svg width="503" height="272" viewBox="0 0 503 272" fill="none" xmlns="http://www.w3.org/2000/svg">
<path d="M496.952 107.273H6.69543V216.7H496.952V107.273Z" stroke="#0D504D" stroke-width="12" stroke-miterlimit="10"/>
<circle cx="422.212" cy="42.0276" r="36.645" fill="#FFAE00" fill-opacity="0.95"/>
<path d="M409.823 93.7C412.069 89.1377 414.3 84.5753 416.546 80.013C422.34 68.2747 428.149 56.5516 433.958 44.8134C434.097 44.5263 434.268 44.2393 434.485 43.8314C434.965 44.3299 435.383 44.7529 435.786 45.191C443.082 53.0467 454.948 53.5906 462.88 46.3392C465.684 43.771 468.952 42.5473 472.717 42.3056C473.708 42.2451 474.699 42.1394 475.675 41.9883C476.326 41.8826 476.651 42.0639 476.961 42.6681C483.591 56.1286 490.268 69.574 496.929 83.0344C498.68 86.5846 500.415 90.1348 502.165 93.6849H409.823V93.7Z" fill="#0D504D"/>
<path d="M473.212 36.7008C471.431 36.9274 469.773 37.0785 468.131 37.3655C464.506 37.9849 461.362 39.5711 458.728 42.0487C455.8 44.8133 452.361 46.2032 448.256 45.9464C444.833 45.7349 441.967 44.3903 439.597 42.0185C438.636 41.0667 437.784 40.0093 436.808 39.0877C436.297 38.6043 436.452 38.2417 436.7 37.7583C442.416 26.2315 448.132 14.6897 453.848 3.14785C454.282 2.28674 454.701 1.42563 455.227 0.368134C461.269 12.5747 467.233 24.6151 473.228 36.7159L473.212 36.7008Z" fill="#0D504D"/>
<path d="M375.898 93.7303C377.369 90.7995 378.856 87.8536 380.328 84.9228C384.154 77.3693 387.981 69.8157 391.823 62.2773C391.915 62.0809 392.024 61.8996 392.163 61.6428C392.473 61.96 392.752 62.2319 393.031 62.519C397.849 67.5799 405.671 67.9273 410.907 63.2592C412.751 61.6125 414.904 60.8119 417.398 60.6608C418.049 60.6155 418.715 60.555 419.35 60.4493C419.784 60.3889 420.001 60.4946 420.187 60.8874C424.571 69.5589 428.97 78.2153 433.354 86.8717C434.516 89.1528 435.662 91.4491 436.808 93.7303H375.898Z" fill="#0D504D"/>
<path d="M417.723 57.0502C416.546 57.2013 415.462 57.2919 414.377 57.4732C411.992 57.8811 409.916 58.8933 408.165 60.4946C406.229 62.2773 403.967 63.1686 401.256 63.0024C399.01 62.8664 397.105 62.0053 395.54 60.4795C394.905 59.8601 394.347 59.1954 393.697 58.5911C393.356 58.2739 393.465 58.0473 393.619 57.73C397.399 50.3124 401.164 42.8797 404.928 35.4621C405.207 34.9031 405.486 34.3593 405.842 33.6643C409.823 41.52 413.758 49.27 417.708 57.0502H417.723Z" fill="#0D504D"/>
<path d="M29.4648 186.315V185.055C30.793 184.781 31.8281 184.479 32.5703 184.147C33.332 183.815 33.7129 183.522 33.7129 183.268V152.477C33.7129 152.242 33.3516 151.949 32.6289 151.598C31.9258 151.246 30.8711 150.934 29.4648 150.66V149.401H64.0352V150.66C62.707 150.934 61.6621 151.236 60.9004 151.569C60.1582 151.901 59.7871 152.203 59.7871 152.477V183.268C59.7871 183.502 60.1387 183.795 60.8418 184.147C61.5449 184.479 62.6094 184.781 64.0352 185.055V186.315H50.8516V185.055C52.1797 184.781 53.2148 184.479 53.957 184.147C54.7188 183.815 55.0996 183.522 55.0996 183.268V152.037H38.4004V183.268C38.4004 183.502 38.752 183.795 39.4551 184.147C40.1582 184.479 41.2227 184.781 42.6484 185.055V186.315H29.4648ZM86.9453 187.194C86.2617 187.194 85.7051 186.686 85.2754 185.67C84.8457 184.635 84.6309 183.248 84.6309 181.51V165.748C84.6309 164.42 84.1426 163.307 83.166 162.408C82.1895 161.49 80.7441 161.061 78.8301 161.119C77.5801 161.139 76.6328 161.422 75.9883 161.969C75.3633 162.496 75.1094 163.346 75.2266 164.518C75.2656 164.752 74.9336 165.016 74.2305 165.309C73.5273 165.602 72.7656 165.846 71.9453 166.041C71.1445 166.217 70.5781 166.266 70.2461 166.188L69.8359 165.045C70.3438 163.736 71.1934 162.574 72.3848 161.559C73.5957 160.524 74.9922 159.703 76.5742 159.098C78.1758 158.492 79.7969 158.19 81.4375 158.19C83.5859 158.19 85.3828 158.756 86.8281 159.889C88.293 161.002 89.0254 162.565 89.0254 164.576V181.1C89.0254 182.623 89.416 183.385 90.1973 183.385C90.4707 183.385 90.8223 183.336 91.252 183.238C91.6816 183.121 92.2871 182.906 93.0684 182.594L93.5078 183.912C91.8477 185.045 90.4707 185.875 89.377 186.402C88.3027 186.93 87.4922 187.194 86.9453 187.194ZM74.9629 187.194C74.0254 187.194 73.0781 186.979 72.1211 186.549C71.1641 186.139 70.3535 185.465 69.6895 184.527C69.0449 183.59 68.7227 182.369 68.7227 180.865C68.7227 179.322 69.0352 177.858 69.6602 176.471C70.3047 175.084 71.3496 173.922 72.7949 172.985C74.2402 172.047 76.1836 171.49 78.625 171.315L87.8535 170.611L88.1465 172.721L80.8516 173.219C78.8594 173.356 77.3359 173.727 76.2812 174.332C75.2266 174.938 74.5039 175.699 74.1133 176.617C73.7227 177.535 73.5273 178.531 73.5273 179.606C73.5273 180.641 73.7129 181.432 74.084 181.979C74.4746 182.526 74.9238 182.897 75.4316 183.092C75.9395 183.287 76.3594 183.385 76.6914 183.385C77.9023 183.385 79.1914 183.063 80.5586 182.418C81.9258 181.774 83.3809 180.768 84.9238 179.401L85.1582 181.569C83.3223 183.541 81.4961 184.977 79.6797 185.875C77.8633 186.754 76.291 187.194 74.9629 187.194ZM95.5293 186.315V185.055C98.2637 184.508 99.6309 183.912 99.6309 183.268V159.479H104.025V183.151C104.025 183.385 104.348 183.697 104.992 184.088C105.656 184.459 106.701 184.781 108.127 185.055V186.315H95.5293ZM119.992 178.258C119.992 180.738 118.957 182.75 116.887 184.293C114.836 185.836 112.023 186.608 108.449 186.608C107.59 186.608 106.535 186.588 105.285 186.549C104.035 186.529 102.756 186.49 101.447 186.432C100.139 186.393 98.957 186.354 97.9023 186.315L103.938 183.268C104.406 183.561 105.002 183.785 105.725 183.942C106.467 184.078 107.199 184.147 107.922 184.147C109.953 184.147 111.672 183.697 113.078 182.799C114.484 181.901 115.188 180.631 115.188 178.99C115.188 177.389 114.631 176.031 113.518 174.918C112.404 173.805 110.598 173.248 108.098 173.248H102.209L101.975 170.787H106.369C108.518 170.787 110.178 170.543 111.35 170.055C112.521 169.547 113.332 168.912 113.781 168.151C114.25 167.369 114.484 166.569 114.484 165.748C114.484 164.127 113.752 162.858 112.287 161.94C110.842 161.002 108.488 160.533 105.227 160.533C104.387 160.533 103.381 160.582 102.209 160.68C101.057 160.758 99.8848 160.875 98.6934 161.031C97.5215 161.168 96.4766 161.324 95.5586 161.5L95.3242 159.508C96.1836 159.293 97.2676 159.088 98.5762 158.893C99.9043 158.678 101.271 158.512 102.678 158.395C104.104 158.258 105.393 158.19 106.545 158.19C110.393 158.19 113.43 158.776 115.656 159.947C117.902 161.119 119.025 162.692 119.025 164.664C119.025 166.227 118.527 167.613 117.531 168.824C116.555 170.016 115.168 170.895 113.371 171.461C115.48 171.988 117.111 172.75 118.264 173.746C119.416 174.723 119.992 176.227 119.992 178.258ZM140.559 186.315V185.055C141.828 184.801 142.824 184.518 143.547 184.205C144.289 183.873 144.66 183.58 144.66 183.326V161.705H136.311V162.408L134.201 162.115C134.182 161.881 133.674 161.588 132.678 161.236C131.701 160.885 130.52 160.582 129.133 160.328V159.069H153.156V160.328C150.422 160.875 149.055 161.471 149.055 162.115V183.268C149.055 183.502 149.377 183.795 150.021 184.147C150.686 184.479 151.73 184.781 153.156 185.055V186.315H140.559ZM137.307 160.856C136.76 166.031 136.154 170.309 135.49 173.688C134.826 177.067 134.074 179.723 133.234 181.656C132.414 183.59 131.477 184.947 130.422 185.729C129.367 186.51 128.176 186.901 126.848 186.901C125.852 186.901 124.934 186.608 124.094 186.022C123.977 185.924 123.889 185.572 123.83 184.967C123.791 184.361 123.781 183.639 123.801 182.799C123.82 181.94 123.869 181.09 123.947 180.25C124.045 179.391 124.162 178.678 124.299 178.111L125.559 178.434C125.754 179.82 126.057 180.738 126.467 181.188C126.896 181.637 127.258 181.861 127.551 181.861C128.43 181.861 129.289 181.236 130.129 179.986C130.969 178.736 131.75 176.569 132.473 173.483C133.195 170.377 133.82 166.07 134.348 160.563L137.307 160.856ZM182.629 172.106C182.629 174.059 182.268 175.934 181.545 177.731C180.842 179.527 179.875 181.139 178.645 182.565C177.414 183.99 175.998 185.123 174.396 185.963C172.795 186.783 171.105 187.194 169.328 187.194C166.867 187.194 164.719 186.588 162.883 185.377C161.066 184.166 159.65 182.516 158.635 180.426C157.639 178.336 157.141 175.963 157.141 173.307C157.141 171.373 157.482 169.508 158.166 167.711C158.869 165.895 159.826 164.274 161.037 162.848C162.268 161.402 163.684 160.27 165.285 159.449C166.906 158.61 168.635 158.19 170.471 158.19C172.932 158.19 175.07 158.795 176.887 160.006C178.703 161.217 180.109 162.867 181.105 164.957C182.121 167.047 182.629 169.43 182.629 172.106ZM178.088 172.985C178.088 170.914 177.658 169.01 176.799 167.272C175.959 165.514 174.885 164.098 173.576 163.024C172.287 161.949 170.969 161.412 169.621 161.412C167.648 161.412 166.076 161.901 164.904 162.877C163.752 163.854 162.922 165.172 162.414 166.832C161.926 168.492 161.682 170.367 161.682 172.457C161.682 174.508 162.131 176.412 163.029 178.17C163.947 179.908 165.061 181.315 166.369 182.389C167.697 183.444 168.957 183.971 170.148 183.971C172.922 183.971 174.934 182.975 176.184 180.983C177.453 178.99 178.088 176.324 178.088 172.985ZM186.584 186.315V185.055C189.318 184.508 190.686 183.912 190.686 183.268V159.479H195.08V183.151C195.08 183.385 195.402 183.697 196.047 184.088C196.711 184.459 197.756 184.781 199.182 185.055V186.315H186.584ZM211.047 178.258C211.047 180.738 210.012 182.75 207.941 184.293C205.891 185.836 203.078 186.608 199.504 186.608C198.645 186.608 197.59 186.588 196.34 186.549C195.09 186.529 193.811 186.49 192.502 186.432C191.193 186.393 190.012 186.354 188.957 186.315L194.992 183.268C195.461 183.561 196.057 183.785 196.779 183.942C197.521 184.078 198.254 184.147 198.977 184.147C201.008 184.147 202.727 183.697 204.133 182.799C205.539 181.901 206.242 180.631 206.242 178.99C206.242 177.389 205.686 176.031 204.572 174.918C203.459 173.805 201.652 173.248 199.152 173.248H193.264L193.029 170.787H197.424C199.572 170.787 201.232 170.543 202.404 170.055C203.576 169.547 204.387 168.912 204.836 168.151C205.305 167.369 205.539 166.569 205.539 165.748C205.539 164.127 204.807 162.858 203.342 161.94C201.896 161.002 199.543 160.533 196.281 160.533C195.441 160.533 194.436 160.582 193.264 160.68C192.111 160.758 190.939 160.875 189.748 161.031C188.576 161.168 187.531 161.324 186.613 161.5L186.379 159.508C187.238 159.293 188.322 159.088 189.631 158.893C190.959 158.678 192.326 158.512 193.732 158.395C195.158 158.258 196.447 158.19 197.6 158.19C201.447 158.19 204.484 158.776 206.711 159.947C208.957 161.119 210.08 162.692 210.08 164.664C210.08 166.227 209.582 167.613 208.586 168.824C207.609 170.016 206.223 170.895 204.426 171.461C206.535 171.988 208.166 172.75 209.318 173.746C210.471 174.723 211.047 176.227 211.047 178.258ZM238.117 180.748C236.418 182.74 234.973 184.195 233.781 185.113C232.609 186.012 231.516 186.578 230.5 186.813C229.484 187.067 228.361 187.194 227.131 187.194C225.236 187.194 223.42 186.647 221.682 185.553C219.963 184.44 218.557 182.848 217.463 180.777C216.389 178.688 215.852 176.197 215.852 173.307C215.852 170.494 216.506 167.945 217.814 165.66C219.143 163.375 220.939 161.559 223.205 160.211C225.471 158.863 228 158.19 230.793 158.19C232.082 158.19 233.381 158.404 234.689 158.834C236.018 159.264 237.014 159.82 237.678 160.504C237.736 160.817 237.668 161.285 237.473 161.91C237.297 162.535 237.072 163.17 236.799 163.815C236.525 164.44 236.262 164.938 236.008 165.309L234.924 165.016C234.611 164.332 233.908 163.561 232.814 162.701C231.721 161.842 230.168 161.412 228.156 161.412C226.789 161.412 225.5 161.822 224.289 162.643C223.098 163.444 222.121 164.664 221.359 166.305C220.617 167.926 220.246 169.957 220.246 172.399C220.246 174.606 220.666 176.539 221.506 178.199C222.365 179.84 223.479 181.119 224.846 182.037C226.213 182.936 227.678 183.385 229.24 183.385C229.982 183.385 230.666 183.326 231.291 183.209C231.916 183.072 232.658 182.74 233.518 182.213C234.377 181.666 235.529 180.777 236.975 179.547L238.117 180.748ZM265.773 166.92C265.402 165.319 265.002 164.195 264.572 163.551C264.143 162.906 263.645 162.584 263.078 162.584C262.414 162.584 261.887 162.965 261.496 163.727C261.125 164.469 260.773 165.397 260.441 166.51C260.129 167.604 259.738 168.707 259.27 169.82C258.801 170.914 258.146 171.842 257.307 172.604C256.467 173.346 255.334 173.717 253.908 173.717H249.719L249.807 171.08H253.527C254.465 171.08 255.207 170.777 255.754 170.172C256.32 169.567 256.779 168.785 257.131 167.828C257.502 166.871 257.854 165.856 258.186 164.781C258.518 163.707 258.918 162.692 259.387 161.735C259.855 160.777 260.471 159.996 261.232 159.391C262.014 158.785 263.029 158.483 264.279 158.483C264.924 158.483 265.588 158.59 266.271 158.805C266.955 159.02 267.609 159.254 268.234 159.508C268.371 159.547 268.41 159.957 268.352 160.738C268.293 161.52 268.146 162.477 267.912 163.61C267.697 164.723 267.375 165.826 266.945 166.92H265.773ZM241.369 186.315V185.055C242.658 184.762 243.664 184.479 244.387 184.205C245.109 183.932 245.471 183.619 245.471 183.268V173.541C245.471 171.744 245.783 170.358 246.408 169.381C247.033 168.404 247.824 167.408 248.781 166.393L249.865 167.389V183.268C249.865 183.561 250.041 183.834 250.393 184.088C250.744 184.342 251.643 184.664 253.088 185.055V186.315H241.369ZM253.088 159.069V160.328C251.799 160.582 250.939 160.856 250.51 161.149C250.08 161.442 249.865 161.764 249.865 162.115V172.809C249.865 174.606 249.553 175.875 248.928 176.617C248.322 177.36 247.531 178.053 246.555 178.697L245.471 177.701V162.115C245.471 161.822 245.148 161.539 244.504 161.266C243.859 160.992 242.814 160.68 241.369 160.328V159.069H253.088ZM263.693 186.901C263.107 186.901 262.57 186.793 262.082 186.578C261.594 186.383 261.242 186.09 261.027 185.699L254.436 172.838L257.6 171.402L265.188 183.297C265.578 183.883 266.096 184.264 266.74 184.44C267.385 184.596 268.322 184.635 269.553 184.557L269.846 185.787C268.654 186.1 267.512 186.363 266.418 186.578C265.324 186.793 264.416 186.901 263.693 186.901ZM278.723 184.469V180.865L296.125 161.383V165.016L278.723 184.469ZM271.779 186.315V185.055C274.514 184.508 275.881 183.912 275.881 183.268V162.115C275.881 161.881 275.549 161.588 274.885 161.236C274.24 160.885 273.205 160.582 271.779 160.328V159.069H284.377V160.328C281.643 160.875 280.275 161.471 280.275 162.115V183.268C280.275 183.502 280.598 183.795 281.242 184.147C281.906 184.479 282.951 184.781 284.377 185.055V186.315H271.779ZM290.969 186.315V185.055C293.703 184.508 295.07 183.912 295.07 183.268V162.115C295.07 161.881 294.738 161.588 294.074 161.236C293.43 160.885 292.395 160.582 290.969 160.328V159.069H303.566V160.328C300.832 160.875 299.465 161.471 299.465 162.115V183.268C299.465 183.502 299.787 183.795 300.432 184.147C301.096 184.479 302.141 184.781 303.566 185.055V186.315H290.969ZM313.762 184.469V180.865L331.164 161.383V165.016L313.762 184.469ZM306.818 186.315V185.055C309.553 184.508 310.92 183.912 310.92 183.268V162.115C310.92 161.881 310.588 161.588 309.924 161.236C309.279 160.885 308.244 160.582 306.818 160.328V159.069H319.416V160.328C316.682 160.875 315.314 161.471 315.314 162.115V183.268C315.314 183.502 315.637 183.795 316.281 184.147C316.945 184.479 317.99 184.781 319.416 185.055V186.315H306.818ZM326.008 186.315V185.055C328.742 184.508 330.109 183.912 330.109 183.268V162.115C330.109 161.881 329.777 161.588 329.113 161.236C328.469 160.885 327.434 160.582 326.008 160.328V159.069H338.605V160.328C335.871 160.875 334.504 161.471 334.504 162.115V183.268C334.504 183.502 334.826 183.795 335.471 184.147C336.135 184.479 337.18 184.781 338.605 185.055V186.315H326.008ZM322.697 154.733C320.646 154.733 318.889 154.488 317.424 154C315.979 153.492 314.758 152.906 313.762 152.242C313.723 151.91 313.781 151.315 313.938 150.455C314.094 149.596 314.299 148.736 314.553 147.877C314.807 146.998 315.061 146.393 315.314 146.061L316.691 146.383C316.848 147.906 317.424 149.293 318.42 150.543C319.436 151.774 320.861 152.389 322.697 152.389C324.553 152.389 325.979 151.774 326.975 150.543C327.971 149.293 328.547 147.906 328.703 146.383L330.08 146.061C330.334 146.393 330.588 146.998 330.842 147.877C331.096 148.736 331.301 149.596 331.457 150.455C331.633 151.315 331.691 151.91 331.633 152.242C330.656 152.906 329.436 153.492 327.971 154C326.506 154.488 324.748 154.733 322.697 154.733ZM372.531 186.315V185.055C373.801 184.801 374.797 184.518 375.52 184.205C376.262 183.873 376.633 183.58 376.633 183.326V161.705H363.596V183.268C363.596 183.502 363.918 183.795 364.562 184.147C365.227 184.479 366.271 184.781 367.697 185.055V186.315H355.1V185.055C357.834 184.508 359.201 183.912 359.201 183.268V162.086C359.201 161.852 358.859 161.569 358.176 161.236C357.512 160.885 356.486 160.582 355.1 160.328V159.069H385.129V160.328C382.395 160.875 381.027 161.471 381.027 162.115V183.268C381.027 183.502 381.35 183.795 381.994 184.147C382.658 184.479 383.703 184.781 385.129 185.055V186.315H372.531ZM407.629 187.194C406.945 187.194 406.389 186.686 405.959 185.67C405.529 184.635 405.314 183.248 405.314 181.51V165.748C405.314 164.42 404.826 163.307 403.85 162.408C402.873 161.49 401.428 161.061 399.514 161.119C398.264 161.139 397.316 161.422 396.672 161.969C396.047 162.496 395.793 163.346 395.91 164.518C395.949 164.752 395.617 165.016 394.914 165.309C394.211 165.602 393.449 165.846 392.629 166.041C391.828 166.217 391.262 166.266 390.93 166.188L390.52 165.045C391.027 163.736 391.877 162.574 393.068 161.559C394.279 160.524 395.676 159.703 397.258 159.098C398.859 158.492 400.48 158.19 402.121 158.19C404.27 158.19 406.066 158.756 407.512 159.889C408.977 161.002 409.709 162.565 409.709 164.576V181.1C409.709 182.623 410.1 183.385 410.881 183.385C411.154 183.385 411.506 183.336 411.936 183.238C412.365 183.121 412.971 182.906 413.752 182.594L414.191 183.912C412.531 185.045 411.154 185.875 410.061 186.402C408.986 186.93 408.176 187.194 407.629 187.194ZM395.646 187.194C394.709 187.194 393.762 186.979 392.805 186.549C391.848 186.139 391.037 185.465 390.373 184.527C389.729 183.59 389.406 182.369 389.406 180.865C389.406 179.322 389.719 177.858 390.344 176.471C390.988 175.084 392.033 173.922 393.479 172.985C394.924 172.047 396.867 171.49 399.309 171.315L408.537 170.611L408.83 172.721L401.535 173.219C399.543 173.356 398.02 173.727 396.965 174.332C395.91 174.938 395.188 175.699 394.797 176.617C394.406 177.535 394.211 178.531 394.211 179.606C394.211 180.641 394.396 181.432 394.768 181.979C395.158 182.526 395.607 182.897 396.115 183.092C396.623 183.287 397.043 183.385 397.375 183.385C398.586 183.385 399.875 183.063 401.242 182.418C402.609 181.774 404.064 180.768 405.607 179.401L405.842 181.569C404.006 183.541 402.18 184.977 400.363 185.875C398.547 186.754 396.975 187.194 395.646 187.194ZM432.854 187.194C431.721 187.194 430.422 186.871 428.957 186.227C427.512 185.563 426.096 184.635 424.709 183.444V197.301C424.709 197.613 425.07 197.926 425.793 198.238C426.535 198.551 427.824 198.844 429.66 199.117V200.377H416.213V199.117C417.502 198.805 418.508 198.502 419.23 198.209C419.953 197.936 420.314 197.633 420.314 197.301V165.485C420.314 164.508 420.227 163.756 420.051 163.229C419.895 162.701 419.523 162.33 418.938 162.115C418.371 161.901 417.463 161.764 416.213 161.705V160.533C417.561 160.24 418.781 159.918 419.875 159.567C420.988 159.195 422.111 158.736 423.244 158.19L424.27 159.215L424.533 165.016C426.486 162.672 428.41 160.953 430.305 159.86C432.199 158.746 433.703 158.19 434.816 158.19C437.492 158.19 439.699 159.41 441.438 161.852C443.176 164.274 444.045 167.623 444.045 171.901C444.045 173.6 443.732 175.348 443.107 177.145C442.482 178.922 441.643 180.572 440.588 182.096C439.533 183.619 438.332 184.85 436.984 185.787C435.656 186.725 434.279 187.194 432.854 187.194ZM432.854 161.852C432.15 161.852 431.047 162.32 429.543 163.258C428.039 164.195 426.428 165.924 424.709 168.444V180.074C426.447 181.383 427.961 182.262 429.25 182.711C430.559 183.16 431.74 183.385 432.795 183.385C434.885 183.385 436.623 182.574 438.01 180.953C439.396 179.332 440.09 176.959 440.09 173.834C440.09 171.549 439.748 169.508 439.064 167.711C438.381 165.895 437.492 164.469 436.398 163.434C435.305 162.379 434.123 161.852 432.854 161.852ZM472.434 166.92C472.062 165.319 471.662 164.195 471.232 163.551C470.803 162.906 470.305 162.584 469.738 162.584C469.074 162.584 468.547 162.965 468.156 163.727C467.785 164.469 467.434 165.397 467.102 166.51C466.789 167.604 466.398 168.707 465.93 169.82C465.461 170.914 464.807 171.842 463.967 172.604C463.127 173.346 461.994 173.717 460.568 173.717H456.379L456.467 171.08H460.188C461.125 171.08 461.867 170.777 462.414 170.172C462.98 169.567 463.439 168.785 463.791 167.828C464.162 166.871 464.514 165.856 464.846 164.781C465.178 163.707 465.578 162.692 466.047 161.735C466.516 160.777 467.131 159.996 467.893 159.391C468.674 158.785 469.689 158.483 470.939 158.483C471.584 158.483 472.248 158.59 472.932 158.805C473.615 159.02 474.27 159.254 474.895 159.508C475.031 159.547 475.07 159.957 475.012 160.738C474.953 161.52 474.807 162.477 474.572 163.61C474.357 164.723 474.035 165.826 473.605 166.92H472.434ZM448.029 186.315V185.055C449.318 184.762 450.324 184.479 451.047 184.205C451.77 183.932 452.131 183.619 452.131 183.268V173.541C452.131 171.744 452.443 170.358 453.068 169.381C453.693 168.404 454.484 167.408 455.441 166.393L456.525 167.389V183.268C456.525 183.561 456.701 183.834 457.053 184.088C457.404 184.342 458.303 184.664 459.748 185.055V186.315H448.029ZM459.748 159.069V160.328C458.459 160.582 457.6 160.856 457.17 161.149C456.74 161.442 456.525 161.764 456.525 162.115V172.809C456.525 174.606 456.213 175.875 455.588 176.617C454.982 177.36 454.191 178.053 453.215 178.697L452.131 177.701V162.115C452.131 161.822 451.809 161.539 451.164 161.266C450.52 160.992 449.475 160.68 448.029 160.328V159.069H459.748ZM470.354 186.901C469.768 186.901 469.23 186.793 468.742 186.578C468.254 186.383 467.902 186.09 467.688 185.699L461.096 172.838L464.26 171.402L471.848 183.297C472.238 183.883 472.756 184.264 473.4 184.44C474.045 184.596 474.982 184.635 476.213 184.557L476.506 185.787C475.314 186.1 474.172 186.363 473.078 186.578C471.984 186.793 471.076 186.901 470.354 186.901Z" fill="#00847E"/>
<path d="M13.296 265.501C12.544 265.501 11.912 265.301 11.4 264.901C10.904 264.485 10.472 263.901 10.104 263.149L7.92 258.781C7.664 258.253 7.336 257.845 6.936 257.557C6.536 257.269 6.064 257.037 5.52 256.861C5.44 256.829 5.4 256.741 5.4 256.597C5.4 256.469 5.432 256.341 5.496 256.213C5.56 256.085 5.696 256.021 5.904 256.021H6.456L10.368 251.029C10.64 250.693 10.784 250.301 10.8 249.853C10.832 249.405 10.728 249.021 10.488 248.701L10.224 248.317L10.656 247.933H14.784L15.072 248.749L14.496 248.893C14.144 248.957 13.824 249.093 13.536 249.301C13.248 249.493 12.944 249.789 12.624 250.189L7.776 256.381C8.56 256.525 9.208 256.805 9.72 257.221C10.232 257.637 10.688 258.229 11.088 258.997L13.344 263.461C13.472 263.685 13.608 263.861 13.752 263.989C13.896 264.117 14.072 264.181 14.28 264.181C14.44 264.181 14.592 264.157 14.736 264.109C14.896 264.061 15.056 263.973 15.216 263.845L15.6 264.541C15.264 264.893 14.904 265.141 14.52 265.285C14.136 265.429 13.728 265.501 13.296 265.501ZM0.648 265.165L0.36 264.349L0.936 264.205C1.336 264.077 1.648 263.941 1.872 263.797C2.096 263.653 2.248 263.445 2.328 263.173C2.424 262.885 2.472 262.485 2.472 261.973V251.125C2.472 250.373 2.368 249.853 2.16 249.565C1.952 249.277 1.544 249.053 0.936 248.893L0.36 248.749L0.648 247.933H5.928L6.24 248.317L5.928 248.749C5.528 249.277 5.248 249.837 5.088 250.429C4.928 251.021 4.848 251.797 4.848 252.757V262.141C4.848 262.845 4.944 263.333 5.136 263.605C5.344 263.861 5.728 264.077 6.288 264.253L6.792 264.397L6.552 265.165H0.648ZM17.5478 271.549L17.2598 271.189L17.5478 270.805C17.8358 270.389 18.0358 269.957 18.1478 269.509C18.2598 269.061 18.3158 268.461 18.3158 267.709V256.021C18.3158 255.781 18.2838 255.605 18.2198 255.493C18.1558 255.365 18.0198 255.277 17.8118 255.229L16.5638 254.965V254.173C16.7398 254.013 17.0198 253.861 17.4038 253.717C17.8038 253.573 18.2278 253.453 18.6758 253.357C19.1398 253.261 19.5478 253.213 19.8998 253.213C20.2838 253.213 20.4758 253.581 20.4758 254.317V254.437C21.5158 253.429 22.6678 252.925 23.9318 252.925C24.9398 252.925 25.8278 253.173 26.5958 253.669C27.3638 254.165 27.9638 254.853 28.3958 255.733C28.8278 256.597 29.0438 257.597 29.0438 258.733C29.0438 260.029 28.8118 261.189 28.3478 262.213C27.8998 263.221 27.2758 264.021 26.4758 264.613C25.6918 265.205 24.7878 265.501 23.7638 265.501C22.8198 265.501 22.0198 265.285 21.3638 264.853C21.2198 264.757 21.1478 264.613 21.1478 264.421C21.1478 264.277 21.1718 264.141 21.2198 264.013C21.2838 263.885 21.3798 263.821 21.5078 263.821C21.6358 263.821 21.8118 263.885 22.0358 264.013C22.2758 264.141 22.6678 264.205 23.2118 264.205C23.8518 264.205 24.4198 263.989 24.9158 263.557C25.4118 263.125 25.7958 262.533 26.0678 261.781C26.3558 261.029 26.4998 260.173 26.4998 259.213C26.4998 258.285 26.3558 257.469 26.0678 256.765C25.7958 256.061 25.4038 255.509 24.8918 255.109C24.3958 254.709 23.8198 254.509 23.1638 254.509C22.1878 254.509 21.2918 254.821 20.4758 255.445V268.885C20.4758 269.477 20.5398 269.901 20.6678 270.157C20.8118 270.413 21.0838 270.589 21.4838 270.685L21.9878 270.805L21.7238 271.549H17.5478ZM37.1012 271.837C36.1732 271.837 35.4052 271.669 34.7972 271.333C34.1892 270.997 33.7332 270.565 33.4292 270.037C33.1412 269.509 32.9972 268.965 32.9972 268.405C32.9972 267.909 33.1092 267.437 33.3332 266.989C33.5732 266.557 33.9172 266.197 34.3652 265.909C34.8292 265.637 35.3892 265.501 36.0452 265.501C36.2212 265.501 36.3412 265.525 36.4052 265.573C36.4692 265.637 36.5012 265.701 36.5012 265.765C36.5012 265.861 36.4052 265.997 36.2132 266.173C36.0212 266.365 35.8212 266.629 35.6132 266.965C35.4212 267.301 35.3252 267.765 35.3252 268.357C35.3252 268.965 35.5092 269.485 35.8772 269.917C36.2452 270.365 36.7572 270.589 37.4132 270.589C38.1012 270.589 38.6532 270.389 39.0692 269.989C39.5012 269.605 39.8132 269.069 40.0052 268.381C40.1972 267.709 40.2932 266.941 40.2932 266.077V262.525C39.9252 263.213 39.3732 263.765 38.6372 264.181C37.9172 264.597 37.1092 264.805 36.2132 264.805C35.0772 264.805 34.1892 264.461 33.5492 263.773C32.9092 263.069 32.5892 262.085 32.5892 260.821V255.493C32.5892 255.141 32.4292 254.965 32.1092 254.965H31.0532L30.8372 254.341C31.2532 253.925 31.7572 253.581 32.3492 253.309C32.9572 253.037 33.5092 252.901 34.0052 252.901C34.2292 252.901 34.4132 252.973 34.5572 253.117C34.7012 253.261 34.7732 253.445 34.7732 253.669V260.269C34.7732 262.221 35.5252 263.197 37.0292 263.197C38.1012 263.197 38.9332 262.797 39.5252 261.997C40.1332 261.181 40.4372 260.061 40.4372 258.637C40.4372 257.853 40.4132 257.181 40.3652 256.621C40.3332 256.061 40.2532 255.573 40.1252 255.157C39.9972 254.725 39.7892 254.325 39.5012 253.957L39.2132 253.573L39.5012 253.213L42.4292 252.901V265.693C42.4292 267.677 41.9412 269.197 40.9652 270.253C40.0052 271.309 38.7172 271.837 37.1012 271.837ZM46.1096 265.165L45.8456 264.805L46.1096 264.421C46.3496 264.101 46.5416 263.789 46.6856 263.485C46.8456 263.181 46.9576 262.837 47.0216 262.453C47.0856 262.053 47.1176 261.549 47.1176 260.941V257.821C47.1176 256.925 47.0376 256.197 46.8776 255.637C46.7336 255.077 46.4776 254.573 46.1096 254.125L45.8456 253.693L46.1096 253.357H51.9896C52.6296 253.357 53.1576 253.325 53.5736 253.261C53.9896 253.197 54.3096 253.085 54.5336 252.925L54.8936 252.613L55.2536 252.925V256.861L54.5336 257.101L54.3656 256.597C54.2376 256.053 54.0856 255.645 53.9096 255.373C53.7336 255.085 53.4936 254.893 53.1896 254.797C52.9016 254.685 52.4936 254.629 51.9656 254.629H50.6696C50.0936 254.629 49.7096 254.733 49.5176 254.941C49.3416 255.149 49.2536 255.597 49.2536 256.285V262.237C49.2536 262.925 49.3496 263.397 49.5416 263.653C49.7336 263.893 50.1096 264.093 50.6696 264.253L51.1736 264.421L50.9096 265.165H46.1096ZM58.3476 265.501C57.7076 265.501 57.1876 265.301 56.7876 264.901C56.4036 264.501 56.2116 263.973 56.2116 263.317C56.2116 262.853 56.3156 262.493 56.5236 262.237C56.7476 261.981 57.0356 261.853 57.3876 261.853C57.5636 261.853 57.6916 261.925 57.7716 262.069C57.8516 262.197 57.8996 262.373 57.9156 262.597C57.9476 262.805 58.0276 263.013 58.1556 263.221C58.2836 263.429 58.4916 263.533 58.7796 263.533C59.2916 263.533 59.7156 263.189 60.0516 262.501C60.4036 261.797 60.6836 260.869 60.8916 259.717C61.0996 258.565 61.2516 257.309 61.3476 255.949C61.3796 255.485 61.3556 255.133 61.2756 254.893C61.2116 254.653 61.0596 254.485 60.8196 254.389C60.5956 254.277 60.2516 254.189 59.7876 254.125L59.3076 253.957L59.5476 253.237H69.0996L69.4356 253.597L69.0996 253.981C68.7476 254.461 68.4916 254.973 68.3316 255.517C68.1876 256.061 68.1156 256.781 68.1156 257.677V262.405C68.1156 263.045 68.2116 263.485 68.4036 263.725C68.6116 263.949 68.9716 264.141 69.4836 264.301L69.9396 264.421L69.6996 265.165H64.2996L64.0356 264.421L64.5156 264.253C65.0756 264.093 65.4596 263.885 65.6676 263.629C65.8756 263.373 65.9796 262.893 65.9796 262.189V256.189C65.9796 255.501 65.8836 255.053 65.6916 254.845C65.4996 254.621 65.1076 254.509 64.5156 254.509H64.1076C63.7076 254.509 63.3876 254.557 63.1476 254.653C62.9076 254.749 62.7716 254.989 62.7396 255.373C62.5636 257.581 62.3156 259.357 61.9956 260.701C61.6756 262.029 61.3156 263.045 60.9156 263.749C60.5156 264.437 60.0916 264.901 59.6436 265.141C59.2116 265.381 58.7796 265.501 58.3476 265.501ZM77.4126 265.501C76.2126 265.501 75.1726 265.245 74.2926 264.733C73.4286 264.221 72.7566 263.493 72.2766 262.549C71.7966 261.605 71.5566 260.493 71.5566 259.213C71.5566 257.917 71.7966 256.805 72.2766 255.877C72.7566 254.933 73.4286 254.205 74.2926 253.693C75.1726 253.181 76.2126 252.925 77.4126 252.925C78.6126 252.925 79.6446 253.181 80.5086 253.693C81.3886 254.205 82.0686 254.933 82.5486 255.877C83.0286 256.805 83.2686 257.917 83.2686 259.213C83.2686 260.493 83.0286 261.605 82.5486 262.549C82.0686 263.493 81.3886 264.221 80.5086 264.733C79.6446 265.245 78.6126 265.501 77.4126 265.501ZM77.3406 264.205C78.3326 264.205 79.1486 263.757 79.7886 262.861C80.4286 261.949 80.7486 260.757 80.7486 259.285C80.7486 258.805 80.6926 258.269 80.5806 257.677C80.4846 257.085 80.3086 256.525 80.0526 255.997C79.8126 255.469 79.4846 255.037 79.0686 254.701C78.6526 254.349 78.1246 254.173 77.4846 254.173C76.8126 254.173 76.2126 254.389 75.6846 254.821C75.1726 255.237 74.7726 255.829 74.4846 256.597C74.1966 257.349 74.0526 258.229 74.0526 259.237C74.0526 260.741 74.3486 261.949 74.9406 262.861C75.5326 263.757 76.3326 264.205 77.3406 264.205ZM85.6956 265.165L85.4316 264.805L85.6956 264.421C85.9356 264.101 86.1276 263.789 86.2716 263.485C86.4316 263.181 86.5436 262.837 86.6076 262.453C86.6716 262.053 86.7036 261.549 86.7036 260.941V257.821C86.7036 256.925 86.6236 256.197 86.4636 255.637C86.3196 255.077 86.0636 254.573 85.6956 254.125L85.4316 253.693L85.6956 253.357H91.5756C92.2156 253.357 92.7436 253.325 93.1596 253.261C93.5756 253.197 93.8956 253.085 94.1196 252.925L94.4796 252.613L94.8396 252.925V256.861L94.1196 257.101L93.9516 256.597C93.8236 256.053 93.6716 255.645 93.4956 255.373C93.3196 255.085 93.0796 254.893 92.7756 254.797C92.4876 254.685 92.0796 254.629 91.5516 254.629H90.2556C89.6796 254.629 89.2956 254.733 89.1036 254.941C88.9276 255.149 88.8396 255.597 88.8396 256.285V262.237C88.8396 262.925 88.9356 263.397 89.1276 263.653C89.3196 263.893 89.6956 264.093 90.2556 264.253L90.7596 264.421L90.4956 265.165H85.6956ZM102.374 265.501C101.174 265.501 100.134 265.245 99.2535 264.733C98.3895 264.221 97.7175 263.493 97.2375 262.549C96.7575 261.605 96.5175 260.493 96.5175 259.213C96.5175 257.917 96.7575 256.805 97.2375 255.877C97.7175 254.933 98.3895 254.205 99.2535 253.693C100.134 253.181 101.174 252.925 102.374 252.925C103.574 252.925 104.606 253.181 105.47 253.693C106.35 254.205 107.03 254.933 107.51 255.877C107.99 256.805 108.23 257.917 108.23 259.213C108.23 260.493 107.99 261.605 107.51 262.549C107.03 263.493 106.35 264.221 105.47 264.733C104.606 265.245 103.574 265.501 102.374 265.501ZM102.302 264.205C103.294 264.205 104.11 263.757 104.75 262.861C105.39 261.949 105.71 260.757 105.71 259.285C105.71 258.805 105.654 258.269 105.542 257.677C105.446 257.085 105.27 256.525 105.014 255.997C104.774 255.469 104.446 255.037 104.03 254.701C103.614 254.349 103.086 254.173 102.446 254.173C101.774 254.173 101.174 254.389 100.646 254.821C100.134 255.237 99.7335 255.829 99.4455 256.597C99.1575 257.349 99.0135 258.229 99.0135 259.237C99.0135 260.741 99.3095 261.949 99.9015 262.861C100.494 263.757 101.294 264.205 102.302 264.205ZM122.657 269.485L122.536 268.957C122.233 267.677 121.857 266.725 121.409 266.101C120.961 265.477 120.241 265.165 119.249 265.165H113.849C113.177 265.165 112.641 265.301 112.241 265.573C111.857 265.845 111.537 266.261 111.281 266.821C111.041 267.381 110.801 268.093 110.561 268.957L110.417 269.461L109.673 269.173V264.229C110.521 264.133 111.177 263.885 111.641 263.485C112.121 263.069 112.473 262.509 112.697 261.805C112.937 261.085 113.113 260.237 113.225 259.261C113.337 258.269 113.465 257.165 113.609 255.949C113.689 255.469 113.689 255.117 113.609 254.893C113.545 254.653 113.385 254.485 113.129 254.389C112.889 254.277 112.545 254.189 112.097 254.125L111.593 253.957L111.833 253.237H122.201L122.489 253.597L122.201 253.957C121.832 254.453 121.576 254.973 121.432 255.517C121.305 256.061 121.241 256.781 121.241 257.677V262.837C121.241 263.333 121.449 263.693 121.865 263.917C122.281 264.125 122.785 264.229 123.377 264.229V269.197L122.657 269.485ZM112.721 263.917H117.641C118.217 263.917 118.593 263.813 118.769 263.605C118.961 263.381 119.057 262.925 119.057 262.237V256.213C119.057 255.541 118.961 255.101 118.769 254.893C118.593 254.669 118.217 254.557 117.641 254.557H116.729C116.329 254.557 116.001 254.613 115.745 254.725C115.505 254.821 115.369 255.061 115.337 255.445C115.065 257.893 114.761 259.813 114.425 261.205C114.089 262.581 113.521 263.485 112.721 263.917ZM125.304 265.165L125.064 264.421L125.544 264.253C126.104 264.093 126.472 263.893 126.648 263.653C126.84 263.397 126.936 262.925 126.936 262.237V256.165C126.936 255.477 126.84 255.005 126.648 254.749C126.472 254.493 126.104 254.285 125.544 254.125L125.064 253.957L125.304 253.237H130.128L130.416 253.573L130.128 253.957C129.776 254.453 129.52 254.973 129.36 255.517C129.2 256.045 129.12 256.765 129.12 257.677V261.061L134.904 255.589C134.824 255.077 134.68 254.733 134.472 254.557C134.28 254.381 134 254.237 133.632 254.125L133.152 253.957L133.392 253.237H138.216L138.48 253.573L138.216 253.957C137.864 254.453 137.608 254.973 137.448 255.517C137.288 256.045 137.208 256.765 137.208 257.677V262.405C137.208 262.853 137.248 263.197 137.328 263.437C137.408 263.661 137.544 263.837 137.736 263.965C137.944 264.077 138.216 264.189 138.552 264.301L139.032 264.445L138.792 265.165H133.392L133.152 264.421L133.632 264.253C134.192 264.093 134.568 263.893 134.76 263.653C134.952 263.397 135.048 262.925 135.048 262.237V257.413L129.24 262.861C129.32 263.389 129.456 263.741 129.648 263.917C129.856 264.093 130.136 264.221 130.488 264.301L130.944 264.445L130.728 265.165H125.304ZM146.997 265.165L146.757 264.397L147.237 264.253C147.813 264.125 148.189 263.925 148.365 263.653C148.541 263.365 148.629 262.877 148.629 262.189V260.053C148.213 260.389 147.725 260.669 147.165 260.893C146.605 261.117 145.917 261.229 145.101 261.229C143.885 261.229 142.965 260.941 142.341 260.365C141.717 259.789 141.405 258.893 141.405 257.677V257.077C141.405 256.341 141.389 255.797 141.357 255.445C141.341 255.093 141.285 254.821 141.189 254.629C141.109 254.437 140.973 254.205 140.781 253.933L140.469 253.597L140.757 253.213L143.613 252.925V257.341C143.613 258.173 143.821 258.757 144.237 259.093C144.653 259.413 145.205 259.573 145.893 259.573C146.405 259.573 146.893 259.501 147.357 259.357C147.821 259.197 148.245 258.949 148.629 258.613V256.165C148.629 255.477 148.533 255.005 148.341 254.749C148.165 254.493 147.797 254.285 147.237 254.125L146.757 253.957L146.997 253.237H151.821L152.109 253.597L151.821 253.957C151.453 254.453 151.197 254.973 151.053 255.517C150.909 256.061 150.837 256.781 150.837 257.677V262.405C150.837 263.045 150.925 263.485 151.101 263.725C151.293 263.949 151.653 264.141 152.181 264.301L152.637 264.421L152.421 265.165H146.997ZM155.071 265.165L154.807 264.421L155.287 264.253C155.847 264.093 156.223 263.893 156.415 263.653C156.607 263.397 156.703 262.925 156.703 262.237V256.165C156.703 255.477 156.607 255.005 156.415 254.749C156.223 254.493 155.847 254.285 155.287 254.125L154.807 253.957L155.071 253.237H159.847L160.135 253.573L159.847 253.957C159.495 254.437 159.239 254.957 159.079 255.517C158.935 256.061 158.863 256.781 158.863 257.677V258.469H164.647V256.165C164.647 255.477 164.551 255.005 164.359 254.749C164.167 254.493 163.791 254.285 163.231 254.125L162.703 253.957L162.991 253.237H167.767L168.079 253.573L167.767 253.957C167.415 254.437 167.167 254.957 167.023 255.517C166.879 256.061 166.807 256.781 166.807 257.677V262.405C166.807 263.061 166.895 263.501 167.071 263.725C167.263 263.949 167.615 264.141 168.127 264.301L168.559 264.445L168.343 265.165H162.991L162.703 264.421L163.231 264.253C163.791 264.093 164.167 263.893 164.359 263.653C164.551 263.397 164.647 262.925 164.647 262.237V259.861H158.863V262.405C158.863 263.061 158.959 263.501 159.151 263.725C159.343 263.949 159.695 264.141 160.207 264.301L160.687 264.445L160.447 265.165H155.071ZM170.985 265.165L170.721 264.421L171.225 264.253C171.753 264.093 172.113 263.885 172.305 263.629C172.513 263.373 172.617 262.909 172.617 262.237V256.165C172.617 255.509 172.513 255.045 172.305 254.773C172.113 254.501 171.753 254.285 171.225 254.125L170.721 253.957L170.985 253.237H175.785L176.073 253.573L175.785 253.957C175.433 254.453 175.177 254.973 175.017 255.517C174.857 256.061 174.777 256.781 174.777 257.677V260.725C174.777 261.509 174.865 262.125 175.041 262.573C175.217 263.021 175.441 263.349 175.713 263.557C176.001 263.749 176.305 263.869 176.625 263.917C176.945 263.965 177.249 263.989 177.537 263.989C178.241 263.989 178.817 263.765 179.265 263.317C179.729 262.853 179.961 262.261 179.961 261.541C179.961 260.885 179.705 260.333 179.193 259.885C178.697 259.421 178.049 259.189 177.249 259.189C176.721 259.189 176.353 259.229 176.145 259.309C175.953 259.389 175.785 259.429 175.641 259.429C175.545 259.429 175.473 259.381 175.425 259.285C175.377 259.173 175.353 259.061 175.353 258.949C175.353 258.741 175.473 258.581 175.713 258.469C175.953 258.341 176.249 258.253 176.601 258.205C176.953 258.141 177.305 258.109 177.657 258.109C178.697 258.109 179.569 258.277 180.273 258.613C180.977 258.933 181.513 259.357 181.881 259.885C182.249 260.413 182.433 260.989 182.433 261.613C182.433 262.653 182.025 263.509 181.209 264.181C180.393 264.837 179.033 265.165 177.129 265.165H170.985ZM183.345 265.165L183.129 264.421L183.633 264.253C184.193 264.093 184.561 263.893 184.737 263.653C184.929 263.397 185.025 262.925 185.025 262.237V256.165C185.025 255.477 184.929 255.005 184.737 254.749C184.561 254.493 184.193 254.285 183.633 254.125L183.129 253.957L183.345 253.237H188.217L188.481 253.573L188.217 253.957C187.849 254.437 187.585 254.957 187.425 255.517C187.281 256.061 187.209 256.781 187.209 257.677V262.405C187.209 263.061 187.297 263.501 187.473 263.725C187.665 263.949 188.017 264.141 188.529 264.301L188.985 264.445L188.769 265.165H183.345ZM191.375 265.165L191.135 264.421L191.615 264.253C192.175 264.093 192.543 263.893 192.719 263.653C192.911 263.397 193.007 262.925 193.007 262.237V256.165C193.007 255.477 192.911 255.005 192.719 254.749C192.543 254.493 192.175 254.285 191.615 254.125L191.135 253.957L191.375 253.237H196.199L196.487 253.573L196.199 253.957C195.847 254.453 195.591 254.973 195.431 255.517C195.271 256.045 195.191 256.765 195.191 257.677V261.061L200.975 255.589C200.895 255.077 200.751 254.733 200.543 254.557C200.351 254.381 200.071 254.237 199.703 254.125L199.223 253.957L199.463 253.237H204.287L204.551 253.573L204.287 253.957C203.935 254.453 203.679 254.973 203.519 255.517C203.359 256.045 203.279 256.765 203.279 257.677V262.405C203.279 262.853 203.319 263.197 203.399 263.437C203.479 263.661 203.615 263.837 203.807 263.965C204.015 264.077 204.287 264.189 204.623 264.301L205.103 264.445L204.863 265.165H199.463L199.223 264.421L199.703 264.253C200.263 264.093 200.639 263.893 200.831 263.653C201.023 263.397 201.119 262.925 201.119 262.237V257.413L195.311 262.861C195.391 263.389 195.527 263.741 195.719 263.917C195.927 264.093 196.207 264.221 196.559 264.301L197.015 264.445L196.799 265.165H191.375ZM198.071 251.485C196.951 251.485 196.047 251.293 195.359 250.909C194.687 250.525 194.351 249.973 194.351 249.253C194.351 248.725 194.527 248.309 194.879 248.005C195.231 247.701 195.631 247.549 196.079 247.549C196.367 247.549 196.511 247.661 196.511 247.885C196.511 247.997 196.447 248.133 196.319 248.293C196.207 248.453 196.151 248.741 196.151 249.157C196.151 249.509 196.279 249.821 196.535 250.093C196.791 250.349 197.303 250.477 198.071 250.477C198.775 250.477 199.279 250.357 199.583 250.117C199.887 249.861 200.039 249.557 200.039 249.205C200.039 248.773 199.983 248.477 199.871 248.317C199.759 248.141 199.703 247.997 199.703 247.885C199.703 247.661 199.855 247.549 200.159 247.549C200.591 247.549 200.975 247.701 201.311 248.005C201.647 248.309 201.815 248.725 201.815 249.253C201.815 249.973 201.471 250.525 200.783 250.909C200.111 251.293 199.207 251.485 198.071 251.485ZM227.165 269.485L227.069 268.957C226.765 267.677 226.373 266.725 225.893 266.101C225.429 265.477 224.701 265.165 223.709 265.165H214.133L213.869 264.421L214.349 264.277C214.925 264.149 215.301 263.949 215.477 263.677C215.653 263.405 215.741 262.925 215.741 262.237V256.165C215.741 255.477 215.645 255.005 215.453 254.749C215.277 254.493 214.909 254.285 214.349 254.125L213.869 253.957L214.133 253.237H218.909L219.197 253.597L218.909 253.957C218.557 254.453 218.301 254.973 218.141 255.517C217.997 256.061 217.925 256.781 217.925 257.677V262.237C217.925 262.925 218.013 263.381 218.189 263.605C218.381 263.813 218.765 263.917 219.341 263.917H222.173C222.749 263.917 223.133 263.813 223.325 263.605C223.517 263.381 223.613 262.925 223.613 262.237V256.165C223.613 255.477 223.509 255.005 223.301 254.749C223.109 254.493 222.733 254.285 222.173 254.125L221.645 253.957L221.957 253.237H226.757L227.021 253.597L226.757 253.957C226.389 254.453 226.133 254.973 225.989 255.517C225.845 256.061 225.773 256.781 225.773 257.677V262.837C225.773 263.333 225.981 263.693 226.397 263.917C226.829 264.125 227.341 264.229 227.933 264.229V269.197L227.165 269.485ZM235.139 265.501C234.019 265.501 233.043 265.245 232.211 264.733C231.395 264.221 230.755 263.509 230.291 262.597C229.843 261.669 229.619 260.589 229.619 259.357C229.619 258.061 229.875 256.933 230.387 255.973C230.899 255.013 231.619 254.269 232.547 253.741C233.491 253.197 234.587 252.925 235.835 252.925C236.763 252.925 237.523 253.093 238.115 253.429C238.723 253.765 239.171 254.205 239.459 254.749C239.763 255.277 239.915 255.845 239.915 256.453C239.915 257.109 239.739 257.749 239.387 258.373C239.051 258.997 238.539 259.509 237.851 259.909C237.179 260.309 236.339 260.509 235.331 260.509C235.171 260.509 234.939 260.493 234.635 260.461C234.347 260.413 234.051 260.349 233.747 260.269C233.459 260.173 233.211 260.053 233.003 259.909C232.795 259.765 232.691 259.589 232.691 259.381C232.691 259.253 232.723 259.133 232.787 259.021C232.867 258.909 232.955 258.853 233.051 258.853C233.179 258.853 233.339 258.909 233.531 259.021C233.739 259.117 234.091 259.165 234.587 259.165C235.275 259.165 235.843 259.037 236.291 258.781C236.739 258.509 237.075 258.165 237.299 257.749C237.523 257.317 237.635 256.877 237.635 256.429C237.635 255.837 237.443 255.309 237.059 254.845C236.675 254.365 236.107 254.125 235.355 254.125C234.331 254.125 233.531 254.573 232.955 255.469C232.379 256.365 232.091 257.661 232.091 259.357C232.091 260.765 232.387 261.877 232.979 262.693C233.587 263.509 234.475 263.917 235.643 263.917C236.315 263.917 236.947 263.805 237.539 263.581C238.131 263.357 238.667 263.013 239.147 262.549C239.211 262.485 239.283 262.453 239.363 262.453C239.491 262.453 239.627 262.533 239.771 262.693C239.915 262.837 239.987 262.989 239.987 263.149C239.987 263.229 239.955 263.301 239.891 263.365C238.659 264.789 237.075 265.501 235.139 265.501ZM242.586 265.165L242.322 264.421L242.802 264.253C243.362 264.093 243.738 263.893 243.93 263.653C244.122 263.397 244.218 262.925 244.218 262.237V256.165C244.218 255.477 244.122 255.005 243.93 254.749C243.738 254.493 243.362 254.285 242.802 254.125L242.322 253.957L242.586 253.237H247.362L247.65 253.573L247.362 253.957C247.01 254.437 246.754 254.957 246.594 255.517C246.45 256.061 246.378 256.781 246.378 257.677V258.469H252.162V256.165C252.162 255.477 252.066 255.005 251.874 254.749C251.682 254.493 251.306 254.285 250.746 254.125L250.218 253.957L250.506 253.237H255.282L255.594 253.573L255.282 253.957C254.93 254.437 254.682 254.957 254.538 255.517C254.394 256.061 254.322 256.781 254.322 257.677V262.405C254.322 263.061 254.41 263.501 254.586 263.725C254.778 263.949 255.13 264.141 255.642 264.301L256.074 264.445L255.858 265.165H250.506L250.218 264.421L250.746 264.253C251.306 264.093 251.682 263.893 251.874 263.653C252.066 263.397 252.162 262.925 252.162 262.237V259.861H246.378V262.405C246.378 263.061 246.474 263.501 246.666 263.725C246.858 263.949 247.21 264.141 247.722 264.301L248.202 264.445L247.962 265.165H242.586ZM260.54 265.165L260.252 264.805L260.54 264.421C260.908 263.941 261.164 263.429 261.308 262.885C261.452 262.341 261.524 261.621 261.524 260.725V256.285C261.524 255.597 261.468 255.149 261.356 254.941C261.26 254.733 261.06 254.629 260.756 254.629H260.516C259.988 254.629 259.572 254.685 259.268 254.797C258.98 254.893 258.748 255.085 258.572 255.373C258.396 255.645 258.236 256.053 258.092 256.597L257.948 257.101L257.204 256.861V252.925L257.588 252.613L257.948 252.925C258.172 253.085 258.492 253.197 258.908 253.261C259.324 253.325 259.852 253.357 260.492 253.357H264.74C265.396 253.357 265.924 253.325 266.324 253.261C266.74 253.197 267.052 253.085 267.26 252.925L267.62 252.613L268.004 252.925V256.861L267.26 257.101L267.14 256.597C266.996 256.053 266.836 255.645 266.66 255.373C266.484 255.085 266.252 254.893 265.964 254.797C265.676 254.685 265.268 254.629 264.74 254.629H264.452C264.148 254.629 263.94 254.733 263.828 254.941C263.732 255.149 263.684 255.597 263.684 256.285V262.237C263.684 262.925 263.78 263.397 263.972 263.653C264.164 263.893 264.532 264.093 265.076 264.253L265.628 264.421L265.34 265.165H260.54ZM269.759 271.549L269.471 271.189L269.759 270.805C270.047 270.389 270.247 269.957 270.359 269.509C270.471 269.061 270.527 268.461 270.527 267.709V256.021C270.527 255.781 270.495 255.605 270.431 255.493C270.367 255.365 270.231 255.277 270.023 255.229L268.775 254.965V254.173C268.951 254.013 269.231 253.861 269.615 253.717C270.015 253.573 270.439 253.453 270.887 253.357C271.351 253.261 271.759 253.213 272.111 253.213C272.495 253.213 272.687 253.581 272.687 254.317V254.437C273.727 253.429 274.879 252.925 276.143 252.925C277.151 252.925 278.039 253.173 278.807 253.669C279.575 254.165 280.175 254.853 280.607 255.733C281.039 256.597 281.255 257.597 281.255 258.733C281.255 260.029 281.023 261.189 280.559 262.213C280.111 263.221 279.487 264.021 278.687 264.613C277.903 265.205 276.999 265.501 275.975 265.501C275.031 265.501 274.231 265.285 273.575 264.853C273.431 264.757 273.359 264.613 273.359 264.421C273.359 264.277 273.383 264.141 273.431 264.013C273.495 263.885 273.591 263.821 273.719 263.821C273.847 263.821 274.023 263.885 274.247 264.013C274.487 264.141 274.879 264.205 275.423 264.205C276.063 264.205 276.631 263.989 277.127 263.557C277.623 263.125 278.007 262.533 278.279 261.781C278.567 261.029 278.711 260.173 278.711 259.213C278.711 258.285 278.567 257.469 278.279 256.765C278.007 256.061 277.615 255.509 277.103 255.109C276.607 254.709 276.031 254.509 275.375 254.509C274.399 254.509 273.503 254.821 272.687 255.445V268.885C272.687 269.477 272.751 269.901 272.879 270.157C273.023 270.413 273.295 270.589 273.695 270.685L274.199 270.805L273.935 271.549H269.759ZM295.874 265.501C294.674 265.501 293.634 265.245 292.754 264.733C291.89 264.221 291.218 263.493 290.738 262.549C290.258 261.605 290.018 260.493 290.018 259.213C290.018 257.917 290.258 256.805 290.738 255.877C291.218 254.933 291.89 254.205 292.754 253.693C293.634 253.181 294.674 252.925 295.874 252.925C297.074 252.925 298.106 253.181 298.97 253.693C299.85 254.205 300.53 254.933 301.01 255.877C301.49 256.805 301.73 257.917 301.73 259.213C301.73 260.493 301.49 261.605 301.01 262.549C300.53 263.493 299.85 264.221 298.97 264.733C298.106 265.245 297.074 265.501 295.874 265.501ZM295.802 264.205C296.794 264.205 297.61 263.757 298.25 262.861C298.89 261.949 299.21 260.757 299.21 259.285C299.21 258.805 299.154 258.269 299.042 257.677C298.946 257.085 298.77 256.525 298.514 255.997C298.274 255.469 297.946 255.037 297.53 254.701C297.114 254.349 296.586 254.173 295.946 254.173C295.274 254.173 294.674 254.389 294.146 254.821C293.634 255.237 293.234 255.829 292.946 256.597C292.658 257.349 292.514 258.229 292.514 259.237C292.514 260.741 292.81 261.949 293.402 262.861C293.994 263.757 294.794 264.205 295.802 264.205ZM306.197 265.165L305.909 264.805L306.197 264.421C306.565 263.941 306.821 263.429 306.965 262.885C307.109 262.341 307.181 261.621 307.181 260.725V256.285C307.181 255.597 307.125 255.149 307.013 254.941C306.917 254.733 306.717 254.629 306.413 254.629H306.173C305.645 254.629 305.229 254.685 304.925 254.797C304.637 254.893 304.405 255.085 304.229 255.373C304.053 255.645 303.893 256.053 303.749 256.597L303.604 257.101L302.861 256.861V252.925L303.245 252.613L303.604 252.925C303.829 253.085 304.149 253.197 304.565 253.261C304.981 253.325 305.509 253.357 306.149 253.357H310.397C311.053 253.357 311.581 253.325 311.981 253.261C312.397 253.197 312.709 253.085 312.917 252.925L313.277 252.613L313.661 252.925V256.861L312.917 257.101L312.797 256.597C312.653 256.053 312.493 255.645 312.317 255.373C312.141 255.085 311.909 254.893 311.621 254.797C311.333 254.685 310.925 254.629 310.397 254.629H310.109C309.805 254.629 309.597 254.733 309.485 254.941C309.389 255.149 309.341 255.597 309.341 256.285V262.237C309.341 262.925 309.437 263.397 309.629 263.653C309.821 263.893 310.189 264.093 310.733 264.253L311.285 264.421L310.997 265.165H306.197ZM327.055 269.485L326.935 268.957C326.631 267.677 326.255 266.725 325.807 266.101C325.359 265.477 324.639 265.165 323.647 265.165H318.247C317.575 265.165 317.039 265.301 316.639 265.573C316.255 265.845 315.935 266.261 315.679 266.821C315.439 267.381 315.199 268.093 314.959 268.957L314.815 269.461L314.071 269.173V264.229C314.919 264.133 315.575 263.885 316.039 263.485C316.519 263.069 316.871 262.509 317.095 261.805C317.335 261.085 317.511 260.237 317.623 259.261C317.735 258.269 317.863 257.165 318.007 255.949C318.087 255.469 318.087 255.117 318.007 254.893C317.943 254.653 317.783 254.485 317.527 254.389C317.287 254.277 316.943 254.189 316.495 254.125L315.991 253.957L316.231 253.237H326.599L326.887 253.597L326.599 253.957C326.231 254.453 325.975 254.973 325.831 255.517C325.703 256.061 325.639 256.781 325.639 257.677V262.837C325.639 263.333 325.847 263.693 326.263 263.917C326.679 264.125 327.183 264.229 327.775 264.229V269.197L327.055 269.485ZM317.119 263.917H322.039C322.615 263.917 322.991 263.813 323.167 263.605C323.359 263.381 323.455 262.925 323.455 262.237V256.213C323.455 255.541 323.359 255.101 323.167 254.893C322.991 254.669 322.615 254.557 322.039 254.557H321.127C320.727 254.557 320.399 254.613 320.143 254.725C319.903 254.821 319.767 255.061 319.735 255.445C319.463 257.893 319.159 259.813 318.823 261.205C318.487 262.581 317.919 263.485 317.119 263.917ZM329.727 265.165L329.463 264.421L329.967 264.253C330.495 264.093 330.855 263.885 331.047 263.629C331.255 263.373 331.359 262.909 331.359 262.237V256.165C331.359 255.509 331.255 255.045 331.047 254.773C330.855 254.501 330.495 254.285 329.967 254.125L329.463 253.957L329.727 253.237H334.527L334.815 253.573L334.527 253.957C334.175 254.453 333.919 254.973 333.759 255.517C333.599 256.061 333.519 256.781 333.519 257.677V260.725C333.519 261.509 333.607 262.125 333.783 262.573C333.959 263.021 334.183 263.349 334.455 263.557C334.743 263.749 335.047 263.869 335.367 263.917C335.687 263.965 335.991 263.989 336.279 263.989C336.983 263.989 337.559 263.765 338.007 263.317C338.471 262.853 338.703 262.261 338.703 261.541C338.703 260.885 338.447 260.333 337.935 259.885C337.439 259.421 336.791 259.189 335.991 259.189C335.463 259.189 335.095 259.229 334.887 259.309C334.695 259.389 334.527 259.429 334.383 259.429C334.287 259.429 334.215 259.381 334.167 259.285C334.119 259.173 334.095 259.061 334.095 258.949C334.095 258.741 334.215 258.581 334.455 258.469C334.695 258.341 334.991 258.253 335.343 258.205C335.695 258.141 336.047 258.109 336.399 258.109C337.439 258.109 338.311 258.277 339.015 258.613C339.719 258.933 340.255 259.357 340.623 259.885C340.991 260.413 341.175 260.989 341.175 261.613C341.175 262.653 340.767 263.509 339.951 264.181C339.135 264.837 337.775 265.165 335.871 265.165H329.727ZM342.087 265.165L341.871 264.421L342.375 264.253C342.935 264.093 343.303 263.893 343.479 263.653C343.671 263.397 343.767 262.925 343.767 262.237V256.165C343.767 255.477 343.671 255.005 343.479 254.749C343.303 254.493 342.935 254.285 342.375 254.125L341.871 253.957L342.087 253.237H346.959L347.223 253.573L346.959 253.957C346.591 254.437 346.327 254.957 346.167 255.517C346.023 256.061 345.951 256.781 345.951 257.677V262.405C345.951 263.061 346.039 263.501 346.215 263.725C346.407 263.949 346.759 264.141 347.271 264.301L347.727 264.445L347.511 265.165H342.087ZM359.357 265.501C358.285 265.501 357.429 264.941 356.789 263.821L354.845 260.509C354.237 261.213 353.733 261.845 353.333 262.405C352.933 262.965 352.733 263.381 352.733 263.653C352.733 263.813 352.773 263.957 352.853 264.085C352.949 264.197 353.061 264.309 353.189 264.421L353.645 264.805L353.357 265.165H349.637L349.373 264.661C349.725 264.309 350.165 263.869 350.693 263.341C351.237 262.797 351.821 262.205 352.445 261.565C353.085 260.925 353.717 260.277 354.341 259.621L351.725 255.109C351.565 254.837 351.405 254.661 351.245 254.581C351.101 254.485 350.925 254.437 350.717 254.437C350.429 254.437 350.125 254.541 349.805 254.749L349.277 254.029C349.645 253.629 350.013 253.349 350.381 253.189C350.749 253.013 351.125 252.925 351.509 252.925C352.581 252.925 353.437 253.485 354.077 254.605L355.949 257.869C356.557 257.165 357.061 256.533 357.461 255.973C357.861 255.413 358.061 255.005 358.061 254.749C358.061 254.573 358.013 254.429 357.917 254.317C357.837 254.205 357.733 254.093 357.605 253.981L357.149 253.597L357.437 253.237H361.157L361.421 253.741C361.085 254.093 360.645 254.541 360.101 255.085C359.557 255.613 358.973 256.197 358.349 256.837C357.725 257.461 357.101 258.101 356.477 258.757L359.141 263.317C359.301 263.573 359.453 263.749 359.597 263.845C359.757 263.941 359.941 263.989 360.149 263.989C360.453 263.989 360.757 263.885 361.061 263.677L361.589 264.397C361.221 264.797 360.853 265.077 360.485 265.237C360.117 265.413 359.741 265.501 359.357 265.501ZM367.439 265.501C366.687 265.501 365.983 265.285 365.327 264.853C364.671 264.421 364.143 263.773 363.743 262.909C363.343 262.045 363.143 260.965 363.143 259.669C363.143 258.277 363.391 257.077 363.887 256.069C364.399 255.061 365.119 254.285 366.047 253.741C366.991 253.197 368.095 252.925 369.359 252.925C370.111 252.925 370.895 253.013 371.711 253.189C372.527 253.349 373.343 253.461 374.159 253.525L374.423 253.837L374.135 254.269C374.039 254.413 373.959 254.557 373.895 254.701C373.847 254.829 373.823 254.997 373.823 255.205V263.053C373.823 263.549 374.063 263.797 374.543 263.797C374.943 263.797 375.343 263.653 375.743 263.365L376.199 263.989C375.783 264.453 375.335 264.821 374.855 265.093C374.391 265.365 373.951 265.501 373.535 265.501C372.879 265.501 372.407 265.301 372.119 264.901C371.831 264.501 371.687 263.853 371.687 262.957C370.999 263.933 370.303 264.605 369.599 264.973C368.911 265.325 368.191 265.501 367.439 265.501ZM368.398 263.653C369.007 263.653 369.591 263.477 370.151 263.125C370.727 262.773 371.239 262.221 371.687 261.469V254.989C370.951 254.493 370.167 254.245 369.335 254.245C368.167 254.245 367.263 254.685 366.623 255.565C365.983 256.429 365.663 257.645 365.663 259.213C365.663 260.301 365.791 261.173 366.047 261.829C366.303 262.469 366.639 262.933 367.055 263.221C367.487 263.509 367.935 263.653 368.398 263.653Z" fill="#0D504D"/>
</svg>
