<svg width="739" height="141" viewBox="0 0 739 141" fill="none" xmlns="http://www.w3.org/2000/svg">
<g filter="url(#filter0_d_109_155)">
<rect x="16" y="13" width="702" height="107" rx="34" fill="#D9D9D9"/>
</g>
<g filter="url(#filter1_d_109_155)">
<path d="M49.5556 18.0022C50.8572 13.2877 63.996 10.0337 68.7253 8.26634C77.3335 5.04948 86.2616 3.29364 95.7467 2.62977C117.306 1.12086 135.669 1.94121 155.661 9.34811C165.757 13.0888 177.042 20.358 188.553 21.0198C205.414 21.9891 222.838 15.5392 238.564 11.5116C245.06 9.84814 257.519 6.63308 263.746 10.2591C272.944 15.6145 282.579 20.5541 292.041 25.6315C295.402 27.4347 298.56 29.2658 301.661 31.325C309.295 36.3941 327.076 31.4648 335.473 30.7557C359.72 28.7082 385.069 28.3505 409.464 29.3323C415.341 29.5688 422.184 30.6654 427.856 31.8944C448.44 36.3551 474.014 35.1608 490.033 23.1264C501.265 14.6885 513.39 12.08 528.16 9.40504C538.787 7.48054 551.244 6.7291 562.185 6.7291C567.442 6.7291 572.466 8.51201 577.605 9.23424C588.824 10.8109 600.39 12.3941 611.771 12.7642C627.248 13.2675 641.946 14.1409 656.618 17.7745C663.645 19.5148 674.006 18.0022 681.376 18.0022C695.508 18.0022 702.883 27.1199 706.841 36.6769C708.334 40.2819 708.731 44.6067 712.359 46.9252C717.452 50.1806 721.749 53.8003 726.365 57.5152C737.513 66.488 732.244 82.5337 727.638 92.6441C722.675 103.539 706.916 116.187 693.26 119.517C687.952 120.812 683.698 123.224 677.981 123.503C673.711 123.711 669.382 123.56 665.107 123.56C653.417 123.56 641.746 120.164 630.304 118.322C603.957 114.08 579.534 102.038 551.928 102.038C531.016 102.038 510.885 105.773 490.811 110.237C475.706 113.597 460.929 115.816 445.54 118.436C431.468 120.832 416.079 121.533 402.532 125.382C393.344 127.992 381.425 127.239 371.691 128.172C365.753 128.741 359.095 129.196 353.087 128.627C346.877 128.039 343.748 124.1 338.444 121.966C330.808 118.893 321.361 116.091 312.979 115.247C292.867 113.224 269.818 111.111 249.458 113.539C236.405 115.096 224.467 118.266 211.543 120.258C203.279 121.531 195.966 124.072 188.341 126.862C184.955 128.101 178.993 130.632 175.325 130.734C153.733 131.333 131.992 130.734 110.389 130.734C103.744 130.734 98.7385 129.695 92.2806 128.228C87.4598 127.134 83.5174 124.832 78.8406 123.674C75.052 122.735 71.1281 122.449 67.5227 120.998C62.6095 119.02 56.8127 117.495 51.5362 115.931C48.3631 114.99 44.9945 115.732 41.9868 114.279C39.5743 113.114 37.4753 111.726 34.9131 110.749C24.9756 106.961 17.1313 102.573 10.0138 95.8894C3.15797 89.4516 5.9144 75.0965 12.0651 68.7314C16.4297 64.2147 19.8645 57.7611 21.8268 52.391C24.0935 46.1879 30.0461 40.8454 32.7203 34.6273C34.012 31.6238 40.9746 21.4409 44.7455 21.0767C47.0237 20.8567 50.8087 17.7826 53.3754 16.7497C55.9543 15.7118 57.5234 13.7708 59.7417 12.8781" stroke="white" stroke-width="3" stroke-linecap="round"/>
</g>
<defs>
<filter id="filter0_d_109_155" x="12" y="13" width="710" height="115" filterUnits="userSpaceOnUse" color-interpolation-filters="sRGB">
<feFlood flood-opacity="0" result="BackgroundImageFix"/>
<feColorMatrix in="SourceAlpha" type="matrix" values="0 0 0 0 0 0 0 0 0 0 0 0 0 0 0 0 0 0 127 0" result="hardAlpha"/>
<feOffset dy="4"/>
<feGaussianBlur stdDeviation="2"/>
<feComposite in2="hardAlpha" operator="out"/>
<feColorMatrix type="matrix" values="0 0 0 0 0 0 0 0 0 0 0 0 0 0 0 0 0 0 0.25 0"/>
<feBlend mode="normal" in2="BackgroundImageFix" result="effect1_dropShadow_109_155"/>
<feBlend mode="normal" in="SourceGraphic" in2="effect1_dropShadow_109_155" result="shape"/>
</filter>
<filter id="filter1_d_109_155" x="0.500732" y="0.499939" width="737.999" height="140" filterUnits="userSpaceOnUse" color-interpolation-filters="sRGB">
<feFlood flood-opacity="0" result="BackgroundImageFix"/>
<feColorMatrix in="SourceAlpha" type="matrix" values="0 0 0 0 0 0 0 0 0 0 0 0 0 0 0 0 0 0 127 0" result="hardAlpha"/>
<feOffset dy="4"/>
<feGaussianBlur stdDeviation="2"/>
<feComposite in2="hardAlpha" operator="out"/>
<feColorMatrix type="matrix" values="0 0 0 0 0 0 0 0 0 0 0 0 0 0 0 0 0 0 0.25 0"/>
<feBlend mode="normal" in2="BackgroundImageFix" result="effect1_dropShadow_109_155"/>
<feBlend mode="normal" in="SourceGraphic" in2="effect1_dropShadow_109_155" result="shape"/>
</filter>
</defs>
</svg>
