<svg width="42" height="50" viewBox="0 0 42 50" fill="none" xmlns="http://www.w3.org/2000/svg">
<g clip-path="url(#clip0_223_241)">
<path d="M21.9279 0C22.9897 0.261279 24.0884 0.426755 25.104 0.809963C29.3418 2.39505 32.0563 6.64518 31.6316 10.9389C31.1884 15.4241 27.6799 19.1082 23.0728 19.9356C16.1112 21.181 9.93448 16.0512 10.3592 9.37119C10.6454 4.6856 14.6709 0.661906 19.5735 0.104511C19.7028 0.0870928 19.832 0.0348371 19.9613 0C20.6168 0 21.2724 0 21.9279 0ZM20.9769 16.9918C25.0024 17.0702 28.3816 13.8565 28.3447 10.0418C28.3078 6.18359 25.0486 3.13534 20.903 3.13534C16.9145 3.13534 13.6461 6.25327 13.6461 10.0505C13.6461 13.9174 16.8868 16.9918 20.9677 16.9918H20.9769Z" fill="#0D504D"/>
<path d="M20.977 50C15.5943 50 10.2116 50 4.82884 50C1.90204 50 0.00932082 48.2146 0.00932082 45.445C0.00932082 41.7349 -0.00914477 38.0247 0.00932082 34.3146C0.046252 28.5403 3.99789 23.6631 9.91611 22.1738C11.0702 21.8864 12.2982 21.7558 13.4892 21.7471C18.4934 21.7035 23.4976 21.7209 28.5017 21.7296C35.094 21.7383 40.4582 25.8753 41.7323 31.9369C41.9078 32.773 41.9724 33.6526 41.9816 34.5062C42.0093 38.1553 41.9909 41.7958 41.9909 45.445C41.9909 48.2146 40.0981 50.0087 37.1713 50.0087C31.7701 50.0087 26.369 50.0087 20.9678 50.0087L20.977 50ZM9.53757 46.8646C9.53757 46.6469 9.53757 46.4553 9.53757 46.2637C9.53757 43.0064 9.53757 39.7491 9.53757 36.5006C9.53757 36.2567 9.5468 36.0129 9.6022 35.7777C9.75916 35.0984 10.387 34.6194 11.1164 34.5933C11.8458 34.5671 12.529 34.9939 12.7321 35.6558C12.8152 35.9171 12.8152 36.2045 12.8152 36.4745C12.8152 39.7491 12.8152 43.0151 12.8152 46.2898C12.8152 46.4814 12.8152 46.6643 12.8152 46.8559H29.1388V46.2376C29.1388 43.0151 29.1388 39.7927 29.1388 36.5703C29.1388 36.3787 29.1388 36.1783 29.148 35.9867C29.2127 35.2639 29.822 34.6716 30.5791 34.602C31.4008 34.5236 32.1579 34.9852 32.3518 35.7255C32.4164 35.978 32.4349 36.2393 32.4349 36.5006C32.4349 39.7753 32.4349 43.0413 32.4349 46.3159C32.4349 46.4988 32.4349 46.6904 32.4349 46.9082C34.0507 46.9082 35.5833 46.9082 37.1159 46.9082C38.2516 46.9082 38.6763 46.5075 38.6763 45.4363C38.6763 41.7697 38.6763 38.1118 38.6763 34.4452C38.6763 33.9139 38.6486 33.3652 38.5563 32.8427C37.7161 28.1658 33.709 24.8911 28.6772 24.8563C23.553 24.8127 18.4288 24.8127 13.3046 24.8563C7.81104 24.8998 3.44392 28.8625 3.30543 33.9923C3.20387 37.8766 3.27773 41.7697 3.28696 45.6628C3.28696 46.4553 3.78554 46.8995 4.61649 46.9082C6.12143 46.9082 7.61715 46.9082 9.12209 46.9082C9.24212 46.9082 9.35291 46.8908 9.5191 46.8821L9.53757 46.8646Z" fill="#0D504D"/>
</g>
<defs>
<clipPath id="clip0_223_241">
<rect width="42" height="50" fill="white"/>
</clipPath>
</defs>
</svg>
