<svg width="45" height="43" viewBox="0 0 45 43" fill="none" xmlns="http://www.w3.org/2000/svg">
<ellipse cx="22.5" cy="21.5" rx="22.5" ry="21.5" fill="#0D504D"/>
<path d="M17.7179 19.2066C17.7179 19.6848 17.5005 20.1032 17.2179 20.5017C16.8267 21.0795 16.4354 21.6574 16.0224 22.2153C15.9572 22.295 15.979 22.3348 16.0224 22.4145C16.7397 23.2115 17.5223 23.9487 18.3482 24.686C19.6742 25.8416 21.0436 26.9574 22.5434 27.9537C22.8694 28.1728 23.2389 28.392 23.565 28.6112C23.6519 28.671 23.7171 28.671 23.8258 28.6112C24.4996 28.2924 25.1735 27.9736 25.8473 27.6747C26.2603 27.4954 26.6733 27.3161 27.1297 27.2563C27.6079 27.1965 28.0427 27.2563 28.4557 27.4755C29.4555 28.0134 30.4771 28.5713 31.4988 29.1093C32.2595 29.5277 33.0203 29.9462 33.7811 30.3646C34.4766 30.7232 34.6723 31.2612 34.5418 31.8988C34.4766 32.1778 34.3462 32.4169 34.1506 32.656C33.3463 33.5526 32.4769 34.4094 31.4553 35.1466C31.1944 35.3458 30.8901 35.5052 30.6076 35.6846C30.1076 35.9834 29.5425 36.0233 28.9339 35.9635C27.4123 35.8041 25.9777 35.3857 24.6301 34.8079C22.6955 33.9909 20.9349 32.9748 19.2829 31.8191C18.1743 31.042 17.0875 30.2251 16.0224 29.4082C14.3487 28.1131 12.8055 26.7183 11.3926 25.2439C10.2188 24.0085 9.13201 22.7333 8.30603 21.3186C7.78435 20.4419 7.34962 19.5453 7.154 18.5889C7.08879 18.2502 7.04532 17.9115 7.00184 17.5727C6.98011 17.234 7.154 16.955 7.34962 16.6761C7.80609 16.0783 8.39297 15.5802 9.02333 15.1219C9.67542 14.6437 10.3492 14.2054 11.0231 13.767C11.6969 13.3287 12.6316 13.2888 13.3054 13.6276C13.4793 13.7272 13.6532 13.8667 13.7836 14.0261C14.9791 15.5005 16.1746 16.975 17.3701 18.4494C17.5657 18.6885 17.6744 18.9476 17.6527 19.2265L17.7179 19.2066Z" fill="#D9D9D9" stroke="#0D504D" stroke-miterlimit="10"/>
<path d="M37.9545 21.8965H37.9762C37.9327 21.4382 37.8893 20.9799 37.8023 20.5216C37.7154 20.0634 37.6502 19.6051 37.498 19.1667C36.0199 14.4246 32.6073 11.2366 27.2819 9.62265C25.7821 9.16437 24.2171 8.96512 22.6303 9.00497C21.9347 9.00497 21.4565 9.5828 21.6739 10.1606C21.8043 10.5591 22.2173 10.7783 22.7607 10.7982C23.5432 10.858 24.3475 10.8779 25.13 10.9975C30.325 11.8343 34.5418 15.4408 35.5852 19.9438C35.7808 20.7807 35.8026 21.6374 35.9112 22.4942C35.9764 22.9326 36.4112 23.2912 36.9111 23.2912C37.4111 23.2912 37.8675 22.9326 37.911 22.4942C37.911 22.295 37.911 22.0957 37.911 21.8965H37.9545ZM23.152 13.2689C22.9781 13.2689 22.8042 13.2689 22.6303 13.2689C22.0652 13.3088 21.6304 13.7073 21.6304 14.1656C21.6304 14.6438 22.0869 15.0223 22.6738 15.0622C23.0868 15.0821 23.5215 15.102 23.9345 15.1618C28.0209 15.6998 30.9988 18.7284 31.064 22.3348C31.064 22.9126 31.5205 23.3111 32.1074 23.3111C32.6943 23.3111 33.129 22.8728 33.129 22.3149C33.1072 21.4183 32.9551 20.5216 32.629 19.6649C31.3683 16.1979 27.6731 13.4881 23.1737 13.3088L23.152 13.2689ZM28.3252 22.2551C28.2166 21.7968 28.1514 21.3386 27.9992 20.9002C27.3036 18.9077 25.1083 17.493 22.7607 17.4731C22 17.4731 21.4565 18.0509 21.6956 18.6686C21.8478 19.0472 22.2173 19.2664 22.7173 19.2664C24.6735 19.3062 26.1516 20.6013 26.2168 22.295C26.2168 22.8728 26.6733 23.2713 27.2602 23.2713C27.8688 23.2713 28.2818 22.8529 28.3252 22.2352V22.2551Z" fill="#D9D9D9"/>
<path d="M37.9545 21.8965C37.9545 22.0958 37.9545 22.295 37.9545 22.4943C37.911 22.9326 37.4545 23.2913 36.9546 23.2913C36.4547 23.2913 35.9982 22.9526 35.9547 22.4943C35.846 21.6375 35.8243 20.7807 35.6287 19.9439C34.5636 15.4209 30.3467 11.8145 25.1735 10.9976C24.391 10.878 23.5867 10.8581 22.8042 10.7983C22.2391 10.7585 21.8478 10.5393 21.7174 10.1607C21.5218 9.58287 21.9782 9.02497 22.6738 9.00505C24.2606 8.98512 25.8256 9.18437 27.3254 9.62272C32.6508 11.2367 36.0634 14.4247 37.5415 19.1668C37.6719 19.6052 37.7589 20.0634 37.8458 20.5217C37.9327 20.98 37.9545 21.4383 38.0197 21.8965H37.998H37.9545Z" fill="#D9D9D9"/>
<path d="M23.152 13.2689C27.6514 13.4482 31.3466 16.158 32.6073 19.625C32.9116 20.4818 33.0855 21.3784 33.1073 22.275C33.1073 22.8529 32.6943 23.2713 32.0856 23.2713C31.4988 23.2713 31.0423 22.8728 31.0423 22.295C30.9988 18.6885 27.9992 15.6798 23.9128 15.1219C23.4998 15.0622 23.0868 15.0422 22.6521 15.0223C22.0652 15.0024 21.6087 14.6238 21.6087 14.1257C21.6087 13.6674 22.0434 13.2689 22.6086 13.2291C22.7825 13.2291 22.9564 13.2291 23.1303 13.2291L23.152 13.2689Z" fill="#D9D9D9"/>
</svg>
