<svg width="45" height="43" viewBox="0 0 45 43" fill="none" xmlns="http://www.w3.org/2000/svg">
<ellipse cx="22.5" cy="21.5" rx="22.5" ry="21.5" fill="#0D504D"/>
<path d="M24.3224 17.8585C24.9924 18.2185 25.6424 18.5885 26.3024 18.9285C26.4024 18.9785 26.5424 18.9785 26.6524 18.9585C30.0824 18.2885 33.2624 20.3485 34.0424 23.7585C34.9424 27.6985 31.6824 31.5285 27.6524 31.2885C26.8424 31.2385 26.0524 31.0685 25.3324 30.7085C25.0524 30.5685 24.8324 30.5785 24.5524 30.6685C19.6124 32.3585 14.2024 30.5385 11.2624 26.2185C11.0024 25.8485 10.9424 25.4785 11.0524 25.0385C11.9124 21.7185 13.9224 19.3985 17.0524 18.0285C17.1324 17.9985 17.2024 17.9685 17.2824 17.9285C17.3024 17.9185 17.3224 17.8985 17.3724 17.8585C16.0024 16.6685 15.2924 15.1685 15.3724 13.3585C15.4324 11.8185 16.0724 10.5085 17.2324 9.48849C19.4524 7.53849 22.8724 7.70849 24.8524 9.87849C26.8524 12.0485 26.9124 15.5785 24.3324 17.8285L24.3224 17.8585ZM24.3824 19.9085C22.9324 19.2485 21.4924 18.9885 19.9624 19.1485C16.6924 19.4885 13.8324 21.8485 12.9124 24.9885C12.8424 25.2185 12.8524 25.3885 13.0124 25.5985C15.1024 28.2685 17.8424 29.5585 21.2224 29.4985C21.8924 29.4885 22.5524 29.3385 23.2824 29.2485C20.8724 26.3385 21.3224 22.1485 24.3924 19.9085H24.3824ZM27.9424 20.6385C25.5324 20.6185 23.5124 22.6185 23.5024 25.0485C23.4924 27.4685 25.4724 29.4785 27.9024 29.5185C30.3224 29.5485 32.3424 27.5785 32.3724 25.1385C32.4124 22.6585 30.4424 20.6685 27.9424 20.6385ZM20.8024 17.2685C22.6424 17.3885 24.4924 15.7985 24.5024 13.6385C24.5024 11.5985 22.8824 9.96849 20.8324 9.95849C18.8024 9.94849 17.1524 11.5985 17.1624 13.6385C17.1624 15.8485 19.0724 17.3885 20.8124 17.2785L20.8024 17.2685Z" fill="#D9D9D9"/>
<path d="M23.4523 34.8586C21.4423 34.8586 19.4223 34.8586 17.4123 34.8586C16.7723 34.8586 16.3823 34.5186 16.3823 33.9786C16.3823 33.4386 16.7623 33.0786 17.4023 33.0786C21.4723 33.0786 25.5423 33.0786 29.6123 33.0786C30.2523 33.0786 30.6323 33.4486 30.6223 33.9886C30.6223 34.5386 30.2223 34.8586 29.5823 34.8586C27.5423 34.8586 25.5023 34.8586 23.4623 34.8586H23.4523Z" fill="#D9D9D9"/>
<path d="M12.8125 34.8586C12.5125 34.8586 12.2025 34.8586 11.9025 34.8586C11.4225 34.8386 11.0725 34.4886 11.0525 34.0186C11.0325 33.5386 11.3325 33.1386 11.8225 33.1086C12.4825 33.0686 13.1525 33.0686 13.8125 33.1086C14.3225 33.1386 14.6325 33.5486 14.6025 34.0386C14.5725 34.5086 14.2225 34.8486 13.7325 34.8686C13.4325 34.8686 13.1225 34.8686 12.8225 34.8686L12.8125 34.8586Z" fill="#D9D9D9"/>
<path d="M27.9422 20.6388C30.4422 20.6588 32.4122 22.6588 32.3722 25.1388C32.3322 27.5788 30.3222 29.5488 27.9022 29.5188C25.4722 29.4888 23.4922 27.4688 23.5022 25.0488C23.5122 22.6188 25.5322 20.6188 27.9422 20.6388ZM27.0122 25.6188C26.8222 25.3888 26.6622 25.1988 26.4922 25.0188C26.3122 24.8288 26.1222 24.6388 25.9322 24.4588C25.5222 24.0888 25.0222 24.0888 24.6622 24.4488C24.3022 24.7988 24.3022 25.3588 24.6922 25.7488C25.2522 26.3288 25.8222 26.8988 26.4022 27.4588C26.8122 27.8588 27.2822 27.8788 27.7022 27.4688C28.8922 26.2988 30.0722 25.1188 31.2422 23.9288C31.5622 23.6088 31.5922 23.2088 31.3922 22.8588C31.0922 22.3288 30.4022 22.2488 29.9322 22.7088C28.9822 23.6488 28.0422 24.5888 27.0222 25.6188H27.0122Z" fill="#0D504D"/>
<path d="M27.0123 25.6185C28.0423 24.5985 28.9723 23.6485 29.9223 22.7085C30.3923 22.2485 31.0723 22.3285 31.3823 22.8585C31.5823 23.2085 31.5523 23.6085 31.2323 23.9285C30.0623 25.1185 28.8823 26.2985 27.6923 27.4685C27.2823 27.8685 26.8123 27.8585 26.3923 27.4585C25.8123 26.8985 25.2423 26.3285 24.6823 25.7485C24.2923 25.3485 24.2923 24.7985 24.6523 24.4485C25.0123 24.0885 25.5123 24.0985 25.9223 24.4585C26.1223 24.6385 26.3023 24.8285 26.4823 25.0185C26.6523 25.1985 26.8123 25.3985 27.0023 25.6185H27.0123Z" fill="#D9D9D9"/>
</svg>
