<svg width="26" height="25" viewBox="0 0 26 25" fill="none" xmlns="http://www.w3.org/2000/svg">
<path d="M0.866675 9.53297C1.70477 9.41812 2.46667 9.30326 3.22858 9.18841C4.6381 8.9587 6.08572 8.76727 7.49525 8.57585C7.99048 8.49928 8.48572 8.42271 8.98096 8.34614C9.17144 8.34614 9.28572 8.23129 9.40001 8.00158C9.85715 6.9296 10.3524 5.89591 10.8095 4.82394C11.1524 4.05824 11.4952 3.29254 11.8762 2.52684C12.2572 1.72286 12.6381 0.957166 13.0572 0.0383301C13.1333 0.153185 13.1714 0.268039 13.2095 0.344609C13.4762 0.918881 13.7048 1.45487 13.9714 2.02914C14.6191 3.44568 15.2286 4.86222 15.8762 6.24047C16.1429 6.85303 16.4476 7.46559 16.7524 8.07815C16.8286 8.193 16.981 8.30786 17.0952 8.34614C18.7333 8.61413 20.3714 8.84384 22.0095 9.07355C23.0381 9.22669 24.0286 9.37983 25.0572 9.53297C25.0952 9.53297 25.1333 9.53297 25.2476 9.57126C24.9429 9.91582 24.6762 10.1838 24.3714 10.4901C23.4572 11.4472 22.5429 12.366 21.6286 13.2849C20.8286 14.0889 20.0286 14.9311 19.1905 15.6968C18.9619 15.8883 19 16.118 19.0381 16.386C19.1905 17.2282 19.3048 18.0322 19.4572 18.8745C19.5333 19.4105 19.6095 19.9847 19.6857 20.5207C19.8762 21.7076 20.0667 22.8944 20.2572 24.0812C20.2952 24.3492 20.4095 24.6172 20.4857 25C20.1429 24.8086 19.9143 24.6938 19.6476 24.5406C18.2381 23.6984 16.8667 22.8944 15.4572 22.0521C14.6952 21.5927 13.9333 21.1333 13.1333 20.7121C13.0572 20.6739 12.9048 20.6356 12.8286 20.7121C11.6476 21.363 10.5048 22.0521 9.32382 22.7412C8.06668 23.4687 6.77144 24.1961 5.4381 24.9618C5.51429 24.3875 5.55239 23.8898 5.62858 23.3921C5.85715 21.9755 6.04763 20.5973 6.2762 19.1807C6.42858 18.3002 6.54287 17.3814 6.73334 16.5008C6.84763 16.0031 6.69525 15.7351 6.39048 15.4288C5.70477 14.778 5.05715 14.0889 4.40953 13.3997C3.53334 12.4809 2.65715 11.6004 1.78096 10.6815C1.4381 10.337 1.13334 9.9541 0.714294 9.53297H0.866675Z" fill="#FDB10B"/>
</svg>
