<svg width="25" height="25" viewBox="0 0 25 25" fill="none" xmlns="http://www.w3.org/2000/svg">
<path d="M0.333346 9.53297C1.17144 9.41812 1.93335 9.30326 2.69525 9.18841C4.10478 8.9587 5.5524 8.76727 6.96192 8.57585C7.45716 8.49928 7.9524 8.42271 8.44764 8.34614C8.63811 8.34614 8.7524 8.23129 8.86669 8.00158C9.32383 6.9296 9.81906 5.89591 10.2762 4.82394C10.6191 4.05824 10.9619 3.29254 11.3429 2.52684C11.7238 1.72286 12.1048 0.957166 12.5238 0.0383301C12.6 0.153185 12.6381 0.268039 12.6762 0.344609C12.9429 0.918881 13.1714 1.45487 13.4381 2.02914C14.0857 3.44568 14.6953 4.86222 15.3429 6.24047C15.6095 6.85303 15.9143 7.46559 16.2191 8.07815C16.2953 8.193 16.4476 8.30786 16.5619 8.34614C18.2 8.61413 19.8381 8.84384 21.4762 9.07355C22.5048 9.22669 23.4953 9.37983 24.5238 9.53297C24.5619 9.53297 24.6 9.53297 24.7143 9.57126C24.4095 9.91582 24.1429 10.1838 23.8381 10.4901C22.9238 11.4472 22.0095 12.366 21.0953 13.2849C20.2953 14.0889 19.4953 14.9311 18.6572 15.6968C18.4286 15.8883 18.4667 16.118 18.5048 16.386C18.6572 17.2282 18.7714 18.0322 18.9238 18.8745C19 19.4105 19.0762 19.9847 19.1524 20.5207C19.3429 21.7075 19.5333 22.8944 19.7238 24.0812C19.7619 24.3492 19.8762 24.6172 19.9524 25C19.6095 24.8086 19.381 24.6938 19.1143 24.5406C17.7048 23.6984 16.3333 22.8944 14.9238 22.0521C14.1619 21.5927 13.4 21.1333 12.6 20.7121C12.5238 20.6739 12.3714 20.6356 12.2953 20.7121C11.1143 21.363 9.97145 22.0521 8.79049 22.7412C7.53335 23.4687 6.23811 24.1961 4.90478 24.9618C4.98097 24.3875 5.01906 23.8898 5.09525 23.3921C5.32382 21.9755 5.5143 20.5973 5.74287 19.1808C5.89525 18.3002 6.00954 17.3814 6.20002 16.5008C6.3143 16.0031 6.16192 15.7351 5.85716 15.4288C5.17144 14.778 4.52382 14.0889 3.8762 13.3997C3.00001 12.4809 2.12383 11.6004 1.24764 10.6815C0.904781 10.337 0.600017 9.9541 0.180969 9.53297H0.333346Z" fill="#D9D9D9"/>
</svg>
