<svg width="45" height="43" viewBox="0 0 45 43" fill="none" xmlns="http://www.w3.org/2000/svg">
<path d="M44.9166 21.4695C44.8725 27.0648 42.9312 31.9551 38.8941 36.1626C35.3865 39.8194 31.0405 41.824 25.9446 42.617C24.8636 42.7932 23.7826 43.0135 22.7017 42.9915C16.8335 42.8153 11.539 41.1191 7.30339 37.264C2.71479 33.1006 0.244009 27.99 0.155767 21.9321C0.0675244 15.742 2.25152 10.4331 6.95042 5.98331C11.0978 2.0622 16.1276 0.211794 21.9737 0.0135354C27.577 -0.162694 32.6068 1.37931 36.8204 4.79376C41.2325 8.36241 43.9901 12.9003 44.7181 18.3855C44.7843 18.8921 44.8725 19.3988 44.8946 19.9275C44.9166 20.4341 44.8946 20.9628 44.8946 21.4695H44.9166ZM26.7167 17.4382C26.7167 17.4382 26.9152 17.5704 27.0035 17.6365C26.9152 17.9008 26.8932 18.2092 26.7387 18.4295C26.452 18.782 26.099 19.0904 25.746 19.4208C23.7826 21.2272 21.7972 23.0115 19.8558 24.8399C19.0396 25.6109 19.0396 26.3158 19.9 26.8885C22.3046 28.5187 24.7092 30.1488 27.1799 31.6467C28.8786 32.6821 30.0037 32.1534 30.3567 30.303C31.0626 26.5581 31.7465 22.8132 32.4083 19.0683C32.673 17.4823 32.8936 15.8742 33.026 14.2661C33.1363 13.0765 32.4524 12.6139 31.217 12.8563C30.7096 12.9664 30.2022 13.0986 29.739 13.2968C23.9591 15.5878 18.2013 17.9008 12.4435 20.2138C11.517 20.5883 10.5904 20.9188 9.70799 21.3593C9.33296 21.5576 8.82557 21.9761 8.82557 22.2845C8.82557 22.5709 9.37708 22.9674 9.77417 23.1216C10.7669 23.4961 11.8699 23.6283 12.8185 24.0468C14.1863 24.6857 15.3334 24.6196 16.6129 23.8045C19.547 21.9101 22.5472 20.1037 25.5033 18.2753C25.9225 18.011 26.3196 17.7026 26.7167 17.4162V17.4382Z" fill="#0D504D"/>
</svg>
