<svg width="45" height="43" viewBox="0 0 45 43" fill="none" xmlns="http://www.w3.org/2000/svg">
<path d="M21.3041 0C28.1922 0 33.2199 1.65131 37.3617 5.19611C41.5256 8.76293 44.1169 13.1884 44.8035 18.5166C45.5344 24.2852 44.2498 29.5694 40.551 34.3251C36.9187 38.9928 32.0018 41.745 25.8667 42.6257C24.9586 42.7578 24.0505 43 23.1424 43C17.5167 42.978 12.3783 41.4588 8.10367 38.002C3.03169 33.8848 0.285287 28.6446 0.0195068 22.3697C-0.201977 16.8874 1.45915 11.9775 5.18008 7.66206C9.65405 2.532 15.4791 0.110087 21.3041 0ZM33.9951 14.1572C32.6884 14.1572 31.4924 14.1352 30.3185 14.1572C30.097 14.1572 29.8312 14.4214 29.6983 14.6196C29.2554 15.3461 28.9231 16.1388 28.458 16.8433C27.3728 18.4066 26.1103 19.7936 23.8512 20.1239V14.2232H19.6651V24.7696C14.8811 22.4578 14.0837 18.4726 13.7958 14.2232H9.43257C9.54331 17.702 10.2964 20.8945 12.1125 23.9549C14.3274 27.6979 19.9752 29.7675 23.8955 29.151V23.7788C26.819 24.5934 28.9453 26.0466 30.1413 28.5786C30.2742 28.8428 30.5843 29.2391 30.8279 29.2391C32.179 29.3052 33.53 29.2611 35.0139 29.2611C33.8179 25.9805 31.891 23.3825 28.5466 21.6651C31.5366 19.8377 33.2421 17.3497 33.9951 14.1352V14.1572Z" fill="#0D504D"/>
</svg>
