<svg width="59" height="58" viewBox="0 0 59 58" fill="none" xmlns="http://www.w3.org/2000/svg">
<path d="M0 42.8242C0.189662 42.1819 0.318143 41.509 0.581224 40.8974C1.99451 37.6248 4.47236 35.7959 8.05759 35.5757C9.28122 35.5023 10.511 35.5206 11.7346 35.5696C12.2913 35.5879 12.5055 35.3922 12.6829 34.8845C13.3743 32.872 14.0595 30.8596 14.8426 28.8839C16.3599 25.0364 20.1165 22.4795 24.2584 22.4489C27.5072 22.4245 30.7498 22.4489 33.9985 22.4489C34.2004 22.4489 34.3962 22.4489 34.6899 22.4489C34.543 22.2165 34.4451 22.0636 34.3473 21.9106C32.781 19.5557 31.1903 17.219 29.6485 14.8457C26.2346 9.60353 28.4616 2.67926 34.2188 0.575058C39.8046 -1.46797 45.8677 2.18379 46.6814 8.07432C47.0302 10.5883 46.5101 12.9005 45.0907 15.0108C43.5673 17.2802 42.0561 19.5618 40.5388 21.8372C40.4287 22.0085 40.3186 22.1798 40.1717 22.4183C40.4348 22.4306 40.6306 22.4489 40.8264 22.4489C43.3165 22.4489 45.8127 22.4612 48.3027 22.4489C49.8017 22.4428 51.0559 22.9444 52.0899 24.0454C52.2428 24.2106 52.5365 24.3207 52.769 24.3207C54.4882 24.3451 56.2013 24.3329 57.9939 24.3329C57.9939 25.3728 58.0306 26.3882 57.9694 27.3975C57.951 27.6788 57.6635 27.948 57.4922 28.211C57.1129 28.7921 56.7213 29.3732 56.3053 29.9971C56.5622 30.3703 56.8253 30.7495 57.0945 31.1349C57.7063 32.0096 58.0122 32.9699 58.0122 34.0465C58 39.1785 58.0122 44.3167 58.0061 49.4487C58.0061 52.2502 55.9932 54.2994 53.1973 54.2504C52.2612 54.2321 51.6555 54.4095 51.111 55.2842C50.1994 56.7522 48.7555 57.578 47.0424 57.9022C46.9567 57.9206 46.8711 57.9695 46.7854 58.0062H44.8582C44.8154 57.9756 44.7726 57.9267 44.7236 57.9144C42.6496 57.523 41.12 56.3975 40.0677 54.5746C39.9759 54.4156 39.6945 54.281 39.4987 54.281C33.7477 54.2627 27.9966 54.2749 22.2517 54.2627C21.9091 54.2627 21.7622 54.4034 21.6093 54.6725C20.7527 56.1772 19.4924 57.1926 17.8405 57.7248C17.5224 57.8288 17.2042 57.9144 16.88 58.0062H14.9527C14.8854 57.9756 14.8243 57.9206 14.757 57.9083C12.7257 57.523 11.2084 56.4219 10.1928 54.6358C10.0276 54.3422 9.84409 54.2566 9.52595 54.2627C7.90464 54.2749 6.28333 54.2688 4.66814 54.2627C3.26709 54.2627 2.0557 53.7611 1.19916 52.6662C0.679114 52.0056 0.391561 51.1675 0 50.4152C0 47.8889 0 45.3565 0 42.8303V42.8242ZM16.8004 44.9284C16.8004 44.6837 16.8004 44.4635 16.8004 44.2433C16.8004 42.1513 16.8861 40.0471 16.7759 37.9613C16.6536 35.6185 16.9595 33.392 17.9935 31.2755C18.0913 31.0737 18.1525 30.8535 18.2321 30.6394C19.315 27.8073 21.6766 26.168 24.7173 26.168C31.6675 26.168 38.6116 26.168 45.5618 26.168C48.523 26.168 50.542 28.1804 50.542 31.1287C50.542 35.9244 50.5542 40.7138 50.5297 45.5095C50.5297 46.3414 50.5603 47.1121 51.2211 47.7176C51.3679 47.8522 51.4169 48.0908 51.5637 48.2315C51.735 48.3905 51.9614 48.5801 52.1694 48.5862C53.3196 48.6229 54.4698 48.6046 55.6262 48.5985C55.7669 48.5985 55.9076 48.5618 56.0361 48.5495V44.9834C55.6812 44.9589 55.3631 44.9528 55.0449 44.9222C53.546 44.7693 52.512 43.8763 52.3958 42.3899C52.2795 40.9646 52.2734 39.5149 52.3958 38.0958C52.5304 36.4932 53.6867 35.5757 55.3141 35.5451C55.5527 35.5451 55.7913 35.5451 56.0361 35.5451C56.1646 34.126 56.085 32.8904 55.204 31.7282C53.7357 29.7953 52.3835 27.7645 51.0008 25.7643C50.3462 24.8161 49.4958 24.3696 48.3272 24.3696C40.3981 24.388 32.469 24.3757 24.5399 24.3818C20.7405 24.3818 17.7304 26.4983 16.4211 30.0889C15.5951 32.3521 14.7753 34.6153 13.9922 36.8908C13.8331 37.3496 13.6068 37.4841 13.1479 37.4719C11.6734 37.4474 10.2051 37.4719 8.73059 37.4597C7.15211 37.4474 5.71435 37.845 4.45401 38.8176C4.30105 38.9338 4.12975 39.0256 3.96456 39.1296C4.0135 39.1908 4.06857 39.2519 4.11751 39.3131H10.6089C10.6211 39.3865 10.6395 39.4293 10.6272 39.4599C9.84409 41.8149 9.07321 44.176 8.26561 46.5249C8.21667 46.6655 7.92911 46.8001 7.75169 46.8001C6.79114 46.8246 5.82447 46.8123 4.86392 46.8123C3.90338 46.8123 2.94895 46.8123 1.95781 46.8123V48.5373C2.04346 48.5618 2.0924 48.5924 2.14747 48.5924C4.65591 48.5924 7.17046 48.6046 9.6789 48.5862C9.84409 48.5862 10.046 48.3966 10.1745 48.2437C10.6762 47.6626 11.0922 46.9836 11.6551 46.482C13.0928 45.2097 14.8181 44.7265 16.8065 44.9345L16.8004 44.9284ZM33.5825 48.5618V41.191H29.9238V39.2825H33.5825V35.643H18.7521C18.7399 35.7653 18.7215 35.8387 18.7215 35.9121C18.7215 38.9889 18.7154 42.0596 18.7338 45.1363C18.7338 45.3382 18.9295 45.6073 19.1131 45.7174C20.1409 46.3291 20.9791 47.1243 21.5665 48.1642C21.75 48.4884 21.9397 48.5985 22.3067 48.5985C25.8736 48.5862 29.4405 48.5924 33.0013 48.5862C33.1848 48.5862 33.3684 48.5679 33.5703 48.5556L33.5825 48.5618ZM35.6198 35.6246V48.5862C36.8679 48.5862 38.0916 48.5679 39.3152 48.5924C39.7312 48.5985 39.9637 48.4823 40.2023 48.1091C41.7135 45.7297 43.8732 44.6103 46.7059 44.9467C47.33 45.0201 47.9356 45.222 48.5475 45.3627V41.1787H44.9011V39.2642H48.5475V35.6246H35.6321H35.6198ZM44.8521 9.5179C44.8032 9.07137 44.7726 8.61872 44.7053 8.17219C44.0935 4.01273 39.8536 1.15004 35.7667 2.15321C30.3766 3.46833 28.5901 9.41391 31.1352 13.4877C32.9401 16.381 34.8979 19.1825 36.7945 22.0207C37.1616 22.5651 37.6816 22.5651 38.0487 22.0146C39.9025 19.2437 41.7563 16.4666 43.5979 13.6835C44.43 12.4234 44.8399 11.0349 44.8521 9.5179ZM35.6076 28.0948V33.6061H48.6025C48.6025 32.6213 48.627 31.6793 48.6025 30.7373C48.5536 29.257 47.385 28.1131 45.8983 28.1009C44.1424 28.0825 42.3865 28.0948 40.6367 28.0948C38.9787 28.0948 37.3207 28.0948 35.6137 28.0948H35.6076ZM33.6437 28.1192C33.4662 28.107 33.3745 28.0948 33.2827 28.0948C30.3032 28.0948 27.3236 28.0581 24.3441 28.1254C23.6038 28.1437 22.8451 28.4312 22.1538 28.737C21.6582 28.9573 21.2667 29.4099 20.8262 29.7586C20.8568 29.8075 20.8873 29.8564 20.9241 29.9054C22.0131 29.9054 23.1021 29.8931 24.1973 29.9054C25.427 29.9176 26.2346 30.725 26.1673 31.9423C26.1367 32.505 25.947 33.0555 25.8369 33.5999H33.6498V28.107L33.6437 28.1192ZM20.4958 51.4489C20.4958 48.8921 18.4646 46.8307 15.9255 46.8123C13.3926 46.8001 11.2513 48.9165 11.2574 51.4367C11.2574 53.9629 13.3314 56.0366 15.8643 56.0427C18.4707 56.0488 20.4958 54.0425 20.5019 51.4428L20.4958 51.4489ZM41.2302 51.4612C41.2363 54.0547 43.2675 56.061 45.8738 56.0488C48.4006 56.0366 50.4869 53.9446 50.4686 51.4306C50.4502 48.8921 48.3211 46.794 45.7882 46.8123C43.2553 46.8307 41.224 48.9043 41.2302 51.4612ZM39.2724 50.5681H22.4597V52.3175H39.2724V50.5681ZM7.89852 41.3561C7.75169 41.3133 7.66603 41.2705 7.58038 41.2705C6.01413 41.2705 4.44789 41.2521 2.88776 41.2827C2.71646 41.2827 2.46561 41.509 2.38608 41.6925C2.00063 42.5673 1.90274 43.5031 1.98228 44.4512C1.99451 44.5858 2.25148 44.7938 2.40443 44.7999C3.72595 44.8244 5.04747 44.8244 6.36287 44.7999C6.51582 44.7999 6.76667 44.6898 6.80949 44.5736C7.18882 43.5215 7.53143 42.451 7.89852 41.3561ZM2.15359 50.562C2.40443 51.5101 3.35886 52.2931 4.39894 52.3298C5.69599 52.3726 6.99916 52.3481 8.2962 52.3542C8.64494 52.3542 8.99979 52.3542 9.35464 52.3542V50.562H2.1597H2.15359ZM56.0238 40.2367C56.0238 39.4844 56.0361 38.732 56.0116 37.9796C56.0116 37.8328 55.8892 37.5943 55.773 37.5576C54.9226 37.2823 54.3046 37.7411 54.2985 38.6341C54.2924 39.7107 54.2924 40.7811 54.2985 41.8577C54.2985 42.0596 54.3352 42.2798 54.4209 42.4571C54.6901 43.0138 55.2162 42.971 55.6996 42.922C56.2135 42.8731 55.9932 42.4327 56.0116 42.1574C56.0422 41.5213 56.0238 40.879 56.0177 40.2367H56.0238ZM24.2095 31.8566C22.8146 31.8566 21.4624 31.8566 20.1042 31.8628C19.9941 31.8628 19.8289 31.9423 19.7922 32.0218C19.5781 32.5356 19.4006 33.0555 19.1865 33.6305C20.3979 33.6305 21.5297 33.6611 22.6616 33.6183C23.5426 33.5877 24.2156 32.8109 24.2034 31.8505L24.2095 31.8566ZM52.3713 50.5559V52.2808C54.1578 52.6784 55.5956 51.6997 55.8342 50.5559H52.3713ZM56.0361 26.272H53.7112C54.2006 26.9754 54.6411 27.6054 55.1428 28.3211C55.4487 27.5871 56.2135 27.1589 56.0361 26.272Z" fill="#0D504D"/>
<path d="M16.8009 44.9283C14.8125 44.7142 13.0872 45.1974 11.6494 46.4759C11.0804 46.9774 10.6705 47.6564 10.1688 48.2375C10.0403 48.3904 9.83844 48.5801 9.67325 48.5801C7.16481 48.5984 4.65025 48.5923 2.14181 48.5862C2.09287 48.5862 2.0378 48.5556 1.95215 48.5311V46.8062C2.94329 46.8062 3.89772 46.8062 4.85827 46.8062C5.81882 46.8062 6.78548 46.8184 7.74603 46.7939C7.92346 46.7939 8.21101 46.6532 8.25995 46.5187C9.06755 44.1698 9.84455 41.8148 10.6216 39.4537C10.6338 39.4231 10.6154 39.3803 10.6032 39.3069H4.11185C4.06291 39.2457 4.00784 39.1846 3.9589 39.1234C4.12409 39.0194 4.2954 38.9338 4.44835 38.8114C5.70869 37.8389 7.15257 37.4413 8.72493 37.4535C10.1994 37.4657 11.6678 37.4413 13.1422 37.4657C13.6011 37.4718 13.8275 37.3434 13.9865 36.8846C14.7697 34.6092 15.5895 32.3459 16.4154 30.0827C17.7247 26.4921 20.7348 24.3757 24.5342 24.3757C32.4633 24.3757 40.3924 24.3818 48.3216 24.3634C49.484 24.3634 50.3405 24.81 50.9952 25.7581C52.3779 27.7583 53.73 29.783 55.1984 31.722C56.0794 32.8842 56.1589 34.1198 56.0304 35.5389C55.7857 35.5389 55.5471 35.5389 55.3085 35.5389C53.6811 35.5634 52.5247 36.487 52.3901 38.0897C52.2739 39.5149 52.28 40.9585 52.3901 42.3837C52.5125 43.8701 53.5403 44.7631 55.0393 44.9161C55.3574 44.9466 55.6756 44.9589 56.0304 44.9772V48.5434C55.9019 48.5617 55.7612 48.5923 55.6205 48.5923C54.4703 48.5923 53.314 48.6106 52.1638 48.5801C51.9557 48.5801 51.7294 48.3843 51.5581 48.2253C51.4112 48.0907 51.3623 47.846 51.2154 47.7115C50.5486 47.1059 50.518 46.3352 50.5241 45.5033C50.5486 40.7077 50.5363 35.9182 50.5363 31.1226C50.5363 28.1742 48.5173 26.1618 45.5562 26.1618C38.6059 26.1618 31.6619 26.1618 24.7116 26.1618C21.6709 26.1618 19.3093 27.795 18.2264 30.6332C18.1469 30.8412 18.0857 31.0675 17.9878 31.2694C16.96 33.3858 16.654 35.6123 16.7703 37.9551C16.8804 40.047 16.7948 42.1451 16.7948 44.2371C16.7948 44.4573 16.7948 44.6775 16.7948 44.9222L16.8009 44.9283Z" fill="#FDB10B"/>
<path d="M33.5827 48.5617C33.3808 48.574 33.1973 48.5923 33.0137 48.5923C29.4469 48.5923 25.88 48.5923 22.3192 48.6045C21.9521 48.6045 21.7625 48.4944 21.5789 48.1702C20.9916 47.1304 20.1595 46.3352 19.1255 45.7235C18.942 45.6134 18.7462 45.3381 18.7462 45.1424C18.7218 42.0656 18.7279 38.995 18.734 35.9182C18.734 35.8448 18.7462 35.7714 18.7646 35.649H33.595V39.2886H29.9363V41.197H33.595V48.5678L33.5827 48.5617Z" fill="#FDB10B"/>
<path d="M35.6197 35.6245H48.5351V39.2641H44.8886V41.1786H48.5351V45.3626C47.9232 45.2219 47.3175 45.02 46.6935 44.9466C43.8608 44.6102 41.7011 45.7296 40.1899 48.109C39.9513 48.4883 39.7188 48.6045 39.3028 48.5923C38.0791 48.5678 36.8616 48.5862 35.6074 48.5862V35.6245H35.6197Z" fill="#FDB10B"/>
<path d="M44.8518 9.52395C44.8396 11.0409 44.4296 12.4356 43.5976 13.6895C41.756 16.4727 39.9022 19.2436 38.0484 22.0207C37.6813 22.5712 37.1552 22.5773 36.7942 22.0268C34.8976 19.1886 32.9459 16.3871 31.1349 13.4938C28.5898 9.41996 30.3763 3.47438 35.7663 2.15925C39.8533 1.16221 44.0931 4.01878 44.705 8.17824C44.7723 8.62477 44.8028 9.0713 44.8518 9.52395ZM37.406 15.0291C40.5324 15.0352 43.0775 12.564 43.0898 9.50559C43.102 6.28813 40.6486 3.78022 37.5651 3.69458C34.7079 3.60895 31.7284 5.84772 31.7345 9.38326C31.7345 12.9188 34.714 15.1453 37.4121 15.0352L37.406 15.0291Z" fill="#FF6A6A"/>
<path d="M35.6077 28.1008C37.3146 28.1008 38.9727 28.1008 40.6307 28.1008C42.3866 28.1008 44.1425 28.0886 45.8923 28.1069C47.379 28.1192 48.5476 29.263 48.5965 30.7433C48.6271 31.6853 48.5965 32.6273 48.5965 33.6121H35.6016V28.1008H35.6077Z" fill="#70CAF3"/>
<path d="M33.6498 28.1253V33.6182H25.8369C25.9532 33.0738 26.1367 32.5233 26.1673 31.9605C26.2346 30.7433 25.427 29.9359 24.1973 29.9236C23.1082 29.9114 22.0192 29.9236 20.9241 29.9236C20.8935 29.8747 20.8629 29.8258 20.8262 29.7768C21.2667 29.4282 21.6582 28.9755 22.1538 28.7553C22.8452 28.4495 23.6038 28.1559 24.3441 28.1436C27.3236 28.0763 30.3032 28.113 33.2827 28.113C33.3745 28.113 33.4663 28.1253 33.6437 28.1375L33.6498 28.1253Z" fill="#70CAF3"/>
<path d="M20.5023 51.455C20.5023 54.0546 18.4772 56.061 15.8648 56.0548C13.3319 56.0487 11.2639 53.9751 11.2578 51.4489C11.2578 48.9226 13.393 46.8062 15.926 46.8245C18.465 46.8368 20.4962 48.9042 20.4962 51.4611L20.5023 51.455ZM18.7342 51.5039C18.7587 49.9013 17.5044 48.5984 15.926 48.5801C14.3781 48.5617 13.0321 49.9013 13.0321 51.4489C13.0321 52.972 14.3046 54.2687 15.8158 54.2871C17.4555 54.3054 18.7097 53.1004 18.7342 51.4978V51.5039Z" fill="#D9D9D9"/>
<path d="M41.2363 51.4672C41.2302 48.9104 43.2614 46.8367 45.7944 46.8184C48.3334 46.8 50.4564 48.8981 50.4747 51.4366C50.4931 53.9506 48.4068 56.0487 45.88 56.0548C43.2676 56.0671 41.2425 54.0607 41.2363 51.4672ZM43.0045 51.4366C43.0045 53.027 44.2281 54.2871 45.7944 54.2932C47.3973 54.2993 48.6882 53.0453 48.7066 51.4672C48.7249 49.9319 47.3667 48.5739 45.8249 48.5862C44.2648 48.5984 43.0106 49.8707 43.0045 51.4427V51.4366Z" fill="#D9D9D9"/>
<path d="M39.2785 50.5741V52.3235H22.4658V50.5741H39.2785Z" fill="#C98B05"/>
<path d="M7.90443 41.3621C7.53734 42.4571 7.19472 43.5275 6.8154 44.5796C6.77257 44.6958 6.52173 44.8059 6.36877 44.8059C5.04725 44.8243 3.72573 44.8304 2.41033 44.8059C2.2635 44.8059 2.00042 44.5918 1.98818 44.4573C1.90865 43.5092 2.00042 42.5733 2.39198 41.6986C2.47151 41.5212 2.71624 41.2949 2.89367 41.2887C4.45991 41.2582 6.02616 41.2704 7.58628 41.2765C7.67194 41.2765 7.75759 41.3193 7.90443 41.3621Z" fill="#FBFCC8"/>
<path d="M2.16016 50.568H9.36733V52.3603C9.01248 52.3603 8.65762 52.3603 8.30889 52.3603C7.01184 52.3603 5.70868 52.3786 4.41163 52.3358C3.37155 52.3052 2.41712 51.5223 2.16627 50.568H2.16016Z" fill="#C98B05"/>
<path d="M56.0294 40.2367C56.0294 40.879 56.0478 41.5212 56.0172 42.1574C56.0049 42.4326 56.2252 42.8669 55.7052 42.922C55.2218 42.9709 54.6957 43.0137 54.4265 42.4571C54.3408 42.2797 54.3102 42.0595 54.3041 41.8577C54.2919 40.7811 54.2919 39.7106 54.3041 38.6341C54.3102 37.7349 54.9281 37.2761 55.7786 37.5575C55.8948 37.5942 56.0111 37.8328 56.0172 37.9796C56.0416 38.7319 56.0294 39.4843 56.0294 40.2367Z" fill="#FF6A6A"/>
<path d="M24.2093 31.8566C24.2215 32.8169 23.5485 33.5938 22.6675 33.6243C21.5417 33.661 20.4099 33.6366 19.1924 33.6366C19.4004 33.0677 19.5839 32.5417 19.7981 32.0278C19.8348 31.9422 20 31.8688 20.1101 31.8688C21.4683 31.8566 22.8204 31.8627 24.2154 31.8627L24.2093 31.8566Z" fill="#FDB10B"/>
<path d="M52.377 50.5558H55.8398C55.6073 51.6996 54.1696 52.6783 52.377 52.2807V50.5558Z" fill="#C98B05"/>
<path d="M56.0358 26.2719C56.2194 27.1588 55.4546 27.587 55.1426 28.321C54.6409 27.6054 54.2004 26.9753 53.7109 26.2719H56.0358Z" fill="#FDB10B"/>
<path d="M37.4062 15.023C34.7081 15.1392 31.7346 12.9127 31.7285 9.37102C31.7285 5.8416 34.7019 3.60283 37.5591 3.68235C40.6426 3.7741 43.1021 6.28201 43.0838 9.49336C43.0716 12.5518 40.5264 15.023 37.4 15.0169L37.4062 15.023ZM37.4062 5.66421C35.3566 5.67033 33.7108 7.30964 33.6924 9.35267C33.6741 11.3957 35.381 13.0901 37.4306 13.0778C39.5169 13.0656 41.1321 11.4141 41.1199 9.32209C41.1076 7.26682 39.468 5.65198 37.4 5.66421H37.4062Z" fill="#0D504D"/>
<path d="M18.7334 51.5039C18.7089 53.1065 17.4547 54.3115 15.815 54.2932C14.3038 54.2748 13.0312 52.9781 13.0312 51.455C13.0312 49.9013 14.3772 48.5678 15.9251 48.5862C17.5036 48.6045 18.7578 49.9074 18.7334 51.51V51.5039ZM15.8762 52.348C16.3962 52.3603 16.7817 51.9994 16.8061 51.4855C16.8245 50.9656 16.4085 50.5313 15.8945 50.5374C15.4173 50.5374 14.9891 50.9656 14.9829 51.4427C14.9768 51.9321 15.3745 52.3358 15.8762 52.348Z" fill="#0D504D"/>
<path d="M43.0039 51.4366C43.0039 49.8646 44.2643 48.5923 45.8244 48.58C47.3662 48.5678 48.7244 49.9257 48.706 51.4611C48.6877 53.0392 47.3968 54.2993 45.7938 54.2871C44.2276 54.2809 42.9978 53.0209 43.0039 51.4305V51.4366ZM46.7605 51.4488C46.7605 50.9717 46.3261 50.5436 45.8489 50.5374C45.3349 50.5313 44.925 50.9656 44.9373 51.4855C44.9556 51.9932 45.3472 52.3603 45.8611 52.348C46.3628 52.3358 46.7666 51.9382 46.7605 51.4488Z" fill="#0D504D"/>
<path d="M37.406 5.6642C39.4739 5.65809 41.1136 7.27293 41.1258 9.32208C41.1381 11.414 39.5167 13.0595 37.4366 13.0778C35.3809 13.0901 33.68 11.3957 33.6984 9.35266C33.7167 7.30964 35.3625 5.67644 37.4121 5.6642H37.406Z" fill="#D9D9D9"/>
<path d="M15.8769 52.348C15.3752 52.3358 14.9714 51.9321 14.9837 51.4427C14.9898 50.9656 15.4181 50.5436 15.8953 50.5374C16.4031 50.5374 16.8252 50.9717 16.8069 51.4856C16.7885 51.9933 16.397 52.3541 15.8769 52.348Z" fill="black"/>
<path d="M46.7554 51.4488C46.7554 51.9382 46.3577 52.3419 45.8561 52.348C45.3421 52.3602 44.9506 51.9932 44.9322 51.4855C44.9139 50.9656 45.3299 50.5313 45.8438 50.5374C46.321 50.5374 46.7493 50.9717 46.7554 51.4488Z" fill="black"/>
</svg>
