<svg width="58" height="58" viewBox="0 0 58 58" fill="none" xmlns="http://www.w3.org/2000/svg">
<g clip-path="url(#clip0_487_884)">
<path d="M3.47788 31.2779C2.40208 31.242 1.27607 31.4142 0.551701 30.4672C0.243305 30.0655 0.0711769 29.506 0.0138008 28.9894C-0.0866072 28.1214 0.329369 27.3825 1.11829 27.0669C1.82832 26.7799 2.63875 26.7441 3.48505 26.5862C3.67152 25.546 3.84365 24.3911 4.09467 23.2576C6.23193 13.6017 14.2789 5.85401 24.0185 4.06774C24.7285 3.93861 25.4457 3.84535 26.1558 3.75209C26.5789 3.6947 26.8084 3.52253 26.751 3.05624C26.7152 2.76929 26.7439 2.46799 26.751 2.17386C26.7797 0.954321 27.7049 0.0217294 28.8955 0.000208046C30.1649 -0.0284871 31.0973 0.832366 31.1762 2.08778C31.2431 3.16863 31.8121 3.78318 32.8831 3.93144C42.4936 5.26576 51.0856 13.0637 53.3879 22.5761C53.6819 23.7813 53.8756 25.008 54.0549 26.2275C54.1194 26.6508 54.2915 26.7512 54.6645 26.7441C55.1163 26.7297 55.5753 26.701 56.02 26.7656C57.1818 26.9306 58.0568 27.9779 57.9923 29.0755C57.9277 30.2305 57.0169 31.1272 55.7761 31.2492C55.6614 31.2564 55.5466 31.2492 55.439 31.2492C54.1194 31.2635 54.1553 31.2707 53.9473 32.5261C52.3121 42.3614 46.8255 49.1334 37.5879 52.7849C35.7447 53.5094 33.7079 53.7533 31.7571 54.1838C31.3841 54.2698 31.1833 54.3918 31.1905 54.7864C31.1905 55.1737 31.1905 55.554 31.169 55.9413C31.0901 57.1465 30.129 58.0146 28.9098 57.993C27.7264 57.9715 26.7869 57.0246 26.751 55.8266C26.708 54.3703 26.708 54.3631 25.4314 54.1766C20.7265 53.4807 16.4736 51.716 12.8015 48.6743C7.63764 44.3987 4.56085 38.9395 3.66435 32.275C3.65718 32.2105 3.65001 32.1387 3.63566 32.0742C3.59263 31.8303 3.54243 31.5864 3.47788 31.2707V31.2779ZM49.6226 26.7441C49.4863 25.9191 49.4074 25.1873 49.2496 24.47C47.5212 16.3779 40.8942 9.96459 32.7253 8.45092C31.7643 8.27397 31.2431 8.67809 31.1618 9.66329C31.0686 10.8111 30.0573 11.7437 28.9385 11.7078C27.7623 11.6719 26.7869 10.7107 26.751 9.54133C26.7439 9.24721 26.7367 8.95308 26.751 8.65896C26.7654 8.30744 26.6004 8.15679 26.2562 8.21418C26.0769 8.24288 25.9047 8.28592 25.7254 8.31462C17.4059 9.52699 10.528 15.7682 8.5198 23.9463C8.30464 24.8287 8.18271 25.7397 7.99624 26.7441C8.57717 26.7441 9.00032 26.7297 9.42347 26.7441C10.5782 26.7799 11.5105 27.5977 11.6181 28.6595C11.7472 29.9579 11.1232 30.8977 9.87531 31.1559C9.30872 31.2707 8.72061 31.2635 8.05362 31.3209C8.12534 31.859 8.16837 32.3683 8.26878 32.8633C10.1263 41.9453 16.9756 48.4089 26.1414 49.7504C26.5932 49.8149 26.7869 49.7073 26.7582 49.241C26.7439 49.0617 26.7582 48.8823 26.7582 48.6958C26.7654 47.3041 27.6906 46.2926 28.96 46.2783C30.2366 46.2639 31.1546 47.2467 31.1977 48.66C31.2048 49.0043 31.2407 49.3558 31.2622 49.7001C42.0346 48.6886 49.2783 38.9969 49.4935 31.2492C49.2209 31.2492 48.9556 31.2564 48.683 31.2492C47.2558 31.2061 46.2804 30.252 46.3019 28.9321C46.3234 27.6551 47.3203 26.7512 48.7261 26.7369C48.9914 26.7369 49.2568 26.7369 49.6441 26.7369L49.6226 26.7441Z" fill="#0D504D"/>
<path d="M12.9092 28.652C12.9307 27.8342 13.5475 26.9734 14.6878 26.4712C19.2923 24.441 23.8967 22.4109 28.5083 20.3807C31.707 18.9674 34.9129 17.5614 38.1116 16.141C39.0081 15.7464 39.8831 15.646 40.7796 16.1123C42.1566 16.8297 42.673 18.3577 42.006 19.8929C40.7509 22.7911 39.4671 25.6821 38.1905 28.5731C36.0245 33.4872 33.8514 38.4012 31.6927 43.3224C31.3054 44.1976 30.7316 44.8504 29.7849 45.1087C28.1497 45.5535 26.7009 44.6854 26.2276 42.9566C25.6251 40.7829 25.0084 38.6092 24.4633 36.4212C24.0903 34.9291 23.244 34.0395 21.7379 33.6665C19.4859 33.107 17.2482 32.4685 15.0177 31.83C13.6622 31.4426 12.9164 30.4311 12.9092 28.6592V28.652ZM29.2972 37.0812C29.3689 37.0812 29.4406 37.0812 29.5124 37.0884C31.707 32.1098 33.8945 27.1384 36.0891 22.1598C36.0389 22.1167 35.9887 22.0737 35.9313 22.0235C30.9539 24.2186 25.9694 26.4138 20.992 28.609C20.992 28.6736 20.992 28.731 20.992 28.7955C23.0289 29.3622 25.1231 29.7711 26.7153 31.3566C28.3146 32.9491 28.7378 35.0367 29.3044 37.0812H29.2972Z" fill="#0D504D"/>
<path d="M29.2977 37.0812C28.7383 35.0367 28.3151 32.9491 26.7086 31.3565C25.1164 29.7783 23.0222 29.3622 20.9854 28.7955C20.9854 28.7309 20.9854 28.6735 20.9854 28.609C25.9627 26.4138 30.9473 24.2186 35.9246 22.0234C35.9748 22.0665 36.025 22.1095 36.0824 22.1597C33.8878 27.1383 31.7003 32.1098 29.5057 37.0884C29.434 37.0884 29.3623 37.0884 29.2905 37.0812H29.2977Z" fill="#FDB10B"/>
</g>
<defs>
<clipPath id="clip0_487_884">
<rect width="58" height="58" fill="white"/>
</clipPath>
</defs>
</svg>
