<svg width="90" height="89" viewBox="0 0 90 89" fill="none" xmlns="http://www.w3.org/2000/svg">
<g clip-path="url(#clip0_1012_1353)">
<path d="M55.3229 42.7801C69.1938 43.9267 80.7394 56.5394 79.5768 71.1684C79.8976 71.1684 80.1782 71.208 80.4588 71.208C82.6637 71.208 84.8285 71.208 87.0334 71.208C88.7572 71.208 90.0401 72.5127 90.0401 74.2128C90.0401 75.8339 88.7171 77.2968 87.0735 77.0991C84.9087 76.8224 83.8664 77.6922 83.1849 79.59C82.6236 81.132 81.7417 82.5949 80.9399 84.0578C79.1759 87.2999 76.4499 89.0001 72.6815 89.0001C54.2806 89.0001 35.8797 89.0001 17.4788 89.0001C13.6303 89.0001 10.8641 87.2604 9.10022 83.9392C8.05791 81.9623 7.05568 79.9459 6.05345 77.9294C5.77283 77.3759 5.49221 77.0991 4.85078 77.1782C4.24944 77.2573 3.64811 77.1782 3.08686 77.1782C1.32294 77.1387 0 75.8339 0 74.1733C0 72.5127 1.32294 71.2475 3.04677 71.208C5.49221 71.208 7.89755 71.208 10.5033 71.208C10.1425 64.0516 12.0267 57.6464 16.7171 52.1506C21.3675 46.6944 27.3808 43.65 34.7171 42.7801C34.7171 41.7126 34.7171 40.6451 34.7171 39.538C34.7171 37.6007 35.3586 35.9005 36.6815 34.4772C38.0045 33.0538 39.608 32.184 41.6125 32.1049C43.9376 32.0258 46.2227 31.9863 48.5479 32.1049C52.3563 32.3421 55.2829 35.5447 55.3229 39.3008C55.3229 40.4079 55.3229 41.5149 55.3229 42.7011V42.7801ZM73.7238 71.1684C73.4833 68.9148 73.4833 66.7402 73.0022 64.6842C70.7973 54.9974 62.5791 48.6318 52.5167 48.6318C47.4254 48.6318 42.3341 48.6318 37.2428 48.6318C28.6236 48.6318 20.9666 53.8112 17.8797 61.7584C16.7171 64.8028 16.3563 67.9263 16.5568 71.1684H73.7238ZM12.4677 77.1387C13.1091 78.4039 13.7506 79.5505 14.2717 80.7366C14.9933 82.3972 16.2361 83.0298 18.0401 83.0298C29.8664 83.0298 41.7327 83.0298 53.559 83.0298C59.853 83.0298 66.1069 83.0298 72.4009 83.0298C73.5234 83.0298 74.6058 82.7926 75.2071 81.8437C76.1292 80.3412 76.8508 78.7993 77.7327 77.1387H12.4276H12.4677ZM40.7706 42.622H49.2695C49.2695 41.5545 49.3096 40.5265 49.2695 39.538C49.2294 38.51 48.6682 38.0751 47.6258 38.0751C45.8619 38.0751 44.1381 38.0751 42.3742 38.0751C41.412 38.0751 40.8508 38.51 40.7706 39.4194C40.6904 40.4869 40.7706 41.5545 40.7706 42.6615V42.622Z" fill="#0D504D"/>
<path d="M26.0178 0C27.4209 0.19769 28.4632 0.909373 28.9443 2.09551C29.3853 3.24211 29.0646 4.54687 28.1024 5.37717C26.8196 6.44469 25.4967 7.51222 24.2138 8.5402C22.8508 9.68681 22.8107 10.5962 24.1336 11.8614C27.8619 15.3803 27.7016 20.5598 23.7327 23.8019C22.8107 24.5531 21.8485 25.3438 20.8864 26.0951C19.4432 27.2021 17.6392 27.0835 16.5167 25.7788C15.3942 24.4345 15.5947 22.6157 17.0379 21.4296C17.9599 20.6784 18.882 19.9667 19.804 19.2155C20.9666 18.227 21.0067 17.199 19.8842 16.171C15.9154 12.4545 16.1158 7.35406 20.3653 3.91426C21.608 2.92581 22.8107 1.89782 24.0935 0.948912C24.6548 0.513994 25.3764 0.316304 26.0579 0L26.0178 0Z" fill="#0D504D"/>
<path d="M48.5478 0C49.951 0.19769 50.9933 0.909373 51.4743 2.09551C51.9153 3.24211 51.5946 4.54687 50.6325 5.37717C49.3496 6.44469 48.0267 7.51222 46.7438 8.5402C45.3808 9.68681 45.3407 10.5962 46.6637 11.8614C50.3919 15.3803 50.2316 20.5598 46.2628 23.8019C45.3407 24.5531 44.3786 25.3438 43.4164 26.0951C41.9732 27.2021 40.1692 27.0835 39.0467 25.7788C37.9242 24.4345 38.1247 22.6157 39.5679 21.4296C40.4899 20.6784 41.412 19.9667 42.334 19.2155C43.4966 18.227 43.5367 17.199 42.4142 16.171C38.4454 12.4545 38.6458 7.35406 42.8953 3.91426C44.138 2.92581 45.3407 1.89782 46.6236 0.948912C47.1848 0.513994 47.9064 0.316304 48.5879 0L48.5478 0Z" fill="#0D504D"/>
<path d="M71.0378 0C72.4409 0.158152 73.4832 0.869836 73.9643 2.05598C74.4053 3.20258 74.1247 4.50733 73.1625 5.33763C71.8797 6.44469 70.5567 7.47268 69.2739 8.5402C67.8708 9.68681 67.8307 10.6357 69.1135 11.8219C72.922 15.4198 72.7215 20.5993 68.6325 23.8809C67.7505 24.5926 66.8285 25.3438 65.9465 26.0555C64.4632 27.2021 62.6191 27.0835 61.5367 25.7392C60.4543 24.3554 60.6948 22.6157 62.138 21.4296C63.0601 20.6784 63.9821 19.9667 64.9042 19.2155C66.0267 18.2665 66.0267 17.2386 64.9843 16.2106C60.9353 12.3754 61.1759 7.35406 65.5456 3.83518C66.7483 2.84673 67.9509 1.85829 69.1937 0.909374C69.755 0.513994 70.4365 0.316304 71.0779 0L71.0378 0Z" fill="#0D504D"/>
<path d="M48.628 52.9414C51.2338 53.1391 53.8396 53.2577 56.4454 53.4949C57.8084 53.6135 58.971 54.2066 59.4521 55.63C60.1737 57.765 58.2895 60.0187 56.0445 59.4652C53.7193 58.9116 51.3942 58.9907 49.069 58.9907C47.1046 58.9907 45.1403 58.9907 43.1759 58.9907C41.4521 58.9907 40.1292 57.686 40.1292 56.0254C40.1292 54.3648 41.4521 53.0995 43.1759 53.06C44.9799 53.06 46.7839 53.06 48.5879 53.06C48.5879 53.0205 48.5879 52.9414 48.5879 52.9019L48.628 52.9414Z" fill="#0D504D"/>
<path d="M63.7818 58.437C64.4633 58.8324 65.3453 59.0696 65.7863 59.6232C66.588 60.6116 67.2696 61.7582 67.7907 62.9443C68.392 64.2491 67.5502 65.8702 66.2272 66.5028C64.8642 67.1354 63.2606 66.74 62.4188 65.4748C61.8976 64.6445 61.3765 63.8142 60.9355 62.9048C59.8932 60.8884 61.3765 58.5952 63.7818 58.437Z" fill="#0D504D"/>
</g>
<defs>
<clipPath id="clip0_1012_1353">
<rect width="90" height="89" fill="white"/>
</clipPath>
</defs>
</svg>
