<svg width="58" height="59" viewBox="0 0 58 59" fill="none" xmlns="http://www.w3.org/2000/svg">
<g clip-path="url(#clip0_478_1002)">
<path d="M29.9546 58.9999H28.1481C28.104 58.97 28.06 58.9252 28.0086 58.9177C26.4811 58.7086 25.218 57.969 24.0503 56.9829C21.7224 55.0108 19.3651 53.0685 17.0298 51.1039C16.4203 50.5884 15.7594 50.3494 14.9589 50.3643C12.418 50.3942 9.86979 50.3942 7.3289 50.3643C3.33396 50.327 0.110107 46.9952 0.110107 42.9314C0.110107 31.121 0.110107 19.318 0.110107 7.50751C0.110107 3.42875 3.35599 0.104492 7.35093 0.104492C21.8179 0.104492 36.2922 0.104492 50.7591 0.104492C53.7994 0.104492 56.5165 2.04676 57.5593 4.97509C57.7282 5.45319 57.8604 5.94622 58.0073 6.43179V43.9324C57.9779 43.9997 57.9265 44.0669 57.9118 44.1341C57.1554 47.9589 54.2767 50.3568 50.436 50.3643C47.9906 50.3643 45.5378 50.3792 43.0924 50.3568C42.336 50.3494 41.7044 50.5809 41.1316 51.0665C39.1342 52.7548 37.1293 54.4356 35.1099 56.1015C34.0303 56.9904 33.0316 57.9989 31.6804 58.4919C31.1223 58.6936 30.5348 58.8356 29.962 58.9999H29.9546ZM29.0807 5.03485C21.9427 5.03485 14.7974 5.03485 7.65936 5.03485C5.93361 5.03485 4.9569 6.02093 4.9569 7.76149C4.9569 19.4001 4.9569 31.0313 4.9569 42.6699C4.9569 44.403 5.96298 45.4265 7.65202 45.4265C10.1195 45.4265 12.5869 45.4489 15.0544 45.4265C16.9417 45.4041 18.5867 46.0166 20.0407 47.2417C22.4935 49.3035 24.961 51.3504 27.4211 53.4047C28.5226 54.3235 29.5801 54.331 30.6816 53.4047C33.1638 51.3429 35.6386 49.2736 38.1061 47.2044C39.5234 46.0166 41.139 45.4115 42.9896 45.4265C45.457 45.4489 47.9245 45.3966 50.3919 45.4414C51.9561 45.4713 53.1678 44.3508 53.1605 42.6177C53.1238 31.0238 53.1238 19.4225 53.1605 7.82873C53.1605 6.23009 52.0296 5.00497 50.3846 5.01991C43.2833 5.07221 36.182 5.04232 29.0734 5.04232L29.0807 5.03485Z" fill="#0D504D"/>
<path d="M29.1102 14.8213C32.2754 14.8213 35.4405 14.8213 38.6056 14.8213C40.0449 14.8213 41.1318 15.8746 41.1391 17.2641C41.1465 18.6311 40.0449 19.7517 38.6349 19.7517C32.246 19.7591 25.8644 19.7591 19.4754 19.7517C18.0581 19.7517 16.9639 18.6311 16.9712 17.2566C16.9786 15.8671 18.0654 14.8213 19.5048 14.8213C22.7066 14.8213 25.9084 14.8213 29.1102 14.8213Z" fill="black"/>
<path d="M29.0807 29.5527C32.2458 29.5527 35.4109 29.5527 38.576 29.5527C40.03 29.5527 41.1095 30.5687 41.1389 31.9656C41.1683 33.3551 40.0521 34.4831 38.6054 34.4831C32.2384 34.4906 25.8715 34.4906 19.5046 34.4831C18.0579 34.4831 16.9417 33.3476 16.971 31.9582C17.0004 30.5687 18.0799 29.5527 19.534 29.5527C22.7137 29.5527 25.9009 29.5527 29.0807 29.5527Z" fill="black"/>
</g>
<defs>
<clipPath id="clip0_478_1002">
<rect width="58" height="59" fill="white"/>
</clipPath>
</defs>
</svg>
