<svg width="90" height="88" viewBox="0 0 90 88" fill="none" xmlns="http://www.w3.org/2000/svg">
<g clip-path="url(#clip0_119_216)">
<path d="M39.1553 60.3969C36.1854 59.3995 33.5481 58.7277 31.1009 57.6692C22.3575 53.8626 16.9166 47.7557 14.707 39.5725C14.4932 38.7786 14.1843 38.3715 13.1152 38.1883C5.51221 36.8448 0.0475801 31.0229 6.16154e-05 24.3664C-0.0236976 19.1959 6.16154e-05 14.0458 6.16154e-05 8.87532C6.16154e-05 7.0229 0.902913 6.22901 3.04124 6.22901C6.60513 6.20865 10.169 6.22901 13.9705 6.22901C13.9705 5.04835 13.9705 3.96947 13.9705 2.89058C14.018 0.834606 14.9446 0 17.3205 0C35.7577 0 54.1711 0 72.6083 0C75.008 0 75.9583 0.834606 75.9821 2.84987C75.9821 3.92875 75.9821 5.00763 75.9821 6.22901C79.4985 6.22901 82.8723 6.22901 86.2223 6.22901C89.1685 6.22901 90.0001 6.90076 89.9763 9.38422C89.9525 14.799 90.1426 20.2341 89.7625 25.6489C89.311 31.9593 83.8227 36.9873 76.5523 38.2494C75.792 38.3919 75.4832 38.5954 75.2931 39.2875C72.2519 50.0356 64.5539 56.9567 52.0328 59.8473C51.7477 59.9084 51.4626 60.0305 50.9399 60.2137C52.508 62.9211 53.981 65.6081 55.5967 68.1934C56.9985 70.4326 58.5666 72.57 60.0872 74.7481C60.301 75.0738 60.6336 75.4402 61.0138 75.5623C65.528 76.8651 68.3316 79.5318 69.6621 83.4809C70.7076 83.4809 71.7292 83.4606 72.7271 83.4809C74.3665 83.542 75.5307 84.4784 75.5544 85.7404C75.5544 86.9211 74.4853 87.8779 72.9172 88.0204C72.4657 88.0611 71.9906 88.0407 71.5391 88.0407C53.8147 88.0407 36.1141 88.0407 18.3897 88.0407C17.8195 88.0407 17.273 88.0407 16.7028 87.9796C15.2535 87.7964 14.3744 86.9618 14.3744 85.7812C14.3744 84.6412 15.3485 83.3995 16.6315 83.5623C19.5539 83.9287 20.6706 82.687 21.6922 80.57C22.8327 78.1883 25.3036 76.7634 28.1072 75.7863C28.7963 75.542 29.5328 75.0941 29.8892 74.5445C33.0016 69.8422 36.0428 65.1196 39.084 60.4173L39.1553 60.3969ZM19.2926 4.68193C19.2926 5.27226 19.2926 5.74046 19.2926 6.20865C19.2926 15.2265 19.2926 24.2239 19.2926 33.2417C19.2926 34.4631 19.3876 35.6845 19.5539 36.9058C21.2883 49.5674 36.1854 58.4631 50.631 55.4911C62.6294 53.0076 70.6125 44.4173 70.6838 33.7099C70.7551 24.4275 70.6838 15.1654 70.6838 5.88295C70.6838 5.49618 70.6363 5.12977 70.5888 4.68193H19.2926ZM76.0534 33.5878C76.4335 33.5471 76.7424 33.5471 77.0275 33.4656C81.2804 32.3053 84.5354 28.6005 84.5829 24.7735C84.6305 20.6616 84.583 16.5496 84.6067 12.458C84.6067 11.9084 84.6067 11.3588 84.6067 10.8092H76.0534V33.5878ZM13.8042 33.6285V10.8092H5.29837C5.29837 15.5725 5.22709 20.2341 5.32213 24.8957C5.36965 26.8092 6.1537 28.5598 7.53174 30.0865C9.12361 31.8371 11.0956 33.1196 13.7804 33.6285H13.8042ZM63.8887 83.3791C62.7957 80.8753 60.4198 79.6336 56.6896 79.6132C49.7044 79.6132 42.6954 79.6132 35.7102 79.6132C34.2846 79.6132 32.8353 79.5725 31.4335 79.7354C28.8675 80.0203 27.1331 81.2824 25.9214 83.3791H63.9124H63.8887ZM53.9335 74.972C53.791 74.687 53.6959 74.5038 53.5771 74.3206C51.0111 69.9644 48.4689 65.6081 45.8792 61.2723C45.7128 60.9873 45.2139 60.5802 44.9763 60.6209C44.5962 60.7023 44.1685 61.0483 43.9784 61.374C41.4362 65.6488 38.9415 69.9237 36.423 74.1985C36.3042 74.4224 36.1616 74.6463 35.9953 74.972H53.9098H53.9335Z" fill="#0D504D"/>
<path d="M34.332 40.4273C34.6647 38.7785 34.9973 36.926 35.4487 35.094C35.6388 34.3204 35.4487 33.7912 34.7835 33.2416C33.3579 32.122 32.0274 30.9006 30.6018 29.781C29.6039 28.9871 29.0812 28.0914 29.5564 26.9922C30.0316 25.8522 31.1721 25.5469 32.4788 25.4044C34.3558 25.2212 36.209 24.8751 38.0622 24.7326C39.0364 24.6512 39.464 24.2441 39.8204 23.552C40.6282 22.0456 41.5311 20.58 42.3627 19.0736C42.8854 18.1169 43.6932 17.5265 44.9524 17.5469C46.2117 17.5469 47.0195 18.1169 47.5659 19.0736C48.4213 20.6207 49.3716 22.1067 50.1794 23.6538C50.5358 24.3255 50.9873 24.6309 51.8664 24.7123C53.7909 24.8751 55.6916 25.1805 57.6161 25.4044C58.8991 25.5469 59.9683 25.9133 60.4197 27.094C60.8473 28.2339 60.2296 29.0278 59.3505 29.7606C58.0675 30.8192 56.8796 31.9795 55.5015 32.9362C54.4799 33.6487 54.3136 34.4222 54.5749 35.44C54.9551 37.0685 55.4065 38.697 55.5015 40.3459C55.549 41.0991 55.1214 42.1779 54.4799 42.5851C53.8384 42.9922 52.4841 43.0125 51.6763 42.7479C49.6567 42.0354 47.8035 41.0176 45.8315 40.2034C45.3801 40.0202 44.6435 40.0202 44.1921 40.2034C42.2201 41.0176 40.3194 41.954 38.3473 42.7683C36.2328 43.6436 34.2845 42.5647 34.3558 40.4273H34.332ZM40.4382 36.7225C43.4318 34.6258 46.3067 34.5851 49.3954 36.6614C47.8748 33.5062 49.0152 31.2263 52.1277 29.3942C48.2074 29.5978 45.9978 27.9896 44.9049 24.9159C43.9545 28.2136 41.5073 29.5164 37.7058 29.4349C41.0084 31.267 41.8162 33.6283 40.4382 36.7225Z" fill="#0D504D"/>
<path d="M40.4381 36.7226C41.8162 33.6285 41.0083 31.2672 37.7058 29.4351C41.531 29.5165 43.9782 28.2137 44.9049 24.916C45.9978 28.0102 48.2074 29.5979 52.1277 29.3944C49.0152 31.2264 47.8748 33.5063 49.3954 36.6616C46.3067 34.5852 43.408 34.6259 40.4381 36.7226Z" fill="#0D504D"/>
</g>
<defs>
<clipPath id="clip0_119_216">
<rect width="90" height="88" fill="white"/>
</clipPath>
</defs>
</svg>
