<svg width="91" height="89" viewBox="0 0 91 89" fill="none" xmlns="http://www.w3.org/2000/svg">
<path d="M8.67318 80.1956C5.80726 79.6318 5.11592 78.8801 4.63827 75.9485C4.32402 74.0192 4.00978 72.1024 3.65782 70.173C3.59497 69.8097 3.46927 69.3587 3.21788 69.1583C1.24441 67.6799 0.74162 65.5376 0.653631 63.2951C0.452514 58.2462 1.24441 53.4354 3.89665 49.0005C5.89525 45.6429 6.44832 41.9847 5.4176 38.1636C4.88967 36.1842 3.82123 34.6432 1.79749 33.879C0.75419 33.4781 0 32.7514 0 31.5112C0 29.8199 1.5838 28.6673 3.19274 29.231C3.40642 29.3062 3.63268 29.3814 3.79609 29.5192C5.32961 30.8346 6.81285 30.534 8.52235 29.7196C12.0419 28.0283 15.662 26.5375 19.2444 24.9589C21.7584 23.8565 23.3799 24.6457 24.0964 27.2766C24.3729 28.3165 24.662 29.3563 25.014 30.6467C25.1899 30.1707 25.2654 29.9076 25.3785 29.6695C26.2584 27.7903 27.088 25.8735 28.0433 24.0319C29.8659 20.5114 30.6075 16.8783 29.3883 12.9946C28.898 11.4285 28.1564 10.0504 26.4846 9.4115C26.0698 9.24864 25.6927 8.98554 25.3156 8.73498C24.1844 7.95824 23.8827 6.68036 24.5363 5.52777C25.1522 4.45035 26.4344 4.03692 27.6285 4.55058C27.8673 4.6508 28.1187 4.75103 28.3073 4.9139C29.602 6.04143 30.8715 5.91615 32.405 5.21457C36.1634 3.49821 40.0098 1.98231 43.8184 0.378704C46.081 -0.560908 47.7025 0.265951 48.3059 2.65883C50.2165 10.2384 53.271 17.2917 58.2235 23.418C61.1271 27.0136 64.5335 30.0454 69.1215 31.2731C71.2961 31.8494 73.6089 31.9371 75.8715 32.1877C78.021 32.4257 80.0698 32.9394 82.0433 33.8414C86.9204 36.0839 87.9134 42.0098 86.5307 45.455C86.3673 45.8684 86.3799 46.4572 86.5307 46.8707C87.5489 49.6269 88.6927 52.3455 89.6858 55.1142C90.6662 57.8453 89.5224 59.7997 86.6564 60.2006C80.9623 60.9899 75.2556 61.6915 69.5615 62.3931C67.3994 62.6561 65.2249 62.8441 63.1131 63.0571C63.2137 64.3349 63.352 65.5752 63.3645 66.803C63.3645 67.492 63.2514 68.2312 62.9874 68.8576C62.648 69.6719 62.7486 70.3359 63.088 71.1126C64.2067 73.7686 65.3129 76.4246 66.3059 79.1307C67.2109 81.5987 66.0168 83.5907 63.4022 83.954C55.3575 85.0815 47.3254 86.2717 39.2556 87.1988C27.7416 88.5268 16.1774 88.9903 4.58799 88.9903C1.86034 88.9903 0.125698 86.9482 0.804469 84.4927C1.16899 83.1898 2.02374 82.3755 3.36872 82.2126C4.41201 82.0873 5.48045 82.1124 6.54888 82.0873C7.89386 82.0497 8.40922 81.6112 8.72346 80.183L8.67318 80.1956ZM14.845 28.4919C12.0042 29.7322 9.15084 30.9599 6.29749 32.2002C4.92737 32.8016 4.67598 33.5908 5.48045 34.8437C6.75 36.8482 7.32821 39.0531 7.36592 41.4084C7.42877 44.6407 6.38548 47.5597 4.86453 50.366C3.30587 53.235 2.09916 56.2167 2.3757 59.5868C2.5014 61.0275 3.11732 62.2302 4.28631 63.1072C6.14665 64.5103 8.30866 64.8611 10.5712 64.7985C13.8142 64.6982 17.0447 64.4477 20.2877 64.5228C23.0531 64.5855 25.7933 65.1868 28.2318 66.5649C33.9134 69.7721 40.0601 70.6491 46.4581 70.2232C47.2374 70.173 48.0168 70.0102 48.8967 69.8849C46.1187 65.3622 48.067 61.4409 50.3548 57.2941C48.9469 57.4444 47.8031 57.5196 46.6844 57.6825C45.2891 57.8829 43.9064 58.2713 42.5112 58.3465C37.1439 58.6346 32.6941 56.4798 28.8352 52.9468C24.2095 48.6998 21.0796 43.4129 18.5531 37.7502C17.2081 34.7434 16.0894 31.649 14.8198 28.4794L14.845 28.4919ZM39.1173 3.9367C36.2891 5.11435 33.4483 6.29199 30.6201 7.48217C29.074 8.13363 28.8478 8.81015 29.6899 10.2133C30.595 11.7167 31.1229 13.3453 31.324 15.0868C31.7388 18.6573 30.7961 21.9021 29.1494 25.0466C28.169 26.9008 27.3771 28.8677 26.6103 30.8221C26.0196 32.3255 25.9944 33.8539 26.8617 35.3323C27.3268 36.1215 27.5782 37.0486 28.0559 37.8379C28.4078 38.4016 28.9106 38.9654 29.4888 39.2536C31.764 40.4062 34.2151 40.2182 36.6536 40.0053C40.5754 39.667 44.5098 39.692 48.3059 40.8572C50.2416 41.4585 52.0768 42.4357 53.912 43.3127C59.0531 45.7682 64.5084 46.4823 70.1397 46.1816C70.9064 46.144 71.6732 45.9812 72.5279 45.8684C69.8757 41.2957 71.824 37.437 74.1997 33.3403C72.8296 33.4405 71.6606 33.3904 70.567 33.6409C68.0656 34.2172 65.5768 34.4678 63.0251 34.0419C58.9148 33.3528 55.521 31.2982 52.567 28.4668C48.1173 24.1822 45.1257 18.9329 42.7249 13.3328C41.4176 10.2885 40.3366 7.14391 39.1173 3.9367ZM10.1941 79.9199C9.70391 82.6887 8.64804 83.5656 5.85754 83.5656C5.17877 83.5656 4.5 83.5531 3.8338 83.5782C2.80307 83.6283 2.16201 84.2797 2.1243 85.282C2.07402 86.6977 2.89106 87.6373 4.33659 87.5872C13.1103 87.2865 21.8841 87.061 30.6453 86.5599C36.1257 86.2467 41.5936 85.5827 47.0363 84.9061C52.4539 84.2421 57.8464 83.3777 63.2388 82.5634C64.7472 82.3379 65.4385 81.1728 64.9483 79.732C64.4707 78.3038 63.8925 76.9132 63.3268 75.5226C62.7863 74.1695 62.1955 72.829 61.6299 71.4634C60.8757 72.0648 60.2472 72.6912 59.5056 73.1046C58.764 73.5181 58.588 73.9565 58.7765 74.7834C59.317 77.1512 57.8464 79.3436 55.521 79.707C53.5223 80.0202 51.5237 80.3083 49.5126 80.5463C47.514 80.7844 45.9176 79.4313 45.7416 77.4394C45.6913 76.8756 45.6159 76.2993 45.5405 75.6604C44.4469 75.5852 43.4162 75.5226 42.2598 75.4474C42.3352 76.3619 42.4358 77.1512 42.4609 77.9405C42.5489 80.1079 41.405 81.5235 39.2682 81.7741C36.9679 82.0372 34.6676 82.2502 32.3547 82.4005C27.6034 82.7137 22.852 82.8891 18.1131 83.3025C15.5866 83.528 13.6257 82.6135 13.3115 79.8573C13.3115 79.8072 13.236 79.7696 13.1355 79.6569C12.1676 79.7446 11.162 79.8322 10.169 79.9199H10.1941ZM18.4022 69.9601C18.0503 72.1274 17.7109 74.2071 17.3966 76.2868C17.2081 77.4895 16.7304 78.5544 15.5992 79.0806C14.6187 79.5316 14.7696 80.1454 15.1089 80.847C15.486 81.6238 16.1648 81.9119 17.0196 81.8743C19.8101 81.7365 22.6131 81.6614 25.4036 81.4609C30.0545 81.1226 34.6927 80.7217 39.331 80.3208C40.3115 80.2331 41.0405 79.5316 41.0531 78.5669C41.0656 77.4895 40.9148 76.4246 40.8394 75.3346C36.7668 74.8962 32.9581 73.919 29.2626 72.5158C25.7933 71.2003 22.2109 70.361 18.4148 69.9726L18.4022 69.9601ZM40.588 53.3227C42.6997 54.6757 45.0629 55.6028 47.6397 55.8659C49.5503 56.0538 51.5112 55.9661 53.3841 56.342C56.6145 56.9934 59.7696 56.3044 62.9497 56.0789C63.9553 56.0037 64.5335 55.2144 64.521 54.2122C64.521 53.3853 64.4832 52.5459 64.345 51.7316C64.3073 51.4685 63.9427 51.1302 63.6662 51.0676C61.6048 50.5915 59.493 50.3159 57.4818 49.7146C54.4777 48.8251 51.5615 47.6474 48.5447 46.7579C46.4455 46.1315 44.2584 45.7933 42.0461 45.3047C41.5307 48.0859 41.0656 50.6417 40.5754 53.2976L40.588 53.3227ZM65.8156 51.3182C65.8785 52.1325 65.9036 52.8341 65.9791 53.5231C66.2179 55.8659 64.8352 57.4695 62.4595 57.6073C61.2905 57.6825 60.1215 57.8078 59.0531 57.8955C60.0461 58.9353 61.0768 59.8749 61.9316 60.9648C62.3212 61.466 62.6355 61.679 63.2514 61.6038C71.0573 60.6391 78.8631 59.6995 86.6564 58.7348C88.1648 58.5469 88.9316 57.4069 88.4162 55.9786C87.4232 53.2099 86.317 50.4913 85.2486 47.7476C85.236 47.7101 85.1355 47.7101 85.148 47.7101C84.3939 48.2738 83.7151 48.8752 82.9483 49.3137C82.2947 49.677 82.169 50.0904 82.3073 50.7795C82.8478 53.448 81.264 55.5527 78.5615 55.8534C76.7388 56.0538 74.9288 56.2918 73.1187 56.5299C71.2081 56.7804 69.5363 55.5026 69.2849 53.5983C69.1969 52.9343 69.1341 52.2828 69.0587 51.5687C67.9902 51.481 66.9721 51.4059 65.8031 51.3182H65.8156ZM49.0475 65.2244C48.9972 66.6526 49.3743 67.9681 50.2416 69.0956C50.4427 69.3462 50.9707 69.5842 51.2346 69.4965C53.9623 68.5694 56.7277 67.705 59.3548 66.5399C61.3911 65.6378 61.8059 63.1949 60.4609 61.3908C60.1215 60.9273 59.7067 60.5138 59.2668 60.1505C57.2682 58.5219 54.8548 58.0082 52.3911 57.6699C52.2151 57.6449 51.926 57.7576 51.8254 57.8955C50.3045 60.1129 49.0978 62.4557 49.0349 65.2369L49.0475 65.2244ZM72.7416 41.2706C72.7039 42.6863 73.0433 44.0143 73.9106 45.1418C74.0866 45.3673 74.5768 45.5803 74.8156 45.4926C77.5307 44.6156 80.2332 43.7261 82.898 42.7489C83.8659 42.3981 84.4818 41.5838 84.7835 40.569C85.2989 38.8777 84.5196 37.6249 83.3631 36.56C81.3645 34.7184 78.8631 34.0544 76.2486 33.7286C76.0349 33.7036 75.7081 33.8163 75.595 33.9667C74.0363 36.1591 72.8045 38.4893 72.729 41.2706H72.7416ZM47.0992 75.698C47.0992 75.9736 47.0992 76.1615 47.0992 76.3494C47.1494 78.7172 47.9413 79.3687 50.2668 79.0179C51.7877 78.7924 53.3087 78.5794 54.8296 78.3915C57.0168 78.1159 57.9721 76.4747 57.1299 74.3449C53.8994 75.485 50.5307 75.723 47.0866 75.698H47.0992ZM70.655 51.6188C70.655 52.1074 70.6425 52.4833 70.655 52.8591C70.7179 54.5128 71.5223 55.252 73.1816 55.0891C75.0293 54.9012 76.8645 54.6632 78.6997 54.3625C80.6606 54.0493 81.5028 52.3455 80.6606 50.4537C77.4176 51.5437 74.0489 51.7191 70.655 51.6188Z" fill="#0D504D"/>
</svg>
